<?xml version="1.0" encoding="UTF-8"?>
<svg version="1.1" xmlns="http://www.w3.org/2000/svg" width="128" height="128">
<path d="M0 0 C13.2174861 9.72953838 23.22190661 24.66328198 26 41 C27.56815031 60.92242448 24.84184694 78.0434413 12.60546875 94.15234375 C1.88045659 106.46499551 -13.00163382 115.90206302 -29.58666992 117.20288086 C-49.80549809 117.94068686 -67.10604882 114.54965378 -82.5 100.6875 C-93.63860884 90.14994123 -101.72189146 74.88122877 -102.3359375 59.42578125 C-102.65231068 38.16308344 -102.65231068 38.16308344 -98 28 C-97.2884375 26.39511719 -97.2884375 26.39511719 -96.5625 24.7578125 C-88.48110029 8.24533714 -75.17244554 -2.60523995 -58 -9 C-38.37995812 -15.04018512 -16.87891633 -11.23899886 0 0 Z " fill="#E5E6E7" transform="translate(102,11)"/>
<path d="M0 0 C13.2174861 9.72953838 23.22190661 24.66328198 26 41 C27.56815031 60.92242448 24.84184694 78.0434413 12.60546875 94.15234375 C1.88045659 106.46499551 -13.00163382 115.90206302 -29.58666992 117.20288086 C-49.80549809 117.94068686 -67.10604882 114.54965378 -82.5 100.6875 C-93.63860884 90.14994123 -101.72189146 74.88122877 -102.3359375 59.42578125 C-102.65231068 38.16308344 -102.65231068 38.16308344 -98 28 C-97.2884375 26.39511719 -97.2884375 26.39511719 -96.5625 24.7578125 C-88.48110029 8.24533714 -75.17244554 -2.60523995 -58 -9 C-38.37995812 -15.04018512 -16.87891633 -11.23899886 0 0 Z M-76 20 C-78.67447287 23.50580186 -80.90053216 27.12528593 -83 31 C-83.43699219 31.78503906 -83.87398437 32.57007812 -84.32421875 33.37890625 C-89.32322544 44.30655946 -88.96938164 59.95213162 -85 71.1875 C-77.79181615 86.65379924 -66.78995567 95.89557842 -50.984375 101.74609375 C-38.88330408 105.43234434 -25.43787576 102.96858887 -14.375 97.375 C-1.36492007 89.77170653 6.88070554 79.47855537 11.08203125 65.03515625 C14.18012838 52.75330734 12.28925732 40.16445266 6.421875 28.99609375 C-1.23811214 16.31570963 -11.84457579 8.45210923 -26 4 C-44.64573243 0.25587702 -63.02072222 5.9413644 -76 20 Z " fill="#1B7DC4" transform="translate(102,11)"/>
<path d="M0 0 C0.77679611 -0.0099852 1.55359222 -0.0199704 2.35392761 -0.03025818 C3.99541919 -0.04542124 5.63700291 -0.05248453 7.27856445 -0.05200195 C9.7751742 -0.0585471 12.26776863 -0.11298955 14.76367188 -0.16992188 C28.11669245 -0.31013707 28.11669245 -0.31013707 32.5546875 3.4140625 C39.17606996 11.84806173 35.98046875 11.26183774 35.98046875 27.50390625 C18.82046875 27.50390625 1.66046875 27.50390625 -16.01953125 27.50390625 C-16.01953125 7.72057524 -16.01953125 7.72057524 -10.27075195 1.66040039 C-6.93968588 -0.0508305 -3.6637556 0.01642118 0 0 Z " fill="#1D7EC5" transform="translate(54.01953125,64.49609375)"/>
<path d="M0 0 C2.87877945 2.12914351 5.63499577 4.30111282 8 7 C8 7.66 8 8.32 8 9 C8.66 9 9.32 9 10 9 C15.21197031 15.63691786 18.57800124 22.96573528 21 31 C21.19335938 31.598125 21.38671875 32.19625 21.5859375 32.8125 C24.46663196 48.03126318 20.67329508 62.72851494 12.35546875 75.53125 C4.22536537 86.6224226 -7.04326201 93.15434543 -20.2109375 96.57421875 C-38.48071804 99.36330289 -52.16624437 95.28362894 -67.125 84.8125 C-77.90134566 75.25727 -84.12650333 61.32426044 -85.21875 47.1640625 C-85.68434308 32.38148214 -81.02875407 17.57168538 -70.77734375 6.61328125 C-50.12081612 -12.13648999 -23.88796427 -14.31289953 0 0 Z M-69 11 C-71.67447287 14.50580186 -73.90053216 18.12528593 -76 22 C-76.43699219 22.78503906 -76.87398437 23.57007812 -77.32421875 24.37890625 C-82.32322544 35.30655946 -81.96938164 50.95213162 -78 62.1875 C-70.79181615 77.65379924 -59.78995567 86.89557842 -43.984375 92.74609375 C-31.88330408 96.43234434 -18.43787576 93.96858887 -7.375 88.375 C5.63507993 80.77170653 13.88070554 70.47855537 18.08203125 56.03515625 C21.18012838 43.75330734 19.28925732 31.16445266 13.421875 19.99609375 C5.76188786 7.31570963 -4.84457579 -0.54789077 -19 -5 C-37.64573243 -8.74412298 -56.02072222 -3.0586356 -69 11 Z " fill="#1D679F" transform="translate(95,20)"/>
<path d="M0 0 C4.56005984 1.86547902 6.71582225 4.68544202 9 9 C9.66067786 12.96406718 9.20144076 14.61950078 7.3125 18.1875 C3.79307746 22.46787877 1.59515954 23.79744006 -3.9375 24.5 C-8.66447863 24.338853 -10.76610106 22.31277453 -14 19 C-15.84977549 15.30044901 -15.47056911 11.03799166 -15 7 C-11.28028332 0.84322757 -7.03067026 -0.86849456 0 0 Z " fill="#E8C16F" transform="translate(67,36)"/>
</svg>
