<?xml version="1.0" encoding="UTF-8"?>
<svg version="1.1" xmlns="http://www.w3.org/2000/svg" width="100" height="100">
<path d="M0 0 C5.4692299 5.0976474 9.08340003 10.62288329 9.46484375 18.21484375 C9.49609375 20.421875 9.49609375 20.421875 8.96484375 22.40234375 C5.62020634 25.70744331 2.92289248 25.7812967 -1.66796875 25.79052734 C-2.32537048 25.7957843 -2.98277222 25.80104126 -3.66009521 25.80645752 C-5.82702595 25.81963083 -7.99321841 25.8109296 -10.16015625 25.80078125 C-11.66943502 25.80280277 -13.17871285 25.80571486 -14.68798828 25.80947876 C-17.84872756 25.81389847 -21.00921223 25.80748265 -24.16992188 25.79345703 C-28.21868151 25.77636507 -32.26684452 25.78620818 -36.31558228 25.80417442 C-39.4314421 25.81502196 -42.54716079 25.81156153 -45.6630249 25.80379105 C-47.15574209 25.80179171 -48.64847216 25.80423898 -50.14117432 25.81122971 C-52.2285754 25.81886049 -54.31501422 25.80721882 -56.40234375 25.79052734 C-57.58940918 25.78814056 -58.77647461 25.78575378 -59.99951172 25.78329468 C-63.30105124 25.3689759 -64.68973228 24.72004184 -67.03515625 22.40234375 C-68.45153509 17.12216675 -66.99520748 11.9325888 -64.34375 7.30859375 C-58.31314972 -1.47628069 -49.25949889 -6.64201688 -38.91015625 -8.97265625 C-25.31089386 -11.07317926 -11.03935028 -8.6662078 0 0 Z " fill="#2680FF" transform="translate(79.03515625,65.59765625)"/>
<path d="M0 0 C1.98 0 3.96 0 6 0 C7.26237731 2.52475462 7.09856404 4.31200466 7.0625 7.125 C7.05347656 8.03507813 7.04445312 8.94515625 7.03515625 9.8828125 C7.02355469 10.58148438 7.01195312 11.28015625 7 12 C8.15757813 11.95359375 9.31515625 11.9071875 10.5078125 11.859375 C12.04684906 11.82183752 13.5859137 11.78543949 15.125 11.75 C15.88554688 11.71648438 16.64609375 11.68296875 17.4296875 11.6484375 C22.77567673 11.55626527 25.82361536 12.35650717 30 16 C33.65753109 20.32113377 33.45390259 24.59955629 33.375 30 C33.38660156 30.7940625 33.39820313 31.588125 33.41015625 32.40625 C33.38689105 37.05928973 33.11292958 40.30254652 30 44 C25.3371364 47.76620305 20.7804772 47.43614133 15.0625 47.3984375 C14.10480713 47.40130768 13.14711426 47.40417786 12.16040039 47.40713501 C10.13980517 47.4091724 8.11919008 47.40366533 6.09863281 47.39111328 C3.01061791 47.37505521 -0.07608818 47.39097323 -3.1640625 47.41015625 C-5.13021121 47.40817376 -7.09635912 47.40432997 -9.0625 47.3984375 C-9.98345459 47.40451019 -10.90440918 47.41058289 -11.85327148 47.4168396 C-16.71992339 47.36359855 -20.05962836 47.18264504 -24 44 C-27.64842892 39.6664949 -27.45388069 35.39894469 -27.375 30 C-27.38660156 29.2059375 -27.39820312 28.411875 -27.41015625 27.59375 C-27.3868468 22.93186009 -27.12550201 19.69257621 -24 16 C-19.09512761 11.72097186 -15.31397213 11.47726563 -9.125 11.75 C-7.949375 11.77707031 -7.949375 11.77707031 -6.75 11.8046875 C-4.83279811 11.85144852 -2.91623285 11.92317997 -1 12 C-1.01160156 11.30132812 -1.02320312 10.60265625 -1.03515625 9.8828125 C-1.04417969 8.97273437 -1.05320312 8.06265625 -1.0625 7.125 C-1.07410156 6.22007812 -1.08570312 5.31515625 -1.09765625 4.3828125 C-1 2 -1 2 0 0 Z " fill="#2781FF" transform="translate(47,0)"/>
<path d="M0 0 C3.36344489 2.48602449 4.80057749 3.91425523 5.5625 8.0625 C5 11 5 11 3.5 13.375 C0.46640767 15.34683501 -1.51931016 15.64552934 -5.08984375 15.4453125 C-7 15 -7 15 -9.5625 12.9375 C-11.44610971 9.08838451 -11.207644 7.07579849 -10 3 C-7.0879799 -0.34343049 -4.29142741 -0.70064121 0 0 Z " fill="#B0D0FF" transform="translate(67,22)"/>
<path d="M0 0 C2.9375 2.0625 2.9375 2.0625 5 5 C5 8.51955419 4.63108355 10.84920059 2.9375 13.9375 C-0.27905997 15.70141999 -3.49385409 15.73924763 -7 15 C-9.5625 12.9375 -9.5625 12.9375 -11 10 C-11 6.1862249 -10.84985071 3.97575452 -8.3125 1.0625 C-5.2135552 -0.3613395 -3.37817188 -0.55153827 0 0 Z " fill="#A2C8FF" transform="translate(39,22)"/>
<path d="M0 0 C1.98 0 3.96 0 6 0 C7.26237731 2.52475462 7.09856404 4.31200466 7.0625 7.125 C7.05347656 8.03507813 7.04445312 8.94515625 7.03515625 9.8828125 C7.02355469 10.58148438 7.01195312 11.28015625 7 12 C9.64 12 12.28 12 15 12 C14.67 12.66 14.34 13.32 14 14 C10.7 14 7.4 14 4 14 C4 10.04 4 6.08 4 2 C3.34 2 2.68 2 2 2 C2 5.96 2 9.92 2 14 C-0.07861328 14.03867187 -0.07861328 14.03867187 -2.19921875 14.078125 C-4.0286769 14.13441602 -5.85810276 14.19176313 -7.6875 14.25 C-9.05551758 14.27126953 -9.05551758 14.27126953 -10.45117188 14.29296875 C-14.77191384 14.45008664 -17.35008457 14.59472954 -21.08203125 16.921875 C-24.63642136 20.77306754 -24.31433126 24.61280502 -24.5625 29.625 C-24.60568359 30.42679688 -24.64886719 31.22859375 -24.69335938 32.0546875 C-24.79951457 34.0362511 -24.90026855 36.01810271 -25 38 C-25.66 38 -26.32 38 -27 38 C-27.08126109 35.27022936 -27.14061663 32.5428983 -27.1875 29.8125 C-27.21263672 29.04357422 -27.23777344 28.27464844 -27.26367188 27.48242188 C-27.3236988 22.82033069 -27.13768156 19.70338516 -24 16 C-19.09512761 11.72097186 -15.31397213 11.47726563 -9.125 11.75 C-7.949375 11.77707031 -7.949375 11.77707031 -6.75 11.8046875 C-4.83279811 11.85144852 -2.91623285 11.92317997 -1 12 C-1.01160156 11.30132812 -1.02320312 10.60265625 -1.03515625 9.8828125 C-1.04417969 8.97273437 -1.05320312 8.06265625 -1.0625 7.125 C-1.07410156 6.22007812 -1.08570312 5.31515625 -1.09765625 4.3828125 C-1 2 -1 2 0 0 Z " fill="#6DAAFF" transform="translate(47,0)"/>
<path d="M0 0 C0 0.33 0 0.66 0 1 C-0.58378418 1.01458252 -1.16756836 1.02916504 -1.76904297 1.04418945 C-4.47161959 1.11969085 -7.17309464 1.21600338 -9.875 1.3125 C-10.7928125 1.33505859 -11.710625 1.35761719 -12.65625 1.38085938 C-22.99586159 1.78133729 -32.02847094 4.16943407 -40 11 C-45.41899541 17.11344651 -47.25743999 20.89064037 -47 29 C-44.94077598 31.05922402 -40.78291876 30.41427579 -37.9375 30.5625 C-36.79958008 30.62727539 -36.79958008 30.62727539 -35.63867188 30.69335938 C-33.75934562 30.79973633 -31.87969756 30.90039934 -30 31 C-30.33 31.66 -30.66 32.32 -31 33 C-33.41734542 33.08117951 -35.83194949 33.14056926 -38.25 33.1875 C-38.93191406 33.21263672 -39.61382812 33.23777344 -40.31640625 33.26367188 C-43.42073132 33.30888049 -45.66593636 33.17022351 -48.453125 31.75 C-50.87280358 29.01258585 -50.55566155 26.92034447 -50.37890625 23.40234375 C-49.22590354 16.09206883 -44.77036161 10.42359858 -39 6 C-27.03458575 -1.34126262 -13.5620903 -4.7172488 0 0 Z " fill="#8EBBFF" transform="translate(62,58)"/>
<path d="M0 0 C2.21306247 0.88522499 3.68877262 1.57520193 5.11328125 3.51953125 C6.46351886 7.29662763 6.32848625 10.95692433 6.3125 14.9375 C6.32861328 15.73607422 6.34472656 16.53464844 6.36132812 17.35742188 C6.365205 22.03680593 6.14282816 25.28201374 3 29 C-0.96148223 31.90842999 -3.74113922 32.35971042 -8.61328125 32.29296875 C-9.86044922 32.28330078 -11.10761719 32.27363281 -12.39257812 32.26367188 C-13.68615234 32.23853516 -14.97972656 32.21339844 -16.3125 32.1875 C-18.28186523 32.16719727 -18.28186523 32.16719727 -20.29101562 32.14648438 C-23.52776077 32.11117443 -26.76367105 32.0618528 -30 32 C-30 31.67 -30 31.34 -30 31 C-25.72997487 30.39561209 -21.55045368 29.93910478 -17.23828125 29.82421875 C-16.02495117 29.78844727 -16.02495117 29.78844727 -14.78710938 29.75195312 C-13.12592055 29.70868617 -11.46437336 29.67759969 -9.80273438 29.65820312 C-5.75324487 29.51878916 -3.50071171 29.30768184 0.01953125 27.14453125 C3.60338988 23.26378492 3.21416372 19.0661409 3.25 14.0625 C3.270625 13.34642578 3.29125 12.63035156 3.3125 11.89257812 C3.34468839 7.55116914 2.94161799 5.21255649 0 2 C0 1.34 0 0.68 0 0 Z " fill="#69A8FF" transform="translate(74,15)"/>
<path d="M0 0 C5.95088699 4.41301732 10.19274353 8.87350532 11.37890625 16.40625 C11.59845919 20.76897935 11.59845919 20.76897935 11 23 C8.64735373 25.32297325 7.29280402 25.96702764 3.97558594 26.34057617 C2.82348633 26.32486572 1.67138672 26.30915527 0.484375 26.29296875 C-0.76601562 26.28330078 -2.01640625 26.27363281 -3.3046875 26.26367188 C-4.60664062 26.23853516 -5.90859375 26.21339844 -7.25 26.1875 C-8.56742188 26.17396484 -9.88484375 26.16042969 -11.2421875 26.14648438 C-14.49520321 26.11112551 -17.747396 26.06177033 -21 26 C-20.67 25.34 -20.34 24.68 -20 24 C-19.22285645 23.97494385 -18.44571289 23.9498877 -17.64501953 23.92407227 C-14.13816931 23.80833204 -10.63160255 23.68550648 -7.125 23.5625 C-5.29001953 23.50352539 -5.29001953 23.50352539 -3.41796875 23.44335938 C-2.25136719 23.40146484 -1.08476563 23.35957031 0.1171875 23.31640625 C1.19597168 23.27974854 2.27475586 23.24309082 3.38623047 23.20532227 C5.98069536 23.16623357 5.98069536 23.16623357 8 22 C8.80775534 14.59557608 6.59175214 10.73374231 2 5 C1.34 4.34 0.68 3.68 0 3 C0 2.01 0 1.02 0 0 Z " fill="#62A2FF" transform="translate(77,65)"/>
<path d="M0 0 C0 4 0 4 -1.390625 5.95703125 C-2.00421875 6.56933594 -2.6178125 7.18164062 -3.25 7.8125 C-3.85328125 8.43769531 -4.4565625 9.06289063 -5.078125 9.70703125 C-7 11 -7 11 -9.234375 10.69921875 C-9.81703125 10.46847656 -10.3996875 10.23773438 -11 10 C-10.51644989 3.59296098 -10.51644989 3.59296098 -8.3125 1.0625 C-5.40913094 -0.27148038 -3.15869424 -0.21536552 0 0 Z " fill="#AFD0FF" transform="translate(39,22)"/>
<path d="M0 0 C0.66 0.66 1.32 1.32 2 2 C0.78763672 2.03867188 0.78763672 2.03867188 -0.44921875 2.078125 C-7.1408917 2.3534127 -7.1408917 2.3534127 -13.1875 4.9375 C-16.60196351 8.82292399 -16.3168768 12.66421666 -16.5625 17.625 C-16.60568359 18.42679688 -16.64886719 19.22859375 -16.69335938 20.0546875 C-16.79951457 22.0362511 -16.90026855 24.01810271 -17 26 C-17.66 26 -18.32 26 -19 26 C-19.08126109 23.27022936 -19.14061663 20.5428983 -19.1875 17.8125 C-19.21263672 17.04357422 -19.23777344 16.27464844 -19.26367188 15.48242188 C-19.32408979 10.78996366 -19.01353534 7.82761835 -16 4 C-11.13394759 -0.39131559 -6.31993851 -0.97754445 0 0 Z " fill="#86B8FF" transform="translate(39,12)"/>
<path d="M0 0 C0 0.33 0 0.66 0 1 C-3.93671041 1.22561734 -7.87428535 1.42752827 -11.8125 1.625 C-12.93205078 1.68945312 -14.05160156 1.75390625 -15.20507812 1.8203125 C-16.27822266 1.871875 -17.35136719 1.9234375 -18.45703125 1.9765625 C-19.9416687 2.05511475 -19.9416687 2.05511475 -21.45629883 2.13525391 C-24 2 -24 2 -27 0 C-17.65576734 -2.22671076 -9.19570364 -3.19850562 0 0 Z " fill="#65A4FF" transform="translate(62,58)"/>
<path d="M0 0 C0.33 0 0.66 0 1 0 C1.66 1.98 2.32 3.96 3 6 C8.28 6.33 13.56 6.66 19 7 C18.67 7.66 18.34 8.32 18 9 C15.58265458 9.08117951 13.16805051 9.14056926 10.75 9.1875 C10.06808594 9.21263672 9.38617188 9.23777344 8.68359375 9.26367188 C5.40800711 9.31137459 3.34651444 9.21085076 0.515625 7.48828125 C0.01546875 6.99714844 -0.4846875 6.50601563 -1 6 C-0.67 4.02 -0.34 2.04 0 0 Z " fill="#65A5FF" transform="translate(13,82)"/>
<path d="M0 0 C0.99 0 1.98 0 3 0 C3 3.3 3 6.6 3 10 C5.64 10 8.28 10 11 10 C10.67 10.66 10.34 11.32 10 12 C6.7 12 3.4 12 0 12 C0 8.04 0 4.08 0 0 Z " fill="#5198FF" transform="translate(51,2)"/>
<path d="M0 0 C-0.93274109 1.12894876 -1.87140122 2.25300876 -2.8125 3.375 C-3.33457031 4.00148438 -3.85664062 4.62796875 -4.39453125 5.2734375 C-6 7 -6 7 -9 9 C-9.25 6.1875 -9.25 6.1875 -9 3 C-6.24653799 -0.05940224 -4.00406942 -0.33367245 0 0 Z " fill="#C8DFFF" transform="translate(66,22)"/>
<path d="M0 0 C2.38536657 0.95414663 3.73911831 1.59810117 5.15625 3.78125 C6.15304965 6.40246388 6.03038956 7.99335101 5.625 10.75 C5.51414062 11.54921875 5.40328125 12.3484375 5.2890625 13.171875 C5.19367188 13.77515625 5.09828125 14.3784375 5 15 C4.67 15 4.34 15 4 15 C3.96261719 14.39671875 3.92523438 13.7934375 3.88671875 13.171875 C3.50675198 8.5526711 3.24820627 5.53065899 0 2 C0 1.34 0 0.68 0 0 Z " fill="#4F9DFF" transform="translate(74,15)"/>
<path d="M0 0 C-1.1427919 1.16964602 -2.28931715 2.33564556 -3.4375 3.5 C-4.07558594 4.1496875 -4.71367188 4.799375 -5.37109375 5.46875 C-7 7 -7 7 -8 7 C-8.25 4.6875 -8.25 4.6875 -8 2 C-5.17904206 -1.02245494 -3.81217262 -1.16927984 0 0 Z " fill="#C2DBFF" transform="translate(37,23)"/>
<path d="M0 0 C0.5775 0.7425 1.155 1.485 1.75 2.25 C3.72253526 4.66087643 5.76044282 6.84042701 8 9 C5.25 8.9375 5.25 8.9375 2 8 C0.23488701 5.77488786 -0.77297776 3.59562397 -2 1 C-1.34 0.67 -0.68 0.34 0 0 Z " fill="#4B90FF" transform="translate(22,37)"/>
<path d="M0 0 C0.33 0 0.66 0 1 0 C1.25 2.3125 1.25 2.3125 1 5 C-0.5625 6.8125 -0.5625 6.8125 -3 8 C-6.75 8.1875 -6.75 8.1875 -10 8 C-9.67 7.34 -9.34 6.68 -9 6 C-7.865625 5.71125 -6.73125 5.4225 -5.5625 5.125 C-1.94113414 4.38697108 -1.94113414 4.38697108 -0.5625 1.875 C-0.376875 1.25625 -0.19125 0.6375 0 0 Z " fill="#7CB2FF" transform="translate(87,83)"/>
<path d="M0 0 C1.98 1.65 3.96 3.3 6 5 C5.67 6.32 5.34 7.64 5 9 C0 3.375 0 3.375 0 0 Z " fill="#4B96FF" transform="translate(77,65)"/>
<path d="M0 0 C2.4375 0.75 2.4375 0.75 4.4375 2.75 C1.89047384 4.02351308 1.0092055 3.55191925 -1.6875 2.8125 C-2.41195312 2.61785156 -3.13640625 2.42320313 -3.8828125 2.22265625 C-4.43710937 2.06667969 -4.99140625 1.91070312 -5.5625 1.75 C-2.5625 -0.25 -2.5625 -0.25 0 0 Z " fill="#378EFF" transform="translate(64.5625,58.25)"/>
</svg>
