<?xml version="1.0" encoding="UTF-8"?>
<svg version="1.1" xmlns="http://www.w3.org/2000/svg" width="128" height="128">
<path d="M0 0 C12.44732688 6.24992362 20.44684022 15.17694256 25.5 28.0625 C26.23643597 30.82413488 26.30721183 33.03824655 26.25 35.875 C27.38179688 35.85179687 28.51359375 35.82859375 29.6796875 35.8046875 C31.16145175 35.78593099 32.64322312 35.76773066 34.125 35.75 C34.87136719 35.73324219 35.61773437 35.71648438 36.38671875 35.69921875 C38.34194461 35.6816041 40.29742021 35.77179811 42.25 35.875 C44.25 37.875 44.25 37.875 44.5 40.875 C44.25 43.875 44.25 43.875 42.25 45.875 C39.68083343 46.18099063 37.20241616 46.38587087 34.625 46.5 C33.56539062 46.55800781 33.56539062 46.55800781 32.484375 46.6171875 C30.74001476 46.71147724 28.99504309 46.79432891 27.25 46.875 C26.98445313 47.67164063 26.71890625 48.46828125 26.4453125 49.2890625 C24.71354167 54.484375 22.98177083 59.6796875 21.25 64.875 C22.16523437 65.77863281 23.08046875 66.68226562 24.0234375 67.61328125 C25.22409058 68.80455423 26.42460415 69.99596783 27.625 71.1875 C28.22828125 71.78240234 28.8315625 72.37730469 29.453125 72.99023438 C30.03320312 73.56708984 30.61328125 74.14394531 31.2109375 74.73828125 C31.74509277 75.26719971 32.27924805 75.79611816 32.82958984 76.34106445 C36.51266319 80.31850513 36.75762204 83.22560641 36.61328125 88.421875 C36.25 90.875 36.25 90.875 34.375 94 C30.66499946 96.22600032 28.23889664 96.82994738 23.94140625 96.625 C17.81139843 94.91678302 13.60563554 89.52508998 9.5 84.90625 C7.87533041 83.04454851 7.87533041 83.04454851 5.25 80.875 C1.83532733 80.875 -0.66477288 81.846838 -3.89453125 82.9140625 C-16.02559617 85.9376106 -28.19266929 84.49034722 -39.1328125 78.58984375 C-47.56089935 73.46156718 -54.14906282 66.09126 -57.75 56.875 C-58.10449219 56.00488281 -58.45898438 55.13476562 -58.82421875 54.23828125 C-61.69917255 43.79382883 -61.08623214 31.01837831 -56.23046875 21.34765625 C-44.63465864 1.98051166 -22.10499777 -8.85334956 0 0 Z " fill="#A6B3C7" transform="translate(77.75,14.125)"/>
<path d="M0 0 C8.50556831 4.447866 15.12804002 11.25912007 18.1875 20.4375 C18.22704234 22.77049825 18.23151732 25.10458189 18.1875 27.4375 C14.30557874 23.66975289 10.39218119 19.80952211 7.1875 15.4375 C7.1875 14.7775 7.1875 14.1175 7.1875 13.4375 C3.34154318 13.03415741 1.64561819 13.11675247 -1.57421875 15.37109375 C-2.53972656 16.19738281 -3.50523438 17.02367188 -4.5 17.875 C-12.45835156 24.13013239 -21.07052654 23.69467987 -30.8125 23.4375 C-30.8125 26.0775 -30.8125 28.7175 -30.8125 31.4375 C-15.96714554 32.92975402 -15.96714554 32.92975402 -2.5625 27.9375 C-1.3039801 26.78002915 -0.05124421 25.616111 1.1875 24.4375 C1.8475 24.4375 2.5075 24.4375 3.1875 24.4375 C5.18906664 26.60215725 7.03774498 28.76535347 8.875 31.0625 C9.39900391 31.67996094 9.92300781 32.29742187 10.46289062 32.93359375 C12.95340901 36.04265086 14.18138955 37.59425777 14.2109375 41.671875 C11.78581174 48.22526827 6.13006466 51.88392026 -0.015625 54.7109375 C-6.53687773 57.34779187 -13.89851395 57.64138812 -20.64453125 55.56640625 C-29.33463467 51.49500603 -35.36863723 45.41746475 -38.8125 36.4375 C-39.86542245 33.10440775 -39.97801118 29.98742634 -40 26.5 C-40.01417969 25.48035156 -40.02835938 24.46070312 -40.04296875 23.41015625 C-39.80694914 20.36590333 -39.09502995 18.19012357 -37.8125 15.4375 C-37.1525 16.4275 -36.4925 17.4175 -35.8125 18.4375 C-33.93369128 18.38981597 -33.93369128 18.38981597 -31.8125 17.4375 C-30.44886792 15.45803408 -29.11831356 13.4555755 -27.8125 11.4375 C-25.24665478 9.18456274 -22.65341885 7.3314459 -19.8125 5.4375 C-19.8125 4.4475 -19.8125 3.4575 -19.8125 2.4375 C-20.8025 1.7775 -21.7925 1.1175 -22.8125 0.4375 C-15.7635798 -2.82588898 -7.21975602 -2.9255707 0 0 Z " fill="#4DCDF0" transform="translate(71.8125,27.5625)"/>
<path d="M0 0 C4.26426879 1.72574847 6.08292826 4.52099709 8.6796875 8.2109375 C11.98265984 13.24247268 11.98265984 13.24247268 16.9921875 16.2109375 C18.45313597 14.95720769 18.45313597 14.95720769 19.9921875 13.2734375 C24.62316197 9.50749411 29.14838231 9.66352937 34.8671875 9.7109375 C36.15302734 9.72072632 36.15302734 9.72072632 37.46484375 9.73071289 C43.69967697 9.91842697 43.69967697 9.91842697 45.9921875 12.2109375 C46.2421875 15.2109375 46.2421875 15.2109375 45.9921875 18.2109375 C43.11124257 21.09188243 40.94562582 20.37833771 36.9296875 20.3984375 C29.35469097 20.63820985 25.32969089 23.00566955 19.9921875 28.2109375 C16.9921875 30.2109375 16.9921875 30.2109375 14.16796875 30.265625 C9.67378483 28.7730916 7.90240244 26.07826997 5.1796875 22.3359375 C4.69048828 21.69785156 4.20128906 21.05976562 3.69726562 20.40234375 C1.61059608 17.63743446 0.09864692 15.53031577 -1.0078125 12.2109375 C-1.64203125 12.7884375 -2.27625 13.3659375 -2.9296875 13.9609375 C-9.85051829 19.46701282 -14.82417885 20.96772628 -23.5703125 20.8984375 C-24.45106445 20.89263672 -25.33181641 20.88683594 -26.23925781 20.88085938 C-32.43116823 20.64593594 -32.43116823 20.64593594 -34.78491211 18.87036133 C-36.0078125 17.2109375 -36.0078125 17.2109375 -35.8203125 14.0859375 C-35.5521875 13.1371875 -35.2840625 12.1884375 -35.0078125 11.2109375 C-32.44396521 9.92901385 -30.25993353 10.2064945 -27.4465332 10.22412109 C-18.04798852 10.16908136 -12.96967448 8.1207806 -5.83984375 2.046875 C-3.0078125 0.2109375 -3.0078125 0.2109375 0 0 Z " fill="#9B36C2" transform="translate(76.0078125,39.7890625)"/>
<path d="M0 0 C0.89267578 0.00322266 1.78535156 0.00644531 2.70507812 0.00976562 C3.63384766 0.01814453 4.56261719 0.02652344 5.51953125 0.03515625 C6.93008789 0.04192383 6.93008789 0.04192383 8.36914062 0.04882812 C10.69016837 0.06060999 13.01106769 0.07706067 15.33203125 0.09765625 C14.63905804 4.41266471 13.70561331 6.23522298 10.33203125 9.09765625 C7.68903265 10.41915555 5.26861121 10.50136144 2.33203125 10.84765625 C-7.63302842 12.37482637 -14.53556738 15.785216 -20.9765625 23.64453125 C-25.40350332 30.06512902 -26.84830602 36.23063163 -27.4140625 43.8984375 C-27.77545024 47.02861131 -28.50820551 48.79390879 -30.66796875 51.09765625 C-32.98518592 51.81834582 -35.31858613 52.48996375 -37.66796875 53.09765625 C-38.35812799 37.57674189 -37.65643782 25.12768637 -26.66796875 13.09765625 C-19.82947336 5.89765449 -10.17495414 -0.06480863 0 0 Z " fill="#C0C9D7" transform="translate(55.66796875,11.90234375)"/>
<path d="M0 0 C0.88675415 -0.00570007 1.7735083 -0.01140015 2.68713379 -0.01727295 C4.55963973 -0.02668191 6.43216192 -0.03324052 8.3046875 -0.03710938 C11.12009963 -0.0467512 13.93476069 -0.07778746 16.75 -0.109375 C40.75361678 -0.24819161 40.75361678 -0.24819161 49.65625 4.203125 C49.65625 5.523125 49.65625 6.843125 49.65625 8.203125 C48.13754302 8.688989 46.61614301 9.16643701 45.09375 9.640625 C44.24683594 9.90746094 43.39992188 10.17429687 42.52734375 10.44921875 C36.1487836 12.12413318 29.8615874 12.37293778 23.3125 12.40625 C22.42574585 12.41195007 21.5389917 12.41765015 20.62536621 12.42352295 C18.75286027 12.43293191 16.88033808 12.43949052 15.0078125 12.44335938 C12.19240037 12.4530012 9.37773931 12.48403746 6.5625 12.515625 C-17.44111678 12.65444161 -17.44111678 12.65444161 -26.34375 8.203125 C-26.34375 6.883125 -26.34375 5.563125 -26.34375 4.203125 C-24.82504302 3.717261 -23.30364301 3.23981299 -21.78125 2.765625 C-20.93433594 2.49878906 -20.08742188 2.23195313 -19.21484375 1.95703125 C-12.8362836 0.28211682 -6.5490874 0.03331222 0 0 Z " fill="#000000" transform="translate(56.34375,115.796875)"/>
<path d="M0 0 C4.59661721 0.85159163 6.98540371 3.61318098 10.125 6.875 C10.66253906 7.41769531 11.20007813 7.96039063 11.75390625 8.51953125 C18.29053438 15.18656592 18.29053438 15.18656592 18.4375 20.875 C18.33561505 24.54285835 18.06821397 25.88631005 16.125 29.125 C12.41316227 31.35210264 9.98732845 31.95724604 5.6875 31.74609375 C0.25552064 30.23808785 -3.21733581 25.97842812 -7 22 C-8.3744975 20.68697377 -9.74943461 19.37440743 -11.125 18.0625 C-12.8203125 16.41015625 -12.8203125 16.41015625 -14 15 C-14 14.34 -14 13.68 -14 13 C-12.4609375 11.73828125 -12.4609375 11.73828125 -10.375 10.3125 C-6.24618451 7.33710805 -3.1216563 3.99666602 0 0 Z " fill="#DA7200" transform="translate(96,79)"/>
<path d="M0 0 C1.13437515 2.8291043 1.00369234 3.98868284 0.0390625 6.9453125 C-0.42757812 7.99460937 -0.89421875 9.04390625 -1.375 10.125 C-1.83648437 11.17945312 -2.29796875 12.23390625 -2.7734375 13.3203125 C-3.49240325 14.89104658 -4.2274565 16.454913 -5 18 C-5.66 18 -6.32 18 -7 18 C-7.39251953 18.87785156 -7.39251953 18.87785156 -7.79296875 19.7734375 C-10.30214718 24.40201906 -14.23073025 28.13418715 -18.9375 30.4375 C-19.618125 30.623125 -20.29875 30.80875 -21 31 C-21 31.66 -21 32.32 -21 33 C-31.07436764 37.4248203 -40.23596845 37.43056126 -51 37 C-52 34 -52 34 -50.75 31.4375 C-48.24559835 27.94922627 -46.53746152 27.09317515 -42.3046875 26.359375 C-41.59304443 26.26188965 -40.88140137 26.1644043 -40.14819336 26.06396484 C-28.0369949 24.39121205 -21.74937363 20.40519887 -13.83984375 11.0390625 C-11.51844472 8.46630179 -8.95025384 6.79580669 -6 5 C-3.95187261 3.38404628 -1.98141829 1.69835854 0 0 Z " fill="#8F98A9" transform="translate(103,61)"/>
<path d="M0 0 C0.33 1.32 0.66 2.64 1 4 C0.40832031 4.42410156 -0.18335937 4.84820312 -0.79296875 5.28515625 C-5.91833002 9.08946192 -9.58601897 12.60370741 -13 18 C-14.32 17.67 -15.64 17.34 -17 17 C-17.37390765 11.88102618 -15.83042903 9.74908107 -12.71484375 5.87109375 C-8.977464 1.79317826 -5.64426784 -0.66403151 0 0 Z " fill="#F6FCFD" transform="translate(52,29)"/>
<path d="M0 0 C1.0326802 2.78823655 1.04509293 3.8677274 0.0625 6.75 C-0.288125 7.4925 -0.63875 8.235 -1 9 C-3.31 8.67 -5.62 8.34 -8 8 C-5.58443874 4.80800833 -3.31996462 2.25283313 0 0 Z " fill="#A8AFC7" transform="translate(103,61)"/>
</svg>
