<svg width="128" height="128" version="1.1" xmlns="http://www.w3.org/2000/svg" desc="Created with imagetracer.js version 1.2.6" ><path fill="rgb(0,0,0)" stroke="rgb(0,0,0)" stroke-width="1" opacity="0" d="M 0 0 L 69 0.5 L 68 7 L 70.5 8 L 82.5 9 L 91.5 12 Q 102 17 109 25.5 L 118 41.5 L 121 60 L 127.5 59 L 128 128 L 92 127.5 Q 106.7 121.7 115 109.5 L 115 104.5 L 86.5 76 L 82.5 76 L 68.5 90 L 66.5 90 Q 54.8 82.8 46 72.5 L 37 59.5 L 52 44.5 L 52 41.5 L 23.5 13 L 20.5 12 L 4 27.5 L 0.5 36 L 0 0 Z M 70 15 Q 67 17 68 22 L 84 25 L 94 31 Q 100 36 103 45 L 106 60 Q 111 61 113 59 L 112 44 L 106 32 Q 99 23 90 18 L 81 15 L 70 15 Z M 70 30 Q 67 32 68 37 Q 70 39 76 38 L 84 42 L 89 50 L 91 60 Q 96 61 98 59 L 98 50 L 93 40 L 82 31 L 70 30 Z M 70 45 Q 67 47 68 52 L 73 53 Q 76 55 76 60 Q 81 61 83 59 L 82 50 Q 80 43 70 45 Z " /><path fill="rgb(0,0,0)" stroke="rgb(0,0,0)" stroke-width="1" opacity="0" d="M 82.5 0 L 128 0 L 128 45.5 L 127 45.5 Q 122.9 22.1 106.5 11 L 92.5 3 L 82.5 1 L 82.5 0 Z " /><path fill="rgb(0,0,0)" stroke="rgb(0,0,0)" stroke-width="1" opacity="0" d="M 0.5 51 Q 14.1 83.9 39.5 105 Q 55.5 119 77 127.5 L 0 128 L 0.5 51 Z " /><path fill="rgb(126,232,129)" stroke="rgb(126,232,129)" stroke-width="1" opacity="0.9450980392156862" d="M 19.5 13 L 22.5 13 L 51 41.5 L 51 44.5 L 39.5 56 L 8 24.5 L 19.5 13 Z " /><path fill="rgb(19,205,245)" stroke="rgb(19,205,245)" stroke-width="1" opacity="0.8862745098039215" d="M 69.5 0 L 81.5 0 L 92.5 3 Q 107.7 9.3 117 21.5 L 127 41.5 L 128 58.5 Q 126.4 61.5 121 60 L 120 57.5 L 119 45.5 L 116 36.5 Q 111 26 102.5 19 L 86.5 10 L 68 7 Q 66.5 1.6 69.5 0 Z " /><path fill="rgb(19,205,245)" stroke="rgb(19,205,245)" stroke-width="1" opacity="0.8862745098039215" d="M 69.5 15 L 80.5 15 L 89.5 18 Q 99.5 23 106 31.5 L 112 43.5 L 113 58.5 Q 111.4 61.5 106 60 L 103 44.5 Q 99.8 36.2 93.5 31 L 83.5 25 L 68 22 Q 66.5 16.6 69.5 15 Z " /><path fill="rgb(19,205,245)" stroke="rgb(19,205,245)" stroke-width="1" opacity="0.8862745098039215" d="M 69.5 30 L 81.5 31 L 93 39.5 L 98 49.5 L 98 58.5 Q 96.4 61.5 91 60 L 89 49.5 L 83.5 42 L 75.5 38 Q 70.1 38.6 68 37 Q 66.5 31.6 69.5 30 Z " /><path fill="rgb(19,205,245)" stroke="rgb(19,205,245)" stroke-width="1" opacity="0.8862745098039215" d="M 69.5 45 Q 79.6 43.4 82 49.5 L 83 58.5 Q 81.4 61.5 76 60 Q 76.1 55.1 72.5 53 L 68 52 Q 66.5 46.6 69.5 45 Z " /><path fill="rgb(87,199,129)" stroke="rgb(87,199,129)" stroke-width="1" opacity="0.43529411764705883" d="M 18.5 13 L 5 27.5 L 1.5 35 L 1 33.5 L 4 27.5 L 18.5 13 Z " /><path fill="rgb(87,199,129)" stroke="rgb(87,199,129)" stroke-width="1" opacity="0.43529411764705883" d="M 23.5 13 L 52 41.5 L 52 44.5 L 37 59.5 L 38 60.5 Q 43.6 71.9 53 79.5 L 45 72.5 L 36 59.5 L 51 44.5 L 51 41.5 L 23.5 13 Z " /><path fill="rgb(87,199,129)" stroke="rgb(87,199,129)" stroke-width="1" opacity="0.43529411764705883" d="M 0.5 36 L 1 39.5 L 0 39.5 L 0.5 36 Z " /><path fill="rgb(87,199,129)" stroke="rgb(87,199,129)" stroke-width="1" opacity="0.43529411764705883" d="M 0.5 47 L 2 52.5 L 1 52.5 L 0.5 47 Z " /><path fill="rgb(87,199,129)" stroke="rgb(87,199,129)" stroke-width="1" opacity="0.43529411764705883" d="M 2.5 54 L 7 62.5 L 5 61.5 L 2.5 54 Z " /><path fill="rgb(87,199,129)" stroke="rgb(87,199,129)" stroke-width="1" opacity="0.43529411764705883" d="M 7.5 64 Q 20.5 87.5 40 104.5 L 24 89.5 L 12 73.5 L 7.5 64 Z " /><path fill="rgb(87,199,129)" stroke="rgb(87,199,129)" stroke-width="1" opacity="0.43529411764705883" d="M 82.5 76 L 86.5 76 L 115 104.5 L 114.5 106 L 86.5 77 L 82.5 77 L 67.5 91 L 67.5 90 L 82.5 76 Z " /><path fill="rgb(87,199,129)" stroke="rgb(87,199,129)" stroke-width="1" opacity="0.43529411764705883" d="M 56.5 82 L 59.5 86 L 56.5 82 Z " /><path fill="rgb(87,199,129)" stroke="rgb(87,199,129)" stroke-width="1" opacity="0.43529411764705883" d="M 61.5 86 L 62.5 88 L 61.5 86 Z " /><path fill="rgb(87,199,129)" stroke="rgb(87,199,129)" stroke-width="1" opacity="0.43529411764705883" d="M 64.5 88 L 65.5 90 L 64.5 88 Z " /><path fill="rgb(87,199,129)" stroke="rgb(87,199,129)" stroke-width="1" opacity="0.43529411764705883" d="M 41.5 105 L 44.5 109 L 41.5 105 Z " /><path fill="rgb(87,199,129)" stroke="rgb(87,199,129)" stroke-width="1" opacity="0.43529411764705883" d="M 114.5 108 L 115 109.5 L 102 121.5 L 114.5 108 Z " /><path fill="rgb(87,199,129)" stroke="rgb(87,199,129)" stroke-width="1" opacity="0.43529411764705883" d="M 46.5 109 L 48.5 112 L 46.5 109 Z " /><path fill="rgb(87,199,129)" stroke="rgb(87,199,129)" stroke-width="1" opacity="0.43529411764705883" d="M 50.5 112 L 51.5 114 L 50.5 112 Z " /><path fill="rgb(87,199,129)" stroke="rgb(87,199,129)" stroke-width="1" opacity="0.43529411764705883" d="M 53.5 114 L 54.5 116 L 53.5 114 Z " /><path fill="rgb(87,199,129)" stroke="rgb(87,199,129)" stroke-width="1" opacity="0.43529411764705883" d="M 56.5 116 L 57.5 118 L 56.5 116 Z " /><path fill="rgb(87,199,129)" stroke="rgb(87,199,129)" stroke-width="1" opacity="0.43529411764705883" d="M 61.5 119 L 62.5 121 L 61.5 119 Z " /><path fill="rgb(87,199,129)" stroke="rgb(87,199,129)" stroke-width="1" opacity="0.43529411764705883" d="M 99.5 123 L 98.5 125 L 99.5 123 Z " /><path fill="rgb(1,171,94)" stroke="rgb(1,171,94)" stroke-width="1" opacity="0.9803921568627451" d="M 50.5 78 Q 57.7 86.3 68.5 91 L 71.5 88 L 103 119.5 L 100.5 123 L 89.5 128 L 79.5 128 Q 50.8 117.2 32 96.5 L 50.5 78 Z " /><path fill="rgb(90,200,127)" stroke="rgb(90,200,127)" stroke-width="1" opacity="0.996078431372549" d="M 7.5 25 L 39 55.5 L 36 59.5 L 50 78.5 L 31.5 96 Q 17 82 7 63.5 L 1 50.5 L 0 40.5 L 1 35.5 L 7.5 25 Z " /><path fill="rgb(90,200,127)" stroke="rgb(90,200,127)" stroke-width="1" opacity="0.996078431372549" d="M 82.5 77 L 86.5 77 L 114 104.5 L 115 107.5 L 103.5 120 L 72 87.5 L 82.5 77 Z " /></svg>