<?xml version="1.0" encoding="UTF-8"?>
<svg version="1.1" xmlns="http://www.w3.org/2000/svg" width="64" height="64">
<path d="M0 0 C4.44460123 2.14293274 7.35372476 4.84156748 10 9 C10.32849278 10.32474138 10.61799711 11.65955353 10.875 13 C11.84716676 17.72704939 14.17095179 19.23005023 18 22 C19.98141781 25.96283561 19.55820645 30.69210238 19 35 C17.35551311 38.17852316 15.24396473 40.37801764 12 42 C10.58208665 42.10933972 9.1593134 42.15898306 7.73730469 42.17700195 C6.85588806 42.18983719 5.97447144 42.20267242 5.06634521 42.21589661 C4.11117004 42.22328354 3.15599487 42.23067047 2.171875 42.23828125 C1.19011292 42.246353 0.20835083 42.25442474 -0.80316162 42.26274109 C-2.88454418 42.27658792 -4.9659495 42.28730739 -7.04736328 42.29516602 C-10.22342298 42.31235615 -13.39843574 42.35623456 -16.57421875 42.40039062 C-18.59634651 42.4105195 -20.61848312 42.41903499 -22.640625 42.42578125 C-24.06124237 42.45204338 -24.06124237 42.45204338 -25.51055908 42.47883606 C-31.32918373 42.45979546 -34.54487702 41.82983473 -39 38 C-41.9223792 33.79380104 -41.63554807 28.92162222 -41 24 C-38.30120482 18.5060241 -38.30120482 18.5060241 -34.75 17.125 C-34.1725 17.08375 -33.595 17.0425 -33 17 C-32.9175 16.071875 -32.835 15.14375 -32.75 14.1875 C-32 11 -32 11 -30.375 9.1875 C-28 8 -28 8 -24.6875 7.6875 C-20.33209893 6.87547607 -18.61098338 5.355078 -15.48046875 2.375 C-11.34959905 -1.46158611 -5.26773976 -0.49643621 0 0 Z " fill="#2881FF" transform="translate(43,8)"/>
<path d="M0 0 C0.99 0.33 1.98 0.66 3 1 C3.33 4.63 3.66 8.26 4 12 C5.32 11.34 6.64 10.68 8 10 C8 14 8 14 6.6875 15.703125 C6.130625 16.21359375 5.57375 16.7240625 5 17.25 C4.443125 17.77078125 3.88625 18.2915625 3.3125 18.828125 C2.6628125 19.40820312 2.6628125 19.40820312 2 20 C-1.81684226 18.44499019 -4.19195732 15.96404505 -7 13 C-6.67 12.01 -6.34 11.02 -6 10 C-4.68 10.66 -3.36 11.32 -2 12 C-1.93941406 11.21753906 -1.87882812 10.43507813 -1.81640625 9.62890625 C-1.73261719 8.61699219 -1.64882813 7.60507812 -1.5625 6.5625 C-1.48128906 5.55316406 -1.40007813 4.54382813 -1.31640625 3.50390625 C-1 1 -1 1 0 0 Z " fill="#B2D2FF" transform="translate(41,24)"/>
<path d="M0 0 C3.81684226 1.55500981 6.19195732 4.03595495 9 7 C8.67 7.99 8.34 8.98 8 10 C6.68 9.34 5.36 8.68 4 8 C3.67 11.63 3.34 15.26 3 19 C1.68 19 0.36 19 -1 19 C-1.33 15.37 -1.66 11.74 -2 8 C-3.98 8.99 -3.98 8.99 -6 10 C-6 6 -6 6 -4.6875 4.296875 C-4.130625 3.78640625 -3.57375 3.2759375 -3 2.75 C-2.1646875 1.96882813 -2.1646875 1.96882813 -1.3125 1.171875 C-0.879375 0.78515625 -0.44625 0.3984375 0 0 Z " fill="#A9CCFF" transform="translate(23,22)"/>
<path d="M0 0 C1.04929688 -0.02578125 2.09859375 -0.0515625 3.1796875 -0.078125 C6.43056586 0.28404182 7.74850767 1.06867854 10.125 3.25 C9.3 3.085 8.475 2.92 7.625 2.75 C0.11403901 1.67700557 -3.87795458 1.66231847 -10.2109375 5.86328125 C-12.13638531 7.3343156 -12.13638531 7.3343156 -13.875 10.25 C-14.803125 10.20875 -15.73125 10.1675 -16.6875 10.125 C-20.07072211 9.93612086 -20.07072211 9.93612086 -22.6875 12.5625 C-25.02507563 15.11085624 -25.02507563 15.11085624 -25.875 18.25 C-27.85456942 19.94088222 -29.85445196 21.60830472 -31.875 23.25 C-34.01499677 27.52999354 -32.96821611 32.74048355 -31.875 37.25 C-33.95276754 35.55802484 -34.79801562 34.65295429 -35.30859375 31.98046875 C-35.31735276 26.27835552 -34.92344894 22.63581968 -30.875 18.25 C-28.625 17.375 -28.625 17.375 -26.875 17.25 C-26.7925 16.321875 -26.71 15.39375 -26.625 14.4375 C-25.875 11.25 -25.875 11.25 -24.25 9.4375 C-21.875 8.25 -21.875 8.25 -18.5625 7.9375 C-14.20709893 7.12547607 -12.48598338 5.605078 -9.35546875 2.625 C-6.40781708 -0.11266065 -3.91172759 0.05738476 0 0 Z " fill="#7CB2FF" transform="translate(36.875,7.75)"/>
<path d="M0 0 C3.16115776 1.36983503 3.9927092 1.9890638 6 5 C6.65237324 9.37433428 7.03401151 14.01269906 4.94921875 18.01953125 C3.19367363 20.14793551 1.47623989 21.76188006 -1 23 C-3.10528933 23.08543895 -5.21331157 23.10714725 -7.3203125 23.09765625 C-8.57714844 23.09443359 -9.83398438 23.09121094 -11.12890625 23.08789062 C-12.44761719 23.07951172 -13.76632813 23.07113281 -15.125 23.0625 C-16.46484211 23.05748489 -17.804686 23.05292201 -19.14453125 23.04882812 C-22.42973206 23.03701086 -25.71484397 23.02053617 -29 23 C-29 22.67 -29 22.34 -29 22 C-28.27409668 21.98541748 -27.54819336 21.97083496 -26.80029297 21.95581055 C-23.49134268 21.88105141 -20.18337048 21.7844821 -16.875 21.6875 C-15.73289062 21.66494141 -14.59078125 21.64238281 -13.4140625 21.61914062 C-5.27205095 21.42377031 -5.27205095 21.42377031 2 18 C4.02678624 14.91576007 4.11423949 12.44995702 3.8125 8.875 C3.03847104 5.18347725 2.81788188 4.20529886 0 2 C0 1.34 0 0.68 0 0 Z " fill="#6AA9FF" transform="translate(56,27)"/>
<path d="M0 0 C0.99 0.33 1.98 0.66 3 1 C2.1875 2.9375 2.1875 2.9375 1 5 C0.01 5.33 -0.98 5.66 -2 6 C-3.20882096 8.00016466 -3.20882096 8.00016466 -4 10 C-4.99 9.67 -5.98 9.34 -7 9 C-5.44499019 5.18315774 -2.96404505 2.80804268 0 0 Z " fill="#C7DEFF" transform="translate(23,22)"/>
<path d="M0 0 C0.99 0.33 1.98 0.66 3 1 C3.25 3.3125 3.25 3.3125 3 6 C1 7.8125 1 7.8125 -1 9 C-1.09765625 2.84765625 -1.09765625 2.84765625 -1 1 C-0.67 0.67 -0.34 0.34 0 0 Z " fill="#C4DCFF" transform="translate(41,24)"/>
<path d="M0 0 C2.64 1.65 5.28 3.3 8 5 C7.01 5.33 6.02 5.66 5 6 C1.8125 4.0625 1.8125 4.0625 -1 2 C-0.67 1.34 -0.34 0.68 0 0 Z " fill="#5198FF" transform="translate(5,44)"/>
<path d="M0 0 C2.62187494 1.04874998 3.79371361 1.64931313 5.25 4.125 C5.4975 4.74375 5.745 5.3625 6 6 C5.34 6.66 4.68 7.32 4 8 C2.3372974 5.32521756 1.00016187 3.0004856 0 0 Z " fill="#5098FF" transform="translate(56,27)"/>
</svg>
