<?xml version="1.0" encoding="UTF-8"?>
<svg version="1.1" xmlns="http://www.w3.org/2000/svg" width="128" height="128">
<path d="M0 0 C0.62132813 0.391875 1.24265625 0.78375 1.8828125 1.1875 C2.50414063 1.538125 3.12546875 1.88875 3.765625 2.25 C10.7389801 6.59702656 14.59590282 13.46069463 16.8828125 21.1875 C17.12834113 23.16576394 17.30228757 25.15400949 17.41015625 27.14453125 C17.48041016 28.25763672 17.55066406 29.37074219 17.62304688 30.51757812 C17.75388323 32.82729314 17.88152112 35.13719169 18.00585938 37.44726562 C18.38978957 43.44141903 19.02715646 48.72004848 21.22119141 54.33447266 C22.89338892 59.0178598 22.20374722 62.96204343 20.2578125 67.375 C18.13480387 71.30791167 15.76896488 73.06778052 11.8828125 75.1875 C12.5840625 75.53941406 13.2853125 75.89132813 14.0078125 76.25390625 C25.40312277 82.18380276 33.72228319 88.76802783 37.6953125 101.3125 C39.34669982 108.05959675 40.7610707 116.7857367 37.96142578 123.34680176 C34.52367848 126.39106953 30.66045946 125.74334076 26.2265625 125.70507812 C24.7408374 125.71559204 24.7408374 125.71559204 23.22509766 125.72631836 C19.94405254 125.74395429 16.66386671 125.73225539 13.3828125 125.71875 C11.10742019 125.72144329 8.83202899 125.72532435 6.55664062 125.73034668 C1.78504492 125.73624934 -2.98625154 125.72765381 -7.7578125 125.70898438 C-13.88171203 125.68619474 -20.0049104 125.69931367 -26.12878418 125.72327423 C-30.82817898 125.73771128 -35.52740688 125.73313577 -40.22680664 125.72276306 C-42.48510826 125.72009 -44.74342491 125.72338579 -47.00170898 125.73268127 C-50.15519494 125.74281215 -53.307537 125.72739355 -56.4609375 125.70507812 C-57.39921387 125.71317505 -58.33749023 125.72127197 -59.30419922 125.72961426 C-65.6002486 125.64684929 -65.6002486 125.64684929 -68.19360352 123.34240723 C-71.61037601 115.37038966 -69.16398789 105.01656112 -66.44140625 97.1640625 C-61.56637892 86.20603646 -52.67241824 80.08814284 -42.1171875 75.1875 C-43.0246875 74.6925 -43.9321875 74.1975 -44.8671875 73.6875 C-48.74621353 71.08616264 -50.82612988 67.645446 -52.1171875 63.1875 C-52.43961233 58.29456185 -51.79816387 54.65874252 -50.1796875 50.0625 C-47.98580507 42.93047104 -47.60963313 36.17869156 -47.62133789 28.73583984 C-47.4896431 19.18297254 -43.70501495 11.10774076 -37.1171875 4.1875 C-27.05287079 -3.74318157 -11.56470895 -6.33200794 0 0 Z " fill="#FEDCCD" transform="translate(79.1171875,2.8125)"/>
<path d="M0 0 C3.72051025 0.54257441 4.551416 1.9882043 6.7421875 4.90234375 C9.43335196 8.18690161 12.47243601 9.27334387 16.6171875 9.71875 C23.9264306 9.95644896 28.35527479 8.9059102 33.8125 3.8125 C34.8953125 2.636875 34.8953125 2.636875 36 1.4375 C37 0.4375 37 0.4375 39.875 0.125 C49.15528387 0.31516975 57.52825239 5.06343915 64 11.4375 C72.49949656 21.12758752 74.31382144 30.74919742 74.3984375 43.37109375 C73.93465084 46.94043229 73.6917772 48.05381969 71 50.4375 C67.79155589 51.06087787 64.6030996 50.98320492 61.34375 50.95507812 C59.8580249 50.96559204 59.8580249 50.96559204 58.34228516 50.97631836 C55.06124004 50.99395429 51.78105421 50.98225539 48.5 50.96875 C46.22460769 50.97144329 43.94921649 50.97532435 41.67382812 50.98034668 C36.90223242 50.98624934 32.13093596 50.97765381 27.359375 50.95898438 C21.23547547 50.93619474 15.1122771 50.94931367 8.98840332 50.97327423 C4.28900852 50.98771128 -0.41021938 50.98313577 -5.10961914 50.97276306 C-7.36792076 50.97009 -9.62623741 50.97338579 -11.88452148 50.98268127 C-15.03800744 50.99281215 -18.1903495 50.97739355 -21.34375 50.95507812 C-22.28202637 50.96317505 -23.22030273 50.97127197 -24.18701172 50.97961426 C-30.4830611 50.89684929 -30.4830611 50.89684929 -33.07641602 48.59240723 C-36.49318851 40.62038966 -34.04680039 30.26656112 -31.32421875 22.4140625 C-27.32371613 13.42178227 -20.25085451 6.67731257 -11.3125 2.625 C-7.47804467 1.25038394 -4.01012163 0.5848094 0 0 Z " fill="#F8F5F8" transform="translate(44,77.5625)"/>
<path d="M0 0 C0.62132812 0.391875 1.24265625 0.78375 1.8828125 1.1875 C2.50414062 1.538125 3.12546875 1.88875 3.765625 2.25 C10.7389801 6.59702656 14.59590282 13.46069463 16.8828125 21.1875 C17.12834113 23.16576394 17.30228757 25.15400949 17.41015625 27.14453125 C17.48041016 28.25763672 17.55066406 29.37074219 17.62304688 30.51757812 C17.75388323 32.82729314 17.88152112 35.13719169 18.00585938 37.44726562 C18.38978957 43.44141903 19.02715646 48.72004848 21.22119141 54.33447266 C22.89338892 59.0178598 22.20374722 62.96204343 20.2578125 67.375 C18.07164315 71.2707689 16.0690964 73.36075793 11.8828125 75.1875 C7.00505002 75.86713019 2.64163521 76.08736278 -1.8046875 73.8125 C-3.85146853 69.71893795 -3.4256643 65.67755117 -3.1171875 61.1875 C-4.2309375 61.22875 -5.3446875 61.27 -6.4921875 61.3125 C-10.1171875 61.1875 -10.1171875 61.1875 -12.1171875 59.1875 C-12.2421875 56.5625 -12.2421875 56.5625 -12.1171875 54.1875 C-9.61579148 52.93680199 -7.84326059 53.05447533 -5.0546875 53.0625 C-3.70697266 53.05863281 -3.70697266 53.05863281 -2.33203125 53.0546875 C-0.1171875 53.1875 -0.1171875 53.1875 0.8828125 54.1875 C0.8828125 55.8375 0.8828125 57.4875 0.8828125 59.1875 C4.1828125 58.5275 7.4828125 57.8675 10.8828125 57.1875 C11.5428125 53.8875 12.2028125 50.5875 12.8828125 47.1875 C11.5628125 47.1875 10.2428125 47.1875 8.8828125 47.1875 C8.9034375 48.321875 8.9240625 49.45625 8.9453125 50.625 C8.8828125 54.1875 8.8828125 54.1875 7.8828125 55.1875 C6.21664135 55.22813832 4.54893155 55.230221 2.8828125 55.1875 C3.19476563 54.445 3.50671875 53.7025 3.828125 52.9375 C5.29965361 47.70539828 5.50945392 42.59910265 5.7578125 37.1875 C5.83 36.12015625 5.9021875 35.0528125 5.9765625 33.953125 C6.38201035 27.42063942 6.38201035 27.42063942 4.015625 21.5 C1.23524177 18.48537203 0.44559765 18.25661397 -3.6796875 17.75 C-7.48759912 17.76357544 -9.18005491 18.76852894 -12.1171875 21.125 C-17.03384273 24.82755998 -21.58426831 24.84684958 -27.53320312 24.69702148 C-29.81259858 24.64367536 -29.81259858 24.64367536 -33.1171875 25.1875 C-35.35565389 27.59600624 -35.35565389 27.59600624 -37.1171875 30.1875 C-39.2578125 30.89453125 -39.2578125 30.89453125 -41.3671875 31 C-42.6046875 31.061875 -43.8421875 31.12375 -45.1171875 31.1875 C-45.4471875 32.1775 -45.7771875 33.1675 -46.1171875 34.1875 C-46.4471875 34.1875 -46.7771875 34.1875 -47.1171875 34.1875 C-47.75918961 22.64929534 -45.99370679 15.07010779 -38.8203125 5.9765625 C-29.42871701 -3.88892084 -11.97007737 -6.55395871 0 0 Z " fill="#E7A562" transform="translate(79.1171875,2.8125)"/>
<path d="M0 0 C11.42575044 0.43061178 20.15595511 4.61317521 28 13 C35.15593196 21.77719779 36.32466299 31.92889555 36.3984375 42.93359375 C35.94719867 46.40636318 35.50471161 47.58844812 33 50 C29.90551758 50.45410156 29.90551758 50.45410156 26.14453125 50.390625 C25.48289474 50.38496521 24.82125824 50.37930542 24.13957214 50.37347412 C22.02980668 50.35111247 19.92175048 50.30092371 17.8125 50.25 C16.38088394 50.2299344 14.9492412 50.21168372 13.51757812 50.1953125 C10.01116485 50.15125069 6.50574928 50.08222777 3 50 C2.98018066 48.8761792 2.96036133 47.7523584 2.93994141 46.59448242 C2.86317248 42.37666526 2.77457257 38.15916151 2.68261719 33.94165039 C2.64461906 32.12530764 2.60971857 30.30889708 2.578125 28.49243164 C2.35815843 14.13680918 2.35815843 14.13680918 0 0 Z " fill="#7EB1F8" transform="translate(82,78)"/>
<path d="M0 0 C-0.21062576 0.5354393 -0.42125153 1.0708786 -0.63825989 1.62254333 C-2.78652981 7.47887909 -3.46506061 12.63837345 -3.51171875 18.84765625 C-3.52966995 19.74495956 -3.54762115 20.64226288 -3.56611633 21.5667572 C-3.6197733 24.39862537 -3.65397034 27.23032942 -3.6875 30.0625 C-3.72071257 31.99676742 -3.7552058 33.9310133 -3.79101562 35.86523438 C-3.87547347 40.57670357 -3.94249553 45.28812789 -4 50 C-8.21746325 50.0989211 -12.43431121 50.17149012 -16.65258789 50.21972656 C-18.08727786 50.23983525 -19.52188593 50.26712673 -20.95629883 50.30175781 C-23.01924839 50.3503146 -25.08111431 50.37297406 -27.14453125 50.390625 C-29.00621948 50.4220459 -29.00621948 50.4220459 -30.90551758 50.45410156 C-34 50 -34 50 -35.90136719 48.1628418 C-39.2941187 41.48364498 -37.32467564 32.1017211 -35.4375 25.1875 C-31.98274733 15.22326598 -25.42467853 7.91986133 -16.11328125 3.00390625 C-10.67180032 0.53694418 -5.9248183 -0.13778647 0 0 Z " fill="#9BC4F8" transform="translate(47,78)"/>
<path d="M0 0 C7.11609175 -0.35580459 7.11609175 -0.35580459 10.46484375 0.9921875 C12.83826339 4.09635466 12.55000634 7.37287253 12.5625 11.125 C12.72279627 16.92614013 13.23723522 21.70686657 15.3515625 27.16015625 C17.00240034 31.84416 16.31918174 35.77851883 14.375 40.1875 C12.18883065 44.0832689 10.1862839 46.17325793 6 48 C1.12223752 48.67963019 -3.24117729 48.89986278 -7.6875 46.625 C-9.73428103 42.53143795 -9.3084768 38.49005117 -9 34 C-10.11375 34.04125 -11.2275 34.0825 -12.375 34.125 C-16 34 -16 34 -18 32 C-18.125 29.375 -18.125 29.375 -18 27 C-15.49860398 25.74930199 -13.72607309 25.86697533 -10.9375 25.875 C-9.58978516 25.87113281 -9.58978516 25.87113281 -8.21484375 25.8671875 C-6 26 -6 26 -5 27 C-5 28.65 -5 30.3 -5 32 C-1.7 31.34 1.6 30.68 5 30 C5.66 26.7 6.32 23.4 7 20 C5.68 20 4.36 20 3 20 C3.020625 21.134375 3.04125 22.26875 3.0625 23.4375 C3 27 3 27 2 28 C0.33382885 28.04063832 -1.33388095 28.042721 -3 28 C-2.68289062 27.24460937 -2.36578125 26.48921875 -2.0390625 25.7109375 C-0.63099364 20.68212016 -0.53601634 15.82448599 -0.375 10.625 C-0.33632812 9.60277344 -0.29765625 8.58054687 -0.2578125 7.52734375 C-0.16402036 5.01840403 -0.07832121 2.50946236 0 0 Z " fill="#E49542" transform="translate(85,30)"/>
<path d="M0 0 C0.58265625 0.64453125 1.1653125 1.2890625 1.765625 1.953125 C4.71477095 4.65479017 7.0906089 4.69927761 11 5 C11.22042969 5.85271484 11.22042969 5.85271484 11.4453125 6.72265625 C12.72321649 11.12187745 13.87081494 14.15240529 17.1875 17.375 C20.01464938 20.38545582 20.48876659 22.57325117 20.625 26.6875 C20.41061085 29.87271021 20.09575624 31.8039277 18.6875 34.6875 C14.22177475 36.86843559 9.85979145 36.67712624 5 36 C0.05680984 33.84297157 -1.98050797 30.93680338 -4.3359375 26.29296875 C-6.19056339 19.88905464 -4.43904949 14.1783669 -2.5 8.0625 C-2.26152344 7.28326172 -2.02304687 6.50402344 -1.77734375 5.70117188 C-1.19357822 3.79809624 -0.59800024 1.89865078 0 0 Z " fill="#E7A561" transform="translate(32,42)"/>
<path d="M0 0 C1.7325 0.7425 1.7325 0.7425 3.5 1.5 C8.76297529 3.46546511 13.3991886 3.92473294 18.8125 2 C19.534375 1.67 20.25625 1.34 21 1 C21.99 1 22.98 1 24 1 C24.02578125 1.66386719 24.0515625 2.32773438 24.078125 3.01171875 C24.43351002 8.54441741 24.83118278 11.96566075 29 16 C23.5334947 21.61835267 19.85090658 25.08022063 11.8125 25.375 C6.04721412 25.32154702 2.26984255 23.87216114 -2 20 C-4 17.1875 -4 17.1875 -5 15 C-4.360625 14.566875 -3.72125 14.13375 -3.0625 13.6875 C0.1101168 9.55348417 -0.17530972 5.08398178 0 0 Z " fill="#FECBBD" transform="translate(52,63)"/>
<path d="M0 0 C17.436706 -0.77021033 17.436706 -0.77021033 25 4 C25.62132813 4.350625 26.24265625 4.70125 26.8828125 5.0625 C32.95267814 8.84631235 36.4430231 14.6029595 39.375 21 C40.21439338 25.02908821 40.16395743 28.90106427 40 33 C39.01 32.34 38.02 31.68 37 31 C35.88625 30.95875 34.7725 30.9175 33.625 30.875 C30 30 30 30 28.609375 28.23046875 C27.80419296 26.81630409 27.04341461 25.37564454 26.3359375 23.91015625 C25.10876665 21.77741506 25.10876665 21.77741506 22.5234375 21.04296875 C19.2770198 19.7011831 18.77557277 18.35764823 17.25 15.25 C13.24405239 8.08691022 7.51462532 4.85265214 0 2 C0 1.34 0 0.68 0 0 Z " fill="#E39543" transform="translate(56,0)"/>
<path d="M0 0 C7.54308185 6.46549873 13.19929399 12.05936785 15 22 C14.71300018 23.34406845 14.37217374 24.67698239 14 26 C13.7801777 28.24707241 13.59516013 30.49771238 13.4375 32.75 C13.293125 34.8125 13.14875 36.875 13 39 C8.71 39 4.42 39 0 39 C0 26.13 0 13.26 0 0 Z " fill="#9AC3F9" transform="translate(85,89)"/>
<path d="M0 0 C7 0 7 0 9.41015625 1.09375 C11.72408852 3.86819459 11.49769842 5.9362533 11.4375 9.5 C11.43621094 10.6446875 11.43492188 11.789375 11.43359375 12.96875 C11 16 11 16 9.97265625 17.90625 C8 19 8 19 0 19 C0 12.73 0 6.46 0 0 Z " fill="#375E7C" transform="translate(86,30)"/>
<path d="M0 0 C3.83895908 1.06637752 6.05542401 2.56134658 8.20654297 5.95361328 C9.9538078 10.45994368 9.23518925 15.39032328 8.9375 20.125 C8.89689453 21.20910156 8.85628906 22.29320313 8.81445312 23.41015625 C8.36506824 32.17045438 8.36506824 32.17045438 5 36 C1.7501258 29.82176321 1.49826767 24.34489213 1.375 17.4375 C1.21610637 8.66932382 1.21610637 8.66932382 0 0 Z " fill="#FECABC" transform="translate(77,20)"/>
<path d="M0 0 C1.47193312 2.94386623 0.84936173 5.37390036 0.5625 8.625 C0.46066406 9.81351563 0.35882813 11.00203125 0.25390625 12.2265625 C0.17011719 13.14179687 0.08632813 14.05703125 0 15 C-2.8515625 15.13671875 -2.8515625 15.13671875 -6 15 C-8.62846098 12.57904909 -9.81388233 10.95385308 -10.5 7.4375 C-9.8187589 4.11644963 -8.71681469 3.00186346 -6 1 C-2.75 0.25 -2.75 0.25 0 0 Z " fill="#FECABB" transform="translate(42,32)"/>
<path d="M0 0 C1.34771484 -0.00386719 1.34771484 -0.00386719 2.72265625 -0.0078125 C4.9375 0.125 4.9375 0.125 5.9375 1.125 C5.97830783 3.12458364 5.98004356 5.12545254 5.9375 7.125 C3.58403604 8.30173198 2.0568967 8.29123866 -0.5625 8.3125 C-1.3565625 8.32667969 -2.150625 8.34085938 -2.96875 8.35546875 C-5.0625 8.125 -5.0625 8.125 -7.0625 6.125 C-7.1875 3.5 -7.1875 3.5 -7.0625 1.125 C-4.56110398 -0.12569801 -2.78857309 -0.00802467 0 0 Z " fill="#4B5B5B" transform="translate(74.0625,55.875)"/>
<path d="M0 0 C0.33 0 0.66 0 1 0 C1 6.27 1 12.54 1 19 C3.31 19 5.62 19 8 19 C8 21.31 8 23.62 8 26 C7.67 26 7.34 26 7 26 C7 24.02 7 22.04 7 20 C5.68 20 4.36 20 3 20 C3.020625 21.134375 3.04125 22.26875 3.0625 23.4375 C3 27 3 27 2 28 C0.33382885 28.04063832 -1.33388095 28.042721 -3 28 C-2.68289062 27.24460937 -2.36578125 26.48921875 -2.0390625 25.7109375 C-0.63099364 20.68212016 -0.53601634 15.82448599 -0.375 10.625 C-0.33632812 9.60277344 -0.29765625 8.58054687 -0.2578125 7.52734375 C-0.16402036 5.01840403 -0.07832121 2.50946236 0 0 Z " fill="#D29D6D" transform="translate(85,30)"/>
<path d="M0 0 C-0.41330414 5.99291003 -1.31903365 9.25036599 -5 14 C-7 12 -7 12 -7.1953125 9.6171875 C-7.17210938 8.71226563 -7.14890625 7.80734375 -7.125 6.875 C-7.10695313 5.96492188 -7.08890625 5.05484375 -7.0703125 4.1171875 C-7.04710938 3.41851562 -7.02390625 2.71984375 -7 2 C-4.35261084 0.5393715 -3.10551666 0 0 0 Z " fill="#E5A360" transform="translate(83,62)"/>
<path d="M0 0 C1.32 0 2.64 0 4 0 C4.25 7.625 4.25 7.625 2 11 C-0.1640625 11.29296875 -0.1640625 11.29296875 -2.625 11.1875 C-3.44226563 11.16042969 -4.25953125 11.13335937 -5.1015625 11.10546875 C-5.72804688 11.07066406 -6.35453125 11.03585938 -7 11 C-7 10.01 -7 9.02 -7 8 C-5.02 7.67 -3.04 7.34 -1 7 C-0.67 4.69 -0.34 2.38 0 0 Z " fill="#F7EEEB" transform="translate(88,50)"/>
<path d="M0 0 C1.32 0 2.64 0 4 0 C4 4.29 4 8.58 4 13 C2.68 13 1.36 13 0 13 C0 8.71 0 4.42 0 0 Z " fill="#64A4F9" transform="translate(26,115)"/>
<path d="M0 0 C1.32 0.33 2.64 0.66 4 1 C4 4.96 4 8.92 4 13 C2.68 13 1.36 13 0 13 C0 8.71 0 4.42 0 0 Z " fill="#62A3F8" transform="translate(98,115)"/>
<path d="M0 0 C3.00617269 3.00617269 2.59585316 5.82381598 3 10 C0.03 9.01 -2.94 8.02 -6 7 C-4.02 4.69 -2.04 2.38 0 0 Z " fill="#DBD8EA" transform="translate(81,78)"/>
</svg>
