<?xml version="1.0" encoding="UTF-8"?>
<svg version="1.1" xmlns="http://www.w3.org/2000/svg" width="128" height="128">
<path d="M0 0 C0.99265869 -0.00845947 1.98531738 -0.01691895 3.00805664 -0.02563477 C4.09594482 -0.01956207 5.18383301 -0.01348938 6.3046875 -0.00723267 C8.02449829 -0.0151181 8.02449829 -0.0151181 9.77905273 -0.02316284 C13.57940178 -0.0363964 17.37933399 -0.02761254 21.1796875 -0.01748657 C23.8138029 -0.01950633 26.44791776 -0.02241695 29.08203125 -0.02618408 C34.60681701 -0.03164314 40.1314825 -0.02444618 45.65625 -0.01016235 C52.04506571 0.00616457 58.43359421 0.00087616 64.82240295 -0.01564157 C70.96643894 -0.03089112 77.1103475 -0.02928318 83.25439453 -0.02049637 C85.86995483 -0.01849084 88.48552243 -0.02096594 91.10107422 -0.02793503 C94.75247801 -0.03552828 98.40332531 -0.02397438 102.0546875 -0.00723267 C103.14257568 -0.01330536 104.23046387 -0.01937805 105.35131836 -0.02563477 C106.34397705 -0.01717529 107.33663574 -0.00871582 108.359375 0 C109.65464111 0.00169662 109.65464111 0.00169662 110.97607422 0.00342751 C113.69392164 0.46904961 114.58012817 1.15778699 116.1796875 3.38095093 C116.47581294 6.1540875 116.58948643 8.70274016 116.56787109 11.47665405 C116.57312805 12.30132675 116.57838501 13.12599945 116.58380127 13.97566223 C116.59701726 16.70470049 116.58825765 19.43315662 116.578125 22.16220093 C116.58014528 24.05644849 116.58305633 25.95069529 116.58682251 27.84494019 C116.59124803 31.81616618 116.58480748 35.78718984 116.57080078 39.75839233 C116.55370878 44.85313268 116.56354874 49.94739894 116.58151817 55.04212189 C116.59234986 58.95400577 116.5889125 62.86577694 116.5811348 66.77766418 C116.57913109 68.65637772 116.58159804 70.53510144 116.58857346 72.4138031 C116.59617784 75.03789444 116.58459826 77.66121406 116.56787109 80.2852478 C116.57394379 81.06456161 116.58001648 81.84387543 116.58627319 82.64680481 C116.52460395 87.85906737 116.52460395 87.85906737 114.8717804 90.35990906 C111.96763298 92.11232827 108.74705868 91.86373226 105.44921875 91.89266968 C104.32358772 91.91959648 104.32358772 91.91959648 103.17521667 91.94706726 C100.7809306 92.00120279 98.38684419 92.03507508 95.9921875 92.06845093 C94.36781073 92.10162129 92.74346033 92.13611069 91.11914062 92.17196655 C87.13946694 92.25693063 83.1598528 92.32372558 79.1796875 92.38095093 C79.685 93.2239978 80.1903125 94.06704468 80.7109375 94.93563843 C81.68546875 96.57919312 81.68546875 96.57919312 82.6796875 98.25595093 C83.65421875 99.89177124 83.65421875 99.89177124 84.6484375 101.56063843 C86.1796875 104.38095093 86.1796875 104.38095093 86.1796875 106.38095093 C65.0596875 106.38095093 43.9396875 106.38095093 22.1796875 106.38095093 C23.59946238 102.1216263 24.4821907 99.55081447 26.8046875 96.00595093 C27.25070313 95.31759155 27.69671875 94.62923218 28.15625 93.92001343 C28.49398437 93.4121228 28.83171875 92.90423218 29.1796875 92.38095093 C28.16543701 92.36636841 27.15118652 92.35178589 26.10620117 92.33676147 C22.34314721 92.2787884 18.58069229 92.20155634 14.81811523 92.11849976 C13.18963341 92.08524557 11.56103619 92.05721509 9.93237305 92.03451538 C7.59113389 92.00097736 5.25095264 91.94866508 2.91015625 91.89266968 C2.18193161 91.88627975 1.45370697 91.87988983 0.70341492 91.87330627 C-4.24280918 91.7294277 -4.24280918 91.7294277 -6.5124054 90.35990906 C-8.58176443 87.22881903 -8.23678267 83.91528773 -8.20849609 80.2852478 C-8.21375305 79.4605751 -8.21901001 78.6359024 -8.22442627 77.78623962 C-8.23764226 75.05720136 -8.22888265 72.32874524 -8.21875 69.59970093 C-8.22077028 67.70545337 -8.22368133 65.81120656 -8.22744751 63.91696167 C-8.23187303 59.94573567 -8.22543248 55.97471202 -8.21142578 52.00350952 C-8.19433378 46.90876917 -8.20417374 41.81450291 -8.22214317 36.71977997 C-8.23297486 32.80789609 -8.2295375 28.89612492 -8.2217598 24.98423767 C-8.21975609 23.10552413 -8.22222304 21.22680041 -8.22919846 19.34809875 C-8.23680284 16.72400742 -8.22522326 14.10068779 -8.20849609 11.47665405 C-8.21456879 10.69734024 -8.22064148 9.91802643 -8.22689819 9.11509705 C-8.16471772 3.85962606 -8.16471772 3.85962606 -6.5977726 1.68179131 C-4.27167802 -0.02056913 -2.86997726 0.00375926 0 0 Z " fill="#E5F7FD" transform="translate(9.8203125,10.619049072265625)"/>
<path d="M0 0 C40.92 0 81.84 0 124 0 C124 8 124 8 122.9831543 9.96801758 C119.86766265 11.58923919 116.70365421 11.48158549 113.26953125 11.51171875 C112.51911057 11.52966995 111.76868988 11.54762115 110.99552917 11.56611633 C108.6012431 11.62025187 106.20715669 11.65412416 103.8125 11.6875 C102.18812323 11.72067036 100.56377283 11.75515976 98.93945312 11.79101562 C94.95977944 11.8759797 90.9801653 11.94277465 87 12 C87.75796875 13.26457031 87.75796875 13.26457031 88.53125 14.5546875 C89.50578125 16.19824219 89.50578125 16.19824219 90.5 17.875 C91.1496875 18.96554688 91.799375 20.05609375 92.46875 21.1796875 C94 24 94 24 94 26 C72.88 26 51.76 26 30 26 C31.41977488 21.74067537 32.3025032 19.16986354 34.625 15.625 C35.07101563 14.93664062 35.51703125 14.24828125 35.9765625 13.5390625 C36.31429687 13.03117187 36.65203125 12.52328125 37 12 C35.98574951 11.98541748 34.97149902 11.97083496 33.92651367 11.95581055 C30.16345971 11.89783747 26.40100479 11.82060541 22.63842773 11.73754883 C21.00994591 11.70429464 19.38134869 11.67626416 17.75268555 11.65356445 C15.41144639 11.62002643 13.07126514 11.56771415 10.73046875 11.51171875 C10.00224411 11.50532883 9.27401947 11.4989389 8.52372742 11.49235535 C5.75718419 11.41188057 3.49490183 11.25753417 1.0168457 9.96801758 C0 8 0 8 0 0 Z " fill="#00485F" transform="translate(2,91)"/>
<path d="M0 0 C2.64 0 5.28 0 8 0 C8 1.65 8 3.3 8 5 C8.928125 5.12375 9.85625 5.2475 10.8125 5.375 C14 6 14 6 17 8 C17.33 7.01 17.66 6.02 18 5 C20.85091869 6.27799804 23.22144171 7.37896673 25 10 C24.73202649 12.00980131 24.39013716 14.0103005 24 16 C24.37617294 19.26410357 24.37617294 19.26410357 25 22 C26.65 22 28.3 22 30 22 C30 24.97 30 27.94 30 31 C28.35 31 26.7 31 25 31 C24.7525 32.85625 24.7525 32.85625 24.5 34.75 C24.36078125 35.79414062 24.36078125 35.79414062 24.21875 36.859375 C23.93222643 39.30458395 23.93222643 39.30458395 24 43 C22.375 45.3125 22.375 45.3125 20 47 C17.0625 46.6875 17.0625 46.6875 14 46 C11.23135047 46.36858988 11.23135047 46.36858988 9 47 C9 48.65 9 50.3 9 52 C6.03 52 3.06 52 0 52 C0 50.35 0 48.7 0 47 C-1.41633336 46.83052421 -2.83308533 46.66454493 -4.25 46.5 C-5.43335938 46.36078125 -5.43335938 46.36078125 -6.640625 46.21875 C-9.26890397 45.93845381 -9.26890397 45.93845381 -13 46 C-15.25 44.125 -15.25 44.125 -17 42 C-17 41.34 -17 40.68 -17 40 C-16.01 39.505 -16.01 39.505 -15 39 C-15.66 36.03 -16.32 33.06 -17 30 C-18.32 30 -19.64 30 -21 30 C-21 27.36 -21 24.72 -21 22 C-19.68 22 -18.36 22 -17 22 C-16.814375 20.88625 -16.814375 20.88625 -16.625 19.75 C-16.04513299 17.19858515 -15.26291261 15.2732427 -14 13 C-14.99 12.67 -15.98 12.34 -17 12 C-15.71480435 9.13302508 -14.42870746 7.02392288 -12 5 C-11.34 5 -10.68 5 -10 5 C-9.67 5.66 -9.34 6.32 -9 7 C-6.03 6.34 -3.06 5.68 0 5 C0 3.35 0 1.7 0 0 Z " fill="#4B5C5E" transform="translate(60,25)"/>
<path d="M0 0 C1.50022705 0.02732712 1.50022705 0.02732712 3.03076172 0.0552063 C4.07345215 0.04659576 5.11614258 0.03798523 6.19042969 0.02911377 C8.38921004 0.02300468 10.58815498 0.03950752 12.78662109 0.07717896 C16.1477587 0.12540397 19.4980845 0.07763849 22.85888672 0.02005005 C24.99953553 0.02599763 27.14017763 0.03752936 29.28076172 0.0552063 C30.28091309 0.03698822 31.28106445 0.01877014 32.31152344 0 C36.39208291 0.12299837 39.0780781 0.20839793 42.09228516 3.12313843 C45.06447546 7.39745571 46.48430718 11.23615517 48.15576172 16.2505188 C27.03576172 16.2505188 5.91576172 16.2505188 -15.84423828 16.2505188 C-10.53323142 0.31749821 -10.53323142 0.31749821 0 0 Z " fill="#003647" transform="translate(47.84423828125,100.74948120117188)"/>
<path d="M0 0 C1.43655854 -0.08131463 2.8744483 -0.13933559 4.3125 -0.1875 C5.51326172 -0.23970703 5.51326172 -0.23970703 6.73828125 -0.29296875 C9 0 9 0 10.62007141 1.05525208 C12.70193633 3.98924628 12.39320197 6.94468103 12.34057617 10.40893555 C12.34093778 11.17253545 12.34129938 11.93613535 12.34167194 12.72287464 C12.33943289 15.1944228 12.3165885 17.66529204 12.29296875 20.13671875 C12.28855785 21.66263502 12.28549735 23.18855582 12.28381348 24.71447754 C12.26808532 30.37222092 12.22620165 36.02986713 12.1875 41.6875 C12.125625 54.330625 12.06375 66.97375 12 80 C-28.92 80 -69.84 80 -112 80 C-112 79.67 -112 79.34 -112 79 C-73.72 79 -35.44 79 4 79 C3.67 53.59 3.34 28.18 3 2 C2.01 1.67 1.02 1.34 0 1 C0 0.67 0 0.34 0 0 Z " fill="#D2F0FC" transform="translate(114,11)"/>
<path d="M0 0 C4.40617281 2.16303029 7.1644597 4.41114924 9 9 C9.75265197 14.6448898 9.33065686 19.2260585 6 24 C2.47905697 27.26331306 -0.30393216 28.28814732 -5 28.5 C-9.68905622 28.29551484 -12.44966389 27.20396186 -16 24 C-19.38570467 20.16286804 -19.51291172 16.36598538 -19.3515625 11.4375 C-18.67904883 6.77473854 -16.30117669 4.14809708 -12.875 1.125 C-8.55651358 -0.56484251 -4.5732948 -0.65960983 0 0 Z " fill="#EAEDEB" transform="translate(69,37)"/>
<path d="M0 0 C2.8307201 1.58542269 5.17423058 3.30296676 7 6 C7 7.98 7 9.96 7 12 C-0.26 12 -7.52 12 -15 12 C-14 5 -14 5 -11.5625 2.625 C-7.38847866 -0.02194036 -5.02257811 -0.57636142 0 0 Z " fill="#79D76C" transform="translate(25,72)"/>
<path d="M0 0 C2.875 2.75 2.875 2.75 5 6 C5 7.65 5 9.3 5 11 C-2.26 11 -9.52 11 -17 11 C-16 4 -16 4 -14.3125 1.625 C-9.89710736 -1.47770834 -5.05861627 -1.614452 0 0 Z " fill="#FA7166" transform="translate(113,73)"/>
<path d="M0 0 C2.8125 1.625 2.8125 1.625 5 4 C5.33 6.31 5.66 8.62 6 11 C-1.26 11 -8.52 11 -16 11 C-14.87174633 4.23047799 -14.87174633 4.23047799 -12.125 2.1875 C-7.63290715 -0.956965 -5.25368469 -1.36595802 0 0 Z " fill="#65B5F6" transform="translate(26,32)"/>
<path d="M0 0 C4.101939 0.01760489 4.95892934 0.14333151 8.3125 2.8125 C8.951875 3.658125 9.59125 4.50375 10.25 5.375 C10.58 5.705 10.91 6.035 11.25 6.375 C11.25 8.025 11.25 9.675 11.25 11.375 C3.99 11.375 -3.27 11.375 -10.75 11.375 C-10.75 6.375 -10.75 6.375 -8.3125 3.625 C-7.466875 2.8825 -6.62125 2.14 -5.75 1.375 C-4.10843264 -0.26656736 -2.25784199 0.08684008 0 0 Z " fill="#FEDA2F" transform="translate(106.75,31.625)"/>
<path d="M0 0 C2.78828109 1.8646269 3.98297715 3.82826773 5 7 C5.35293173 10.05551858 5.31188297 12.9435469 5 16 C4.34 16 3.68 16 3 16 C2.731875 15.071875 2.46375 14.14375 2.1875 13.1875 C0.86196453 9.44337311 0.86196453 9.44337311 -2 7 C-5.61023099 6.26958147 -5.61023099 6.26958147 -9 6 C-9.99 9.3 -10.98 12.6 -12 16 C-13.32 14.68 -14.64 13.36 -16 12 C-15.34 11.34 -14.68 10.68 -14 10 C-14 9.01 -14 8.02 -14 7 C-14.928125 7.4640625 -14.928125 7.4640625 -15.875 7.9375 C-17.25 8.625 -18.625 9.3125 -20 10 C-18.90859078 6.18006773 -17.22203616 3.42175264 -14.04296875 0.96484375 C-9.54606227 -1.15893426 -4.78315074 -1.0369068 0 0 Z " fill="#ECF0F0" transform="translate(73,39)"/>
<path d="M0 0 C0.66 0.66 1.32 1.32 2 2 C1.34773438 2.01417969 0.69546875 2.02835938 0.0234375 2.04296875 C-6.34966438 2.3907634 -9.62007966 3.27429647 -14 8 C-14 8.66 -14 9.32 -14 10 C-12.68 9.34 -11.36 8.68 -10 8 C-9.375 9.8125 -9.375 9.8125 -9 12 C-9.99 13.485 -9.99 13.485 -11 15 C-10.34 16.32 -9.68 17.64 -9 19 C-13.26826873 19 -13.93882432 18.62386487 -17 16 C-16.34 18.64 -15.68 21.28 -15 24 C-18.34335968 20.80200378 -19.17907596 18.88472966 -19.3125 14.25 C-19.25633043 9.38431118 -18.33619627 6.69686614 -15 3 C-10.70381562 -0.79075093 -5.47852919 -0.74663141 0 0 Z " fill="#DEE0DF" transform="translate(69,37)"/>
<path d="M0 0 C2 2 2 2 2.375 4.875 C2 8 2 8 0.375 10.3125 C-2.43958033 12.31233339 -4.59319587 12.69029053 -8 13 C-9.78971369 9.19685841 -10.54829905 6.20362607 -10 2 C-6.94783427 -1.63912068 -4.35383535 -1.23043173 0 0 Z " fill="#FDD6BE" transform="translate(111,60)"/>
<path d="M0 0 C2.9375 0.75 2.9375 0.75 4.9375 2.75 C5.40921648 6.36649298 5.35541658 8.12312512 3.3125 11.1875 C0.9375 12.75 0.9375 12.75 -2.1875 12.6875 C-5.0625 11.75 -5.0625 11.75 -7.0625 8.75 C-6.875 5.1875 -6.875 5.1875 -6.0625 1.75 C-3.0625 -0.25 -3.0625 -0.25 0 0 Z " fill="#FDD6BE" transform="translate(22.0625,59.25)"/>
<path d="M0 0 C1.875 1.125 1.875 1.125 3 3 C3.54955021 6.68983715 3.45269677 8.34610467 1.3125 11.4375 C-1 13 -1 13 -3.5625 12.9375 C-6.21650072 11.91673049 -7.44107407 11.37941326 -9 9 C-9.39365568 5.85075452 -9.52854531 3.88090884 -7.875 1.125 C-5.11909116 -0.52854531 -3.14924548 -0.39365568 0 0 Z " fill="#FED6BD" transform="translate(110,19)"/>
<path d="M0 0 C1.875 1.125 1.875 1.125 3 3 C3.39365568 6.14924548 3.52854531 8.11909116 1.875 10.875 C-0.91106042 12.54663625 -2.81988862 12.46376624 -6 12 C-8.35210784 9.88310295 -8.91810953 8.55958485 -9.375 5.4375 C-9 3 -9 3 -7.875 1.1875 C-5.12844028 -0.55198782 -3.18153026 -0.39769128 0 0 Z " fill="#FDD4BB" transform="translate(24,19)"/>
<path d="M0 0 C2.64 0 5.28 0 8 0 C8.36749117 7.47232038 8.36749117 7.47232038 6.78125 9.75 C4.47880036 11.36575414 3.09684299 11.30855839 0.3125 11.1875 C-0.89986328 11.14689453 -0.89986328 11.14689453 -2.13671875 11.10546875 C-2.75160156 11.07066406 -3.36648437 11.03585938 -4 11 C-3.2884375 10.2265625 -3.2884375 10.2265625 -2.5625 9.4375 C-0.57190593 6.33217325 -0.34939182 3.63367496 0 0 Z " fill="#00384A" transform="translate(118,91)"/>
<path d="M0 0 C2.30078125 -0.2578125 2.30078125 -0.2578125 5 0 C8.99676577 4.05992008 11.59508402 9.52082767 13 15 C11.02 15 9.04 15 7 15 C6.20576139 13.43880578 5.41472877 11.87598036 4.625 10.3125 C3.96371094 9.00732422 3.96371094 9.00732422 3.2890625 7.67578125 C2.07335732 5.15227201 1.00739042 2.61262468 0 0 Z " fill="#002531" transform="translate(83,102)"/>
<path d="M0 0 C2.88437779 1.29299694 4.87219421 2.65941363 7 5 C6.3125 7.375 6.3125 7.375 5 10 C2.375 11.3125 2.375 11.3125 0 12 C0 9.66666667 0 7.33333333 0 5 C-0.185625 4.29875 -0.37125 3.5975 -0.5625 2.875 C-0.706875 2.25625 -0.85125 1.6375 -1 1 C-0.67 0.67 -0.34 0.34 0 0 Z " fill="#FDD52C" transform="translate(69,45)"/>
<path d="M0 0 C0.99 0 1.98 0 3 0 C2.88512252 1.58409994 2.75765492 3.16728963 2.625 4.75 C2.55539063 5.63171875 2.48578125 6.5134375 2.4140625 7.421875 C2.00149945 9.99066382 1.28839043 11.75841015 0 14 C-0.99 14 -1.98 14 -3 14 C-2.88512252 12.41590006 -2.75765492 10.83271037 -2.625 9.25 C-2.55539063 8.36828125 -2.48578125 7.4865625 -2.4140625 6.578125 C-2.00149945 4.00933618 -1.28839043 2.24158985 0 0 Z " fill="#FDD837" transform="translate(64,44)"/>
<path d="M0 0 C0.99 0 1.98 0 3 0 C2.9278125 0.60328125 2.855625 1.2065625 2.78125 1.828125 C2.6884375 2.62734375 2.595625 3.4265625 2.5 4.25 C2.4071875 5.03890625 2.314375 5.8278125 2.21875 6.640625 C1.93845381 9.26890397 1.93845381 9.26890397 2 13 C0.125 15.25 0.125 15.25 -2 17 C-2.66 17 -3.32 17 -4 17 C-3.649375 16.46375 -3.29875 15.9275 -2.9375 15.375 C-1.74102381 12.97264723 -1.74102381 12.97264723 -2.5625 10.1875 C-3.15428723 5.8759073 -1.92450917 3.84901834 0 0 Z " fill="#445355" transform="translate(82,55)"/>
<path d="M0 0 C0.99 0.33 1.98 0.66 3 1 C2.835 1.598125 2.67 2.19625 2.5 2.8125 C1.8885876 5.11344336 1.8885876 5.11344336 2 8 C2 9.32 2 10.64 2 12 C-0.88437779 10.70700306 -2.87219421 9.34058637 -5 7 C-3.70700306 4.11562221 -2.34058637 2.12780579 0 0 Z " fill="#FED528" transform="translate(57,45)"/>
<path d="M0 0 C2.85091869 1.27799804 5.22144171 2.37896673 7 5 C6.73202649 7.00980131 6.39013716 9.0103005 6 11 C6.37617294 14.26410357 6.37617294 14.26410357 7 17 C6.01 17 5.02 17 4 17 C2.76097796 14.38216883 1.64791738 11.82923922 1 9 C2.3125 6.5 2.3125 6.5 4 5 C2.68 4.34 1.36 3.68 0 3 C0 2.01 0 1.02 0 0 Z " fill="#4B5A5C" transform="translate(78,30)"/>
<path d="M0 0 C3.65316671 1.24976756 4.78065836 1.67098753 7 5 C7.125 7.6875 7.125 7.6875 7 10 C6.01 10 5.02 10 4 10 C3.566875 8.63875 3.566875 8.63875 3.125 7.25 C2.23468224 4.67797092 1.28505587 2.38653234 0 0 Z " fill="#FDCC12" transform="translate(111,33)"/>
<path d="M0 0 C0.66 0.33 1.32 0.66 2 1 C2.33102914 4.6413205 2.42019439 6.41472925 0.25 9.4375 C-2 11 -2 11 -4.25 10.75 C-5.11625 10.37875 -5.11625 10.37875 -6 10 C-5.195625 9.46375 -4.39125 8.9275 -3.5625 8.375 C-0.53491576 5.56894631 -0.27489191 4.03174806 0 0 Z " fill="#F8CEAE" transform="translate(111,21)"/>
<path d="M0 0 C3.79133356 0.54161908 5.66109564 1.99283725 8 5 C8.25 7.75 8.25 7.75 8 10 C7.01 9.67 6.02 9.34 5 9 C4.30741771 7.00882592 3.64252365 5.0078864 3 3 C1.50113129 1.16310524 1.50113129 1.16310524 0 0 Z " fill="#48C259" transform="translate(24,73)"/>
<path d="M0 0 C2.71097227 0.37392721 3.82000467 0.81357627 5.75 2.8125 C7 5 7 5 7 9 C4 8 4 8 2.375 5.0625 C1.92125 4.051875 1.4675 3.04125 1 2 C0.67 1.34 0.34 0.68 0 0 Z " fill="#F3594B" transform="translate(111,74)"/>
<path d="M0 0 C4 4.5 4 4.5 4 9 C3.01 9 2.02 9 1 9 C0.01 6.36 -0.98 3.72 -2 1 C-1.34 0.67 -0.68 0.34 0 0 Z " fill="#425052" transform="translate(81,38)"/>
<path d="M0 0 C1.98 0.99 1.98 0.99 4 2 C4.75 5.625 4.75 5.625 5 9 C4.01 9 3.02 9 2 9 C1.34 6.03 0.68 3.06 0 0 Z " fill="#4EAAF5" transform="translate(27,34)"/>
<path d="M0 0 C0.75 1.75 0.75 1.75 1 4 C-1.18771055 7.06279477 -2.56114062 7.89872476 -6.25 8.75 C-7.61125 8.87375 -7.61125 8.87375 -9 9 C-8.67 8.01 -8.34 7.02 -8 6 C-6.5459375 5.5359375 -6.5459375 5.5359375 -5.0625 5.0625 C-1.89495953 4.31531979 -1.89495953 4.31531979 -0.625 1.875 C-0.41875 1.25625 -0.2125 0.6375 0 0 Z " fill="#F7C4AF" transform="translate(112,64)"/>
<path d="M0 0 C0.33 0 0.66 0 1 0 C0.6875 3.375 0.6875 3.375 0 7 C-3 9 -3 9 -5.6875 8.625 C-6.450625 8.41875 -7.21375 8.2125 -8 8 C-8 7.67 -8 7.34 -8 7 C-7.05125 6.773125 -6.1025 6.54625 -5.125 6.3125 C-1.80676612 5.30916286 -1.80676612 5.30916286 -0.625 2.375 C-0.41875 1.59125 -0.2125 0.8075 0 0 Z " fill="#F7CDB5" transform="translate(26,63)"/>
<path d="M0 0 C0.66 0.33 1.32 0.66 2 1 C2.82804069 3.48412207 3 5.35220307 3 8 C1.68 8.33 0.36 8.66 -1 9 C-0.67 6.03 -0.34 3.06 0 0 Z " fill="#EBEAD6" transform="translate(67,45)"/>
<path d="M0 0 C0.33 0.99 0.66 1.98 1 3 C-0.75 5.0625 -0.75 5.0625 -3 7 C-5.25 6.75 -5.25 6.75 -7 6 C-5.6100869 3.22017379 -3.81341647 3.12536659 -1 2 C-0.67 1.34 -0.34 0.68 0 0 Z " fill="#E5E2D5" transform="translate(75,52)"/>
</svg>
