<?xml version="1.0" encoding="UTF-8"?>
<svg version="1.1" xmlns="http://www.w3.org/2000/svg" width="128" height="128">
<path d="M0 0 C2.44688075 3.43119414 2.15437734 6.61919181 1.96875 10.66015625 C1.95070312 11.40523437 1.93265625 12.1503125 1.9140625 12.91796875 C1.86710649 14.74925326 1.79536652 16.57987274 1.71875 18.41015625 C2.37875 18.41015625 3.03875 18.41015625 3.71875 18.41015625 C4.04875 16.76015625 4.37875 15.11015625 4.71875 13.41015625 C7.35875 13.41015625 9.99875 13.41015625 12.71875 13.41015625 C13.21375 15.88515625 13.21375 15.88515625 13.71875 18.41015625 C15.36875 18.74015625 17.01875 19.07015625 18.71875 19.41015625 C18.71875 11.16015625 18.71875 2.91015625 18.71875 -5.58984375 C24.32871389 -5.89106714 29.91006462 -6.14846094 35.52172852 -6.30395508 C37.42244015 -6.3687868 39.32251741 -6.45710203 41.22094727 -6.57055664 C50.65950082 -7.11991675 59.98681701 -7.46768611 67.5 -0.93359375 C74.909456 6.79927681 74.13379892 17.4512297 73.92066479 27.51219463 C73.84065311 30.22685999 73.72770199 32.93963298 73.61138916 35.6529541 C73.47695115 39.12499739 73.41800958 42.59833552 73.35351562 46.07226562 C73.22212307 52.85818575 72.96789946 59.62349533 72.71875 66.41015625 C54.89875 66.41015625 37.07875 66.41015625 18.71875 66.41015625 C18.38875 62.45015625 18.05875 58.49015625 17.71875 54.41015625 C13.63089206 55.87525646 13.63089206 55.87525646 12.96875 58.53515625 C12.88625 59.15390625 12.80375 59.77265625 12.71875 60.41015625 C10.07875 60.41015625 7.43875 60.41015625 4.71875 60.41015625 C4.595 59.77078125 4.47125 59.13140625 4.34375 58.47265625 C4.1375 57.79203125 3.93125 57.11140625 3.71875 56.41015625 C2.72875 55.91515625 2.72875 55.91515625 1.71875 55.41015625 C1.739375 56.15265625 1.76 56.89515625 1.78125 57.66015625 C0.56010037 60.82077883 0.0780459 61.12564881 -2.84375 62.59765625 C-16.81572048 68.02752155 -35.11753038 67.89298275 -49.30078125 63.32421875 C-51.67692895 62.22753519 -53.36241228 61.21088453 -55.28125 59.41015625 C-55.80264282 56.87440491 -55.80264282 56.87440491 -55.83056641 53.80883789 C-55.84963043 52.66077164 -55.86869446 51.51270538 -55.88833618 50.32984924 C-55.88651337 49.08920212 -55.88469055 47.84855499 -55.8828125 46.5703125 C-55.89138275 45.29667343 -55.899953 44.02303436 -55.90878296 42.71080017 C-55.92028119 40.01440408 -55.92313037 37.31953667 -55.91259766 34.62329102 C-55.90100891 31.17136946 -55.93485979 27.72159462 -55.981287 24.27002811 C-56.01787246 20.97430548 -56.0103906 17.67870167 -56.0078125 14.3828125 C-56.02623199 13.14418961 -56.04465149 11.90556671 -56.06362915 10.62940979 C-56.02914557 7.4427453 -55.94429643 4.52713714 -55.28125 1.41015625 C-44.2280541 -9.32042342 -12.28996988 -8.56509887 0 0 Z " fill="#D3E1F1" transform="translate(55.28125,33.58984375)"/>
<path d="M0 0 C2.55906755 3.63503914 2.15534565 6.86382261 1.96875 11.19140625 C1.95070312 11.98417969 1.93265625 12.77695312 1.9140625 13.59375 C1.86708082 15.54348973 1.79534044 17.49260503 1.71875 19.44140625 C-1.434618 20.14215469 -4.00849974 20.44140625 -7.28125 20.44140625 C-8.0224536 22.747373 -8.38401212 24.07602984 -7.71875 26.44140625 C-7.28125 28.44140625 -7.28125 28.44140625 -7.90625 30.62890625 C-9.28125 32.44140625 -9.28125 32.44140625 -11.90625 33.19140625 C-12.69 33.27390625 -13.47375 33.35640625 -14.28125 33.44140625 C-14.28125 35.75140625 -14.28125 38.06140625 -14.28125 40.44140625 C-12.63125 40.77140625 -10.98125 41.10140625 -9.28125 41.44140625 C-7.47505477 45.90377094 -7.16466499 48.75174919 -8.28125 53.44140625 C-7.53875 53.44140625 -6.79625 53.44140625 -6.03125 53.44140625 C-3.78125 53.44140625 -1.53125 53.44140625 0.71875 53.44140625 C1.46875 55.69140625 1.46875 55.69140625 1.71875 58.44140625 C-3.15992025 64.40172164 -9.90780408 65.0331122 -17.21875 65.91796875 C-29.64458847 67.02023754 -43.42908582 67.30706114 -54.28125 60.44140625 C-56.00358389 58.71907236 -55.45324967 56.41847648 -55.48999023 54.06713867 C-55.50928085 52.91892136 -55.52857147 51.77070404 -55.54844666 50.58769226 C-55.60589552 45.32698111 -55.65578155 40.06635544 -55.6862793 34.80541992 C-55.70408841 32.02597857 -55.7388934 29.24755271 -55.78881836 26.46850586 C-55.8605079 22.47362951 -55.88323671 18.47985452 -55.90234375 14.484375 C-55.93017441 13.239478 -55.95800507 11.99458099 -55.98667908 10.71195984 C-55.97900561 7.51017456 -55.92020563 4.5786839 -55.28125 1.44140625 C-44.20794161 -9.35120016 -12.36797546 -8.45003803 0 0 Z " fill="#FEAA02" transform="translate(55.28125,33.55859375)"/>
<path d="M0 0 C2.64 0 5.28 0 8 0 C8.33 1.65 8.66 3.3 9 5 C13.10260692 5.91023452 13.10260692 5.91023452 17.1875 5.375 C19 5 19 5 20.8125 6.0625 C22.55060393 8.89835377 21.63817108 10.80914458 21 14 C21.36858988 16.76864953 21.36858988 16.76864953 22 19 C23.65 19.33 25.3 19.66 27 20 C27 22.31 27 24.62 27 27 C25.35 27.33 23.7 27.66 22 28 C22.05220703 29.13888672 22.05220703 29.13888672 22.10546875 30.30078125 C22.13253906 31.29464844 22.15960938 32.28851563 22.1875 33.3125 C22.23970703 34.79169922 22.23970703 34.79169922 22.29296875 36.30078125 C22 39 22 39 20.671875 40.8828125 C18.08844253 42.60912485 15.96037002 41.54374143 13 41 C10.66335851 41.54217768 10.66335851 41.54217768 9 43 C8.19471111 45.05000871 8.19471111 45.05000871 8 47 C5.36 47 2.72 47 0 47 C-0.0825 46.401875 -0.165 45.80375 -0.25 45.1875 C-1.25285305 42.26251194 -2.25767587 41.4082205 -5 40 C-7.00109278 40.32670903 -9.00116131 40.65977214 -11 41 C-12.9375 39.9375 -12.9375 39.9375 -14 38 C-13.70131344 35.99453311 -13.36628677 33.99422795 -13 32 C-13.54217768 29.66335851 -13.54217768 29.66335851 -15 28 C-17.05000871 27.19471111 -17.05000871 27.19471111 -19 27 C-19 24.69 -19 22.38 -19 20 C-17.35 19.67 -15.7 19.34 -14 19 C-13.08170601 14.35898796 -13.08170601 14.35898796 -13.625 9.75 C-14 8 -14 8 -13 6.1875 C-9.92736582 4.36312346 -7.41836035 5.38957851 -4 6 C-3.01 5.67 -2.02 5.34 -1 5 C-0.67 3.35 -0.34 1.7 0 0 Z " fill="#415363" transform="translate(60,47)"/>
<path d="M0 0 C2.55906755 3.63503914 2.15534565 6.86382261 1.96875 11.19140625 C1.95070312 11.98417969 1.93265625 12.77695312 1.9140625 13.59375 C1.86708082 15.54348973 1.79534044 17.49260503 1.71875 19.44140625 C0.06875 19.77140625 -1.58125 20.10140625 -3.28125 20.44140625 C-4.48397819 18.03594987 -4.38196472 16.49143672 -4.34375 13.81640625 C-4.33472656 12.99914062 -4.32570312 12.181875 -4.31640625 11.33984375 C-4.30480469 10.71335937 -4.29320312 10.086875 -4.28125 9.44140625 C-5.08304688 9.65796875 -5.88484375 9.87453125 -6.7109375 10.09765625 C-21.48453402 13.71567989 -38.9271321 14.98283732 -52.78515625 7.59375 C-54.28125 6.44140625 -54.28125 6.44140625 -55.28125 3.69140625 C-55.28125 2.94890625 -55.28125 2.20640625 -55.28125 1.44140625 C-42.34427766 -8.26132301 -13.5894492 -9.28457231 0 0 Z " fill="#ED9E00" transform="translate(55.28125,33.55859375)"/>
<path d="M0 0 C1.7325 0.928125 1.7325 0.928125 3.5 1.875 C11.71556285 5.92758016 19.03850982 6.29314129 28.0625 6.1875 C29.11244141 6.18685547 30.16238281 6.18621094 31.24414062 6.18554688 C39.17619827 6.14546364 39.17619827 6.14546364 47 5 C47.33 4.34 47.66 3.68 48 3 C47.42415568 5.38564077 46.77772405 7.66682784 46 10 C44.35 10.33 42.7 10.66 41 11 C41 13.31 41 15.62 41 18 C42.65 18.33 44.3 18.66 46 19 C46.495 20.98 46.495 20.98 47 23 C40.44656703 24.66657718 34.4408492 25.35461553 27.6875 25.3125 C26.76904297 25.30831055 25.85058594 25.30412109 24.90429688 25.29980469 C16.81531813 25.16565437 9.39330778 24.40863867 2.20703125 20.46875 C-1.09105906 16.77955871 -0.55462037 13.51790886 -0.3125 8.75 C-0.28994141 7.90953125 -0.26738281 7.0690625 -0.24414062 6.203125 C-0.18537714 4.13465036 -0.09569885 2.06709512 0 0 Z " fill="#EC9D00" transform="translate(0,56)"/>
<path d="M0 0 C0.66 0 1.32 0 2 0 C3.17441535 2.10016623 4.33964012 4.20458755 5.5 6.3125 C5.83386719 6.90740234 6.16773438 7.50230469 6.51171875 8.11523438 C8.06825114 10.95828844 9 12.70660988 9 16 C6.54285453 16.83698386 4.08441143 17.66972424 1.625 18.5 C0.57699219 18.85771484 0.57699219 18.85771484 -0.4921875 19.22265625 C-5.7734375 21 -5.7734375 21 -8 21 C-7.34 19.02 -6.68 17.04 -6 15 C-20.07007632 11.58167343 -32.37976437 12.32672085 -45 20 C-45.66 20 -46.32 20 -47 20 C-45.76854245 13.68878006 -42.11511044 10.49490133 -37 7 C-25.51390852 1.21338031 -14.33047816 0.76577622 -2 4 C-1.34 2.68 -0.68 1.36 0 0 Z " fill="#2DB750" transform="translate(83,1)"/>
<path d="M0 0 C-0.66 1.98 -1.32 3.96 -2 6 C12.07007632 9.41832657 24.37976437 8.67327915 37 1 C37.66 1 38.32 1 39 1 C36.77015148 7.50372486 33.17910577 11.42853884 27.328125 14.86328125 C16.44605023 20.17650903 5.48005229 20.01116126 -6 17 C-6.66 18.32 -7.32 19.64 -8 21 C-8.66 21 -9.32 21 -10 21 C-11.17441535 18.89983377 -12.33964012 16.79541245 -13.5 14.6875 C-13.83386719 14.09259766 -14.16773438 13.49769531 -14.51171875 12.88476562 C-16.06825114 10.04171156 -17 8.29339012 -17 5 C-14.54285453 4.16301614 -12.08441143 3.33027576 -9.625 2.5 C-8.92632812 2.26152344 -8.22765625 2.02304688 -7.5078125 1.77734375 C-2.2265625 0 -2.2265625 0 0 0 Z " fill="#FA4354" transform="translate(53,106)"/>
<path d="M0 0 C3.64314398 2.12516732 5.42598016 4.13906344 7 8 C7.34050529 12.88057582 6.66327491 16.18366164 3.5625 20 C-0.55860948 23.21647569 -3.86303776 23.53345377 -9 23 C-12.54278538 21.58288585 -13.74140328 20.40127078 -15.8125 17.1875 C-17.10627958 13.71472323 -17.53441905 11.66458779 -17 8 C-12.70805351 0.30409594 -8.42117405 -1.10309309 0 0 Z " fill="#D1DFEE" transform="translate(69,59)"/>
<path d="M0 0 C5.48526441 2.74263221 9.48450379 5.93210386 13 11 C14.18005084 15.55973765 14.05695911 19.88150262 13.87890625 24.56640625 C13.86617172 25.84104233 13.85343719 27.11567841 13.84031677 28.42893982 C13.79867604 31.78990504 13.71812827 35.14518177 13.61798096 38.50457764 C13.52527375 41.94331144 13.48467481 45.38263767 13.43945312 48.82226562 C13.34055449 55.54972582 13.19021178 62.27453518 13 69 C12.01 69 11.02 69 10 69 C10 50.19 10 31.38 10 12 C6.7 12 3.4 12 0 12 C0 8.04 0 4.08 0 0 Z " fill="#B7CFE8" transform="translate(115,30)"/>
<path d="M0 0 C13.53 0 27.06 0 41 0 C41 1.32 41 2.64 41 4 C27.47 4 13.94 4 0 4 C0 2.68 0 1.36 0 0 Z " fill="#BAD1E9" transform="translate(81,89)"/>
<path d="M0 0 C13.53 0 27.06 0 41 0 C41 1.32 41 2.64 41 4 C27.47 4.33 13.94 4.66 0 5 C-0.33 4.01 -0.66 3.02 -1 2 C-0.67 1.34 -0.34 0.68 0 0 Z " fill="#B9D0E8" transform="translate(81,58)"/>
<path d="M0 0 C0.66 0 1.32 0 2 0 C-0.22984852 6.50372486 -3.82089423 10.42853884 -9.671875 13.86328125 C-20.55394977 19.17650903 -31.51994771 19.01116126 -43 16 C-43 14.68 -43 13.36 -43 12 C-41.96875 12.165 -40.9375 12.33 -39.875 12.5 C-26.31224953 14.13522523 -15.26816853 13.26886285 -3.8125 5.59765625 C-1.85847949 3.87525455 -0.99037302 2.38824328 0 0 Z " fill="#EB3044" transform="translate(90,107)"/>
<path d="M0 0 C0 1.32 0 2.64 0 4 C-0.99386719 3.84015625 -1.98773438 3.6803125 -3.01171875 3.515625 C-15.45398904 1.75200589 -27.69917531 1.81684549 -38.0625 9.5 C-40.8491682 11.73325255 -41.8521063 12.55631891 -43 16 C-43.66 16 -44.32 16 -45 16 C-43.76854245 9.68878006 -40.11511044 6.49490133 -35 3 C-23.51390852 -2.78661969 -12.33047816 -3.23422378 0 0 Z " fill="#1EA940" transform="translate(81,5)"/>
<path d="M0 0 C12.21 0 24.42 0 37 0 C37 1.32 37 2.64 37 4 C25.78 4 14.56 4 3 4 C2.67 4.66 2.34 5.32 2 6 C2 4.35 2 2.7 2 1 C1.34 0.67 0.68 0.34 0 0 Z " fill="#B9D0E8" transform="translate(85,66)"/>
<path d="M0 0 C0.76166977 0.00222061 1.52333954 0.00444122 2.30809021 0.00672913 C3.16890701 0.00680466 4.02972382 0.00688019 4.91662598 0.00695801 C5.8520372 0.01211929 6.78744843 0.01728058 7.75120544 0.02259827 C8.70422043 0.02401321 9.65723541 0.02542816 10.63912964 0.02688599 C13.69605085 0.032503 16.75289996 0.04505836 19.80979919 0.05775452 C21.87685543 0.06276733 23.94391281 0.06733061 26.01097107 0.07142639 C31.08977507 0.08247795 36.16852489 0.09975397 41.24729919 0.12025452 C40.91729919 1.11025452 40.58729919 2.10025452 40.24729919 3.12025452 C34.44539255 3.3369815 28.64328481 3.53390622 22.84007263 3.71229553 C20.86495385 3.7758256 18.89000303 3.84481771 16.91526794 3.91932678 C14.08089394 4.02533123 11.24650119 4.11184215 8.41136169 4.19447327 C7.08160812 4.25050972 7.08160812 4.25050972 5.72499084 4.30767822 C3.23802185 4.36903381 3.23802185 4.36903381 -0.75270081 4.12025452 C-1.41270081 3.13025452 -2.07270081 2.14025452 -2.75270081 1.12025452 C-1.75270081 0.12025452 -1.75270081 0.12025452 0 0 Z " fill="#B7CFE7" transform="translate(81.75270080566406,50.87974548339844)"/>
<path d="M0 0 C13.2 0 26.4 0 40 0 C40 0.99 40 1.98 40 3 C26.8 3 13.6 3 0 3 C0 2.01 0 1.02 0 0 Z " fill="#B6CEE7" transform="translate(82,82)"/>
<path d="M0 0 C1.26092972 0.00212242 1.26092972 0.00212242 2.54733276 0.00428772 C5.23732025 0.00989388 7.92722509 0.02244739 10.6171875 0.03515625 C12.43880088 0.04017046 14.26041557 0.0447335 16.08203125 0.04882812 C20.55211527 0.05986531 25.02213736 0.07713405 29.4921875 0.09765625 C29.9871875 1.58265625 29.9871875 1.58265625 30.4921875 3.09765625 C16.9621875 3.09765625 3.4321875 3.09765625 -10.5078125 3.09765625 C-10.5078125 2.43765625 -10.5078125 1.77765625 -10.5078125 1.09765625 C-7.22889325 -0.54180338 -3.60167716 -0.02264553 0 0 Z " fill="#B6CEE7" transform="translate(92.5078125,73.90234375)"/>
<path d="M0 0 C8.25 0 16.5 0 25 0 C25 1.32 25 2.64 25 4 C16.75 4 8.5 4 0 4 C0 2.68 0 1.36 0 0 Z " fill="#BAD1E9" transform="translate(81,35)"/>
<path d="M0 0 C8.58 0 17.16 0 26 0 C26 0.99 26 1.98 26 3 C17.42 3 8.84 3 0 3 C0 2.01 0 1.02 0 0 Z " fill="#B7CFE8" transform="translate(80,43)"/>
<path d="M0 0 C1.79296875 0.16796875 1.79296875 0.16796875 4 1 C5.73828125 3.36328125 5.73828125 3.36328125 7.3125 6.3125 C7.84488281 7.27800781 8.37726562 8.24351563 8.92578125 9.23828125 C10.05065512 12.13022971 10.14513535 13.18069016 9 16 C8.34 16 7.68 16 7 16 C5.82558465 13.89983377 4.66035988 11.79541245 3.5 9.6875 C3.16613281 9.09259766 2.83226562 8.49769531 2.48828125 7.88476562 C0.93174886 5.04171156 0 3.29339012 0 0 Z " fill="#EB3245" transform="translate(36,111)"/>
<path d="M0 0 C0.66 0 1.32 0 2 0 C3.17441535 2.10016623 4.33964012 4.20458755 5.5 6.3125 C6.00080078 7.20485352 6.00080078 7.20485352 6.51171875 8.11523438 C8.06825114 10.95828844 9 12.70660988 9 16 C7.20703125 15.83203125 7.20703125 15.83203125 5 15 C3.26171875 12.63671875 3.26171875 12.63671875 1.6875 9.6875 C0.88892578 8.23923828 0.88892578 8.23923828 0.07421875 6.76171875 C-1.05065512 3.86977029 -1.14513535 2.81930984 0 0 Z " fill="#1FAA3F" transform="translate(83,1)"/>
<path d="M0 0 C0.99 0 1.98 0 3 0 C3.08107583 1.93681161 3.13922475 3.8745934 3.1875 5.8125 C3.22230469 6.89144531 3.25710937 7.97039062 3.29296875 9.08203125 C3 12 3 12 1.61328125 13.88671875 C0 15 0 15 -2 15 C-1.814375 14.0925 -1.62875 13.185 -1.4375 12.25 C-0.80865719 9.17417437 -0.80865719 9.17417437 -1.5625 6.9375 C-2.18582062 4.17708011 -1.17928473 2.49730883 0 0 Z " fill="#384554" transform="translate(79,74)"/>
<path d="M0 0 C1.9375 0.75 1.9375 0.75 4 2 C5.23843794 4.95319818 5.04187157 5.87438528 4 9 C4.39397335 11.63804589 4.39397335 11.63804589 5 14 C4.01 14 3.02 14 2 14 C-0.08559201 10.56490728 -0.08559201 10.56490728 0.3125 7.9375 C0.539375 7.298125 0.76625 6.65875 1 6 C1.33 5.01 1.66 4.02 2 3 C1.01 2.67 0.02 2.34 -1 2 C-0.67 1.34 -0.34 0.68 0 0 Z " fill="#303E4C" transform="translate(77,52)"/>
<path d="M0 0 C-0.99 0.66 -1.98 1.32 -3 2 C-3.72382467 4.05925139 -3.72382467 4.05925139 -4 6 C-5.32 6 -6.64 6 -8 6 C-7.67 4.02 -7.34 2.04 -7 0 C-3.86650268 -1.04449911 -3.01031744 -0.93423645 0 0 Z " fill="#303E4D" transform="translate(72,88)"/>
<path d="M0 0 C1.98 0 3.96 0 6 0 C6.33 1.32 6.66 2.64 7 4 C4.69 4 2.38 4 0 4 C0 2.68 0 1.36 0 0 Z " fill="#D8D7C9" transform="translate(25,70)"/>
<path d="M0 0 C1.98 0 3.96 0 6 0 C6 1.32 6 2.64 6 4 C4.02 4 2.04 4 0 4 C0 2.68 0 1.36 0 0 Z " fill="#DBDACF" transform="translate(25,88)"/>
<path d="M0 0 C1.32 0.66 2.64 1.32 4 2 C3.67 3.98 3.34 5.96 3 8 C2.01 8 1.02 8 0 8 C-0.38063221 5.6739143 -0.71269945 3.33944736 -1 1 C-0.67 0.67 -0.34 0.34 0 0 Z " fill="#E99D04" transform="translate(53,86)"/>
<path d="M0 0 C1.32 0 2.64 0 4 0 C4.33 1.65 4.66 3.3 5 5 C5.99 5 6.98 5 8 5 C8 5.66 8 6.32 8 7 C5.25851328 6.62952882 3.41406801 6.31412056 1.1875 4.625 C0 3 0 3 0 0 Z " fill="#303D4C" transform="translate(64,47)"/>
<path d="M0 0 C2.64 0 5.28 0 8 0 C8 0.99 8 1.98 8 3 C5.69 3 3.38 3 1 3 C0.67 2.01 0.34 1.02 0 0 Z " fill="#D8DEDF" transform="translate(24,53)"/>
<path d="M0 0 C0.99 0 1.98 0 3 0 C3 1.98 3 3.96 3 6 C2.01 6 1.02 6 0 6 C0 4.02 0 2.04 0 0 Z " fill="#2C3947" transform="translate(84,67)"/>
</svg>
