<?xml version="1.0" encoding="UTF-8"?>
<svg version="1.1" xmlns="http://www.w3.org/2000/svg" width="100" height="100">
<path d="M0 0 C1.01755371 -0.00788544 1.01755371 -0.00788544 2.05566406 -0.01593018 C4.29776035 -0.02913276 6.53914651 -0.02039179 8.78125 -0.01025391 C10.3391941 -0.01227458 11.89713727 -0.01518597 13.45507812 -0.01895142 C16.72014369 -0.0233751 19.98496305 -0.0169425 23.25 -0.00292969 C27.43676349 0.01416247 31.62295007 0.00432148 35.80969238 -0.01364708 C39.02673699 -0.02448387 42.24364465 -0.02103911 45.46069336 -0.0132637 C47.0044766 -0.01126139 48.54827225 -0.01372207 50.09204102 -0.02070236 C52.24919604 -0.02831541 54.40541478 -0.01671613 56.5625 0 C57.79033203 0.00238678 59.01816406 0.00477356 60.28320312 0.00723267 C63.28125 0.38818359 63.28125 0.38818359 65.18017578 1.77011108 C66.69760657 4.00003619 66.61686275 5.64341162 66.65625 8.32568359 C66.99838433 14.05833438 68.74679706 18.4228748 71.22265625 23.56396484 C72.4067312 26.72295448 72.56534009 29.04065535 72.28125 32.38818359 C70.96875 34.26318359 70.96875 34.26318359 69.28125 35.38818359 C68.29125 35.38818359 67.30125 35.38818359 66.28125 35.38818359 C66.3126709 37.03802246 66.3126709 37.03802246 66.34472656 38.72119141 C66.41718635 42.80618241 66.46307115 46.89111673 66.50097656 50.9765625 C66.5210785 52.74391231 66.54836472 54.51119573 66.58300781 56.27832031 C66.63159009 58.82031644 66.65423226 61.36143256 66.671875 63.90380859 C66.69252014 64.69249329 66.71316528 65.48117798 66.73443604 66.29376221 C66.73580174 69.6409216 66.67465261 71.84986432 64.66741943 74.59649658 C61.51231583 76.96554803 59.57374679 76.89523846 55.6484375 76.90576172 C54.99103577 76.912771 54.33363403 76.91978027 53.65631104 76.92700195 C51.48919083 76.9445679 49.32338284 76.93296595 47.15625 76.91943359 C45.64697011 76.92212896 44.13769192 76.92601175 42.62841797 76.93103027 C39.46760501 76.93692336 36.30724466 76.9283691 33.14648438 76.90966797 C29.09756443 76.88687779 25.04970502 76.90000199 21.00082397 76.92395782 C17.88492867 76.93842137 14.76928426 76.93380743 11.65338135 76.92344666 C10.1606636 76.92078087 8.66792296 76.92404397 7.17523193 76.93336487 C5.08756296 76.94354055 3.00160426 76.92801928 0.9140625 76.90576172 C-0.86653564 76.90098816 -0.86653564 76.90098816 -2.68310547 76.89611816 C-6.3510196 76.28239005 -7.54321899 75.36510911 -9.71875 72.38818359 C-10.06773973 69.4289008 -10.18659199 66.85364839 -10.109375 63.90380859 C-10.10371521 63.08821472 -10.09805542 62.27262085 -10.09222412 61.43231201 C-10.06987727 58.83366588 -10.01968622 56.23641118 -9.96875 53.63818359 C-9.94868271 51.87388063 -9.93043234 50.10955599 -9.9140625 48.34521484 C-9.8700183 44.02567032 -9.80100422 39.70716266 -9.71875 35.38818359 C-10.646875 35.20255859 -10.646875 35.20255859 -11.59375 35.01318359 C-13.71875 34.38818359 -13.71875 34.38818359 -15.71875 32.38818359 C-16.17997731 27.78240668 -15.26673686 24.82352174 -13.28125 20.70068359 C-10.99181787 15.55747753 -10.13704388 11.27399657 -10.0546875 5.66552734 C-9.71875 3.38818359 -9.71875 3.38818359 -8.61767578 1.77011108 C-5.78271501 -0.29300811 -3.47756873 0.00676004 0 0 Z " fill="#2881FF" transform="translate(21.71875,11.61181640625)"/>
<path d="M0 0 C1.01755371 -0.00788544 1.01755371 -0.00788544 2.05566406 -0.01593018 C4.29776035 -0.02913276 6.53914651 -0.02039179 8.78125 -0.01025391 C10.3391941 -0.01227458 11.89713727 -0.01518597 13.45507812 -0.01895142 C16.72014369 -0.0233751 19.98496305 -0.0169425 23.25 -0.00292969 C27.43676349 0.01416247 31.62295007 0.00432148 35.80969238 -0.01364708 C39.02673699 -0.02448387 42.24364465 -0.02103911 45.46069336 -0.0132637 C47.0044766 -0.01126139 48.54827225 -0.01372207 50.09204102 -0.02070236 C52.24919604 -0.02831541 54.40541478 -0.01671613 56.5625 0 C57.79033203 0.00238678 59.01816406 0.00477356 60.28320312 0.00723267 C63.28125 0.38818359 63.28125 0.38818359 65.18017578 1.77011108 C66.69760657 4.00003619 66.61686275 5.64341162 66.65625 8.32568359 C66.99838433 14.05833438 68.74679706 18.4228748 71.22265625 23.56396484 C72.4240888 26.76926276 72.68866678 28.99304374 72.28125 32.38818359 C71.2487793 34.04092407 71.2487793 34.04092407 69.28125 35.38818359 C66.59739701 35.68422609 64.14541543 35.7980667 61.4609375 35.77636719 C60.26781952 35.78425262 60.26781952 35.78425262 59.05059814 35.79229736 C56.41894954 35.80551106 53.78790485 35.79675463 51.15625 35.78662109 C49.32926314 35.78864144 47.50227706 35.79155255 45.67529297 35.7953186 C41.84529954 35.79974381 38.01551593 35.79330462 34.18554688 35.77929688 C29.27240295 35.76220485 24.35975064 35.77204499 19.44662476 35.79001427 C15.67370896 35.80084682 11.90091001 35.7974082 8.12799072 35.78963089 C6.31626325 35.78762742 4.50452521 35.7900933 2.69281006 35.79706955 C0.1621077 35.8046754 -2.36779483 35.79309246 -4.8984375 35.77636719 C-6.0253299 35.78547623 -6.0253299 35.78547623 -7.17498779 35.79476929 C-12.21525145 35.73295265 -12.21525145 35.73295265 -14.6862793 34.04092407 C-16.32552994 31.41687297 -16.04381193 29.41835864 -15.71875 26.38818359 C-14.66015625 23.56396484 -14.66015625 23.56396484 -13.28125 20.70068359 C-10.99181787 15.55747753 -10.13704388 11.27399657 -10.0546875 5.66552734 C-9.71875 3.38818359 -9.71875 3.38818359 -8.61767578 1.77011108 C-5.78271501 -0.29300811 -3.47756873 0.00676004 0 0 Z " fill="#FF6A56" transform="translate(21.71875,11.61181640625)"/>
<path d="M0 0 C1.01755371 -0.00788544 1.01755371 -0.00788544 2.05566406 -0.01593018 C4.29776035 -0.02913276 6.53914651 -0.02039179 8.78125 -0.01025391 C10.3391941 -0.01227458 11.89713727 -0.01518597 13.45507812 -0.01895142 C16.72014369 -0.0233751 19.98496305 -0.0169425 23.25 -0.00292969 C27.43676349 0.01416247 31.62295007 0.00432148 35.80969238 -0.01364708 C39.02673699 -0.02448387 42.24364465 -0.02103911 45.46069336 -0.0132637 C47.0044766 -0.01126139 48.54827225 -0.01372207 50.09204102 -0.02070236 C52.24919604 -0.02831541 54.40541478 -0.01671613 56.5625 0 C57.79033203 0.00238678 59.01816406 0.00477356 60.28320312 0.00723267 C63.28125 0.38818359 63.28125 0.38818359 66.28125 3.38818359 C66.28125 6.68818359 66.28125 9.98818359 66.28125 13.38818359 C41.20125 13.38818359 16.12125 13.38818359 -9.71875 13.38818359 C-9.71875 10.08818359 -9.71875 6.78818359 -9.71875 3.38818359 C-6.03953526 -0.29103115 -5.05181833 0.00982022 0 0 Z " fill="#2881FF" transform="translate(21.71875,11.61181640625)"/>
<path d="M0 0 C0.66 0 1.32 0 2 0 C2.09895826 5.19606986 2.17150993 10.39158998 2.21972656 15.58837891 C2.2398285 17.35572872 2.26711472 19.12301213 2.30175781 20.89013672 C2.35034009 23.43213285 2.37298226 25.97324896 2.390625 28.515625 C2.41127014 29.30430969 2.43191528 30.09299438 2.45318604 30.90557861 C2.45458969 34.34574477 2.26801656 36.58470381 0.3828125 39.50585938 C-2.75905342 41.47596383 -4.81991689 41.45781969 -8.515625 41.390625 C-9.76601562 41.37773438 -11.01640625 41.36484375 -12.3046875 41.3515625 C-14.25761719 41.30128906 -14.25761719 41.30128906 -16.25 41.25 C-17.56742188 41.23195312 -18.88484375 41.21390625 -20.2421875 41.1953125 C-23.49552308 41.14816271 -26.74739625 41.08236044 -30 41 C-30.04938628 36.76417673 -30.08571263 32.52850535 -30.10986328 28.29248047 C-30.11992963 26.85104453 -30.1335838 25.40962905 -30.15087891 23.96826172 C-30.17510012 21.89806066 -30.18647641 19.82812924 -30.1953125 17.7578125 C-30.20578613 16.5114502 -30.21625977 15.26508789 -30.22705078 13.98095703 C-30 11 -30 11 -28 9 C-25.45464859 8.80150929 -23.04283241 8.72148225 -20.5 8.75 C-19.81035156 8.74226563 -19.12070313 8.73453125 -18.41015625 8.7265625 C-13.25333293 8.74666707 -13.25333293 8.74666707 -11 11 C-10.77294922 13.79736328 -10.77294922 13.79736328 -10.8046875 17.3203125 C-10.81113281 18.57714844 -10.81757812 19.83398438 -10.82421875 21.12890625 C-10.84097656 22.44761719 -10.85773438 23.76632813 -10.875 25.125 C-10.88503017 26.46483721 -10.89415596 27.80468152 -10.90234375 29.14453125 C-10.92597925 32.42986573 -10.95892766 35.71484465 -11 39 C-5.41499433 38.80101292 -5.41499433 38.80101292 -1 36 C-0.75443629 33.27999643 -0.62643514 30.65425743 -0.5859375 27.9296875 C-0.56657135 27.13345978 -0.5472052 26.33723206 -0.5272522 25.51687622 C-0.46739526 22.96969366 -0.42104721 20.42246605 -0.375 17.875 C-0.33682579 16.1497197 -0.29777439 14.42445857 -0.2578125 12.69921875 C-0.16168891 8.46630124 -0.07768092 4.23329451 0 0 Z " fill="#B2D1FF" transform="translate(86,47)"/>
<path d="M0 0 C1.03447266 0.01160156 1.03447266 0.01160156 2.08984375 0.0234375 C2.77949219 0.01570313 3.46914063 0.00796875 4.1796875 0 C9.33651082 0.02010457 9.33651082 0.02010457 11.58984375 2.2734375 C11.78833446 4.81878891 11.8683615 7.23060509 11.83984375 9.7734375 C11.84757812 10.46308594 11.8553125 11.15273437 11.86328125 11.86328125 C11.84317668 17.02010457 11.84317668 17.02010457 9.58984375 19.2734375 C6.86287152 19.44514653 4.25077907 19.5058943 1.52734375 19.4609375 C0.78162109 19.46029297 0.03589844 19.45964844 -0.73242188 19.45898438 C-6.26987466 19.41371909 -6.26987466 19.41371909 -7.41015625 18.2734375 C-7.53673847 15.61521093 -7.59535839 12.99456326 -7.59765625 10.3359375 C-7.60990234 9.59408203 -7.62214844 8.85222656 -7.63476562 8.08789062 C-7.64004103 6.14830121 -7.53204527 4.2092004 -7.41015625 2.2734375 C-4.91805186 -0.21866689 -3.40654837 0.01328089 0 0 Z " fill="#A4C9FF" transform="translate(32.41015625,55.7265625)"/>
<path d="M0 0 C1.65322266 0.01740234 1.65322266 0.01740234 3.33984375 0.03515625 C4.99693359 0.04869141 4.99693359 0.04869141 6.6875 0.0625 C7.54214844 0.07410156 8.39679687 0.08570312 9.27734375 0.09765625 C6.27734375 11.09765625 6.27734375 11.09765625 3.27734375 22.09765625 C1.84078521 22.17897088 0.40289545 22.23699184 -1.03515625 22.28515625 C-2.23591797 22.33736328 -2.23591797 22.33736328 -3.4609375 22.390625 C-5.72265625 22.09765625 -5.72265625 22.09765625 -7.515625 20.9609375 C-9.30230552 18.20285786 -9.06587326 16.33652025 -8.72265625 13.09765625 C-7.6640625 9.921875 -7.6640625 9.921875 -6.28515625 6.78515625 C-5.83269531 5.73714844 -5.38023438 4.68914063 -4.9140625 3.609375 C-3.25741539 0.11683699 -3.25741539 0.11683699 0 0 Z " fill="#FE361A" transform="translate(14.72265625,24.90234375)"/>
<path d="M0 0 C3.96 0 7.92 0 12 0 C18.64477612 13.0680597 18.64477612 13.0680597 18 19 C16.7734375 20.66796875 16.7734375 20.66796875 15 22 C12.73828125 22.29296875 12.73828125 22.29296875 10.3125 22.1875 C9.50425781 22.16042969 8.69601563 22.13335937 7.86328125 22.10546875 C7.24839844 22.07066406 6.63351563 22.03585938 6 22 C4.9978766 18.52144132 3.9986571 15.04205526 3 11.5625 C2.71382813 10.56927734 2.42765625 9.57605469 2.1328125 8.55273438 C1.86210938 7.60849609 1.59140625 6.66425781 1.3125 5.69140625 C1.06113281 4.81685791 0.80976562 3.94230957 0.55078125 3.04125977 C0 1 0 1 0 0 Z " fill="#FE351A" transform="translate(76,25)"/>
<path d="M0 0 C3.3 0 6.6 0 10 0 C12.99671237 7.13502944 14.4996986 14.42400993 16 22 C11.71 22 7.42 22 3 22 C2.49465273 19.27172635 1.99556155 16.54255306 1.5 13.8125 C1.35691406 13.04357422 1.21382813 12.27464844 1.06640625 11.48242188 C0.93105469 10.73154297 0.79570313 9.98066406 0.65625 9.20703125 C0.53056641 8.5210083 0.40488281 7.83498535 0.27539062 7.12817383 C0 5 0 5 0 0 Z " fill="#FE705D" transform="translate(66,25)"/>
<path d="M0 0 C0.69416016 -0.01224609 1.38832031 -0.02449219 2.10351562 -0.03710938 C3.92470901 -0.04239842 5.7453692 0.06580793 7.5625 0.1875 C8.2225 0.8475 8.8825 1.5075 9.5625 2.1875 C9.29600589 6.34335612 7.92491507 8.31561785 5 11.17578125 C4.28585938 11.88154297 3.57171875 12.58730469 2.8359375 13.31445312 C2.08570312 14.03568359 1.33546875 14.75691406 0.5625 15.5 C-0.18773438 16.24056641 -0.93796875 16.98113281 -1.7109375 17.74414062 C-7.26968606 23.1875 -7.26968606 23.1875 -8.4375 23.1875 C-8.46637512 19.54168313 -8.48425585 15.89589537 -8.5 12.25 C-8.50837891 11.20908203 -8.51675781 10.16816406 -8.52539062 9.09570312 C-8.53022461 7.61166992 -8.53022461 7.61166992 -8.53515625 6.09765625 C-8.54039307 5.18121338 -8.54562988 4.26477051 -8.55102539 3.32055664 C-8.29641889 -1.46330794 -3.74560148 0.00345854 0 0 Z " fill="#BED9FF" transform="translate(65.4375,55.8125)"/>
<path d="M0 0 C3.3 0 6.6 0 10 0 C9.34557349 7.41683375 8.27947937 14.6643183 7 22 C2.71 22 -1.58 22 -6 22 C-4.4996986 14.42400993 -2.99671237 7.13502944 0 0 Z " fill="#FF6752" transform="translate(24,25)"/>
<path d="M0 0 C3.3 0 6.6 0 10 0 C10 7.26 10 14.52 10 22 C5.71 22 1.42 22 -3 22 C-2.4754241 14.48107874 -1.62315515 7.35830333 0 0 Z " fill="#FE351A" transform="translate(34,25)"/>
<path d="M0 0 C3.3 0 6.6 0 10 0 C10.50688605 2.54046458 11.00566874 5.08208876 11.5 7.625 C11.64308594 8.33785156 11.78617188 9.05070312 11.93359375 9.78515625 C12.06894531 10.48769531 12.20429687 11.19023438 12.34375 11.9140625 C12.46943359 12.5529541 12.59511719 13.1918457 12.72460938 13.85009766 C13.06997196 16.54625274 13 19.28181539 13 22 C8.71 22 4.42 22 0 22 C0 14.74 0 7.48 0 0 Z " fill="#FE351A" transform="translate(56,25)"/>
<path d="M0 0 C0.9662606 -0.00065712 0.9662606 -0.00065712 1.95204163 -0.00132751 C4.07877029 0.00076058 6.2047081 0.02409104 8.33129883 0.04760742 C9.80674305 0.05320334 11.28219286 0.05747346 12.75764465 0.06047058 C16.63922542 0.0719198 20.52046891 0.10138731 24.4019165 0.13458252 C28.36335691 0.16528193 32.32485186 0.17897562 36.28637695 0.1940918 C44.05801502 0.22625723 51.82937527 0.27745412 59.60083008 0.34057617 C59.60083008 3.31057617 59.60083008 6.28057617 59.60083008 9.34057617 C57.95083008 9.67057617 56.30083008 10.00057617 54.60083008 10.34057617 C53.8012987 7.05361384 53.50424072 5.63034425 54.60083008 2.34057617 C52.62083008 2.67057617 50.64083008 3.00057617 48.60083008 3.34057617 C49.26083008 4.00057617 49.92083008 4.66057617 50.60083008 5.34057617 C50.22583008 7.46557617 50.22583008 7.46557617 49.60083008 9.34057617 C48.28083008 9.67057617 46.96083008 10.00057617 45.60083008 10.34057617 C44.8012987 7.05361384 44.50424072 5.63034425 45.60083008 2.34057617 C38.35583058 2.45786258 31.11098995 2.58269852 23.86621094 2.71289062 C21.39944439 2.7563156 18.9326463 2.79798489 16.46582031 2.83789062 C12.92869542 2.89541062 9.39173042 2.95915692 5.85473633 3.02416992 C4.74433487 3.04088242 3.63393341 3.05759491 2.48988342 3.07481384 C1.4689006 3.09475906 0.44791779 3.11470428 -0.60400391 3.13525391 C-1.95968727 3.15857033 -1.95968727 3.15857033 -3.34275818 3.18235779 C-5.39111093 3.11559074 -5.39111093 3.11559074 -6.39916992 4.34057617 C-6.63109857 5.85527066 -6.81132231 7.37812179 -6.96166992 8.90307617 C-7.04545898 9.72936523 -7.12924805 10.5556543 -7.21557617 11.40698242 C-7.27616211 12.04506836 -7.33674805 12.6831543 -7.39916992 13.34057617 C-8.05916992 13.34057617 -8.71916992 13.34057617 -9.39916992 13.34057617 C-9.48038916 11.73724826 -9.53846126 10.13273591 -9.58666992 8.52807617 C-9.62147461 7.63475586 -9.6562793 6.74143555 -9.69213867 5.82104492 C-9.39916992 3.34057617 -9.39916992 3.34057617 -8.2808075 1.70683289 C-5.52192624 -0.29639031 -3.38451342 -0.01934008 0 0 Z " fill="#64A4FF" transform="translate(21.399169921875,11.659423828125)"/>
<path d="M0 0 C3.3 0 6.6 0 10 0 C9.05296732 3.78813073 8.86483639 4.51185669 6.3125 7.015625 C5.77882813 7.54414062 5.24515625 8.07265625 4.6953125 8.6171875 C4.13585938 9.15601563 3.57640625 9.69484375 3 10.25 C2.44054687 10.80429687 1.88109375 11.35859375 1.3046875 11.9296875 C-2.8458282 16 -2.8458282 16 -4 16 C-3.47606294 10.13190493 -2.23891142 5.45126259 0 0 Z " fill="#FF6E5A" transform="translate(24,25)"/>
<path d="M0 0 C1.79244141 0.01740234 1.79244141 0.01740234 3.62109375 0.03515625 C5.41740234 0.04869141 5.41740234 0.04869141 7.25 0.0625 C8.17683594 0.07410156 9.10367188 0.08570313 10.05859375 0.09765625 C5.96332788 4.99199838 1.7950229 9.80485959 -2.94140625 14.09765625 C-3.27140625 14.09765625 -3.60140625 14.09765625 -3.94140625 14.09765625 C-3.96826563 11.95188988 -3.98773713 9.8060298 -4.00390625 7.66015625 C-4.01550781 6.46519531 -4.02710937 5.27023438 -4.0390625 4.0390625 C-3.90927257 0.12978993 -3.90927257 0.12978993 0 0 Z " fill="#B4D3FF" transform="translate(28.94140625,56.90234375)"/>
<path d="M0 0 C0.66 0 1.32 0 2 0 C2.09895826 5.19606986 2.17150993 10.39158998 2.21972656 15.58837891 C2.2398285 17.35572872 2.26711472 19.12301213 2.30175781 20.89013672 C2.35034009 23.43213285 2.37298226 25.97324896 2.390625 28.515625 C2.41127014 29.30430969 2.43191528 30.09299438 2.45318604 30.90557861 C2.45465997 34.5179942 2.32058895 36.57199207 0.12304688 39.50585938 C-2.40941311 41.28813342 -3.69027701 41.42998371 -6.75 41.25 C-7.54921875 41.21390625 -8.3484375 41.1778125 -9.171875 41.140625 C-9.77515625 41.09421875 -10.3784375 41.0478125 -11 41 C-11 40.34 -11 39.68 -11 39 C-9.72125 38.87625 -8.4425 38.7525 -7.125 38.625 C-3.65209064 38.30957601 -3.65209064 38.30957601 -1 36 C-0.75443629 33.27999643 -0.62643514 30.65425743 -0.5859375 27.9296875 C-0.56657135 27.13345978 -0.5472052 26.33723206 -0.5272522 25.51687622 C-0.46739526 22.96969366 -0.42104721 20.42246605 -0.375 17.875 C-0.33682579 16.1497197 -0.29777439 14.42445857 -0.2578125 12.69921875 C-0.16168891 8.46630124 -0.07768092 4.23329451 0 0 Z " fill="#64A4FF" transform="translate(86,47)"/>
<path d="M0 0 C3.3 0 6.6 0 10 0 C8.92987535 4.28049858 8.07032338 5.28933102 5 8.25 C4.278125 8.95640625 3.55625 9.6628125 2.8125 10.390625 C1 12 1 12 0 12 C0 8.04 0 4.08 0 0 Z " fill="#FF7865" transform="translate(45,25)"/>
<path d="M0 0 C1.16692383 0.00773438 1.16692383 0.00773438 2.35742188 0.015625 C7.41128948 0.0830661 12.3093369 0.54098031 17.3125 1.25 C17.3125 1.58 17.3125 1.91 17.3125 2.25 C16.5604126 2.27505615 15.8083252 2.3001123 15.03344727 2.32592773 C11.64710804 2.44150514 8.26107387 2.56440345 4.875 2.6875 C3.09899414 2.74647461 3.09899414 2.74647461 1.28710938 2.80664062 C0.16240234 2.84853516 -0.96230469 2.89042969 -2.12109375 2.93359375 C-3.16322021 2.97025146 -4.20534668 3.00690918 -5.27905273 3.04467773 C-7.6374826 2.98515341 -7.6374826 2.98515341 -8.6875 4.25 C-8.91942865 5.76469448 -9.09965238 7.28754562 -9.25 8.8125 C-9.33378906 9.63878906 -9.41757813 10.46507812 -9.50390625 11.31640625 C-9.56449219 11.95449219 -9.62507812 12.59257812 -9.6875 13.25 C-10.3475 13.25 -11.0075 13.25 -11.6875 13.25 C-11.76871924 11.64667209 -11.82679134 10.04215974 -11.875 8.4375 C-11.90980469 7.54417969 -11.94460938 6.65085937 -11.98046875 5.73046875 C-11.19004396 -0.96179448 -5.4483031 -0.14094236 0 0 Z " fill="#90BDFF" transform="translate(23.6875,11.75)"/>
<path d="M0 0 C3.3 0 6.6 0 10 0 C8.95475221 4.18099116 8.5894258 4.72845936 5.4375 7.25 C4.79683594 7.77078125 4.15617187 8.2915625 3.49609375 8.828125 C3.00238281 9.21484375 2.50867188 9.6015625 2 10 C0.26265853 6.19956554 0 4.40285423 0 0 Z " fill="#FF8070" transform="translate(66,25)"/>
<path d="M0 0 C3 1 3 1 4.38671875 3.51171875 C4.81597656 4.55972656 5.24523437 5.60773437 5.6875 6.6875 C6.12449219 7.72261719 6.56148438 8.75773437 7.01171875 9.82421875 C8.03204153 13.10296351 8.27400198 15.58965391 8 19 C6.8125 20.875 6.8125 20.875 5 22 C2.3125 22.1875 2.3125 22.1875 0 22 C0 21.34 0 20.68 0 20 C1.65 19.34 3.3 18.68 5 18 C4.47105792 12.97505026 2.8002863 8.77647316 0.83984375 4.171875 C0 2 0 2 0 0 Z " fill="#FF462F" transform="translate(86,25)"/>
<path d="M0 0 C0.66 0 1.32 0 2 0 C1.54363464 1.396478 1.08480512 2.7921508 0.625 4.1875 C0.35429687 5.01121094 0.08359375 5.83492187 -0.1953125 6.68359375 C-1 9 -1 9 -2.25 11.75 C-3.17258458 14.51775375 -2.79128038 16.23051867 -2 19 C-0.68 19.33 0.64 19.66 2 20 C2 20.66 2 21.32 2 22 C-0.74086056 22.22223194 -2.43963721 22.34781139 -4.8125 20.875 C-6.53955285 18.14807444 -6.22106646 16.19784064 -6 13 C-4.94140625 9.82421875 -4.94140625 9.82421875 -3.5625 6.6875 C-3.11003906 5.63949219 -2.65757813 4.59148438 -2.19140625 3.51171875 C-1 1 -1 1 0 0 Z " fill="#FF8A78" transform="translate(12,25)"/>
<path d="M0 0 C0.99 0.33 1.98 0.66 3 1 C3.33 3.31 3.66 5.62 4 8 C0.04 8 -3.92 8 -8 8 C-5.33333333 5.33333333 -2.66666667 2.66666667 0 0 Z " fill="#FC7F6F" transform="translate(78,39)"/>
<path d="M0 0 C2.6903975 4.03559625 2.65832398 7.26348721 2 12 C0.5625 14.5625 0.5625 14.5625 -2 16 C-5.03150574 16.30784654 -7.96538574 16.23343187 -11 16 C-11 15.34 -11 14.68 -11 14 C-9.72125 13.87625 -8.4425 13.7525 -7.125 13.625 C-3.65209064 13.30957601 -3.65209064 13.30957601 -1 11 C-0.53709779 8.33757179 -0.53709779 8.33757179 -0.375 5.375 C-0.30023438 4.37210937 -0.22546875 3.36921875 -0.1484375 2.3359375 C-0.09945312 1.56507812 -0.05046875 0.79421875 0 0 Z " fill="#7CB2FF" transform="translate(86,72)"/>
<path d="M0 0 C2.05078125 0.03255208 4.1015625 0.06510417 6.15234375 0.09765625 C5.21960266 1.22660501 4.28094253 2.35066501 3.33984375 3.47265625 C2.81777344 4.09914063 2.29570312 4.725625 1.7578125 5.37109375 C0.15234375 7.09765625 0.15234375 7.09765625 -2.84765625 9.09765625 C-2.9453125 2.9453125 -2.9453125 2.9453125 -2.84765625 1.09765625 C-1.84765625 0.09765625 -1.84765625 0.09765625 0 0 Z " fill="#C6DDFF" transform="translate(27.84765625,56.90234375)"/>
<path d="M0 0 C2.31 0 4.62 0 7 0 C6.06725891 1.12894876 5.12859878 2.25300876 4.1875 3.375 C3.66542969 4.00148438 3.14335937 4.62796875 2.60546875 5.2734375 C1 7 1 7 -2 9 C-1.125 2.25 -1.125 2.25 0 0 Z " fill="#FF7B68" transform="translate(24,25)"/>
<path d="M0 0 C0.66 0.33 1.32 0.66 2 1 C2 2.98 2 4.96 2 7 C-1.96 7 -5.92 7 -10 7 C-10 6.67 -10 6.34 -10 6 C-8.63875 5.62875 -8.63875 5.62875 -7.25 5.25 C-3.89648511 3.96018658 -2.32291764 2.68028958 0 0 Z " fill="#FB7969" transform="translate(54,40)"/>
<path d="M0 0 C2.64 0 5.28 0 8 0 C7.04578192 1.14926266 6.08647955 2.29430541 5.125 3.4375 C4.59132813 4.07558594 4.05765625 4.71367187 3.5078125 5.37109375 C2 7 2 7 0 8 C0 5.36 0 2.72 0 0 Z " fill="#FF8371" transform="translate(45,25)"/>
<path d="M0 0 C2.64 0 5.28 0 8 0 C6.02 2.31 4.04 4.62 2 7 C0 5 0 5 -0.125 2.375 C-0.08375 1.59125 -0.0425 0.8075 0 0 Z " fill="#FF8A79" transform="translate(66,25)"/>
<path d="M0 0 C1.65 0.33 3.3 0.66 5 1 C4.67 2.65 4.34 4.3 4 6 C2.35 5.67 0.7 5.34 -1 5 C-0.67 3.35 -0.34 1.7 0 0 Z " fill="#B3D2FF" transform="translate(76,16)"/>
<path d="M0 0 C1.65 0 3.3 0 5 0 C5 1.65 5 3.3 5 5 C3.125 5.625 3.125 5.625 1 6 C0.34 5.34 -0.32 4.68 -1 4 C-0.625 1.875 -0.625 1.875 0 0 Z " fill="#ABCEFF" transform="translate(57,16)"/>
<path d="M0 0 C0.74609375 1.734375 0.74609375 1.734375 1 4 C-0.65234375 6.140625 -0.65234375 6.140625 -2.9375 8.25 C-3.68902344 8.95640625 -4.44054687 9.6628125 -5.21484375 10.390625 C-5.80394531 10.92171875 -6.39304687 11.4528125 -7 12 C-7.66 10.68 -8.32 9.36 -9 8 C-8.443125 7.79375 -7.88625 7.5875 -7.3125 7.375 C-4.07498698 5.44999226 -2.31768859 2.96149098 0 0 Z " fill="#FF7664" transform="translate(76,26)"/>
<path d="M0 0 C1.67542976 0.28604898 3.34385343 0.61781233 5 1 C4.67 2.32 4.34 3.64 4 5 C2.68 5.33 1.36 5.66 0 6 C-0.38218767 4.34385343 -0.71395102 2.67542976 -1 1 C-0.67 0.67 -0.34 0.34 0 0 Z " fill="#B1D1FF" transform="translate(67,16)"/>
<path d="M0 0 C0.33 0 0.66 0 1 0 C1 1.98 1 3.96 1 6 C-3.29 6 -7.58 6 -12 6 C-12 5.67 -12 5.34 -12 5 C-10.7625 4.9175 -9.525 4.835 -8.25 4.75 C-4.27716348 4.27888487 -2.55558155 3.16892112 0 0 Z " fill="#FB6F5E" transform="translate(30,41)"/>
<path d="M0 0 C2 3 2 3 4 6 C6.05925139 6.72382467 6.05925139 6.72382467 8 7 C8 7.66 8 8.32 8 9 C5.25913944 9.22223194 3.56036279 9.34781139 1.1875 7.875 C-0.49106106 5.22464043 -0.20450238 3.06753576 0 0 Z " fill="#FE7E6A" transform="translate(6,38)"/>
<path d="M0 0 C0.66 0 1.32 0 2 0 C1.42655063 2.86724686 1.1385485 3.8614515 -1 6 C-3.625 6.125 -3.625 6.125 -6 6 C-6 5.34 -6 4.68 -6 4 C-4.7934375 3.566875 -4.7934375 3.566875 -3.5625 3.125 C-0.8673532 2.26737432 -0.8673532 2.26737432 0 0 Z " fill="#FD6551" transform="translate(92,41)"/>
<path d="M0 0 C1.2065625 0.0309375 1.2065625 0.0309375 2.4375 0.0625 C2.1075 1.3825 1.7775 2.7025 1.4375 4.0625 C0.1175 4.0625 -1.2025 4.0625 -2.5625 4.0625 C-2.8925 3.0725 -3.2225 2.0825 -3.5625 1.0625 C-2.5625 0.0625 -2.5625 0.0625 0 0 Z " fill="#3C8DFF" transform="translate(78.5625,11.9375)"/>
<path d="M0 0 C0.66 0 1.32 0 2 0 C3.4606285 2.64738916 4 3.89448334 4 7 C3.01 6.67 2.02 6.34 1 6 C0.67 4.02 0.34 2.04 0 0 Z " fill="#FF5541" transform="translate(90,34)"/>
</svg>
