<svg width="128" height="128" version="1.1" xmlns="http://www.w3.org/2000/svg" desc="Created with imagetracer.js version 1.2.6" ><path fill="rgb(241,107,97)" stroke="rgb(241,107,97)" stroke-width="1" opacity="1" d="M 16.5 16 L 17.5 18 L 16.5 16 Z " /><path fill="rgb(241,107,97)" stroke="rgb(241,107,97)" stroke-width="1" opacity="1" d="M 111.5 16 L 110.5 18 L 111.5 16 Z " /><path fill="rgb(241,107,97)" stroke="rgb(241,107,97)" stroke-width="1" opacity="1" d="M 21.5 20 L 22.5 22 L 21.5 20 Z " /><path fill="rgb(241,107,97)" stroke="rgb(241,107,97)" stroke-width="1" opacity="1" d="M 106.5 20 L 105.5 22 L 106.5 20 Z " /><path fill="rgb(241,107,97)" stroke="rgb(241,107,97)" stroke-width="1" opacity="1" d="M 26.5 24 L 27.5 26 L 26.5 24 Z " /><path fill="rgb(241,107,97)" stroke="rgb(241,107,97)" stroke-width="1" opacity="1" d="M 101.5 24 L 100.5 26 L 101.5 24 Z " /><path fill="rgb(241,107,97)" stroke="rgb(241,107,97)" stroke-width="1" opacity="1" d="M 30.5 27 L 31.5 29 L 30.5 27 Z " /><path fill="rgb(241,107,97)" stroke="rgb(241,107,97)" stroke-width="1" opacity="1" d="M 97.5 27 L 96.5 29 L 97.5 27 Z " /><path fill="rgb(241,107,97)" stroke="rgb(241,107,97)" stroke-width="1" opacity="1" d="M 35.5 31 L 36.5 33 L 35.5 31 Z " /><path fill="rgb(241,107,97)" stroke="rgb(241,107,97)" stroke-width="1" opacity="1" d="M 92.5 31 L 91.5 33 L 92.5 31 Z " /><path fill="rgb(241,107,97)" stroke="rgb(241,107,97)" stroke-width="1" opacity="1" d="M 40.5 35 L 41.5 37 L 40.5 35 Z " /><path fill="rgb(241,107,97)" stroke="rgb(241,107,97)" stroke-width="1" opacity="1" d="M 87.5 35 L 86.5 37 L 87.5 35 Z " /><path fill="rgb(241,107,97)" stroke="rgb(241,107,97)" stroke-width="1" opacity="1" d="M 19.5 39 L 20.5 41 L 19.5 39 Z " /><path fill="rgb(241,107,97)" stroke="rgb(241,107,97)" stroke-width="1" opacity="1" d="M 45.5 39 L 46.5 41 L 45.5 39 Z " /><path fill="rgb(241,107,97)" stroke="rgb(241,107,97)" stroke-width="1" opacity="1" d="M 82.5 39 L 81.5 41 L 82.5 39 Z " /><path fill="rgb(241,107,97)" stroke="rgb(241,107,97)" stroke-width="1" opacity="1" d="M 108.5 39 L 107.5 41 L 108.5 39 Z " /><path fill="rgb(241,107,97)" stroke="rgb(241,107,97)" stroke-width="1" opacity="1" d="M 23.5 42 L 24.5 44 L 23.5 42 Z " /><path fill="rgb(241,107,97)" stroke="rgb(241,107,97)" stroke-width="1" opacity="1" d="M 49.5 42 L 50.5 44 L 49.5 42 Z " /><path fill="rgb(241,107,97)" stroke="rgb(241,107,97)" stroke-width="1" opacity="1" d="M 78.5 42 L 77.5 44 L 78.5 42 Z " /><path fill="rgb(241,107,97)" stroke="rgb(241,107,97)" stroke-width="1" opacity="1" d="M 104.5 42 L 103.5 44 L 104.5 42 Z " /><path fill="rgb(241,107,97)" stroke="rgb(241,107,97)" stroke-width="1" opacity="1" d="M 28.5 46 L 29.5 48 L 28.5 46 Z " /><path fill="rgb(241,107,97)" stroke="rgb(241,107,97)" stroke-width="1" opacity="1" d="M 54.5 46 L 55.5 48 L 54.5 46 Z " /><path fill="rgb(241,107,97)" stroke="rgb(241,107,97)" stroke-width="1" opacity="1" d="M 73.5 46 L 72.5 48 L 73.5 46 Z " /><path fill="rgb(241,107,97)" stroke="rgb(241,107,97)" stroke-width="1" opacity="1" d="M 99.5 46 L 98.5 48 L 99.5 46 Z " /><path fill="rgb(241,107,97)" stroke="rgb(241,107,97)" stroke-width="1" opacity="1" d="M 32.5 49 L 33.5 51 L 32.5 49 Z " /><path fill="rgb(241,107,97)" stroke="rgb(241,107,97)" stroke-width="1" opacity="1" d="M 95.5 49 L 94.5 51 L 95.5 49 Z " /><path fill="rgb(241,107,97)" stroke="rgb(241,107,97)" stroke-width="1" opacity="1" d="M 59.5 50 L 60.5 52 L 59.5 50 Z " /><path fill="rgb(241,107,97)" stroke="rgb(241,107,97)" stroke-width="1" opacity="1" d="M 68.5 50 L 67.5 52 L 68.5 50 Z " /><path fill="rgb(241,107,97)" stroke="rgb(241,107,97)" stroke-width="1" opacity="1" d="M 36.5 52 L 37.5 54 L 36.5 52 Z " /><path fill="rgb(241,107,97)" stroke="rgb(241,107,97)" stroke-width="1" opacity="1" d="M 91.5 52 L 90.5 54 L 91.5 52 Z " /><path fill="rgb(241,107,97)" stroke="rgb(241,107,97)" stroke-width="1" opacity="1" d="M 41.5 56 L 42.5 58 L 41.5 56 Z " /><path fill="rgb(241,107,97)" stroke="rgb(241,107,97)" stroke-width="1" opacity="1" d="M 86.5 56 L 85.5 58 L 86.5 56 Z " /><path fill="rgb(241,107,97)" stroke="rgb(241,107,97)" stroke-width="1" opacity="1" d="M 45.5 59 L 46.5 61 L 45.5 59 Z " /><path fill="rgb(241,107,97)" stroke="rgb(241,107,97)" stroke-width="1" opacity="1" d="M 82.5 59 L 81.5 61 L 82.5 59 Z " /><path fill="rgb(241,107,97)" stroke="rgb(241,107,97)" stroke-width="1" opacity="1" d="M 49.5 62 L 50.5 64 L 49.5 62 Z " /><path fill="rgb(241,107,97)" stroke="rgb(241,107,97)" stroke-width="1" opacity="1" d="M 78.5 62 L 77.5 64 L 78.5 62 Z " /><path fill="rgb(241,107,97)" stroke="rgb(241,107,97)" stroke-width="1" opacity="1" d="M 54.5 66 L 55.5 68 L 54.5 66 Z " /><path fill="rgb(241,107,97)" stroke="rgb(241,107,97)" stroke-width="1" opacity="1" d="M 73.5 66 L 72.5 68 L 73.5 66 Z " /><path fill="rgb(241,107,97)" stroke="rgb(241,107,97)" stroke-width="1" opacity="1" d="M 58.5 69 L 59.5 71 L 58.5 69 Z " /><path fill="rgb(241,107,97)" stroke="rgb(241,107,97)" stroke-width="1" opacity="1" d="M 69.5 69 L 68.5 71 L 69.5 69 Z " /><path fill="rgb(241,107,97)" stroke="rgb(241,107,97)" stroke-width="1" opacity="1" d="M 62.5 72 L 64.5 73 L 66 72.5 L 63.5 74 L 62.5 72 Z " /><path fill="rgb(245,67,55)" stroke="rgb(245,67,55)" stroke-width="1" opacity="0.3764705882352941" d="M 7.5 16 L 10 16.5 Q 4.4 17.4 2 21.5 L 0.5 26 L 0 23.5 L 5.5 17 L 7.5 16 Z " /><path fill="rgb(245,67,55)" stroke="rgb(245,67,55)" stroke-width="1" opacity="0.3764705882352941" d="M 118.5 16 Q 124.9 16.7 127 21.5 L 128 25.5 L 127 25.5 Q 126.6 20 122.5 18 L 118.5 17 L 118.5 16 Z " /><path fill="rgb(245,67,55)" stroke="rgb(245,67,55)" stroke-width="1" opacity="0.3764705882352941" d="M 0.5 102 Q 1.4 107.6 5.5 110 L 10 111.5 L 7.5 112 L 1 106.5 L 0.5 102 Z " /><path fill="rgb(245,67,55)" stroke="rgb(245,67,55)" stroke-width="1" opacity="0.3764705882352941" d="M 127.5 102 L 128 104.5 L 122.5 111 L 118.5 112 L 118.5 111 Q 124.1 110.6 126 106.5 L 127.5 102 Z " /><path fill="rgb(244,67,54)" stroke="rgb(244,67,54)" stroke-width="1" opacity="0.996078431372549" d="M 5.5 18 L 2.5 22 L 5.5 18 Z " /><path fill="rgb(244,67,54)" stroke="rgb(244,67,54)" stroke-width="1" opacity="0.996078431372549" d="M 122.5 18 L 125.5 22 L 122.5 18 Z " /><path fill="rgb(244,67,54)" stroke="rgb(244,67,54)" stroke-width="1" opacity="0.996078431372549" d="M 2.5 106 L 5.5 110 L 2.5 106 Z " /><path fill="rgb(244,67,54)" stroke="rgb(244,67,54)" stroke-width="1" opacity="0.996078431372549" d="M 125.5 106 L 122.5 110 L 125.5 106 Z " /><path fill="rgb(233,233,234)" stroke="rgb(233,233,234)" stroke-width="1" opacity="1" d="M 17.5 16 L 18.5 18 L 17.5 16 Z " /><path fill="rgb(233,233,234)" stroke="rgb(233,233,234)" stroke-width="1" opacity="1" d="M 110.5 16 L 109.5 18 L 110.5 16 Z " /><path fill="rgb(233,233,234)" stroke="rgb(233,233,234)" stroke-width="1" opacity="1" d="M 36.5 31 L 37.5 33 L 36.5 31 Z " /><path fill="rgb(233,233,234)" stroke="rgb(233,233,234)" stroke-width="1" opacity="1" d="M 91.5 31 L 90.5 33 L 91.5 31 Z " /><path fill="rgb(233,233,234)" stroke="rgb(233,233,234)" stroke-width="1" opacity="1" d="M 55.5 46 L 56.5 48 L 55.5 46 Z " /><path fill="rgb(233,233,234)" stroke="rgb(233,233,234)" stroke-width="1" opacity="1" d="M 72.5 46 L 71.5 48 L 72.5 46 Z " /><path fill="rgb(233,233,234)" stroke="rgb(233,233,234)" stroke-width="1" opacity="1" d="M 64.5 74 L 66.5 77 L 64.5 74 Z " /><path fill="rgb(233,233,234)" stroke="rgb(233,233,234)" stroke-width="1" opacity="1" d="M 69.5 78 L 70.5 80 L 69.5 78 Z " /><path fill="rgb(233,233,234)" stroke="rgb(233,233,234)" stroke-width="1" opacity="1" d="M 73.5 81 L 75.5 84 L 73.5 81 Z " /><path fill="rgb(233,233,234)" stroke="rgb(233,233,234)" stroke-width="1" opacity="1" d="M 78.5 85 L 80.5 88 L 78.5 85 Z " /><path fill="rgb(233,233,234)" stroke="rgb(233,233,234)" stroke-width="1" opacity="1" d="M 83.5 89 L 85.5 92 L 83.5 89 Z " /><path fill="rgb(233,233,234)" stroke="rgb(233,233,234)" stroke-width="1" opacity="1" d="M 88.5 93 L 89.5 95 L 88.5 93 Z " /><path fill="rgb(233,233,234)" stroke="rgb(233,233,234)" stroke-width="1" opacity="1" d="M 92.5 96 L 94.5 99 L 92.5 96 Z " /><path fill="rgb(233,233,234)" stroke="rgb(233,233,234)" stroke-width="1" opacity="1" d="M 97.5 100 L 99.5 103 L 97.5 100 Z " /><path fill="rgb(233,233,234)" stroke="rgb(233,233,234)" stroke-width="1" opacity="1" d="M 102.5 104 L 104.5 107 L 102.5 104 Z " /><path fill="rgb(233,233,234)" stroke="rgb(233,233,234)" stroke-width="1" opacity="1" d="M 107.5 108 L 108.5 110 L 107.5 108 Z " /><path fill="rgb(244,67,54)" stroke="rgb(244,67,54)" stroke-width="1" opacity="1" d="M 12.5 16 Q 17.1 15.4 18.5 18 L 64.5 54 L 109.5 18 Q 110.9 15.4 115.5 16 Q 122.9 17.1 126 22.5 L 128 28.5 L 128 99.5 Q 126.9 106.9 121.5 110 L 112 112 L 111.5 37 L 74.5 66 L 63.5 73 L 16.5 37 L 16 112 Q 5.9 112.4 2 105.5 L 0 99.5 L 0 28.5 Q 1.1 21.1 6.5 18 L 12.5 16 Z " /><path fill="rgb(231,188,186)" stroke="rgb(231,188,186)" stroke-width="1" opacity="1" d="M 19.5 18 L 20.5 20 L 19.5 18 Z " /><path fill="rgb(231,188,186)" stroke="rgb(231,188,186)" stroke-width="1" opacity="1" d="M 108.5 18 L 107.5 20 L 108.5 18 Z " /><path fill="rgb(231,188,186)" stroke="rgb(231,188,186)" stroke-width="1" opacity="1" d="M 24.5 22 L 25.5 24 L 24.5 22 Z " /><path fill="rgb(231,188,186)" stroke="rgb(231,188,186)" stroke-width="1" opacity="1" d="M 103.5 22 L 102.5 24 L 103.5 22 Z " /><path fill="rgb(231,188,186)" stroke="rgb(231,188,186)" stroke-width="1" opacity="1" d="M 33.5 29 L 34.5 31 L 33.5 29 Z " /><path fill="rgb(231,188,186)" stroke="rgb(231,188,186)" stroke-width="1" opacity="1" d="M 94.5 29 L 93.5 31 L 94.5 29 Z " /><path fill="rgb(231,188,186)" stroke="rgb(231,188,186)" stroke-width="1" opacity="1" d="M 38.5 33 L 39.5 35 L 38.5 33 Z " /><path fill="rgb(231,188,186)" stroke="rgb(231,188,186)" stroke-width="1" opacity="1" d="M 89.5 33 L 88.5 35 L 89.5 33 Z " /><path fill="rgb(231,188,186)" stroke="rgb(231,188,186)" stroke-width="1" opacity="1" d="M 43.5 37 L 44.5 39 L 43.5 37 Z " /><path fill="rgb(231,188,186)" stroke="rgb(231,188,186)" stroke-width="1" opacity="1" d="M 84.5 37 L 83.5 39 L 84.5 37 Z " /><path fill="rgb(231,188,186)" stroke="rgb(231,188,186)" stroke-width="1" opacity="1" d="M 110.5 38 L 109.5 40 L 110.5 38 Z " /><path fill="rgb(231,188,186)" stroke="rgb(231,188,186)" stroke-width="1" opacity="1" d="M 21.5 41 L 22.5 43 L 21.5 41 Z " /><path fill="rgb(231,188,186)" stroke="rgb(231,188,186)" stroke-width="1" opacity="1" d="M 106.5 41 L 105.5 43 L 106.5 41 Z " /><path fill="rgb(231,188,186)" stroke="rgb(231,188,186)" stroke-width="1" opacity="1" d="M 25.5 44 L 26.5 46 L 25.5 44 Z " /><path fill="rgb(231,188,186)" stroke="rgb(231,188,186)" stroke-width="1" opacity="1" d="M 52.5 44 L 53.5 46 L 52.5 44 Z " /><path fill="rgb(231,188,186)" stroke="rgb(231,188,186)" stroke-width="1" opacity="1" d="M 75.5 44 L 74.5 46 L 75.5 44 Z " /><path fill="rgb(231,188,186)" stroke="rgb(231,188,186)" stroke-width="1" opacity="1" d="M 102.5 44 L 101.5 46 L 102.5 44 Z " /><path fill="rgb(231,188,186)" stroke="rgb(231,188,186)" stroke-width="1" opacity="1" d="M 57.5 48 L 58.5 50 L 57.5 48 Z " /><path fill="rgb(231,188,186)" stroke="rgb(231,188,186)" stroke-width="1" opacity="1" d="M 70.5 48 L 69.5 50 L 70.5 48 Z " /><path fill="rgb(231,188,186)" stroke="rgb(231,188,186)" stroke-width="1" opacity="1" d="M 97.5 48 L 96.5 50 L 97.5 48 Z " /><path fill="rgb(231,188,186)" stroke="rgb(231,188,186)" stroke-width="1" opacity="1" d="M 34.5 51 L 35.5 53 L 34.5 51 Z " /><path fill="rgb(231,188,186)" stroke="rgb(231,188,186)" stroke-width="1" opacity="1" d="M 93.5 51 L 92.5 53 L 93.5 51 Z " /><path fill="rgb(231,188,186)" stroke="rgb(231,188,186)" stroke-width="1" opacity="1" d="M 62.5 52 L 64.5 53 L 66 52.5 L 63.5 54 L 62.5 52 Z " /><path fill="rgb(231,188,186)" stroke="rgb(231,188,186)" stroke-width="1" opacity="1" d="M 38.5 54 L 39.5 56 L 38.5 54 Z " /><path fill="rgb(231,188,186)" stroke="rgb(231,188,186)" stroke-width="1" opacity="1" d="M 89.5 54 L 88.5 56 L 89.5 54 Z " /><path fill="rgb(231,188,186)" stroke="rgb(231,188,186)" stroke-width="1" opacity="1" d="M 84.5 58 L 83.5 60 L 84.5 58 Z " /><path fill="rgb(231,188,186)" stroke="rgb(231,188,186)" stroke-width="1" opacity="1" d="M 47.5 61 L 48.5 63 L 47.5 61 Z " /><path fill="rgb(231,188,186)" stroke="rgb(231,188,186)" stroke-width="1" opacity="1" d="M 80.5 61 L 79.5 63 L 80.5 61 Z " /><path fill="rgb(231,188,186)" stroke="rgb(231,188,186)" stroke-width="1" opacity="1" d="M 51.5 64 L 52.5 66 L 51.5 64 Z " /><path fill="rgb(231,188,186)" stroke="rgb(231,188,186)" stroke-width="1" opacity="1" d="M 76.5 64 L 75.5 66 L 76.5 64 Z " /><path fill="rgb(231,188,186)" stroke="rgb(231,188,186)" stroke-width="1" opacity="1" d="M 71.5 68 L 70.5 70 L 71.5 68 Z " /><path fill="rgb(231,188,186)" stroke="rgb(231,188,186)" stroke-width="1" opacity="1" d="M 60.5 71 L 61.5 73 L 60.5 71 Z " /><path fill="rgb(231,188,186)" stroke="rgb(231,188,186)" stroke-width="1" opacity="1" d="M 67.5 71 L 66.5 73 L 67.5 71 Z " /><path fill="rgb(235,239,241)" stroke="rgb(235,239,241)" stroke-width="1" opacity="1" d="M 71.5 80 L 72.5 82 L 71.5 80 Z " /><path fill="rgb(235,239,241)" stroke="rgb(235,239,241)" stroke-width="1" opacity="1" d="M 76.5 84 L 77.5 86 L 76.5 84 Z " /><path fill="rgb(235,239,241)" stroke="rgb(235,239,241)" stroke-width="1" opacity="1" d="M 90.5 95 L 91.5 97 L 90.5 95 Z " /><path fill="rgb(235,239,241)" stroke="rgb(235,239,241)" stroke-width="1" opacity="1" d="M 95.5 99 L 96.5 101 L 95.5 99 Z " /><path fill="rgb(236,239,241)" stroke="rgb(236,239,241)" stroke-width="1" opacity="1" d="M 18.5 16 L 110 16.5 L 63.5 53 L 21.5 20 L 18.5 16 Z " /><path fill="rgb(236,239,241)" stroke="rgb(236,239,241)" stroke-width="1" opacity="1" d="M 16.5 38 L 111 111.5 L 16 112 L 16.5 38 Z " /><path fill="rgb(207,216,220)" stroke="rgb(207,216,220)" stroke-width="1" opacity="1" d="M 111.5 38 L 112 111.5 L 107.5 108 L 65 74.5 Q 64.3 72.3 66.5 73 L 111.5 38 Z " /><path fill="rgb(0,0,0)" stroke="rgb(0,0,0)" stroke-width="1" opacity="0" d="M 0 0 L 127.5 0 L 128 0.5 L 128 22.5 L 127 22.5 L 122.5 17 L 120.5 16 L 7.5 16 L 1 21.5 L 0.5 23 L 0 0 Z " /><path fill="rgb(0,0,0)" stroke="rgb(0,0,0)" stroke-width="1" opacity="0" d="M 0.5 105 L 5.5 111 L 7.5 112 L 120.5 112 L 127 106.5 L 127.5 105 L 128 128 L 0.5 128 L 0 127.5 L 0.5 105 Z " /></svg>