<?xml version="1.0" encoding="UTF-8"?>
<svg version="1.1" xmlns="http://www.w3.org/2000/svg" width="128" height="128">
<path d="M0 0 C1.7634375 -0.00773438 1.7634375 -0.00773438 3.5625 -0.015625 C7.03231143 0.25249679 9.73274973 1.10646241 13 2.25 C14.32 2.25 15.64 2.25 17 2.25 C18.36623674 4.98247348 18.128426 7.23198902 18 10.25 C17 11.25 17 11.25 13.4375 11.3125 C12.303125 11.291875 11.16875 11.27125 10 11.25 C9.505 8.775 9.505 8.775 9 6.25 C-3.06025724 5.6138205 -3.06025724 5.6138205 -14 10.25 C-14.33 10.58 -14.66 10.91 -15 11.25 C-11.04 11.58 -7.08 11.91 -3 12.25 C-3 11.59 -3 10.93 -3 10.25 C-1.02 10.25 0.96 10.25 3 10.25 C3 10.91 3 11.57 3 12.25 C3.90129639 12.17418701 4.80259277 12.09837402 5.73120117 12.02026367 C20.70994453 10.91305796 35.70503801 11.25268953 50.70874023 11.49194336 C54.57734183 11.55327786 58.44597228 11.59986046 62.31481647 11.64277363 C65.32009437 11.6781202 68.32519312 11.72233834 71.33031273 11.76912498 C72.7579661 11.79006791 74.18566711 11.80800001 75.6133976 11.8227787 C77.59826246 11.84440065 79.58296595 11.87955169 81.56762695 11.9152832 C82.69248001 11.93162308 83.81733307 11.94796295 84.97627258 11.96479797 C89.0487059 12.34891535 91.78444315 13.10097148 94.78625488 15.93849182 C96.46095989 19.12787176 96.3957957 21.63746887 96.41992188 25.23413086 C96.42839142 25.92894058 96.43686096 26.62375031 96.44558716 27.33961487 C96.4689455 29.63154511 96.46997967 31.92280359 96.46875 34.21484375 C96.47585226 35.81140918 96.48355136 37.40797205 96.49182129 39.00453186 C96.50526333 42.34936622 96.50683616 45.69396456 96.50097656 49.03881836 C96.49508021 53.32089289 96.52566923 57.60183369 96.56609344 61.88368893 C96.59196899 65.18060892 96.59484806 68.47725585 96.59120178 71.77426338 C96.59289315 73.35270602 96.60253747 74.93116124 96.62034607 76.50950432 C96.64253573 78.71926169 96.63283788 80.92672371 96.61523438 83.13647461 C96.61728882 84.392379 96.61934326 85.64828339 96.62145996 86.94224548 C95.82771114 91.16701687 94.36332464 92.64887658 91 95.25 C88.00808557 95.68857267 85.60985115 95.83901776 82.63671875 95.73828125 C81.84473587 95.73120651 81.05275299 95.72413177 80.23677063 95.71684265 C77.71936611 95.68896244 75.20422644 95.626242 72.6875 95.5625 C70.9759437 95.53740861 69.26435235 95.51459691 67.55273438 95.49414062 C63.36762346 95.43915747 59.18419504 95.35293418 55 95.25 C55 99.87 55 104.49 55 109.25 C56.25296875 109.20359375 57.5059375 109.1571875 58.796875 109.109375 C60.44789281 109.07185187 62.09893642 109.03545229 63.75 109 C64.575 108.96648437 65.4 108.93296875 66.25 108.8984375 C69.93855444 108.83894469 72.32344353 108.86866817 75.578125 110.703125 C77 113.25 77 113.25 77 122.25 C49.94 122.25 22.88 122.25 -5 122.25 C-5 113.25 -5 113.25 -3.578125 110.703125 C0.31663525 108.50789649 3.86442928 108.82183619 8.25 109 C9.09046875 109.01804687 9.9309375 109.03609375 10.796875 109.0546875 C12.86507395 109.10169202 14.93268441 109.17343276 17 109.25 C17 104.63 17 100.01 17 95.25 C15.93563721 95.27618408 14.87127441 95.30236816 13.7746582 95.3293457 C9.81458673 95.42004776 5.85460649 95.47732089 1.89379883 95.5246582 C0.18172755 95.54975714 -1.53023704 95.58384429 -3.24194336 95.62719727 C-5.70713645 95.68805739 -8.17090985 95.71625432 -10.63671875 95.73828125 C-11.77919319 95.77699089 -11.77919319 95.77699089 -12.94474792 95.81648254 C-16.58043606 95.81838856 -18.84313773 95.34305868 -21.98071289 93.48168945 C-25.08853366 88.50789868 -24.70737371 83.8088673 -24.671875 78.0546875 C-24.68462463 76.87029083 -24.69737427 75.68589417 -24.71051025 74.46560669 C-24.74682924 70.6851612 -24.74951944 66.90560469 -24.75 63.125 C-24.77160396 59.33758598 -24.80005275 55.55030716 -24.83233643 51.76296997 C-24.85011433 49.40695685 -24.86038328 47.05087295 -24.86248779 44.6947937 C-24.86629456 43.63003815 -24.87010132 42.56528259 -24.87402344 41.46826172 C-24.87448669 40.53070038 -24.87494995 39.59313904 -24.87542725 38.62716675 C-24.90212182 36.10005472 -24.90212182 36.10005472 -26 33.25 C-27.20712167 16.56797429 -27.20712167 16.56797429 -22 10.25 C-15.31689661 3.16109147 -9.92893364 -0.04354795 0 0 Z " fill="#EBEEF0" transform="translate(29,2.75)"/>
<path d="M0 0 C1.4477922 2.89558441 2 4.74188938 2 8 C22.79 8 43.58 8 65 8 C65 27.47 65 46.94 65 67 C58.73563976 67.62643602 52.82470763 68.14418172 46.5859375 68.09765625 C45.84542145 68.0962413 45.1049054 68.09482635 44.34194946 68.09336853 C42.01958857 68.08785366 39.69733083 68.07531853 37.375 68.0625 C35.78255349 68.05747395 34.19010545 68.052913 32.59765625 68.04882812 C28.73170091 68.03877101 24.86596337 68.01918063 21 68 C20.67 58.1 20.34 48.2 20 38 C17.69 38 15.38 38 13 38 C12.67 47.57 12.34 57.14 12 67 C9.36 67 6.72 67 4 67 C3.67 61.39 3.34 55.78 3 50 C0.36 50 -2.28 50 -5 50 C-5.33 55.61 -5.66 61.22 -6 67 C-16.89 67 -27.78 67 -39 67 C-39.4375 52.4375 -39.4375 52.4375 -39.56811523 47.88452148 C-39.60622314 46.68384033 -39.64433105 45.48315918 -39.68359375 44.24609375 C-39.72025146 43.02591553 -39.75690918 41.8057373 -39.79467773 40.54858398 C-39.95017996 36.93136946 -39.95017996 36.93136946 -40.58227539 33.10961914 C-40.72012451 32.08344482 -40.85797363 31.05727051 -41 30 C-40.67 29.67 -40.34 29.34 -40 29 C-39.76572222 26.98405418 -39.58663876 24.961526 -39.4375 22.9375 C-39.35371094 21.83277344 -39.26992188 20.72804688 -39.18359375 19.58984375 C-39.12300781 18.73519531 -39.06242187 17.88054688 -39 17 C-38.01 17 -37.02 17 -36 17 C-35.896875 18.11375 -35.79375 19.2275 -35.6875 20.375 C-35.460625 21.57125 -35.23375 22.7675 -35 24 C-32.15450649 26.19764051 -32.15450649 26.19764051 -28.875 26.5 C-27.92625 26.665 -26.9775 26.83 -26 27 C-25.67 27.66 -25.34 28.32 -25 29 C-23.68 29 -22.36 29 -21 29 C-20.67 28.34 -20.34 27.68 -20 27 C-18.865625 26.855625 -17.73125 26.71125 -16.5625 26.5625 C-15.386875 26.376875 -14.21125 26.19125 -13 26 C-10.80235949 23.15450649 -10.80235949 23.15450649 -10.5 19.875 C-10.335 18.92625 -10.17 17.9775 -10 17 C-9.34 16.67 -8.68 16.34 -8 16 C-7.34444881 13.47266765 -7.34444881 13.47266765 -7 11 C-7.99 11 -8.98 11 -10 11 C-10.103125 9.88625 -10.20625 8.7725 -10.3125 7.625 C-10.539375 6.42875 -10.76625 5.2325 -11 4 C-13.91765 2.0549 -15.62537285 1.54723683 -19 1 C-19 0.67 -19 0.34 -19 0 C-16.39619004 -0.19476139 -13.79224467 -0.38108614 -11.1875 -0.5625 C-10.44951172 -0.61857422 -9.71152344 -0.67464844 -8.95117188 -0.73242188 C-5.63211484 -0.95769724 -3.18767436 -1.06255812 0 0 Z " fill="#D7EBFC" transform="translate(52,15)"/>
<path d="M0 0 C2.89136574 2.29863206 3.91521981 3.47603382 4.5146637 7.18077087 C4.52086227 8.43587967 4.52706085 9.69098846 4.53344727 10.98413086 C4.54637062 12.02634544 4.54637062 12.02634544 4.55955505 13.08961487 C4.58221993 15.38173902 4.57547574 17.67264094 4.56640625 19.96484375 C4.57164199 21.56141015 4.57791829 23.15797344 4.58518982 24.75453186 C4.59559516 28.09944216 4.59103149 31.44392709 4.57641602 34.78881836 C4.55923507 39.07093939 4.58271263 43.35171775 4.61790562 47.63368893 C4.63989032 50.93063717 4.63843556 54.22726472 4.6301403 57.52426338 C4.62932121 59.102692 4.63617668 60.68114426 4.65091133 62.25950432 C4.66837723 64.46932783 4.65380253 66.67674687 4.63110352 68.88647461 C4.63014175 70.142379 4.62917999 71.39828339 4.62818909 72.69224548 C3.82653866 76.91336757 2.36153321 78.39930795 -1 81 C-3.99191443 81.43857267 -6.39014885 81.58901776 -9.36328125 81.48828125 C-10.15526413 81.48120651 -10.94724701 81.47413177 -11.76322937 81.46684265 C-14.28063389 81.43896244 -16.79577356 81.376242 -19.3125 81.3125 C-21.0240563 81.28740861 -22.73564765 81.26459691 -24.44726562 81.24414062 C-28.63237654 81.18915747 -32.81580496 81.10293418 -37 81 C-37 85.62 -37 90.24 -37 95 C-35.74703125 94.95359375 -34.4940625 94.9071875 -33.203125 94.859375 C-31.55210719 94.82185187 -29.90106358 94.78545229 -28.25 94.75 C-27.425 94.71648437 -26.6 94.68296875 -25.75 94.6484375 C-22.06144556 94.58894469 -19.67655647 94.61866817 -16.421875 96.453125 C-15 99 -15 99 -15 108 C-42.06 108 -69.12 108 -97 108 C-97 99 -97 99 -95.578125 96.453125 C-91.68336475 94.25789649 -88.13557072 94.57183619 -83.75 94.75 C-82.90953125 94.76804687 -82.0690625 94.78609375 -81.203125 94.8046875 C-79.13492605 94.85169202 -77.06731559 94.92343276 -75 95 C-75 90.38 -75 85.76 -75 81 C-76.60439941 81.0314209 -76.60439941 81.0314209 -78.24121094 81.06347656 C-82.21438173 81.13594626 -86.18749425 81.18182463 -90.16113281 81.21972656 C-91.87998279 81.23982628 -93.59876452 81.26711089 -95.31738281 81.30175781 C-97.78988489 81.35035034 -100.2614821 81.37298435 -102.734375 81.390625 C-103.88459137 81.42159271 -103.88459137 81.42159271 -105.05804443 81.45318604 C-108.65808213 81.45469574 -110.51182211 81.4430624 -113.23492432 78.97161865 C-113.81739929 78.3209845 -114.39987427 77.67035034 -115 77 C-114.14743433 77.00553076 -114.14743433 77.00553076 -113.27764511 77.01117325 C-99.44830087 77.09950746 -85.61900605 77.16544597 -71.78944016 77.20724869 C-65.10154098 77.22814256 -58.41385159 77.25599577 -51.72607422 77.30175781 C-45.27459967 77.34515043 -38.82332092 77.36912354 -32.37171173 77.37950897 C-29.90766567 77.38691211 -27.44363059 77.40136828 -24.97966766 77.42292023 C-21.53405923 77.45186572 -18.08926471 77.45595958 -14.64355469 77.45410156 C-13.62000381 77.46848267 -12.59645294 77.48286377 -11.54188538 77.49768066 C-6.18718204 77.49071564 -6.18718204 77.49071564 -1.36315918 75.41882324 C0.51188636 72.09169623 0.48041368 69.65998352 0.45410156 65.84472656 C0.45468567 65.13213181 0.45526978 64.41953705 0.45587158 63.68534851 C0.45309109 61.3366069 0.42200323 58.9891441 0.390625 56.640625 C0.38316243 55.00967095 0.37746957 53.37870793 0.37347412 51.7477417 C0.35821892 47.46001323 0.31893854 43.17282881 0.2746582 38.88531494 C0.23370277 34.50825357 0.21546255 30.13110409 0.1953125 25.75390625 C0.15244377 17.16902148 0.08419435 8.58457846 0 0 Z " fill="#D5D5DA" transform="translate(121,17)"/>
<path d="M0 0 C0.71592316 -0.00700928 1.43184631 -0.01401855 2.16946411 -0.02124023 C4.53134168 -0.03881735 6.89201692 -0.02719963 9.25390625 -0.01367188 C10.89770741 -0.0163669 12.54150702 -0.02024941 14.18530273 -0.02526855 C17.62857253 -0.03116318 21.07142696 -0.02260216 24.51464844 -0.00390625 C28.92674318 0.01888371 33.33786467 0.00576037 37.74992371 -0.01819611 C41.14375126 -0.03265531 44.53734834 -0.02804763 47.93118286 -0.01768494 C49.55787267 -0.01501797 51.18458346 -0.0182864 52.81124878 -0.02760315 C55.08566653 -0.0377713 57.35851179 -0.02226664 59.6328125 0 C60.92646729 0.00318237 62.22012207 0.00636475 63.55297852 0.00964355 C66.81640625 0.51757812 66.81640625 0.51757812 69.26538086 1.98742676 C70.81640625 4.51757812 70.81640625 4.51757812 70.81640625 13.51757812 C43.75640625 13.51757812 16.69640625 13.51757812 -11.18359375 13.51757812 C-11.18359375 4.51757812 -11.18359375 4.51757812 -9.63256836 1.98742676 C-6.29080394 -0.01826487 -3.89203446 0.00957435 0 0 Z " fill="#E9ECEE" transform="translate(35.18359375,111.482421875)"/>
<path d="M0 0 C2.8125 -0.1875 2.8125 -0.1875 6 0 C7.5625 1.4375 7.5625 1.4375 9 3 C10.2684375 3.2475 10.2684375 3.2475 11.5625 3.5 C14 4 14 4 16 7 C16.125 10.1875 16.125 10.1875 16 13 C16.99 13 17.98 13 19 13 C19 14.65 19 16.3 19 18 C18.01 18.33 17.02 18.66 16 19 C16.12375 20.6396875 16.12375 20.6396875 16.25 22.3125 C16 26 16 26 14.375 27.9375 C11.43969547 29.25066255 9.18136394 29.21691118 6 29 C5.67 29.99 5.34 30.98 5 32 C3.35 31.67 1.7 31.34 0 31 C0 30.34 0 29.68 0 29 C-1.093125 29.0825 -2.18625 29.165 -3.3125 29.25 C-7 29 -7 29 -8.9375 27.375 C-10.25066255 24.43969547 -10.21691118 22.18136394 -10 19 C-10.99 18.67 -11.98 18.34 -13 18 C-12.67 16.35 -12.34 14.7 -12 13 C-11.34 13 -10.68 13 -10 13 C-10.061875 11.906875 -10.12375 10.81375 -10.1875 9.6875 C-10 6 -10 6 -8.875 4.125 C-6.35147468 2.61088481 -3.88553124 2.43910258 -1 2 C-0.67 1.34 -0.34 0.68 0 0 Z " fill="#FEDF79" transform="translate(26,13)"/>
<path d="M0 0 C12.54 0 25.08 0 38 0 C38 4.62 38 9.24 38 14 C25.46 14 12.92 14 0 14 C0 9.38 0 4.76 0 0 Z " fill="#A69AA6" transform="translate(46,98)"/>
<path d="M0 0 C4.95 0 9.9 0 15 0 C17.99953448 7.7487974 19.95466018 15.23410457 16.5 23.1875 C13.4650799 28.51211071 8.81378833 32.29691759 3.625 35.4375 C-2.29676832 36.70645035 -8.54869809 36.90736102 -14 34 C-14 32.68 -14 31.36 -14 30 C-16.31 30 -18.62 30 -21 30 C-20.67 25.71 -20.34 21.42 -20 17 C-19.01 17 -18.02 17 -17 17 C-16.896875 18.11375 -16.79375 19.2275 -16.6875 20.375 C-16.460625 21.57125 -16.23375 22.7675 -16 24 C-13.15450649 26.19764051 -13.15450649 26.19764051 -9.875 26.5 C-8.92625 26.665 -7.9775 26.83 -7 27 C-6.67 27.66 -6.34 28.32 -6 29 C-4.68 29 -3.36 29 -2 29 C-1.67 28.34 -1.34 27.68 -1 27 C0.134375 26.855625 1.26875 26.71125 2.4375 26.5625 C3.613125 26.376875 4.78875 26.19125 6 26 C8.19764051 23.15450649 8.19764051 23.15450649 8.5 19.875 C8.665 18.92625 8.83 17.9775 9 17 C9.66 16.67 10.32 16.34 11 16 C11.65555119 13.47266765 11.65555119 13.47266765 12 11 C11.01 11 10.02 11 9 11 C8.896875 9.88625 8.79375 8.7725 8.6875 7.625 C8.460625 6.42875 8.23375 5.2325 8 4 C5.08235 2.0549 3.37462715 1.54723683 0 1 C0 0.67 0 0.34 0 0 Z " fill="#D7E9F9" transform="translate(33,15)"/>
<path d="M0 0 C0.721875 0.00257812 1.44375 0.00515625 2.1875 0.0078125 C2.909375 0.00523438 3.63125 0.00265625 4.375 0 C6.1875 0.1328125 6.1875 0.1328125 7.1875 1.1328125 C7.27621273 4.16259054 7.3026935 7.16948272 7.28515625 10.19921875 C7.2837413 11.10784164 7.28232635 12.01646454 7.28086853 12.95262146 C7.27525193 15.86688471 7.26269665 18.78107231 7.25 21.6953125 C7.24498714 23.66601452 7.24042386 25.63671774 7.23632812 27.60742188 C7.22527711 32.44924809 7.20800138 37.29101745 7.1875 42.1328125 C3.8875 42.1328125 0.5875 42.1328125 -2.8125 42.1328125 C-2.83714638 36.31209628 -2.8553343 30.49141016 -2.86743164 24.6706543 C-2.87247267 22.68887809 -2.87930538 20.70710561 -2.88793945 18.7253418 C-2.90001515 15.88329141 -2.90573045 13.04129003 -2.91015625 10.19921875 C-2.91531754 9.30755508 -2.92047882 8.41589142 -2.92579651 7.49720764 C-2.92599177 5.37540649 -2.8746003 3.2537047 -2.8125 1.1328125 C-1.8125 0.1328125 -1.8125 0.1328125 0 0 Z " fill="#87C8FE" transform="translate(100.8125,39.8671875)"/>
<path d="M0 0 C1.7634375 -0.00773438 1.7634375 -0.00773438 3.5625 -0.015625 C7.03231143 0.25249679 9.73274973 1.10646241 13 2.25 C14.32 2.25 15.64 2.25 17 2.25 C18.36623674 4.98247348 18.128426 7.23198902 18 10.25 C17 11.25 17 11.25 13.4375 11.3125 C12.303125 11.291875 11.16875 11.27125 10 11.25 C9.505 8.775 9.505 8.775 9 6.25 C-3.20275129 5.3643644 -3.20275129 5.3643644 -14 10.25 C-17.57344079 13.6945022 -20.70071246 17.58281987 -21.265625 22.6171875 C-21.23452656 27.60848737 -20.79658784 31.53395693 -19 36.25 C-19 37.57 -19 38.89 -19 40.25 C-20.8125 40.125 -20.8125 40.125 -23 39.25 C-27.14655611 32.56720083 -26.70521872 25.86800219 -26 18.25 C-24.33295213 11.215058 -18.7947275 6.24442381 -13 2.25 C-8.58044506 0.3732027 -4.78086668 -0.02096871 0 0 Z " fill="#A79BA7" transform="translate(29,2.75)"/>
<path d="M0 0 C3 1 3 1 4.6875 4.375 C6.96930302 11.15972282 7.0885476 18.08534543 4.375 24.75 C-0.10237624 33.50123537 -5.76102519 37.92034173 -15 41 C-16.78879802 41.1190686 -18.5822856 41.17522113 -20.375 41.1875 C-21.31085937 41.20167969 -22.24671875 41.21585938 -23.2109375 41.23046875 C-26.17042718 40.98591708 -28.28467477 40.15389875 -31 39 C-31.886875 39.020625 -32.77375 39.04125 -33.6875 39.0625 C-34.450625 39.041875 -35.21375 39.02125 -36 39 C-38.1519437 35.77208445 -38.20086443 34.71599191 -38 31 C-35.36 31 -32.72 31 -30 31 C-30 32.32 -30 33.64 -30 35 C-22.77556081 36.92651712 -15.40973538 37.09751089 -8.8203125 33.3359375 C-4.31528065 30.02966949 -0.283388 25.51856841 1 20 C1.4250636 14.42797068 1.21359063 10.1650448 -1 5 C-0.625 2.1875 -0.625 2.1875 0 0 Z " fill="#AAA0AC" transform="translate(49,14)"/>
<path d="M0 0 C2.33294775 -0.04241723 4.66702567 -0.04092937 7 0 C8 1 8 1 8.125 4.4375 C8 8 8 8 7 10 C6.01 10 5.02 10 4 10 C4 9.34 4 8.68 4 8 C-0.71159953 11.42661784 -4.25036528 15.59518716 -8 20 C-8.495 20.495 -8.495 20.495 -9 21 C-16.80621322 20.49637334 -16.80621322 20.49637334 -20.62109375 18.91015625 C-23.63218454 17.68212067 -25.73222654 16.97375282 -29 17 C-33.61535122 19.7747381 -37.1763145 23.24122274 -41 27 C-44 29 -44 29 -48 29 C-47.14745265 23.56353052 -43.11767508 21.34389321 -39 18.125 C-38.26910156 17.50625 -37.53820312 16.8875 -36.78515625 16.25 C-31.34650725 11.98701678 -31.34650725 11.98701678 -27.54394531 12.02368164 C-25.25605921 12.5180268 -23.17840932 13.14975075 -21 14 C-16.71537293 15.56553681 -14.39665525 16.38704005 -10 15 C-7.50522951 13.02485408 -7.50522951 13.02485408 -5.25 10.5625 C-4.47140625 9.75941406 -3.6928125 8.95632812 -2.890625 8.12890625 C-0.964753 6.14578381 -0.964753 6.14578381 0 4 C-0.66 4 -1.32 4 -2 4 C-1.34 2.68 -0.68 1.36 0 0 Z " fill="#AAA0AD" transform="translate(97,27)"/>
<path d="M0 0 C1.65 0 3.3 0 5 0 C5 19.14 5 38.28 5 58 C3.35 58 1.7 58 0 58 C0 38.86 0 19.72 0 0 Z " fill="#C5E2FF" transform="translate(112,24)"/>
<path d="M0 0 C3.5 0.125 3.5 0.125 4.5 1.125 C4.58775605 3.27058827 4.60695219 5.41904421 4.59765625 7.56640625 C4.59443359 8.87158203 4.59121094 10.17675781 4.58789062 11.52148438 C4.57953401 12.9101569 4.57106905 14.29882877 4.5625 15.6875 C4.55748666 17.08007656 4.55292347 18.47265481 4.54882812 19.86523438 C4.53699434 23.2851987 4.5205088 26.70507844 4.5 30.125 C1.53 30.125 -1.44 30.125 -4.5 30.125 C-4.52465746 26.0132744 -4.54283959 21.90157722 -4.55493164 17.78979492 C-4.5599708 16.39004772 -4.56680216 14.9903058 -4.57543945 13.59057617 C-4.5875232 11.58254223 -4.59269807 9.57447043 -4.59765625 7.56640625 C-4.60289307 6.35670166 -4.60812988 5.14699707 -4.61352539 3.90063477 C-4.44480133 -0.22457777 -4.24733448 0.15169052 0 0 Z " fill="#FEDE75" transform="translate(68.5,51.875)"/>
<path d="M0 0 C2.64 0 5.28 0 8 0 C8 8.58 8 17.16 8 26 C5.03 26 2.06 26 -1 26 C-1.02886751 21.85418113 -1.04675327 17.70838784 -1.0625 13.5625 C-1.07087891 12.37849609 -1.07925781 11.19449219 -1.08789062 9.97460938 C-1.09111328 8.84990234 -1.09433594 7.72519531 -1.09765625 6.56640625 C-1.10289307 5.52427979 -1.10812988 4.48215332 -1.11352539 3.40844727 C-1 1 -1 1 0 0 Z " fill="#5FF2BD" transform="translate(82,56)"/>
<path d="M0 0 C0.66 0 1.32 0 2 0 C3 2 3 2 3 11 C-24.06 11 -51.12 11 -79 11 C-79 10.34 -79 9.68 -79 9 C-52.93 9 -26.86 9 0 9 C0 6.03 0 3.06 0 0 Z " fill="#D1D1D6" transform="translate(103,114)"/>
<path d="M0 0 C4.42690311 1.44355536 4.42690311 1.44355536 5.875 3.9375 C6.40968062 7.49461138 6.50233051 10.68283898 4.875 13.9375 C1.59712436 15.57643782 -1.60682577 15.68634833 -5.125 14.9375 C-7.6875 12.8125 -7.6875 12.8125 -9.125 9.9375 C-9.20604732 5.96618124 -8.5938579 4.45994166 -5.9375 1.5 C-3.125 -0.0625 -3.125 -0.0625 0 0 Z " fill="#EAEBEA" transform="translate(30.125,21.0625)"/>
<path d="M0 0 C2.64 0 5.28 0 8 0 C9 1 9 1 9.09765625 4.81640625 C9.09098089 6.39846682 9.07901875 7.98051159 9.0625 9.5625 C9.05798828 10.36880859 9.05347656 11.17511719 9.04882812 12.00585938 C9.03700518 14.00393756 9.01906914 16.00197783 9 18 C6.03 18 3.06 18 0 18 C0 12.06 0 6.12 0 0 Z " fill="#FD606B" transform="translate(47,64)"/>
<path d="M0 0 C4.95 0 9.9 0 15 0 C15.66 2.97 16.32 5.94 17 9 C14.36 9 11.72 9 9 9 C8.814375 8.05125 8.62875 7.1025 8.4375 6.125 C7.26599195 2.61628301 7.26599195 2.61628301 3.375 1.625 C2.26125 1.41875 1.1475 1.2125 0 1 C0 0.67 0 0.34 0 0 Z " fill="#E9EDEC" transform="translate(33,15)"/>
<path d="M0 0 C0.99 0 1.98 0 3 0 C3 4.62 3 9.24 3 14 C2.01 14 1.02 14 0 14 C0 9.38 0 4.76 0 0 Z " fill="#847784" transform="translate(81,98)"/>
</svg>
