<?xml version="1.0" encoding="UTF-8"?>
<svg version="1.1" xmlns="http://www.w3.org/2000/svg" width="128" height="128">
<path d="M0 0 C7.16948419 5.84878974 11.07821785 12.44072915 12.5 21.5625 C13.10574891 27.97694828 12.00659579 33.93394369 9 39.625 C7.43834594 42.2003663 7.43834594 42.2003663 8.4453125 44.59375 C10.45579118 48.78325049 12.88789193 52.69378644 15.2890625 56.66796875 C16.75 59.3125 16.75 59.3125 16.75 61.3125 C15.66332031 61.08240234 15.66332031 61.08240234 14.5546875 60.84765625 C8.83000491 59.73678857 8.83000491 59.73678857 3.68359375 61.8046875 C2.20702096 63.57657485 0.92280377 65.32813582 -0.25 67.3125 C-2.79131358 65.00966746 -4.32110295 62.63936207 -5.9375 59.625 C-6.37449219 58.81675781 -6.81148437 58.00851563 -7.26171875 57.17578125 C-7.75091797 56.25345703 -7.75091797 56.25345703 -8.25 55.3125 C-18.29417522 54.14958182 -18.29417522 54.14958182 -28.25 55.3125 C-32.02616029 58.80761994 -33.71428649 62.44457792 -35.25 67.3125 C-36.3946875 66.136875 -36.3946875 66.136875 -37.5625 64.9375 C-41.0542161 61.30457603 -41.0542161 61.30457603 -45.73046875 60.3359375 C-46.62378906 60.45195313 -47.51710938 60.56796875 -48.4375 60.6875 C-49.33855469 60.79835938 -50.23960938 60.90921875 -51.16796875 61.0234375 C-51.85503906 61.11882812 -52.54210937 61.21421875 -53.25 61.3125 C-51.40084698 56.17072248 -48.4979411 51.89744951 -45.515625 47.34765625 C-43.91646105 44.3364871 -43.91646105 44.3364871 -44.98046875 41.07421875 C-45.75006056 39.40006057 -46.52570949 37.72864461 -47.3125 36.0625 C-49.85956335 28.59111419 -49.84091594 20.76435457 -47.25 13.3125 C-42.82066165 4.58077886 -36.46538363 -1.4450502 -27.25 -4.6875 C-17.83851253 -7.34202211 -7.98023194 -5.58920825 0 0 Z " fill="#E5E5E3" transform="translate(82.25,51.6875)"/>
<path d="M0 0 C6.18126459 3.34972722 10.07553828 7.23441486 12.296875 13.9765625 C13.36240678 19.6210011 12.36653853 24.20982103 9.5703125 29.1875 C6.70967787 33.20642841 2.86099838 36.10830374 -1.703125 37.9765625 C-9.08298557 38.87172189 -14.77269331 38.57567279 -20.703125 33.9765625 C-25.26677317 29.52273474 -27.70159917 25.14172297 -28.203125 18.7890625 C-28.06524921 12.89979662 -25.29284566 8.50237812 -21.703125 3.9765625 C-15.67244885 -1.51901769 -7.58726089 -2.87263346 0 0 Z " fill="#CDCB31" transform="translate(71.703125,58.0234375)"/>
<path d="M0 0 C6.18126459 3.34972722 10.07553828 7.23441486 12.296875 13.9765625 C13.36240678 19.6210011 12.36653853 24.20982103 9.5703125 29.1875 C6.70967787 33.20642841 2.86099838 36.10830374 -1.703125 37.9765625 C-9.08298557 38.87172189 -14.77269331 38.57567279 -20.703125 33.9765625 C-25.26677317 29.52273474 -27.70159917 25.14172297 -28.203125 18.7890625 C-28.06524921 12.89979662 -25.29284566 8.50237812 -21.703125 3.9765625 C-15.67244885 -1.51901769 -7.58726089 -2.87263346 0 0 Z M-21.640625 10.7890625 C-23.81323718 14.65387427 -24.36432203 17.51348252 -23.703125 21.9765625 C-21.86597491 27.27187747 -18.67689005 31.35027065 -13.703125 33.9765625 C-8.37301877 34.99771493 -4.14169081 34.68276753 0.734375 32.2890625 C5.28322759 28.18400041 7.9436728 24.97878124 8.671875 18.7890625 C8.12643458 13.24375156 5.91800843 9.24778734 1.6875 5.58203125 C-6.89652461 0.0102905 -16.01022385 2.64395972 -21.640625 10.7890625 Z " fill="#FAB81E" transform="translate(71.703125,58.0234375)"/>
<path d="M0 0 C0.66 0 1.32 0 2 0 C2.99 2.97 3.98 5.94 5 9 C8.3 9.33 11.6 9.66 15 10 C13 14 13 14 11.38671875 15.42578125 C9.41400553 17.66522752 9.69842035 19.25945575 9.8125 22.1875 C9.83957031 23.08855469 9.86664063 23.98960938 9.89453125 24.91796875 C9.92933594 25.60503906 9.96414062 26.29210937 10 27 C7.23192199 26.52547234 5.02678891 26.01339445 2.5 24.75 C-0.08770918 23.65623387 -0.08770918 23.65623387 -2.625 25.375 C-3.40875 25.91125 -4.1925 26.4475 -5 27 C-5.99 27 -6.98 27 -8 27 C-7.94199219 26.33613281 -7.88398437 25.67226563 -7.82421875 24.98828125 C-7.43052333 18.99798365 -7.43052333 18.99798365 -10.5 14 C-11.325 13.34 -12.15 12.68 -13 12 C-13 11.34 -13 10.68 -13 10 C-9.7 9.67 -6.4 9.34 -3 9 C-2.01 6.03 -1.02 3.06 0 0 Z " fill="#FDB813" transform="translate(63,9)"/>
<path d="M0 0 C1.78593224 1.62357476 2.90542224 2.75409783 3.78125 5.03125 C4.85677626 7.23079557 4.85677626 7.23079557 7.3828125 7.828125 C8.74019531 8.03695312 8.74019531 8.03695312 10.125 8.25 C11.49011719 8.47429688 11.49011719 8.47429688 12.8828125 8.703125 C13.58148438 8.80109375 14.28015625 8.8990625 15 9 C14 12 14 12 11.4375 13.5 C8.4511463 16.56292687 8.6661806 17.59271644 8.6875 21.75 C8.76772791 23.50126074 8.86439136 25.25215533 9 27 C8.43152344 26.66484375 7.86304687 26.3296875 7.27734375 25.984375 C2.80601589 23.4268264 2.80601589 23.4268264 -2.0859375 23.625 C-3.78418184 24.65684466 -5.39859761 25.82345947 -7 27 C-7.66 27 -8.32 27 -9 27 C-8.85820312 26.26394531 -8.71640625 25.52789062 -8.5703125 24.76953125 C-7.47801343 19.24208982 -7.47801343 19.24208982 -9.26953125 14.2265625 C-11.1184923 12.75600215 -11.1184923 12.75600215 -14 11 C-14 10.34 -14 9.68 -14 9 C-13.32453125 8.93683594 -12.6490625 8.87367187 -11.953125 8.80859375 C-6.6568537 8.22838874 -6.6568537 8.22838874 -2.4453125 5.30859375 C-1.21982028 3.18470931 -1.21982028 3.18470931 0 0 Z " fill="#EAAB20" transform="translate(21,28)"/>
<path d="M0 0 C1.78593224 1.62357476 2.90542224 2.75409783 3.78125 5.03125 C4.85677626 7.23079557 4.85677626 7.23079557 7.3828125 7.828125 C8.74019531 8.03695312 8.74019531 8.03695312 10.125 8.25 C11.49011719 8.47429688 11.49011719 8.47429688 12.8828125 8.703125 C13.58148438 8.80109375 14.28015625 8.8990625 15 9 C13.93119792 11.58293835 13.26041403 12.82783739 10.890625 14.39453125 C8.71272211 15.88510151 8.71272211 15.88510151 8.609375 18.69921875 C8.65578125 19.68535156 8.7021875 20.67148437 8.75 21.6875 C8.80414063 23.17830078 8.80414063 23.17830078 8.859375 24.69921875 C8.90578125 25.45847656 8.9521875 26.21773437 9 27 C8.443125 26.66484375 7.88625 26.3296875 7.3125 25.984375 C2.69775346 23.40091203 2.69775346 23.40091203 -2.37890625 23.625 C-4.35512837 24.64316095 -6.18690164 25.71551615 -8 27 C-7.93039063 26.26394531 -7.86078125 25.52789062 -7.7890625 24.76953125 C-7.261649 19.17798724 -7.261649 19.17798724 -9.3359375 14.2265625 C-10.83043178 13.06885566 -12.41194821 12.02561678 -14 11 C-14 10.34 -14 9.68 -14 9 C-13.32453125 8.93683594 -12.6490625 8.87367187 -11.953125 8.80859375 C-6.6568537 8.22838874 -6.6568537 8.22838874 -2.4453125 5.30859375 C-1.21982028 3.18470931 -1.21982028 3.18470931 0 0 Z " fill="#E9A920" transform="translate(106,28)"/>
<path d="M0 0 C3.32859708 3.04875927 5.50435293 6.21910958 7.75 10.125 C8.67039062 11.70667969 8.67039062 11.70667969 9.609375 13.3203125 C11 16 11 16 11 18 C10.27554688 17.84660156 9.55109375 17.69320312 8.8046875 17.53515625 C3.08000491 16.42428857 3.08000491 16.42428857 -2.06640625 18.4921875 C-3.54297904 20.26407485 -4.82719623 22.01563582 -6 24 C-8.49552403 21.72402354 -10.06622986 19.39278822 -11.6875 16.4375 C-12.12449219 15.65246094 -12.56148438 14.86742188 -13.01171875 14.05859375 C-14 12 -14 12 -14 10 C-11.953125 8.6328125 -11.953125 8.6328125 -9.25 7.125 C-5.61820489 5.09671677 -2.83248419 3.05749461 0 0 Z " fill="#CBCB31" transform="translate(88,95)"/>
<path d="M0 0 C0.49628906 0.38671875 0.99257813 0.7734375 1.50390625 1.171875 C5.84883147 4.50270951 10.18629161 7.39257462 15 10 C13.53967505 15.31027254 11.01679014 19.46330032 8 24 C7.236875 23.21625 6.47375 22.4325 5.6875 21.625 C2.1957839 17.99207603 2.1957839 17.99207603 -2.48046875 17.0234375 C-3.82044922 17.19746094 -3.82044922 17.19746094 -5.1875 17.375 C-6.08855469 17.48585938 -6.98960938 17.59671875 -7.91796875 17.7109375 C-8.60503906 17.80632812 -9.29210937 17.90171875 -10 18 C-8.47146065 13.72813475 -6.28490519 10.00673137 -3.875 6.1875 C-3.50246094 5.59001953 -3.12992188 4.99253906 -2.74609375 4.37695312 C-1.8342952 2.91573749 -0.91764024 1.45755415 0 0 Z " fill="#CBCB31" transform="translate(39,95)"/>
<path d="M0 0 C3.49128002 5.23692002 3.37334114 10.95943339 2.375 17.0625 C0.11245675 26.67830881 -5.9047456 33.01102077 -14.0234375 38.32421875 C-20.65257689 41.83593757 -27.67274531 42.05018639 -35 41 C-42.38112445 38.54251974 -49.43879053 34.46540372 -54 28 C-54.67578125 25.7890625 -54.67578125 25.7890625 -55 24 C-54.278125 24.7425 -53.55625 25.485 -52.8125 26.25 C-46.10876781 32.80476036 -39.71177892 37.15184201 -30.125 37.5 C-21.32316465 37.17442191 -13.07734184 34.51143768 -7 28 C-2.39195338 21.04931516 0.29719258 14.56243622 0.125 6.125 C0.10695312 4.97257812 0.08890625 3.82015625 0.0703125 2.6328125 C0.04710937 1.76398438 0.02390625 0.89515625 0 0 Z " fill="#B8B9B6" transform="translate(92,66)"/>
<path d="M0 0 C0.33 0 0.66 0 1 0 C1.1743959 3.58271776 1.28087658 7.16434602 1.375 10.75 C1.45041016 12.27367187 1.45041016 12.27367187 1.52734375 13.828125 C1.58341128 16.66887999 1.56293833 19.21373956 1 22 C-2.13405287 24.98727904 -3.67276621 26 -8 26 C-7.94199219 25.33613281 -7.88398437 24.67226563 -7.82421875 23.98828125 C-7.43052333 17.99798365 -7.43052333 17.99798365 -10.5 13 C-11.325 12.34 -12.15 11.68 -13 11 C-13 10.34 -13 9.68 -13 9 C-9.7 8.67 -6.4 8.34 -3 8 C-2.690625 7.05125 -2.38125 6.1025 -2.0625 5.125 C-1 2 -1 2 0 0 Z " fill="#E8A722" transform="translate(63,10)"/>
<path d="M0 0 C3 4 3 4 4.1875 5.6875 C7.17071103 7.84775626 10.37412878 7.70279744 14 8 C12.94435297 10.55114699 12.32273067 11.79951579 9.9375 13.28125 C7.72178336 14.8744369 7.72178336 14.8744369 7.609375 17.69921875 C7.65578125 18.68535156 7.7021875 19.67148437 7.75 20.6875 C7.78609375 21.68136719 7.8221875 22.67523438 7.859375 23.69921875 C7.90578125 24.45847656 7.9521875 25.21773437 8 26 C5.36 24.68 2.72 23.36 0 22 C0 14.74 0 7.48 0 0 Z " fill="#FDB513" transform="translate(107,29)"/>
<path d="M0 0 C3 4 3 4 4.1875 5.6875 C7.17071103 7.84775626 10.37412878 7.70279744 14 8 C13 11 13 11 10.4375 12.5 C7.4511463 15.56292687 7.6661806 16.59271644 7.6875 20.75 C7.76772791 22.50126074 7.86439136 24.25215533 8 26 C5.36 24.68 2.72 23.36 0 22 C0 14.74 0 7.48 0 0 Z " fill="#FDB613" transform="translate(22,29)"/>
<path d="M0 0 C-0.44442156 4.82763807 -2.43757318 7.00501451 -5.8125 10.375 C-6.68519531 11.26960938 -7.55789062 12.16421875 -8.45703125 13.0859375 C-11 15 -11 15 -13.1796875 15 C-16.54376529 13.15192293 -17.40445752 10.42746162 -19 7 C-18.67 6.01 -18.34 5.02 -18 4 C-17.01 4 -16.02 4 -15 4 C-14.34 5.32 -13.68 6.64 -13 8 C-9.26186655 6.56225637 -7.08879419 4.15150125 -4.46484375 1.2421875 C-3 0 -3 0 0 0 Z " fill="#F8F8EC" transform="translate(72,68)"/>
<path d="M0 0 C4.06959396 6.10439094 3.14938936 12.80830006 1.765625 19.73828125 C0.90908863 22.26855961 -0.29893317 23.95778515 -2 26 C-2.66 25.67 -3.32 25.34 -4 25 C-2.66666667 21 -1.33333333 17 0 13 C0.06937062 10.77181559 0.08457084 8.54165476 0.0625 6.3125 C0.05347656 5.13300781 0.04445313 3.95351562 0.03515625 2.73828125 C0.02355469 1.83464844 0.01195313 0.93101563 0 0 Z " fill="#BEBFBF" transform="translate(92,66)"/>
<path d="M0 0 C0.33 0.99 0.66 1.98 1 3 C-0.73812641 4.84601012 -2.48888421 6.67614727 -4.25 8.5 C-4.98669922 9.28697266 -4.98669922 9.28697266 -5.73828125 10.08984375 C-7.08346642 11.47090052 -8.5385286 12.74264472 -10 14 C-11.32 14 -12.64 14 -14 14 C-14 13.34 -14 12.68 -14 12 C-12.33751662 10.99306069 -10.66994576 9.99451442 -9 9 C-7.35239934 7.48336919 -5.74751538 5.91908301 -4.1875 4.3125 C-3.00220703 3.10013672 -3.00220703 3.10013672 -1.79296875 1.86328125 C-1.20128906 1.24839844 -0.60960938 0.63351563 0 0 Z " fill="#A8A936" transform="translate(72,71)"/>
<path d="M0 0 C0.66 0.66 1.32 1.32 2 2 C0.58829091 3.29708314 -0.82958196 4.58745978 -2.25 5.875 C-3.03890625 6.59429687 -3.8278125 7.31359375 -4.640625 8.0546875 C-7.85390233 10.7040453 -9.80401262 12 -14 12 C-14 11.34 -14 10.68 -14 10 C-11.953125 8.6328125 -11.953125 8.6328125 -9.25 7.125 C-5.61820489 5.09671677 -2.83248419 3.05749461 0 0 Z " fill="#A9AA38" transform="translate(88,95)"/>
<path d="M0 0 C0.49628906 0.38671875 0.99257813 0.7734375 1.50390625 1.171875 C5.84883147 4.50270951 10.18629161 7.39257462 15 10 C15 10.66 15 11.32 15 12 C9.63688421 11.66480526 5.87175239 8.45865747 2 5 C0.9650791 3.6935864 -0.04562236 2.36636053 -1 1 C-0.67 0.67 -0.34 0.34 0 0 Z " fill="#A9AA39" transform="translate(39,95)"/>
</svg>
