<?xml version="1.0" encoding="UTF-8"?>
<svg version="1.1" xmlns="http://www.w3.org/2000/svg" width="128" height="128">
<path d="M0 0 C7.10906699 4.64322296 12.92359028 10.48474312 18.86047363 16.4944458 C19.96564054 17.60267683 21.07140491 18.71031234 22.17773438 19.81738281 C24.47829262 22.12251248 26.7738912 24.43242388 29.06555176 26.74639893 C32.00536423 29.7146916 34.95397023 32.67405249 37.90583038 35.63035965 C40.18136331 37.91004072 42.45405174 40.19253835 44.72569275 42.47609711 C45.81291775 43.5690202 46.90061301 44.66147569 47.98878479 45.75345612 C49.50139558 47.27291957 51.01056612 48.7957127 52.51867676 50.31964111 C53.37755493 51.18534729 54.23643311 52.05105347 55.12133789 52.94299316 C58.14738813 56.18610624 58.51314438 58.60157719 58.39953613 63.0647583 C58.07922363 65.0413208 58.07922363 65.0413208 56.32922363 67.5413208 C52.76628878 69.18575227 50.75374917 69.19778213 46.87609863 69.1350708 C45.24946289 69.11476807 45.24946289 69.11476807 43.58996582 69.09405518 C42.34714844 69.06795166 42.34714844 69.06795166 41.07922363 69.0413208 C41.09032669 69.68389832 41.10142975 70.32647583 41.11286926 70.98852539 C41.2234184 77.67167268 41.2988727 84.35456065 41.35388184 91.03839111 C41.37903857 93.53329008 41.41316766 96.02811526 41.4564209 98.52276611 C41.51701797 102.10726108 41.54542255 105.69078243 41.56750488 109.2756958 C41.59331131 110.39248718 41.61911774 111.50927856 41.64570618 112.65991211 C41.64848296 120.3124168 41.64848296 120.3124168 38.96203613 123.7522583 C35.55235673 125.27691169 33.19761307 125.50010417 29.46594238 125.4319458 C28.21877441 125.41905518 26.97160645 125.40616455 25.68664551 125.3928833 C24.39307129 125.35936768 23.09949707 125.32585205 21.76672363 125.2913208 C20.45381348 125.27327393 19.14090332 125.25522705 17.78820801 125.2366333 C14.55113875 125.18954866 11.31555311 125.12379122 8.07922363 125.0413208 C8.06464111 124.20995605 8.05005859 123.37859131 8.03503418 122.52203369 C7.97346992 119.39617887 7.89922706 116.27093711 7.81677246 113.14556885 C7.76771429 111.14423469 7.73289226 109.14256774 7.69836426 107.14093018 C7.63921807 95.16007612 7.63921807 95.16007612 2.07922363 85.0413208 C-2.04825486 82.97758155 -5.34272029 82.65334995 -9.92077637 83.0413208 C-13.62467658 85.06798318 -15.57440647 86.52176596 -17.92077637 90.0413208 C-18.99720902 94.0374522 -19.11433865 97.9680545 -19.23718262 102.09210205 C-19.25796371 102.75090866 -19.27874481 103.40971527 -19.30015564 104.08848572 C-19.36513125 106.17683265 -19.42429212 108.26529693 -19.48327637 110.3538208 C-19.52651115 111.7763586 -19.57012697 113.19888486 -19.61413574 114.62139893 C-19.72075853 118.09458377 -19.82216984 121.56789806 -19.92077637 125.0413208 C-24.48306178 125.15758016 -29.04496564 125.22859488 -33.60827637 125.2913208 C-34.90185059 125.32483643 -36.1954248 125.35835205 -37.52819824 125.3928833 C-38.77536621 125.40577393 -40.02253418 125.41866455 -41.30749512 125.4319458 C-43.02778931 125.4633667 -43.02778931 125.4633667 -44.78283691 125.49542236 C-48.60504456 124.9422981 -50.22230722 123.75726271 -52.92077637 121.0413208 C-53.89717068 118.11213787 -54.04213817 116.25106342 -54.03430176 113.20269775 C-54.03422623 112.2219075 -54.0341507 111.24111725 -54.03407288 110.23060608 C-54.02891159 109.17427475 -54.02375031 108.11794342 -54.01843262 107.02960205 C-54.01701767 105.94624069 -54.01560272 104.86287933 -54.0141449 103.74668884 C-54.00854196 100.28237155 -53.99598895 96.8181186 -53.98327637 93.3538208 C-53.97826175 91.00681653 -53.97369877 88.65981124 -53.96960449 86.31280518 C-53.95857158 80.55562172 -53.94183057 74.79847586 -53.92077637 69.0413208 C-54.74062012 69.08772705 -55.56046387 69.1341333 -56.40515137 69.1819458 C-57.48280762 69.21803955 -58.56046387 69.2541333 -59.67077637 69.2913208 C-60.73812012 69.33772705 -61.80546387 69.3841333 -62.90515137 69.4319458 C-65.92077637 69.0413208 -65.92077637 69.0413208 -68.31140137 67.5256958 C-70.16308588 64.66727019 -70.55836387 62.45429967 -70.37010765 59.05439377 C-69.59028057 55.56064899 -67.35981508 53.407969 -64.85949707 51.02423096 C-64.32132858 50.48007538 -63.7831601 49.9359198 -63.22868347 49.37527466 C-61.45340625 47.59031473 -59.65119624 45.83561267 -57.84655762 44.0803833 C-56.60147249 42.84261118 -55.35793826 41.60327723 -54.1158905 40.36245728 C-51.51247582 37.76979579 -48.89646291 35.19083945 -46.26965332 32.62188721 C-42.90608342 29.33190971 -39.56696049 26.01843601 -36.23591328 22.69556618 C-33.66950785 20.13775437 -31.09493043 17.58831059 -28.51735497 15.04175949 C-27.28350472 13.8224642 -26.05117138 12.60163188 -24.82039833 11.3792305 C-23.09748749 9.67227415 -21.36493273 7.97577168 -19.62902832 6.28204346 C-19.12336334 5.77816101 -18.61769836 5.27427856 -18.09671021 4.75512695 C-13.12608096 -0.05241669 -6.8179726 -3.4029201 0 0 Z " fill="#459BE7" transform="translate(69.9207763671875,1.95867919921875)"/>
</svg>
