<?xml version="1.0" encoding="UTF-8"?>
<svg version="1.1" xmlns="http://www.w3.org/2000/svg" width="128" height="128">
<path d="M0 0 C5.05432664 3.12129774 7.97209284 6.42734936 10.234375 11.89453125 C11.06794793 15.59530761 11.31649921 19.10613884 10.921875 22.89453125 C11.34058514 26.91414862 13.21700008 28.79812089 15.69921875 31.890625 C19.92236673 37.40328382 20.58529741 42.2270055 20.234375 48.89453125 C24.194375 48.89453125 28.154375 48.89453125 32.234375 48.89453125 C32.234375 67.37453125 32.234375 85.85453125 32.234375 104.89453125 C26.624375 104.89453125 21.014375 104.89453125 15.234375 104.89453125 C14.904375 93.01453125 14.574375 81.13453125 14.234375 68.89453125 C12.914375 70.21453125 11.594375 71.53453125 10.234375 72.89453125 C9.574375 72.89453125 8.914375 72.89453125 8.234375 72.89453125 C8.234375 83.45453125 8.234375 94.01453125 8.234375 104.89453125 C2.624375 104.89453125 -2.985625 104.89453125 -8.765625 104.89453125 C-8.765625 96.31453125 -8.765625 87.73453125 -8.765625 78.89453125 C-11.735625 78.89453125 -14.705625 78.89453125 -17.765625 78.89453125 C-20.83203125 78.01953125 -20.83203125 78.01953125 -23.328125 76.89453125 C-24.17503906 76.52328125 -25.02195313 76.15203125 -25.89453125 75.76953125 C-26.51199219 75.48078125 -27.12945312 75.19203125 -27.765625 74.89453125 C-34.5934047 82.84486661 -41.2168217 90.91693757 -47.6484375 99.19140625 C-50.52560085 102.86483252 -50.52560085 102.86483252 -52.69140625 103.1328125 C-56.44375937 103.24949779 -59.00537295 103.32101411 -62.328125 101.45703125 C-64.10557997 98.28852456 -64.88802737 96.09411219 -64.71484375 92.4453125 C-62.69902867 87.02832795 -57.19970626 83.70254346 -52.70019531 80.34130859 C-50.06485694 78.37045862 -47.47935788 76.33876598 -44.89306641 74.30419922 C-43.65879061 73.33636007 -42.41899805 72.37550806 -41.17333984 71.42236328 C-37.99336411 69.07805762 -37.99336411 69.07805762 -35.765625 65.89453125 C-36.51124491 63.95758919 -36.51124491 63.95758919 -37.640625 61.83203125 C-41.30520738 53.86665428 -41.59429739 46.22833288 -38.765625 37.89453125 C-36.56777324 33.52943847 -34.23517313 29.36407938 -30.765625 25.89453125 C-30.765625 23.96609264 -30.7702418 22.03743221 -30.80859375 20.109375 C-30.67707746 13.3303081 -28.41008968 7.82615369 -23.765625 2.89453125 C-17.19153011 -2.56056877 -7.90220379 -3.15864925 0 0 Z " fill="#39668C" transform="translate(67.765625,19.10546875)"/>
<path d="M0 0 C6.44669833 3.98115642 9.38650966 8.39002119 11.171875 15.76953125 C11.62883332 21.10763531 9.84864215 26.41179818 6.94921875 30.87109375 C6.71332031 31.53882813 6.47742188 32.2065625 6.234375 32.89453125 C7.32839252 35.22918513 7.32839252 35.22918513 9.109375 37.51953125 C12.51169365 42.81375706 13.25697921 46.70828199 12.234375 52.89453125 C10.75767962 58.87462388 8.3653858 63.77993067 3.140625 67.30859375 C-3.05334957 70.81720593 -8.70178649 72.30327397 -15.765625 70.89453125 C-22.61850705 68.12214022 -27.10865643 64.26473457 -30.765625 57.89453125 C-32.77440539 51.60730951 -32.88433772 44.38881148 -29.890625 38.45703125 C-29.19407692 37.26258028 -28.48589571 36.07482887 -27.765625 34.89453125 C-27.08870764 33.56637271 -26.41930439 32.23427954 -25.765625 30.89453125 C-26.405 30.04890625 -27.044375 29.20328125 -27.703125 28.33203125 C-30.72653829 23.73773419 -31.21451695 19.24333925 -30.140625 13.89453125 C-28.44684576 8.10651744 -25.43021492 4.27578672 -20.828125 0.45703125 C-14.61925326 -2.65419769 -6.352418 -2.53917273 0 0 Z " fill="#FDC928" transform="translate(67.765625,19.10546875)"/>
<path d="M0 0 C5.28 0 10.56 0 16 0 C16 26.4 16 52.8 16 80 C10.72 80 5.44 80 0 80 C0 53.6 0 27.2 0 0 Z " fill="#FF2929" transform="translate(108,44)"/>
<path d="M0 0 C2.86207152 1.28299758 5.0245088 2.530636 7 5 C7 5.99 7 6.98 7 8 C6.01 8.495 6.01 8.495 5 9 C5 9.66 5 10.32 5 11 C5.99 11.33 6.98 11.66 8 12 C8.16276042 14.01822917 8.32552083 16.03645833 8.48828125 18.0546875 C8.87393036 20.39519216 8.87393036 20.39519216 12 22 C13.1875 24.625 13.1875 24.625 14 27 C15.65 26.67 17.3 26.34 19 26 C19.103125 25.360625 19.20625 24.72125 19.3125 24.0625 C19.539375 23.381875 19.76625 22.70125 20 22 C20.99 21.67 21.98 21.34 23 21 C23.33 18.03 23.66 15.06 24 12 C24.99 11.67 25.98 11.34 27 11 C27 10.34 27 9.68 27 9 C26.34 8.67 25.68 8.34 25 8 C25.54226981 4.20411134 27.20127563 2.52788007 30 0 C34.17678225 1.39226075 34.99067321 3.61121335 36.98046875 7.3984375 C39.2001017 13.06232846 38.67373132 18.62680522 36.75 24.3125 C33.89494134 30.80482518 30.18392049 34.08507557 23.77734375 37.0390625 C18.04090639 39.02382142 12.92055448 39.18153486 7.2578125 36.890625 C1.40311733 33.65925022 -3.4926438 29.71782916 -5.6015625 23.1171875 C-6.92882265 16.06449141 -6.60186755 9.84999368 -3.0703125 3.55859375 C-2 2 -2 2 0 0 Z " fill="#E1ECF4" transform="translate(42,52)"/>
<path d="M0 0 C3.96 0 7.92 0 12 0 C12 18.48 12 36.96 12 56 C6.39 56 0.78 56 -5 56 C-5.09243749 50.6463287 -5.171886 45.29548751 -5.21972656 39.94165039 C-5.23969343 38.12514807 -5.26687687 36.30870879 -5.30175781 34.49243164 C-5.49568752 24.12574814 -5.382802 15.59478276 -1 6 C-0.24014434 2.55614866 -0.24014434 2.55614866 0 0 Z " fill="#C4DCF0" transform="translate(88,68)"/>
<path d="M0 0 C5.17630772 1.67261644 6.97184907 4.05750005 9.76171875 8.5703125 C12.36576144 13.67982214 12.51408178 17.92721915 11.0625 23.4375 C9.30472277 28.19917823 6.25449401 31.46518744 2.7421875 35.0546875 C0.78601728 36.97971161 0.78601728 36.97971161 0 40 C1.485 40.495 1.485 40.495 3 41 C2.67 41.99 2.34 42.98 2 44 C1.01 44 0.02 44 -1 44 C-1 46.97 -1 49.94 -1 53 C-2.98 53.495 -2.98 53.495 -5 54 C-5.495 56.475 -5.495 56.475 -6 59 C-8.375 59.625 -8.375 59.625 -11 60 C-11.66 59.34 -12.32 58.68 -13 58 C-13 56.68 -13 55.36 -13 54 C-14.32 53.34 -15.64 52.68 -17 52 C-17 49.36 -17 46.72 -17 44 C-18.32 43.67 -19.64 43.34 -21 43 C-20.67 42.01 -20.34 41.02 -20 40 C-15.71 40 -11.42 40 -7 40 C-7.103125 38.80375 -7.20625 37.6075 -7.3125 36.375 C-7.33808059 31.53174233 -5.23429651 29.54232475 -2 26 C0.46083702 20.6127622 0.2324663 15.41991364 0.125 9.625 C0.11597656 8.69816406 0.10695313 7.77132813 0.09765625 6.81640625 C0.07422937 4.54399923 0.04142748 2.2721382 0 0 Z " fill="#ECB303" transform="translate(67,20)"/>
<path d="M0 0 C2.64 0 5.28 0 8 0 C8 26.4 8 52.8 8 80 C5.36 80 2.72 80 0 80 C0 53.6 0 27.2 0 0 Z " fill="#FF5151" transform="translate(108,44)"/>
<path d="M0 0 C0 10.23 0 20.46 0 31 C-5.61 31 -11.22 31 -17 31 C-17 22.42 -17 13.84 -17 5 C-13.37 4.01 -9.74 3.02 -6 2 C-2 0 -2 0 0 0 Z " fill="#FE4848" transform="translate(76,93)"/>
<path d="M0 0 C1.32 0 2.64 0 4 0 C4 18.48 4 36.96 4 56 C1.03 56 -1.94 56 -5 56 C-5.09977129 50.64727048 -5.1718895 45.29509643 -5.21972656 39.94165039 C-5.23969343 38.12514807 -5.26687687 36.30870879 -5.30175781 34.49243164 C-5.49568752 24.12574814 -5.382802 15.59478276 -1 6 C-0.24014434 2.55614866 -0.24014434 2.55614866 0 0 Z " fill="#E5EFF8" transform="translate(88,68)"/>
<path d="M0 0 C1.32 0.66 2.64 1.32 4 2 C0.82296098 6.97580377 -2.74928289 11.5080578 -6.5 16.0625 C-7.63555127 17.44910853 -8.77097104 18.83582476 -9.90625 20.22265625 C-10.7098999 21.19525391 -10.7098999 21.19525391 -11.52978516 22.1875 C-12.78833378 23.73905513 -13.99022665 25.33627359 -15.1796875 26.94140625 C-17 29 -17 29 -20.625 29.875 C-24 30 -24 30 -26 29 C-26.28154835 26.09788625 -26.46835387 23.83894502 -26 21 C-24.08786237 18.7279674 -22.64105938 17.33670062 -20.3125 15.625 C-19.73540283 15.17020264 -19.15830566 14.71540527 -18.5637207 14.24682617 C-16.72631038 12.80735168 -14.86460972 11.4039924 -13 10 C-11.74563321 9.02700769 -10.49300595 8.05176838 -9.2421875 7.07421875 C-6.18099054 4.68965516 -3.09755563 2.33710826 0 0 Z " fill="#38658B" transform="translate(30,88)"/>
<path d="M0 0 C7.26 0 14.52 0 22 0 C22 1.32 22 2.64 22 4 C21.01 4 20.02 4 19 4 C19 6.97 19 9.94 19 13 C17.68 13.33 16.36 13.66 15 14 C14.67 15.65 14.34 17.3 14 19 C11.625 19.625 11.625 19.625 9 20 C8.34 19.34 7.68 18.68 7 18 C7 16.68 7 15.36 7 14 C5.68 13.34 4.36 12.68 3 12 C3 9.36 3 6.72 3 4 C1.68 3.67 0.36 3.34 -1 3 C-0.67 2.01 -0.34 1.02 0 0 Z " fill="#A0BF06" transform="translate(47,60)"/>
<path d="M0 0 C3.36591866 1.44253657 5.51047079 3.33264727 8 6 C6.68634784 8.82338336 5.22203388 11.13934873 3.2421875 13.5390625 C2.70303711 14.19777344 2.16388672 14.85648438 1.60839844 15.53515625 C0.43747364 16.94686277 -0.7337581 18.35831475 -1.90527344 19.76953125 C-5.75067593 24.41583337 -5.75067593 24.41583337 -9.3203125 29.2734375 C-13.79904148 35.60168209 -13.79904148 35.60168209 -17.34375 36.77734375 C-19.85851936 36.94472288 -21.61848763 36.81879109 -24 36 C-26.5625 33.5 -26.5625 33.5 -28 31 C-26.948125 31.103125 -25.89625 31.20625 -24.8125 31.3125 C-18.70889001 30.8122041 -15.75581961 25.82984786 -11.95239258 21.39331055 C-11.49372803 20.85101807 -11.03506348 20.30872559 -10.5625 19.75 C-10.08385498 19.18514893 -9.60520996 18.62029785 -9.11206055 18.03833008 C-5.3840239 13.58099113 -2.03716063 8.95941419 1 4 C0.34 3.01 -0.32 2.02 -1 1 C-0.67 0.67 -0.34 0.34 0 0 Z " fill="#2C5272" transform="translate(32,86)"/>
<path d="M0 0 C0 10.23 0 20.46 0 31 C-2.64 31 -5.28 31 -8 31 C-8 21.76 -8 12.52 -8 3 C-2 0 -2 0 0 0 Z " fill="#FE2929" transform="translate(76,93)"/>
<path d="M0 0 C5.8964243 4.27917675 8.64795814 9.16266901 11 16 C12.43956587 25.73059937 10.85740974 34.64732833 5.75 43.05859375 C1.53780993 48.62299257 -4.6386462 52.05035038 -11.421875 53.52734375 C-13.27247607 53.7668719 -15.13683498 53.89649083 -17 54 C-14.39933464 52.26622309 -12.01943121 51.08708655 -9.1875 49.8125 C-1.46557412 45.94591703 2.37766993 40.67183548 5.3125 32.61328125 C7.08327393 25.88232806 6.59936641 18.47242235 4 12 C2.72486331 9.87736393 1.39022187 7.85596447 -0.07421875 5.859375 C-1 4 -1 4 -0.64453125 1.765625 C-0.43183594 1.18296875 -0.21914062 0.6003125 0 0 Z " fill="#305472" transform="translate(77,44)"/>
<path d="M0 0 C1.32 0.66 2.64 1.32 4 2 C4 5.43432194 3.34586256 6.21069658 1.5 9 C-1.91471854 14.93948211 -1.89995521 20.63635164 -0.53515625 27.25390625 C-0.09163905 28.85639539 0.44296858 30.43334913 1 32 C-3.69392333 27.80017386 -5.6272115 24.73935541 -6.25390625 18.453125 C-6.52806342 12.05022861 -5.65586991 7.32369377 -2 2 C-1.34 1.34 -0.68 0.68 0 0 Z " fill="#C0D8EC" transform="translate(42,52)"/>
<path d="M0 0 C2.66666667 1.33333333 5.33333333 2.66666667 8 4 C9.32 2.68 10.64 1.36 12 0 C12.99 0.33 13.98 0.66 15 1 C13.32630411 4.7336293 13.32630411 4.7336293 11.46875 6.25 C9.34266434 8.78320845 9.48765718 10.9295764 9.3125 14.1875 C9.24675781 15.27417969 9.18101563 16.36085938 9.11328125 17.48046875 C9.07589844 18.31191406 9.03851563 19.14335938 9 20 C7.68 20 6.36 20 5 20 C4.98582031 19.19175781 4.97164062 18.38351563 4.95703125 17.55078125 C4.91384796 10.51070878 4.91384796 10.51070878 1.4375 4.75 C0.633125 4.1725 -0.17125 3.595 -1 3 C-0.67 2.01 -0.34 1.02 0 0 Z " fill="#E4EEF5" transform="translate(51,40)"/>
<path d="M0 0 C1.32 0 2.64 0 4 0 C4 2.97 4 5.94 4 9 C2.68 9.33 1.36 9.66 0 10 C-0.33 11.65 -0.66 13.3 -1 15 C-3.375 15.625 -3.375 15.625 -6 16 C-8.35953094 13.64046906 -8.49141413 12.22104383 -9 9 C-8.071875 8.443125 -7.14375 7.88625 -6.1875 7.3125 C-2.90298199 5.25243056 -2.90298199 5.25243056 -1.375 2.25 C-0.92125 1.5075 -0.4675 0.765 0 0 Z " fill="#829A07" transform="translate(62,64)"/>
<path d="M0 0 C0 1.32 0 2.64 0 4 C-0.9075 4.2475 -1.815 4.495 -2.75 4.75 C-6.13982455 6.05377867 -7.52663186 7.4413433 -10 10 C-10.99 10 -11.98 10 -13 10 C-12.70179167 6.42150008 -12.25754642 5.23773516 -9.5625 2.75 C-6.00921871 0.32336888 -4.26814092 -0.1123195 0 0 Z " fill="#ECB301" transform="translate(59,24)"/>
<path d="M0 0 C1.32 0 2.64 0 4 0 C3.25 4.75 3.25 4.75 1 7 C-0.32 7 -1.64 7 -3 7 C-2.25 2.25 -2.25 2.25 0 0 Z " fill="#FFCA27" transform="translate(82,14)"/>
<path d="M0 0 C4.75 0.75 4.75 0.75 7 3 C7 4.32 7 5.64 7 7 C2.25 6.25 2.25 6.25 0 4 C0 2.68 0 1.36 0 0 Z " fill="#FFC928" transform="translate(30,14)"/>
<path d="M0 0 C1.32 0 2.64 0 4 0 C4 2.64 4 5.28 4 8 C2.68 8 1.36 8 0 8 C-1.125 2.25 -1.125 2.25 0 0 Z " fill="#FFCF23" transform="translate(56,4)"/>
<path d="M0 0 C2.64 0 5.28 0 8 0 C8 1.32 8 2.64 8 4 C5.36 4 2.72 4 0 4 C0 2.68 0 1.36 0 0 Z " fill="#FFCA28" transform="translate(88,40)"/>
<path d="M0 0 C2.64 0 5.28 0 8 0 C8 1.32 8 2.64 8 4 C5.36 4 2.72 4 0 4 C0 2.68 0 1.36 0 0 Z " fill="#FFCA28" transform="translate(20,40)"/>
<path d="M0 0 C0.33 0.99 0.66 1.98 1 3 C-0.40445835 5.2636564 -2.1967913 7.0208685 -4 9 C-4.8125 7.3125 -4.8125 7.3125 -5 5 C-2.5625 2.25 -2.5625 2.25 0 0 Z " fill="#FBCC3C" transform="translate(65,43)"/>
</svg>
