<svg width="128" height="128" version="1.1" xmlns="http://www.w3.org/2000/svg" desc="Created with imagetracer.js version 1.2.6" ><path fill="rgb(237,0,99)" stroke="rgb(237,0,99)" stroke-width="1" opacity="0.9254901960784314" d="M 35.5 0 L 94.5 0 Q 95.7 2.3 100.5 1 Q 114 4.5 121 14.5 L 125 21.5 L 128 33.5 L 128 92.5 L 124.5 106 L 115 96.5 L 116 95.5 L 116 34.5 L 112 22.5 L 105.5 16 L 93.5 12 L 32.5 12 L 31.5 13 L 22 3.5 L 35.5 0 Z " /><path fill="rgb(237,0,99)" stroke="rgb(237,0,99)" stroke-width="1" opacity="0.9254901960784314" d="M 95.5 22 Q 103.1 20.9 105 25.5 L 106 32.5 L 104 36 L 96.5 38 L 91 33.5 L 90 28.5 L 92 24 L 95.5 22 Z " /><path fill="rgb(237,0,99)" stroke="rgb(237,0,99)" stroke-width="1" opacity="0.9254901960784314" d="M 59.5 31 Q 82.5 30.5 91 44.5 L 96 54.5 L 97 68.5 L 94.5 74 L 85 64.5 Q 85.5 52.5 78.5 48 Q 74 42.5 63.5 43 L 54 33.5 L 59.5 31 Z " /><path fill="rgb(255,0,6)" stroke="rgb(255,0,6)" stroke-width="1" opacity="0.023529411764705882" d="M 31.5 0 L 35 0.5 L 31.5 1 L 31.5 0 Z " /><path fill="rgb(255,0,6)" stroke="rgb(255,0,6)" stroke-width="1" opacity="0.023529411764705882" d="M 20.5 3 L 22 3.5 Q 13.2 6.7 8 13.5 L 4.5 19 L 5 17.5 L 13.5 7 L 20.5 3 Z " /><path fill="rgb(255,0,6)" stroke="rgb(255,0,6)" stroke-width="1" opacity="0.023529411764705882" d="M 111.5 5 L 112.5 7 L 111.5 5 Z " /><path fill="rgb(255,0,6)" stroke="rgb(255,0,6)" stroke-width="1" opacity="0.023529411764705882" d="M 114.5 7 L 120.5 14 L 114.5 7 Z " /><path fill="rgb(255,0,6)" stroke="rgb(255,0,6)" stroke-width="1" opacity="0.023529411764705882" d="M 32.5 12 L 37 12.5 L 32.5 13 L 32.5 12 Z " /><path fill="rgb(255,0,6)" stroke="rgb(255,0,6)" stroke-width="1" opacity="0.023529411764705882" d="M 91.5 12 L 94 12.5 L 91.5 13 L 91.5 12 Z " /><path fill="rgb(255,0,6)" stroke="rgb(255,0,6)" stroke-width="1" opacity="0.023529411764705882" d="M 25.5 14 L 27 14.5 L 22.5 17 L 23.5 15 L 25.5 14 Z " /><path fill="rgb(255,0,6)" stroke="rgb(255,0,6)" stroke-width="1" opacity="0.023529411764705882" d="M 121.5 15 L 122.5 17 L 121.5 15 Z " /><path fill="rgb(255,0,6)" stroke="rgb(255,0,6)" stroke-width="1" opacity="0.023529411764705882" d="M 20.5 17 L 17.5 21 L 20.5 17 Z " /><path fill="rgb(255,0,6)" stroke="rgb(255,0,6)" stroke-width="1" opacity="0.023529411764705882" d="M 16.5 22 L 16 23.5 L 14.5 27 L 14 25.5 L 16.5 22 Z " /><path fill="rgb(255,0,6)" stroke="rgb(255,0,6)" stroke-width="1" opacity="0.023529411764705882" d="M 94.5 22 L 93.5 24 L 94.5 22 Z " /><path fill="rgb(255,0,6)" stroke="rgb(255,0,6)" stroke-width="1" opacity="0.023529411764705882" d="M 103.5 23 L 104.5 25 L 103.5 23 Z " /><path fill="rgb(255,0,6)" stroke="rgb(255,0,6)" stroke-width="1" opacity="0.023529411764705882" d="M 0.5 31 L 1 34.5 L 0 34.5 L 0.5 31 Z " /><path fill="rgb(255,0,6)" stroke="rgb(255,0,6)" stroke-width="1" opacity="0.023529411764705882" d="M 56.5 31 L 59 31.5 L 56.5 32 L 56.5 31 Z " /><path fill="rgb(255,0,6)" stroke="rgb(255,0,6)" stroke-width="1" opacity="0.023529411764705882" d="M 69.5 31 L 72 31.5 L 69.5 32 L 69.5 31 Z " /><path fill="rgb(255,0,6)" stroke="rgb(255,0,6)" stroke-width="1" opacity="0.023529411764705882" d="M 12.5 33 L 13 36.5 L 12 36.5 L 12.5 33 Z " /><path fill="rgb(255,0,6)" stroke="rgb(255,0,6)" stroke-width="1" opacity="0.023529411764705882" d="M 50.5 33 L 52 33.5 L 44.5 38 L 46.5 35 L 50.5 33 Z " /><path fill="rgb(255,0,6)" stroke="rgb(255,0,6)" stroke-width="1" opacity="0.023529411764705882" d="M 105.5 33 L 104.5 35 L 105.5 33 Z " /><path fill="rgb(255,0,6)" stroke="rgb(255,0,6)" stroke-width="1" opacity="0.023529411764705882" d="M 91.5 34 L 93.5 37 L 91.5 34 Z " /><path fill="rgb(255,0,6)" stroke="rgb(255,0,6)" stroke-width="1" opacity="0.023529411764705882" d="M 115.5 34 L 116 36.5 L 115 36.5 L 115.5 34 Z " /><path fill="rgb(255,0,6)" stroke="rgb(255,0,6)" stroke-width="1" opacity="0.023529411764705882" d="M 81.5 35 L 82.5 37 L 81.5 35 Z " /><path fill="rgb(255,0,6)" stroke="rgb(255,0,6)" stroke-width="1" opacity="0.023529411764705882" d="M 42.5 38 L 38.5 43 L 42.5 38 Z " /><path fill="rgb(255,0,6)" stroke="rgb(255,0,6)" stroke-width="1" opacity="0.023529411764705882" d="M 85.5 38 L 89.5 43 L 85.5 38 Z " /><path fill="rgb(255,0,6)" stroke="rgb(255,0,6)" stroke-width="1" opacity="0.023529411764705882" d="M 58.5 43 L 61 43.5 L 58.5 44 L 58.5 43 Z " /><path fill="rgb(255,0,6)" stroke="rgb(255,0,6)" stroke-width="1" opacity="0.023529411764705882" d="M 67.5 43 L 70 43.5 L 67.5 44 L 67.5 43 Z " /><path fill="rgb(255,0,6)" stroke="rgb(255,0,6)" stroke-width="1" opacity="0.023529411764705882" d="M 37.5 44 L 36 46.5 L 34.5 49 L 35 47.5 L 37.5 44 Z " /><path fill="rgb(255,0,6)" stroke="rgb(255,0,6)" stroke-width="1" opacity="0.023529411764705882" d="M 55.5 44 L 57 44.5 L 48 50.5 L 44.5 57 L 44 55.5 L 50.5 47 L 55.5 44 Z " /><path fill="rgb(255,0,6)" stroke="rgb(255,0,6)" stroke-width="1" opacity="0.023529411764705882" d="M 71.5 44 L 77 47.5 L 74.5 46 Q 70.7 45.8 71.5 44 Z " /><path fill="rgb(255,0,6)" stroke="rgb(255,0,6)" stroke-width="1" opacity="0.023529411764705882" d="M 91.5 45 L 92.5 47 L 91.5 45 Z " /><path fill="rgb(255,0,6)" stroke="rgb(255,0,6)" stroke-width="1" opacity="0.023529411764705882" d="M 78.5 48 L 79.5 50 L 78.5 48 Z " /><path fill="rgb(255,0,6)" stroke="rgb(255,0,6)" stroke-width="1" opacity="0.023529411764705882" d="M 80.5 51 L 84 56.5 L 83 56.5 L 80.5 51 Z " /><path fill="rgb(255,0,6)" stroke="rgb(255,0,6)" stroke-width="1" opacity="0.023529411764705882" d="M 31.5 56 L 32 58.5 L 31 58.5 L 31.5 56 Z " /><path fill="rgb(255,0,6)" stroke="rgb(255,0,6)" stroke-width="1" opacity="0.023529411764705882" d="M 96.5 56 L 97 58.5 L 96 58.5 L 96.5 56 Z " /><path fill="rgb(255,0,6)" stroke="rgb(255,0,6)" stroke-width="1" opacity="0.023529411764705882" d="M 43.5 58 L 44 60.5 L 43 60.5 L 43.5 58 Z " /><path fill="rgb(255,0,6)" stroke="rgb(255,0,6)" stroke-width="1" opacity="0.023529411764705882" d="M 84.5 58 L 85 60.5 L 84 60.5 L 84.5 58 Z " /><path fill="rgb(255,0,6)" stroke="rgb(255,0,6)" stroke-width="1" opacity="0.023529411764705882" d="M 84.5 67 L 85 69.5 L 84 69.5 L 84.5 67 Z " /><path fill="rgb(255,0,6)" stroke="rgb(255,0,6)" stroke-width="1" opacity="0.023529411764705882" d="M 31.5 69 L 32 71.5 L 31 71.5 L 31.5 69 Z " /><path fill="rgb(255,0,6)" stroke="rgb(255,0,6)" stroke-width="1" opacity="0.023529411764705882" d="M 96.5 69 L 97 71.5 L 96 71.5 L 96.5 69 Z " /><path fill="rgb(255,0,6)" stroke="rgb(255,0,6)" stroke-width="1" opacity="0.023529411764705882" d="M 83.5 71 L 84 72.5 L 77.5 81 L 71.5 84 L 71.5 83 L 80 77.5 L 83.5 71 Z " /><path fill="rgb(255,0,6)" stroke="rgb(255,0,6)" stroke-width="1" opacity="0.023529411764705882" d="M 46.5 75 L 47.5 77 L 46.5 75 Z " /><path fill="rgb(255,0,6)" stroke="rgb(255,0,6)" stroke-width="1" opacity="0.023529411764705882" d="M 94.5 76 L 95 77.5 L 90.5 84 L 92 81.5 L 94.5 76 Z " /><path fill="rgb(255,0,6)" stroke="rgb(255,0,6)" stroke-width="1" opacity="0.023529411764705882" d="M 51.5 80 L 52.5 82 L 51.5 80 Z " /><path fill="rgb(255,0,6)" stroke="rgb(255,0,6)" stroke-width="1" opacity="0.023529411764705882" d="M 35.5 81 L 36.5 83 L 35.5 81 Z " /><path fill="rgb(255,0,6)" stroke="rgb(255,0,6)" stroke-width="1" opacity="0.023529411764705882" d="M 67.5 84 L 70 84.5 L 67.5 85 L 67.5 84 Z " /><path fill="rgb(255,0,6)" stroke="rgb(255,0,6)" stroke-width="1" opacity="0.023529411764705882" d="M 38.5 85 L 42.5 90 L 38.5 85 Z " /><path fill="rgb(255,0,6)" stroke="rgb(255,0,6)" stroke-width="1" opacity="0.023529411764705882" d="M 89.5 85 L 85.5 90 L 89.5 85 Z " /><path fill="rgb(255,0,6)" stroke="rgb(255,0,6)" stroke-width="1" opacity="0.023529411764705882" d="M 44.5 90 L 46.5 93 L 44.5 90 Z " /><path fill="rgb(255,0,6)" stroke="rgb(255,0,6)" stroke-width="1" opacity="0.023529411764705882" d="M 83.5 90 L 81.5 93 L 79.5 94 L 80.5 92 L 83.5 90 Z " /><path fill="rgb(255,0,6)" stroke="rgb(255,0,6)" stroke-width="1" opacity="0.023529411764705882" d="M 115.5 91 L 116 95.5 L 115 95.5 L 115.5 91 Z " /><path fill="rgb(255,0,6)" stroke="rgb(255,0,6)" stroke-width="1" opacity="0.023529411764705882" d="M 127.5 93 L 128 96.5 L 127 96.5 L 127.5 93 Z " /><path fill="rgb(255,0,6)" stroke="rgb(255,0,6)" stroke-width="1" opacity="0.023529411764705882" d="M 56.5 96 L 59 96.5 L 56.5 97 L 56.5 96 Z " /><path fill="rgb(255,0,6)" stroke="rgb(255,0,6)" stroke-width="1" opacity="0.023529411764705882" d="M 69.5 96 L 72 96.5 L 69.5 97 L 69.5 96 Z " /><path fill="rgb(255,0,6)" stroke="rgb(255,0,6)" stroke-width="1" opacity="0.023529411764705882" d="M 113.5 101 L 114 102.5 L 107.5 111 L 101.5 114 L 101.5 113 L 110 107.5 L 113.5 101 Z " /><path fill="rgb(255,0,6)" stroke="rgb(255,0,6)" stroke-width="1" opacity="0.023529411764705882" d="M 124.5 106 L 125 107.5 Q 121.4 115.9 114.5 121 L 109.5 124 L 110.5 122 L 120 114.5 L 124.5 106 Z " /><path fill="rgb(255,0,6)" stroke="rgb(255,0,6)" stroke-width="1" opacity="0.023529411764705882" d="M 7.5 114 L 13.5 121 L 7.5 114 Z " /><path fill="rgb(255,0,6)" stroke="rgb(255,0,6)" stroke-width="1" opacity="0.023529411764705882" d="M 91.5 115 L 95 115.5 L 91.5 116 L 91.5 115 Z " /><path fill="rgb(255,0,6)" stroke="rgb(255,0,6)" stroke-width="1" opacity="0.023529411764705882" d="M 93.5 127 L 97 127.5 L 93.5 128 L 93.5 127 Z " /><path fill="rgb(0,0,0)" stroke="rgb(0,0,0)" stroke-width="1" opacity="0" d="M 0 0 L 31 0.5 Q 14.6 2.6 7 13.5 Q 1.7 20.2 0.5 31 L 0 0 Z " /><path fill="rgb(0,0,0)" stroke="rgb(0,0,0)" stroke-width="1" opacity="0" d="M 97.5 0 L 128 0 L 128 30.5 L 127 30.5 Q 125.3 14.3 114.5 7 Q 108.3 1.7 97.5 1 L 97.5 0 Z " /><path fill="rgb(0,0,0)" stroke="rgb(0,0,0)" stroke-width="1" opacity="0" d="M 37.5 12 L 90.5 12 L 100.5 14 Q 107.3 16.3 111 21.5 L 115 30.5 Q 113.5 36 116 37.5 L 116 90.5 L 114 100.5 L 107.5 110 L 100.5 114 L 90.5 116 L 37.5 116 L 27.5 114 Q 20.8 111.8 17 106.5 L 13 97.5 Q 14.5 92 12 90.5 L 12 37.5 L 14 27.5 Q 16.3 20.8 21.5 17 L 30.5 13 Q 36 14.5 37.5 12 Z M 95 22 L 90 28 L 91 35 L 96 38 Q 104 39 106 34 L 105 25 Q 102 21 95 22 Z M 57 31 L 43 38 Q 34 45 31 57 L 31 72 L 38 86 Q 45 94 57 97 L 72 97 L 86 90 Q 94 83 97 72 L 97 57 L 90 43 L 78 33 Q 70 29 57 31 Z " /><path fill="rgb(0,0,0)" stroke="rgb(0,0,0)" stroke-width="1" opacity="0" d="M 61.5 43 Q 74.7 42.8 80 50.5 Q 85.3 55.7 85 66.5 Q 83.1 75.1 77.5 80 Q 72.3 85.3 61.5 85 Q 52.9 83.1 48 77.5 Q 42.7 72.3 43 61.5 Q 44.9 52.9 50.5 48 L 61.5 43 Z " /><path fill="rgb(0,0,0)" stroke="rgb(0,0,0)" stroke-width="1" opacity="0" d="M 0.5 97 Q 2.6 113.4 13.5 121 Q 20.2 126.3 31 127.5 L 0 128 L 0.5 97 Z " /><path fill="rgb(0,0,0)" stroke="rgb(0,0,0)" stroke-width="1" opacity="0" d="M 127.5 97 L 128 128 L 97 127.5 Q 113.4 125.4 121 114.5 Q 126.3 107.8 127.5 97 Z " /><path fill="rgb(254,45,3)" stroke="rgb(254,45,3)" stroke-width="1" opacity="0.9254901960784314" d="M 20.5 4 L 22.5 4 L 31 12.5 Q 21.7 14.2 17 20.5 L 14 25.5 L 12 33.5 L 11.5 63 L 0 50.5 L 0 35.5 L 4 19.5 L 13.5 8 L 20.5 4 Z " /><path fill="rgb(254,45,3)" stroke="rgb(254,45,3)" stroke-width="1" opacity="0.9254901960784314" d="M 52.5 33 L 63 42.5 Q 51.8 43.3 47 50.5 Q 41.3 55.8 43 68.5 Q 45.4 77.5 52.5 82 Q 58 86.5 69.5 85 Q 76.9 82.9 81 77.5 Q 85 73 85.5 65 L 95 75.5 Q 91.5 84.5 84.5 90 L 73.5 96 L 59.5 97 Q 44.2 94.3 37 83.5 Q 30 75.5 31 59.5 Q 33.5 45 43.5 38 L 52.5 33 Z " /><path fill="rgb(254,45,3)" stroke="rgb(254,45,3)" stroke-width="1" opacity="0.9254901960784314" d="M 115.5 97 L 124 105.5 L 124 107.5 Q 120.8 115.3 114.5 120 Q 108.7 125.2 99.5 127 L 77.5 128 L 65 116.5 L 94.5 116 L 104.5 113 L 111 107.5 L 115.5 97 Z " /><path fill="rgb(255,164,0)" stroke="rgb(255,164,0)" stroke-width="1" opacity="0.9333333333333333" d="M 0.5 51 L 12 63.5 L 12 92.5 Q 14.2 93.8 13 98.5 Q 15.4 107.5 22.5 112 L 35.5 116 L 64.5 116 L 77 127.5 L 32.5 128 L 15.5 122 L 6 112.5 L 0 95.5 L 0.5 51 Z " /></svg>