<svg width="128" height="128" version="1.1" xmlns="http://www.w3.org/2000/svg" desc="Created with imagetracer.js version 1.2.6" ><path fill="rgb(61,121,200)" stroke="rgb(61,121,200)" stroke-width="1" opacity="0.9764705882352941" d="M 26.5 0 L 30 0.5 L 26.5 1 L 26.5 0 Z " /><path fill="rgb(61,121,200)" stroke="rgb(61,121,200)" stroke-width="1" opacity="0.9764705882352941" d="M 98.5 0 L 101 0.5 L 98.5 1 L 98.5 0 Z " /><path fill="rgb(61,121,200)" stroke="rgb(61,121,200)" stroke-width="1" opacity="0.9764705882352941" d="M 107.5 4 L 109.5 7 L 107.5 4 Z " /><path fill="rgb(61,121,200)" stroke="rgb(61,121,200)" stroke-width="1" opacity="0.9764705882352941" d="M 11.5 7 L 7.5 12 L 11.5 7 Z " /><path fill="rgb(61,121,200)" stroke="rgb(61,121,200)" stroke-width="1" opacity="0.9764705882352941" d="M 5.5 14 L 4.5 16 L 5.5 14 Z " /><path fill="rgb(61,121,200)" stroke="rgb(61,121,200)" stroke-width="1" opacity="0.9764705882352941" d="M 0.5 26 L 1 29.5 L 0 29.5 L 0.5 26 Z " /><path fill="rgb(61,121,200)" stroke="rgb(61,121,200)" stroke-width="1" opacity="0.9764705882352941" d="M 109.5 29 L 107.5 32 L 109.5 29 Z " /><path fill="rgb(61,121,200)" stroke="rgb(61,121,200)" stroke-width="1" opacity="0.9764705882352941" d="M 20.5 50 L 18.5 53 L 20.5 50 Z " /><path fill="rgb(61,121,200)" stroke="rgb(61,121,200)" stroke-width="1" opacity="0.9764705882352941" d="M 16.5 54 L 14.5 57 L 16.5 54 Z " /><path fill="rgb(42,101,182)" stroke="rgb(42,101,182)" stroke-width="1" opacity="0.37254901960784315" d="M 101.5 0 L 104 0.5 L 101.5 1 L 101.5 0 Z " /><path fill="rgb(42,101,182)" stroke="rgb(42,101,182)" stroke-width="1" opacity="0.37254901960784315" d="M 108.5 2 Q 116.6 4.4 121 10.5 L 123 13.5 L 119 10.5 Q 119.8 8.3 117.5 9 Q 114.6 4.4 108.5 3 L 108.5 2 Z " /><path fill="rgb(42,101,182)" stroke="rgb(42,101,182)" stroke-width="1" opacity="0.37254901960784315" d="M 16.5 3 L 15.5 5 L 16.5 3 Z " /><path fill="rgb(42,101,182)" stroke="rgb(42,101,182)" stroke-width="1" opacity="0.37254901960784315" d="M 13.5 5 L 12.5 7 L 13.5 5 Z " /><path fill="rgb(42,101,182)" stroke="rgb(42,101,182)" stroke-width="1" opacity="0.37254901960784315" d="M 10.5 7 L 7.5 11 L 10.5 7 Z " /><path fill="rgb(42,101,182)" stroke="rgb(42,101,182)" stroke-width="1" opacity="0.37254901960784315" d="M 6.5 12 L 5.5 14 L 6.5 12 Z " /><path fill="rgb(42,101,182)" stroke="rgb(42,101,182)" stroke-width="1" opacity="0.37254901960784315" d="M 123.5 15 L 126 19.5 L 125 19.5 L 123.5 15 Z " /><path fill="rgb(42,101,182)" stroke="rgb(42,101,182)" stroke-width="1" opacity="0.37254901960784315" d="M 127.5 24 L 128 27.5 L 127 27.5 L 127.5 24 Z " /><path fill="rgb(42,101,182)" stroke="rgb(42,101,182)" stroke-width="1" opacity="0.37254901960784315" d="M 0.5 100 L 1 103.5 L 0 103.5 L 0.5 100 Z " /><path fill="rgb(42,101,182)" stroke="rgb(42,101,182)" stroke-width="1" opacity="0.37254901960784315" d="M 2.5 108 L 5 112.5 L 3 111.5 L 2.5 108 Z " /><path fill="rgb(42,101,182)" stroke="rgb(42,101,182)" stroke-width="1" opacity="0.37254901960784315" d="M 5.5 114 L 9 119 L 14 122.5 L 10.5 120 L 8 118.5 L 5.5 114 Z " /><path fill="rgb(42,101,182)" stroke="rgb(42,101,182)" stroke-width="1" opacity="0.37254901960784315" d="M 122.5 114 L 121.5 116 L 122.5 114 Z " /><path fill="rgb(42,101,182)" stroke="rgb(42,101,182)" stroke-width="1" opacity="0.37254901960784315" d="M 120.5 117 L 117.5 121 L 120.5 117 Z " /><path fill="rgb(42,101,182)" stroke="rgb(42,101,182)" stroke-width="1" opacity="0.37254901960784315" d="M 115.5 121 L 114.5 123 L 115.5 121 Z " /><path fill="rgb(42,101,182)" stroke="rgb(42,101,182)" stroke-width="1" opacity="0.37254901960784315" d="M 15.5 123 L 20 125.5 L 18.5 126 L 15.5 123 Z " /><path fill="rgb(42,101,182)" stroke="rgb(42,101,182)" stroke-width="1" opacity="0.37254901960784315" d="M 24.5 127 L 28 127.5 L 24.5 128 L 24.5 127 Z " /><path fill="rgb(244,247,251)" stroke="rgb(244,247,251)" stroke-width="1" opacity="1" d="M 30.5 22 L 34 22.5 L 30.5 23 L 30.5 22 Z " /><path fill="rgb(244,247,251)" stroke="rgb(244,247,251)" stroke-width="1" opacity="1" d="M 22.5 30 L 23 33.5 L 22 33.5 L 22.5 30 Z " /><path fill="rgb(244,247,251)" stroke="rgb(244,247,251)" stroke-width="1" opacity="1" d="M 41.5 30 L 42 33.5 L 41 33.5 L 41.5 30 Z " /><path fill="rgb(244,247,251)" stroke="rgb(244,247,251)" stroke-width="1" opacity="1" d="M 30.5 41 L 34 41.5 L 30.5 42 L 30.5 41 Z " /><path fill="rgb(244,247,251)" stroke="rgb(244,247,251)" stroke-width="1" opacity="1" d="M 82.5 48 L 86 48.5 L 82.5 49 L 82.5 48 Z " /><path fill="rgb(244,247,251)" stroke="rgb(244,247,251)" stroke-width="1" opacity="1" d="M 72.5 52 L 70.5 55 L 72.5 52 Z " /><path fill="rgb(244,247,251)" stroke="rgb(244,247,251)" stroke-width="1" opacity="1" d="M 98.5 54 L 99.5 56 L 98.5 54 Z " /><path fill="rgb(65,125,205)" stroke="rgb(65,125,205)" stroke-width="1" opacity="1" d="M 30.5 0 L 97.5 0 Q 106.8 1.8 111 8.5 Q 114 12.5 114 19.5 Q 112.3 28.8 105.5 33 L 97.5 36 L 50.5 36 L 40 39 Q 42.7 36.4 42 29.5 L 38.5 24 Q 35.9 20.6 28.5 22 L 24 25.5 Q 20.6 28.1 22 35.5 L 25.5 40 L 32 42.5 Q 21.3 47.8 14 56.5 Q 3.4 67.4 0.5 86 L 0 30.5 L 4 16.5 L 13.5 6 L 18.5 3 L 30.5 0 Z " /><path fill="rgb(65,125,205)" stroke="rgb(65,125,205)" stroke-width="1" opacity="1" d="M 97.5 52 L 99.5 55 L 97.5 52 Z " /><path fill="rgb(37,96,175)" stroke="rgb(37,96,175)" stroke-width="1" opacity="0.9607843137254902" d="M 127.5 35 L 128 37.5 L 127 37.5 L 127.5 35 Z " /><path fill="rgb(37,96,175)" stroke="rgb(37,96,175)" stroke-width="1" opacity="0.9607843137254902" d="M 120.5 52 L 116.5 57 L 120.5 52 Z " /><path fill="rgb(37,96,175)" stroke="rgb(37,96,175)" stroke-width="1" opacity="0.9607843137254902" d="M 70.5 76 L 69.5 78 L 70.5 76 Z " /><path fill="rgb(255,255,255)" stroke="rgb(255,255,255)" stroke-width="1" opacity="1" d="M 28.5 23 Q 37.5 21.5 40 26.5 L 41 35.5 L 37.5 40 L 28.5 41 L 24 37.5 L 23 28.5 L 26.5 24 L 28.5 23 Z " /><path fill="rgb(255,255,255)" stroke="rgb(255,255,255)" stroke-width="1" opacity="1" d="M 78.5 49 L 90.5 49 L 98 53 L 102 59.5 L 104 69.5 L 104 99.5 L 101.5 103 L 92.5 104 L 89 101.5 L 88 99.5 L 88 67.5 L 83.5 63 L 74.5 62 L 69 66.5 L 68 68.5 L 68 99.5 L 65.5 103 L 56.5 104 L 53 101.5 L 52 99.5 L 52 54.5 L 54.5 51 L 63.5 50 L 67 52.5 L 68.5 58 L 74.5 51 L 78.5 49 Z " /><path fill="rgb(255,255,255)" stroke="rgb(255,255,255)" stroke-width="1" opacity="1" d="M 28.5 50 Q 36.5 48.5 39 52.5 L 40 54.5 L 40 99.5 L 37.5 103 L 28.5 104 L 25 101.5 L 24 99.5 L 24 54.5 L 26.5 51 L 28.5 50 Z " /><path fill="rgb(40,100,180)" stroke="rgb(40,100,180)" stroke-width="1" opacity="1" d="M 105.5 2 L 113.5 5 L 119 9 L 126 20.5 L 128 28.5 L 128 34.5 L 124 47.5 L 114.5 58 Q 110.3 62 103 62 Q 102.3 54.5 96.5 51 Q 91 46 78.5 48 L 69 54.5 L 68.5 56 Q 69.1 51.4 66.5 50 L 53.5 50 L 52 51.5 L 52 102.5 L 53.5 104 L 64.5 104 L 65 106.5 Q 68.8 116.2 76.5 122 L 85.5 127 L 89 127.5 L 28.5 128 Q 12.7 124.8 5 113.5 Q -1.1 105.1 0 89.5 Q 4.5 62.5 22.5 49 Q 32.7 40.7 47.5 37 Q 52.3 38.3 53.5 36 L 100.5 36 Q 107.3 33.8 111 28.5 Q 115.5 24 114 13.5 Q 111.8 6.8 106.5 3 L 105.5 2 Z M 26 50 L 24 52 L 24 103 L 26 104 L 39 104 L 40 103 L 40 52 L 39 50 L 26 50 Z " /><path fill="rgb(40,100,180)" stroke="rgb(40,100,180)" stroke-width="1" opacity="1" d="M 77.5 62 L 85 65.5 Q 74.8 69.3 69 77.5 L 68.5 79 L 68 71.5 L 72.5 64 L 77.5 62 Z " /><path fill="rgb(40,100,180)" stroke="rgb(40,100,180)" stroke-width="1" opacity="1" d="M 67.5 102 L 66.5 104 L 67.5 102 Z " /><path fill="rgb(40,100,180)" stroke="rgb(40,100,180)" stroke-width="1" opacity="1" d="M 88.5 102 L 89.5 104 L 88.5 102 Z " /><path fill="rgb(40,100,180)" stroke="rgb(40,100,180)" stroke-width="1" opacity="1" d="M 103.5 102 L 102.5 104 L 103.5 102 Z " /><path fill="rgb(19,79,159)" stroke="rgb(19,79,159)" stroke-width="1" opacity="0.9058823529411765" d="M 127.5 99 L 128 101.5 L 127 101.5 L 127.5 99 Z " /><path fill="rgb(19,79,159)" stroke="rgb(19,79,159)" stroke-width="1" opacity="0.9058823529411765" d="M 123.5 112 L 122.5 114 L 123.5 112 Z " /><path fill="rgb(19,79,159)" stroke="rgb(19,79,159)" stroke-width="1" opacity="0.9058823529411765" d="M 120.5 116 L 116.5 121 L 120.5 116 Z " /><path fill="rgb(19,79,159)" stroke="rgb(19,79,159)" stroke-width="1" opacity="0.9058823529411765" d="M 113.5 122 L 112.5 124 L 113.5 122 Z " /><path fill="rgb(19,79,159)" stroke="rgb(19,79,159)" stroke-width="1" opacity="0.9058823529411765" d="M 99.5 127 L 102 127.5 L 99.5 128 L 99.5 127 Z " /><path fill="rgb(15,75,155)" stroke="rgb(15,75,155)" stroke-width="1" opacity="1" d="M 127.5 38 L 128 98.5 L 124 111.5 L 114.5 122 L 107.5 126 L 98.5 128 L 91.5 128 Q 78.3 125.2 71 116.5 Q 66.3 111.4 65 104 L 68 102.5 L 68 80.5 L 75.5 71 L 86 66 L 88 71.5 L 88 102.5 L 89.5 104 L 102.5 104 L 104 102.5 L 104 63.5 L 105.5 63 Q 115.2 59.7 121 52.5 Q 126.1 47.1 127.5 38 Z " /><path fill="rgb(195,212,235)" stroke="rgb(195,212,235)" stroke-width="1" opacity="1" d="M 25.5 24 L 24.5 26 L 25.5 24 Z " /><path fill="rgb(195,212,235)" stroke="rgb(195,212,235)" stroke-width="1" opacity="1" d="M 38.5 24 L 39.5 26 L 38.5 24 Z " /><path fill="rgb(195,212,235)" stroke="rgb(195,212,235)" stroke-width="1" opacity="1" d="M 24.5 38 L 25.5 40 L 24.5 38 Z " /><path fill="rgb(195,212,235)" stroke="rgb(195,212,235)" stroke-width="1" opacity="1" d="M 39.5 38 L 38.5 40 L 39.5 38 Z " /><path fill="rgb(195,212,235)" stroke="rgb(195,212,235)" stroke-width="1" opacity="1" d="M 86.5 48 L 89 48.5 L 86.5 49 L 86.5 48 Z " /><path fill="rgb(195,212,235)" stroke="rgb(195,212,235)" stroke-width="1" opacity="1" d="M 69.5 55 L 68.5 57 L 69.5 55 Z " /><path fill="rgb(195,212,235)" stroke="rgb(195,212,235)" stroke-width="1" opacity="1" d="M 72.5 63 L 69.5 67 L 72.5 63 Z " /><path fill="rgb(195,212,235)" stroke="rgb(195,212,235)" stroke-width="1" opacity="1" d="M 83.5 63 L 84.5 65 L 83.5 63 Z " /><path fill="rgb(195,212,235)" stroke="rgb(195,212,235)" stroke-width="1" opacity="1" d="M 103.5 64 L 104 66.5 L 103 66.5 L 103.5 64 Z " /><path fill="rgb(0,0,3)" stroke="rgb(0,0,3)" stroke-width="1" opacity="0" d="M 0 0 L 24 0.5 Q 12.9 2.9 7 10.5 Q 2 15.5 0.5 24 L 0 0 Z " /><path fill="rgb(0,0,3)" stroke="rgb(0,0,3)" stroke-width="1" opacity="0" d="M 104.5 0 L 128 0 L 128 23.5 L 127 23.5 Q 125.1 12.4 117.5 7 Q 113.1 1.9 104.5 1 L 104.5 0 Z " /><path fill="rgb(0,0,3)" stroke="rgb(0,0,3)" stroke-width="1" opacity="0" d="M 0.5 104 Q 2.7 114.3 9.5 120 Q 14.9 125.6 24 127.5 L 0 128 L 0.5 104 Z " /><path fill="rgb(0,0,3)" stroke="rgb(0,0,3)" stroke-width="1" opacity="0" d="M 127.5 104 L 128 128 L 104 127.5 Q 115.1 125.1 121 117.5 Q 126 112.5 127.5 104 Z " /><path fill="rgb(65,119,191)" stroke="rgb(65,119,191)" stroke-width="1" opacity="1" d="M 24.5 47 L 23.5 49 L 24.5 47 Z " /><path fill="rgb(65,119,191)" stroke="rgb(65,119,191)" stroke-width="1" opacity="1" d="M 25.5 50 L 24.5 52 L 25.5 50 Z " /><path fill="rgb(65,119,191)" stroke="rgb(65,119,191)" stroke-width="1" opacity="1" d="M 38.5 50 L 39.5 52 L 38.5 50 Z " /><path fill="rgb(65,119,191)" stroke="rgb(65,119,191)" stroke-width="1" opacity="1" d="M 53.5 50 L 52.5 52 L 53.5 50 Z " /><path fill="rgb(65,119,191)" stroke="rgb(65,119,191)" stroke-width="1" opacity="1" d="M 66.5 50 L 67.5 52 L 66.5 50 Z " /><path fill="rgb(65,119,191)" stroke="rgb(65,119,191)" stroke-width="1" opacity="1" d="M 72.5 51 L 69.5 55 L 72.5 51 Z " /><path fill="rgb(65,119,191)" stroke="rgb(65,119,191)" stroke-width="1" opacity="1" d="M 24.5 102 L 25.5 104 L 24.5 102 Z " /><path fill="rgb(65,119,191)" stroke="rgb(65,119,191)" stroke-width="1" opacity="1" d="M 39.5 102 L 38.5 104 L 39.5 102 Z " /><path fill="rgb(65,119,191)" stroke="rgb(65,119,191)" stroke-width="1" opacity="1" d="M 52.5 102 L 53.5 104 L 52.5 102 Z " /></svg>