<svg width="128" height="128" version="1.1" xmlns="http://www.w3.org/2000/svg" desc="Created with imagetracer.js version 1.2.6" ><path fill="rgb(250,41,19)" stroke="rgb(250,41,19)" stroke-width="1" opacity="0.10980392156862745" d="M 42.5 5 L 41.5 7 L 42.5 5 Z " /><path fill="rgb(250,41,19)" stroke="rgb(250,41,19)" stroke-width="1" opacity="0.10980392156862745" d="M 39.5 7 L 37.5 10 L 39.5 7 Z " /><path fill="rgb(250,41,19)" stroke="rgb(250,41,19)" stroke-width="1" opacity="0.10980392156862745" d="M 88.5 7 L 90.5 10 L 88.5 7 Z " /><path fill="rgb(250,41,19)" stroke="rgb(250,41,19)" stroke-width="1" opacity="0.10980392156862745" d="M 32.5 14 L 29.5 18 L 32.5 14 Z " /><path fill="rgb(250,41,19)" stroke="rgb(250,41,19)" stroke-width="1" opacity="0.10980392156862745" d="M 96.5 15 L 97.5 17 L 96.5 15 Z " /><path fill="rgb(250,41,19)" stroke="rgb(250,41,19)" stroke-width="1" opacity="0.10980392156862745" d="M 54.5 25 L 53.5 27 L 54.5 25 Z " /><path fill="rgb(250,41,19)" stroke="rgb(250,41,19)" stroke-width="1" opacity="0.10980392156862745" d="M 49.5 30 L 48.5 32 L 49.5 30 Z " /><path fill="rgb(250,41,19)" stroke="rgb(250,41,19)" stroke-width="1" opacity="0.10980392156862745" d="M 78.5 30 L 79.5 32 L 78.5 30 Z " /><path fill="rgb(250,41,19)" stroke="rgb(250,41,19)" stroke-width="1" opacity="0.10980392156862745" d="M 22.5 39 L 23 44.5 L 22 44.5 L 22.5 39 Z " /><path fill="rgb(250,41,19)" stroke="rgb(250,41,19)" stroke-width="1" opacity="0.10980392156862745" d="M 105.5 42 L 106 44.5 L 105 44.5 L 105.5 42 Z " /><path fill="rgb(250,41,19)" stroke="rgb(250,41,19)" stroke-width="1" opacity="0.10980392156862745" d="M 47.5 49 L 48.5 51 L 47.5 49 Z " /><path fill="rgb(250,41,19)" stroke="rgb(250,41,19)" stroke-width="1" opacity="0.10980392156862745" d="M 49.5 52 L 53.5 57 L 49.5 52 Z " /><path fill="rgb(250,41,19)" stroke="rgb(250,41,19)" stroke-width="1" opacity="0.10980392156862745" d="M 77.5 53 L 75.5 56 L 77.5 53 Z " /><path fill="rgb(250,41,19)" stroke="rgb(250,41,19)" stroke-width="1" opacity="0.10980392156862745" d="M 61.5 59 L 66 59.5 L 61.5 60 L 61.5 59 Z " /><path fill="rgb(250,41,19)" stroke="rgb(250,41,19)" stroke-width="1" opacity="0.10980392156862745" d="M 32.5 69 L 33.5 71 L 32.5 69 Z " /><path fill="rgb(250,41,19)" stroke="rgb(250,41,19)" stroke-width="1" opacity="0.10980392156862745" d="M 34.5 72 L 35.5 74 L 34.5 72 Z " /><path fill="rgb(250,41,19)" stroke="rgb(250,41,19)" stroke-width="1" opacity="0.10980392156862745" d="M 37.5 77 L 38.5 79 L 37.5 77 Z " /><path fill="rgb(250,41,19)" stroke="rgb(250,41,19)" stroke-width="1" opacity="0.10980392156862745" d="M 39.5 80 L 40.5 82 L 39.5 80 Z " /><path fill="rgb(0,0,0)" stroke="rgb(0,0,0)" stroke-width="1" opacity="0" d="M 0 0 L 55 0.5 L 42.5 5 L 34 11 L 25 25.5 L 23 31.5 L 22 44.5 L 26 59.5 L 41 83.5 L 39.5 85 L 35.5 85 L 22.5 89 L 10 97.5 Q 6.7 100.7 7 107.5 L 12.5 116 Q 25.8 126.2 48 127.5 L 0 128 L 0 0 Z " /><path fill="rgb(0,0,0)" stroke="rgb(0,0,0)" stroke-width="1" opacity="0" d="M 73.5 0 L 128 0 L 128 128 L 80 127.5 L 92.5 126 L 105.5 122 L 118 113.5 Q 121 110.5 121 104.5 Q 119.9 97.1 114.5 94 L 105.5 89 L 92.5 85 L 88.5 85 L 87 83.5 L 102 59.5 Q 106 51.5 106 39.5 Q 103.3 37.7 105 31.5 L 100 19.5 L 88.5 7 L 79.5 2 L 73.5 1 L 73.5 0 Z " /><path fill="rgb(0,0,0)" stroke="rgb(0,0,0)" stroke-width="1" opacity="0" d="M 60.5 23 Q 73.2 22.3 78 29.5 Q 83.3 34.2 82 45.5 Q 79.4 52.9 73.5 57 Q 68.8 60.3 59.5 59 Q 52.3 57.2 49 51.5 Q 44.7 47.3 46 37.5 L 52.5 27 L 60.5 23 Z " /><path fill="rgb(246,43,23)" stroke="rgb(246,43,23)" stroke-width="1" opacity="0.5098039215686274" d="M 57.5 0 L 61 0.5 L 57.5 1 L 57.5 0 Z " /><path fill="rgb(246,43,23)" stroke="rgb(246,43,23)" stroke-width="1" opacity="0.5098039215686274" d="M 69.5 0 L 72 0.5 L 69.5 1 L 69.5 0 Z " /><path fill="rgb(246,43,23)" stroke="rgb(246,43,23)" stroke-width="1" opacity="0.5098039215686274" d="M 36.5 10 L 33.5 14 L 36.5 10 Z " /><path fill="rgb(246,43,23)" stroke="rgb(246,43,23)" stroke-width="1" opacity="0.5098039215686274" d="M 91.5 10 L 92.5 12 L 91.5 10 Z " /><path fill="rgb(246,43,23)" stroke="rgb(246,43,23)" stroke-width="1" opacity="0.5098039215686274" d="M 94.5 13 L 95.5 15 L 94.5 13 Z " /><path fill="rgb(246,43,23)" stroke="rgb(246,43,23)" stroke-width="1" opacity="0.5098039215686274" d="M 30.5 17 L 29.5 19 L 30.5 17 Z " /><path fill="rgb(246,43,23)" stroke="rgb(246,43,23)" stroke-width="1" opacity="0.5098039215686274" d="M 52.5 26 L 49.5 30 L 52.5 26 Z " /><path fill="rgb(246,43,23)" stroke="rgb(246,43,23)" stroke-width="1" opacity="0.5098039215686274" d="M 76.5 27 L 77.5 29 L 76.5 27 Z " /><path fill="rgb(246,43,23)" stroke="rgb(246,43,23)" stroke-width="1" opacity="0.5098039215686274" d="M 23.5 33 L 24 35.5 L 23 35.5 L 23.5 33 Z " /><path fill="rgb(246,43,23)" stroke="rgb(246,43,23)" stroke-width="1" opacity="0.5098039215686274" d="M 45.5 37 L 46 40.5 L 45 40.5 L 45.5 37 Z " /><path fill="rgb(246,43,23)" stroke="rgb(246,43,23)" stroke-width="1" opacity="0.5098039215686274" d="M 82.5 39 L 83 43.5 L 82 43.5 L 82.5 39 Z " /><path fill="rgb(246,43,23)" stroke="rgb(246,43,23)" stroke-width="1" opacity="0.5098039215686274" d="M 45.5 42 L 46 44.5 L 45 44.5 L 45.5 42 Z " /><path fill="rgb(246,43,23)" stroke="rgb(246,43,23)" stroke-width="1" opacity="0.5098039215686274" d="M 79.5 51 L 78.5 53 L 79.5 51 Z " /><path fill="rgb(252,49,24)" stroke="rgb(252,49,24)" stroke-width="1" opacity="0.8980392156862745" d="M 39.5 8 L 38.5 10 L 39.5 8 Z " /><path fill="rgb(252,49,24)" stroke="rgb(252,49,24)" stroke-width="1" opacity="0.8980392156862745" d="M 32.5 15 L 31.5 17 L 32.5 15 Z " /><path fill="rgb(252,49,24)" stroke="rgb(252,49,24)" stroke-width="1" opacity="0.8980392156862745" d="M 23.5 45 L 24 47.5 L 23 47.5 L 23.5 45 Z " /><path fill="rgb(252,49,24)" stroke="rgb(252,49,24)" stroke-width="1" opacity="0.8980392156862745" d="M 48.5 52 L 52.5 57 L 48.5 52 Z " /><path fill="rgb(224,46,26)" stroke="rgb(224,46,26)" stroke-width="1" opacity="0.9333333333333333" d="M 85.5 84 L 84.5 86 L 85.5 84 Z " /><path fill="rgb(224,46,26)" stroke="rgb(224,46,26)" stroke-width="1" opacity="0.9333333333333333" d="M 78.5 95 L 77.5 97 L 78.5 95 Z " /><path fill="rgb(224,46,26)" stroke="rgb(224,46,26)" stroke-width="1" opacity="0.9333333333333333" d="M 71.5 106 L 70.5 108 L 71.5 106 Z " /><path fill="rgb(224,46,26)" stroke="rgb(224,46,26)" stroke-width="1" opacity="0.9333333333333333" d="M 58.5 109 L 59.5 111 L 58.5 109 Z " /><path fill="rgb(224,46,26)" stroke="rgb(224,46,26)" stroke-width="1" opacity="0.9333333333333333" d="M 60.5 112 Q 61.3 114.8 65.5 114 L 68 112.5 Q 67.3 115.8 62.5 115 L 60.5 112 Z " /><path fill="rgb(253,48,24)" stroke="rgb(253,48,24)" stroke-width="1" opacity="1" d="M 63.5 0 L 64 22 Q 52.9 22.7 48 30.5 Q 43.5 35 45 45.5 Q 46.9 53.2 52.5 57 L 58.5 60 L 64 60 L 64 113.5 L 62.5 114 L 29 62.5 Q 22.7 53.8 23 38.5 L 27 23.5 L 37.5 10 L 49.5 3 L 63.5 0 Z " /><path fill="rgb(230,30,20)" stroke="rgb(230,30,20)" stroke-width="1" opacity="1" d="M 64 0 L 73.5 1 L 85.5 6 L 97 16.5 Q 106.1 26.9 105 47.5 L 100 61.5 L 69 110.5 L 65.5 114 L 64 113.5 L 64 60 L 71.5 59 L 80 51.5 Q 84.1 47 83 37.5 Q 80.9 30.1 75.5 26 L 64 22 L 64 0 Z " /><path fill="rgb(43,203,111)" stroke="rgb(43,203,111)" stroke-width="1" opacity="0.6745098039215687" d="M 90.5 85 L 93 85.5 L 90.5 86 L 90.5 85 Z " /><path fill="rgb(43,203,111)" stroke="rgb(43,203,111)" stroke-width="1" opacity="0.6745098039215687" d="M 94.5 86 L 97 86.5 L 94.5 87 L 94.5 86 Z " /><path fill="rgb(43,203,111)" stroke="rgb(43,203,111)" stroke-width="1" opacity="0.6745098039215687" d="M 104.5 89 Q 113 91.5 118 97.5 L 120 102.5 L 119 102.5 L 119 100.5 L 114.5 95 L 104.5 90 L 104.5 89 Z " /><path fill="rgb(43,203,111)" stroke="rgb(43,203,111)" stroke-width="1" opacity="0.6745098039215687" d="M 120.5 104 L 121 107.5 L 120 107.5 L 120.5 104 Z " /><path fill="rgb(43,203,111)" stroke="rgb(43,203,111)" stroke-width="1" opacity="0.6745098039215687" d="M 119.5 109 L 120 110.5 L 118 111.5 L 119.5 109 Z " /><path fill="rgb(43,203,111)" stroke="rgb(43,203,111)" stroke-width="1" opacity="0.6745098039215687" d="M 117.5 113 L 115.5 116 L 117.5 113 Z " /><path fill="rgb(43,203,111)" stroke="rgb(43,203,111)" stroke-width="1" opacity="0.6745098039215687" d="M 113.5 116 L 111.5 119 L 104.5 122 L 104.5 121 L 113.5 116 Z " /><path fill="rgb(43,203,111)" stroke="rgb(43,203,111)" stroke-width="1" opacity="0.6745098039215687" d="M 97.5 123 L 100 123.5 L 94.5 125 L 94.5 124 L 97.5 123 Z " /><path fill="rgb(43,203,111)" stroke="rgb(43,203,111)" stroke-width="1" opacity="0.6745098039215687" d="M 89.5 125 L 93 125.5 L 89.5 126 L 89.5 125 Z " /><path fill="rgb(43,203,111)" stroke="rgb(43,203,111)" stroke-width="1" opacity="0.6745098039215687" d="M 83.5 126 L 87 126.5 L 83.5 127 L 83.5 126 Z " /><path fill="rgb(43,203,111)" stroke="rgb(43,203,111)" stroke-width="1" opacity="0.6745098039215687" d="M 73.5 127 L 80 127.5 L 73.5 128 L 73.5 127 Z " /><path fill="rgb(19,194,122)" stroke="rgb(19,194,122)" stroke-width="1" opacity="0.996078431372549" d="M 85 85 Q 105.3 86.5 117 97.5 Q 120.8 100.7 120 108.5 L 114.5 116 L 103.5 122 L 93.5 125 L 82.5 127 L 64 128 L 64 115.5 L 65.5 115 L 71 108.5 L 85 85 Z " /><path fill="rgb(97,221,85)" stroke="rgb(97,221,85)" stroke-width="1" opacity="0.9529411764705882" d="M 41.5 84 L 62.5 115 L 64 115.5 L 64 128 L 48.5 128 L 28.5 124 Q 17.1 120.9 10 113.5 Q 7 110.5 7 104.5 Q 7.9 97.9 12.5 95 L 22.5 89 L 41.5 84 Z " /></svg>