<?xml version="1.0" encoding="UTF-8"?>
<svg version="1.1" xmlns="http://www.w3.org/2000/svg" width="53" height="40">
<path d="M0 0 C1.14250465 0.00333092 1.14250465 0.00333092 2.30809021 0.00672913 C3.16890701 0.00680466 4.02972382 0.00688019 4.91662598 0.00695801 C5.8520372 0.01211929 6.78744843 0.01728058 7.75120544 0.02259827 C8.70422043 0.02401321 9.65723541 0.02542816 10.63912964 0.02688599 C13.69605085 0.032503 16.75289996 0.04505836 19.80979919 0.05775452 C21.87685543 0.06276733 23.94391281 0.06733061 26.01097107 0.07142639 C31.08977507 0.08247795 36.16852489 0.09975397 41.24729919 0.12025452 C41.90729919 3.42025452 42.56729919 6.72025452 43.24729919 10.12025452 C41.59729919 10.45025452 39.94729919 10.78025452 38.24729919 11.12025452 C37.01957093 13.35285117 37.01957093 13.35285117 36.24729919 16.12025452 C33.54729919 21.97025452 33.54729919 21.97025452 31.24729919 23.12025452 C31.02042419 23.92462952 30.79354919 24.72900452 30.55979919 25.55775452 C29.32250327 28.91612917 27.9304928 31.49986662 25.99729919 34.49525452 C25.15425232 35.80623108 25.15425232 35.80623108 24.29417419 37.14369202 C22.24729919 39.12025452 22.24729919 39.12025452 19.01292419 39.40931702 C18.10026794 39.31392639 17.18761169 39.21853577 16.24729919 39.12025452 C15.97055359 38.61687561 15.69380798 38.1134967 15.40867615 37.59486389 C14.12805818 35.26869665 12.84394864 32.94447395 11.55979919 30.62025452 C11.1247406 29.82877014 10.68968201 29.03728577 10.24143982 28.22181702 C7.69382657 23.61724195 5.04369021 19.13086806 2.15428162 14.73158264 C1.24729919 13.12025452 1.24729919 13.12025452 1.24729919 11.12025452 C-1.72270081 10.62525452 -1.72270081 10.62525452 -4.75270081 10.12025452 C-4.44471755 8.64014081 -4.13118281 7.16118127 -3.81520081 5.68275452 C-3.64117737 4.85904358 -3.46715393 4.03533264 -3.28785706 3.18666077 C-2.50712686 0.17201643 -2.50712686 0.17201643 0 0 Z " fill="#F77143" transform="translate(7.7527008056640625,0.8797454833984375)"/>
<path d="M0 0 C1.14250465 0.00333092 1.14250465 0.00333092 2.30809021 0.00672913 C3.16890701 0.00680466 4.02972382 0.00688019 4.91662598 0.00695801 C5.8520372 0.01211929 6.78744843 0.01728058 7.75120544 0.02259827 C8.70422043 0.02401321 9.65723541 0.02542816 10.63912964 0.02688599 C13.69605085 0.032503 16.75289996 0.04505836 19.80979919 0.05775452 C21.87685543 0.06276733 23.94391281 0.06733061 26.01097107 0.07142639 C31.08977507 0.08247795 36.16852489 0.09975397 41.24729919 0.12025452 C41.90729919 3.42025452 42.56729919 6.72025452 43.24729919 10.12025452 C41.59729919 10.45025452 39.94729919 10.78025452 38.24729919 11.12025452 C37.01957093 13.35285117 37.01957093 13.35285117 36.24729919 16.12025452 C33.54729919 21.97025452 33.54729919 21.97025452 31.24729919 23.12025452 C31.02042419 23.92462952 30.79354919 24.72900452 30.55979919 25.55775452 C29.32250327 28.91612917 27.9304928 31.49986662 25.99729919 34.49525452 C25.15425232 35.80623108 25.15425232 35.80623108 24.29417419 37.14369202 C22.24729919 39.12025452 22.24729919 39.12025452 19.01292419 39.40931702 C18.10026794 39.31392639 17.18761169 39.21853577 16.24729919 39.12025452 C15.97055359 38.61687561 15.69380798 38.1134967 15.40867615 37.59486389 C14.12805818 35.26869665 12.84394864 32.94447395 11.55979919 30.62025452 C11.1247406 29.82877014 10.68968201 29.03728577 10.24143982 28.22181702 C7.69382657 23.61724195 5.04369021 19.13086806 2.15428162 14.73158264 C1.24729919 13.12025452 1.24729919 13.12025452 1.24729919 11.12025452 C-1.72270081 10.62525452 -1.72270081 10.62525452 -4.75270081 10.12025452 C-4.44471755 8.64014081 -4.13118281 7.16118127 -3.81520081 5.68275452 C-3.64117737 4.85904358 -3.46715393 4.03533264 -3.28785706 3.18666077 C-2.50712686 0.17201643 -2.50712686 0.17201643 0 0 Z M0.24729919 3.12025452 C6.41040291 15.45357882 6.41040291 15.45357882 13.05979919 27.49525452 C13.53610779 28.33830139 14.01241638 29.18134827 14.50315857 30.04994202 C14.96142029 30.84400452 15.41968201 31.63806702 15.89183044 32.45619202 C16.29764343 33.16308167 16.70345642 33.86997131 17.12156677 34.59828186 C17.49305847 35.10053284 17.86455017 35.60278381 18.24729919 36.12025452 C18.90729919 36.12025452 19.56729919 36.12025452 20.24729919 36.12025452 C22.31405124 32.49766349 24.37489904 28.87174541 26.43479919 25.24525452 C27.01294373 24.23205139 27.59108826 23.21884827 28.18675232 22.17494202 C28.75716248 21.16947327 29.32757263 20.16400452 29.91526794 19.12806702 C30.43371277 18.21686096 30.95215759 17.30565491 31.48631287 16.36683655 C33.84995388 12.00919088 36.03027982 7.55429327 38.24729919 3.12025452 C25.70729919 3.12025452 13.16729919 3.12025452 0.24729919 3.12025452 Z " fill="#0B0402" transform="translate(7.7527008056640625,0.8797454833984375)"/>
<path d="M0 0 C12.54 0 25.08 0 38 0 C31 14 31 14 28 16 C27 15 27 15 26.90234375 12.49609375 C26.93489583 9.6640625 26.96744792 6.83203125 27 4 C21.72 4 16.44 4 11 4 C11 7.3 11 10.6 11 14 C10.01 14.33 9.02 14.66 8 15 C6.66407203 12.6889639 5.33115569 10.37628245 4 8.0625 C3.6184375 7.40314453 3.236875 6.74378906 2.84375 6.06445312 C0 1.11328125 0 1.11328125 0 0 Z " fill="#FB6937" transform="translate(8,4)"/>
<path d="M0 0 C1.14250465 0.00333092 1.14250465 0.00333092 2.30809021 0.00672913 C3.16890701 0.00680466 4.02972382 0.00688019 4.91662598 0.00695801 C5.8520372 0.01211929 6.78744843 0.01728058 7.75120544 0.02259827 C8.70422043 0.02401321 9.65723541 0.02542816 10.63912964 0.02688599 C13.69605085 0.032503 16.75289996 0.04505836 19.80979919 0.05775452 C21.87685543 0.06276733 23.94391281 0.06733061 26.01097107 0.07142639 C31.08977507 0.08247795 36.16852489 0.09975397 41.24729919 0.12025452 C41.90729919 3.42025452 42.56729919 6.72025452 43.24729919 10.12025452 C40.60729919 10.12025452 37.96729919 10.12025452 35.24729919 10.12025452 C35.90729919 8.14025452 36.56729919 6.16025452 37.24729919 4.12025452 C25.36729919 4.12025452 13.48729919 4.12025452 1.24729919 4.12025452 C2.23729919 6.10025452 3.22729919 8.08025452 4.24729919 10.12025452 C1.27729919 10.12025452 -1.69270081 10.12025452 -4.75270081 10.12025452 C-4.44471755 8.64014081 -4.13118281 7.16118127 -3.81520081 5.68275452 C-3.64117737 4.85904358 -3.46715393 4.03533264 -3.28785706 3.18666077 C-2.50712686 0.17201643 -2.50712686 0.17201643 0 0 Z " fill="#B04926" transform="translate(7.7527008056640625,0.8797454833984375)"/>
<path d="M0 0 C14.19 0 28.38 0 43 0 C43.495 1.98 43.495 1.98 44 4 C43.01 4 42.02 4 41 4 C41 3.34 41 2.68 41 2 C28.13 2 15.26 2 2 2 C1.67 2.99 1.34 3.98 1 5 C0.34 4.67 -0.32 4.34 -1 4 C-0.67 2.68 -0.34 1.36 0 0 Z " fill="#030100" transform="translate(6,1)"/>
<path d="M0 0 C0.86625 0.53625 1.7325 1.0725 2.625 1.625 C5.92298095 3.34631795 5.92298095 3.34631795 9.25 2.25 C10.8449466 1.52502427 12.43297876 0.78351062 14 0 C14 2.31 14 4.62 14 7 C13.07767578 7.09087891 13.07767578 7.09087891 12.13671875 7.18359375 C11.32847656 7.26738281 10.52023438 7.35117187 9.6875 7.4375 C8.88699219 7.51871094 8.08648437 7.59992187 7.26171875 7.68359375 C4.83912821 7.95265693 4.83912821 7.95265693 2 9 C2 8.34 2 7.68 2 7 C1.34 7 0.68 7 0 7 C0 4.69 0 2.38 0 0 Z " fill="#F6F5F4" transform="translate(20,11)"/>
<path d="M0 0 C4.62 0 9.24 0 14 0 C14 0.66 14 1.32 14 2 C11.34606701 4.04731974 9.83161314 5.06084974 6.4375 4.8125 C4.1504288 4.05014293 2.10548006 3.16971114 0 2 C0 1.34 0 0.68 0 0 Z " fill="#F2F0EF" transform="translate(20,8)"/>
<path d="M0 0 C2.52370777 2.29427979 3.38262276 3.76524552 5 7 C2.03 7 -0.94 7 -4 7 C-3.34 5.35 -2.68 3.7 -2 2 C-1.34 2 -0.68 2 0 2 C0 1.34 0 0.68 0 0 Z " fill="#C45129" transform="translate(7,4)"/>
<path d="M0 0 C0.99 0.33 1.98 0.66 3 1 C3.6875 3.0625 3.6875 3.0625 4 5 C1.03 4.505 1.03 4.505 -2 4 C-1.34 3.67 -0.68 3.34 0 3 C0 2.01 0 1.02 0 0 Z " fill="#BC4E28" transform="translate(47,6)"/>
</svg>
