<svg width="128" height="128" version="1.1" xmlns="http://www.w3.org/2000/svg" desc="Created with imagetracer.js version 1.2.6" ><path fill="rgb(51,88,113)" stroke="rgb(51,88,113)" stroke-width="1" opacity="1" d="M 25.5 22 L 110 22.5 L 25.5 23 L 25.5 22 Z " /><path fill="rgb(51,88,113)" stroke="rgb(51,88,113)" stroke-width="1" opacity="1" d="M 110.5 26 L 111 34.5 L 110 34.5 L 110.5 26 Z " /><path fill="rgb(51,88,113)" stroke="rgb(51,88,113)" stroke-width="1" opacity="1" d="M 42.5 31 L 50 31.5 L 42.5 32 L 42.5 31 Z " /><path fill="rgb(51,88,113)" stroke="rgb(51,88,113)" stroke-width="1" opacity="1" d="M 60.5 31 L 68 31.5 L 60.5 32 L 60.5 31 Z " /><path fill="rgb(51,88,113)" stroke="rgb(51,88,113)" stroke-width="1" opacity="1" d="M 77.5 31 L 85 31.5 L 77.5 32 L 77.5 31 Z " /><path fill="rgb(51,88,113)" stroke="rgb(51,88,113)" stroke-width="1" opacity="1" d="M 95.5 31 L 103 31.5 L 95.5 32 L 95.5 31 Z " /><path fill="rgb(51,88,113)" stroke="rgb(51,88,113)" stroke-width="1" opacity="1" d="M 17.5 51 L 18.5 53 L 17.5 51 Z " /><path fill="rgb(51,88,113)" stroke="rgb(51,88,113)" stroke-width="1" opacity="1" d="M 20.5 51 L 23.5 52 L 25 51.5 Q 25.9 54.5 21.5 53 L 20.5 51 Z " /><path fill="rgb(51,88,113)" stroke="rgb(51,88,113)" stroke-width="1" opacity="1" d="M 110.5 56 L 111 63.5 L 110 63.5 L 110.5 56 Z " /><path fill="rgb(51,88,113)" stroke="rgb(51,88,113)" stroke-width="1" opacity="1" d="M 12 58 Q 17.2 56.3 16 60 Q 10.8 61.7 12 58 Z " /><path fill="rgb(51,88,113)" stroke="rgb(51,88,113)" stroke-width="1" opacity="1" d="M 19 58 Q 24.2 56.3 23 60 Q 17.8 61.7 19 58 Z " /><path fill="rgb(51,88,113)" stroke="rgb(51,88,113)" stroke-width="1" opacity="1" d="M 26 58 Q 31.2 56.3 30 60 Q 24.8 61.7 26 58 Z " /><path fill="rgb(51,88,113)" stroke="rgb(51,88,113)" stroke-width="1" opacity="1" d="M 33 58 Q 37.1 56.7 36 60 Q 31.9 61.3 33 58 Z " /><path fill="rgb(51,88,113)" stroke="rgb(51,88,113)" stroke-width="1" opacity="1" d="M 113.5 64 L 121 64.5 L 113.5 65 L 113.5 64 Z " /><path fill="rgb(51,88,113)" stroke="rgb(51,88,113)" stroke-width="1" opacity="1" d="M 102.5 66 L 103 75.5 L 102 75.5 L 102.5 66 Z " /><path fill="rgb(51,88,113)" stroke="rgb(51,88,113)" stroke-width="1" opacity="1" d="M 41.5 79 L 101.5 79 L 103 80.5 L 103 102.5 L 104 103.5 L 102 102.5 L 102 80 L 41.5 80 L 41.5 79 Z " /><path fill="rgb(51,88,113)" stroke="rgb(51,88,113)" stroke-width="1" opacity="1" d="M 122.5 81 L 124 88.5 L 123 89.5 L 122.5 99 L 122.5 81 Z " /><path fill="rgb(51,88,113)" stroke="rgb(51,88,113)" stroke-width="1" opacity="1" d="M 111.5 100 L 112 102 L 114 102.5 L 112.5 103 L 111.5 100 Z " /><path fill="rgb(0,0,0)" stroke="rgb(0,0,0)" stroke-width="1" opacity="0" d="M 0 0 L 52 0.5 Q 26.8 5.3 14 22.5 Q 3.8 33.8 0.5 52 L 0 0 Z " /><path fill="rgb(0,0,0)" stroke="rgb(0,0,0)" stroke-width="1" opacity="0" d="M 76.5 0 L 128 0 L 128 51.5 L 127 51.5 Q 122.1 26.9 105.5 14 L 91.5 5 L 76.5 1 L 76.5 0 Z " /><path fill="rgb(0,0,0)" stroke="rgb(0,0,0)" stroke-width="1" opacity="0" d="M 0.5 76 L 4 87.5 L 4 100.5 L 6.5 104 L 13.5 105 L 29.5 119 L 41.5 125 L 53 127.5 L 0 128 L 0.5 76 Z " /><path fill="rgb(0,0,0)" stroke="rgb(0,0,0)" stroke-width="1" opacity="0" d="M 127.5 76 L 128 128 L 75 127.5 L 86.5 125 Q 103.7 118.2 114.5 105 Q 120.6 105.8 123 104 L 124 101.5 L 124 87.5 L 127.5 76 Z " /><path fill="rgb(56,136,160)" stroke="rgb(56,136,160)" stroke-width="1" opacity="1" d="M 113.5 25 L 114 63.5 L 113 63.5 L 113.5 25 Z " /><path fill="rgb(56,136,160)" stroke="rgb(56,136,160)" stroke-width="1" opacity="1" d="M 42.5 30 L 50.5 30 L 51 31.5 L 49.5 31 L 42.5 31 L 42.5 30 Z " /><path fill="rgb(56,136,160)" stroke="rgb(56,136,160)" stroke-width="1" opacity="1" d="M 60.5 30 L 68 30.5 L 59.5 32 L 60.5 30 Z " /><path fill="rgb(56,136,160)" stroke="rgb(56,136,160)" stroke-width="1" opacity="1" d="M 77.5 30 L 85.5 30 L 86 31.5 L 84.5 31 L 77.5 31 L 77.5 30 Z " /><path fill="rgb(56,136,160)" stroke="rgb(56,136,160)" stroke-width="1" opacity="1" d="M 95.5 30 L 103 30.5 L 95.5 31 L 95.5 30 Z " /><path fill="rgb(56,136,160)" stroke="rgb(56,136,160)" stroke-width="1" opacity="1" d="M 110.5 35 L 111 55.5 L 110 55.5 L 110.5 35 Z " /><path fill="rgb(56,136,160)" stroke="rgb(56,136,160)" stroke-width="1" opacity="1" d="M 21.5 51 L 24 51.5 L 21.5 52 L 21.5 51 Z " /><path fill="rgb(56,136,160)" stroke="rgb(56,136,160)" stroke-width="1" opacity="1" d="M 7.5 54 L 38.5 54 L 40 55.5 L 39.5 62 L 39 55 L 7.5 55 Q 6.3 55.3 7 61.5 L 6 61.5 Q 4.5 55.5 7.5 54 Z " /><path fill="rgb(56,136,160)" stroke="rgb(56,136,160)" stroke-width="1" opacity="1" d="M 60 60 L 75 60 L 75 67 L 60 67 L 60 60 Z " /><path fill="rgb(56,136,160)" stroke="rgb(56,136,160)" stroke-width="1" opacity="1" d="M 81.5 60 L 82 67 L 97 67.5 L 82.5 68 Q 79.1 66.1 81.5 60 Z " /><path fill="rgb(56,136,160)" stroke="rgb(56,136,160)" stroke-width="1" opacity="1" d="M 104.5 64 L 110 64.5 L 104.5 65 L 104.5 64 Z " /><path fill="rgb(56,136,160)" stroke="rgb(56,136,160)" stroke-width="1" opacity="1" d="M 111.5 67 L 114 67.5 L 111.5 68 L 111.5 67 Z " /><path fill="rgb(56,136,160)" stroke="rgb(56,136,160)" stroke-width="1" opacity="1" d="M 122.5 70 L 123 80.5 L 122 80.5 L 122.5 70 Z " /><path fill="rgb(56,136,160)" stroke="rgb(56,136,160)" stroke-width="1" opacity="1" d="M 39.5 79 L 40 97.5 L 38.5 99 L 7.5 99 L 6 97.5 L 6 80.5 L 7 80.5 L 7 98 L 39 98 L 39.5 79 Z " /><path fill="rgb(56,136,160)" stroke="rgb(56,136,160)" stroke-width="1" opacity="1" d="M 25 82 L 37 82 L 37 89 L 25 89 L 25 82 Z " /><path fill="rgb(56,136,160)" stroke="rgb(56,136,160)" stroke-width="1" opacity="1" d="M 112 100 Q 115 99 114 102 Q 111 103 112 100 Z " /><path fill="rgb(9,217,171)" stroke="rgb(9,217,171)" stroke-width="1" opacity="1" d="M 25 26 L 109.5 26 L 110 26.5 L 110 35 L 25.5 35 L 25 34.5 L 25 26 Z M 42 30 L 43 32 L 51 32 L 51 30 L 42 30 Z M 61 30 L 59 32 L 68 32 L 68 30 L 61 30 Z M 77 30 L 78 32 L 86 32 L 86 30 L 77 30 Z M 95 30 L 96 32 L 103 32 L 103 30 L 95 30 Z " /><path fill="rgb(9,217,171)" stroke="rgb(9,217,171)" stroke-width="1" opacity="1" d="M 7 55 L 38.5 55 L 39 55.5 L 39 62 L 7.5 62 L 7 61.5 L 7 55 Z M 12 58 Q 11 62 16 60 Q 17 56 12 58 Z M 19 58 Q 18 62 23 60 Q 24 56 19 58 Z M 26 58 Q 25 62 30 60 Q 31 56 26 58 Z M 32 58 L 32 60 L 37 60 L 37 58 L 32 58 Z " /><path fill="rgb(9,217,171)" stroke="rgb(9,217,171)" stroke-width="1" opacity="1" d="M 41 56 L 109.5 56 L 110 56.5 L 110 64 Q 103.7 62.5 102 66.5 L 102 75.5 L 101.5 76 L 41 76 L 41 73 Q 46.2 74.7 45 71 L 41 70.5 L 50 69.5 L 41 68.5 L 42.5 67 L 53 67 L 53 60 L 41 60 L 41 56 Z M 60 60 L 60 67 L 75 67 L 75 60 L 60 60 Z M 81 60 L 81 67 L 83 68 L 97 68 L 97 60 L 81 60 Z M 61 69 L 61 70 L 72 70 L 61 69 Z M 83 69 L 83 70 L 94 70 L 83 69 Z M 60 71 L 61 73 L 68 73 L 68 71 L 60 71 Z M 82 71 L 83 73 L 90 73 L 90 71 L 82 71 Z " /><path fill="rgb(9,217,171)" stroke="rgb(9,217,171)" stroke-width="1" opacity="1" d="M 7 80 L 39 80 L 39 98 L 7 98 L 7 80 Z M 9 82 L 9 89 L 21 89 L 21 82 L 9 82 Z M 25 82 L 25 89 L 37 89 L 37 82 L 25 82 Z M 10 91 L 10 92 L 19 92 L 10 91 Z M 25 91 L 25 92 L 34 92 L 25 91 Z M 9 93 L 9 95 L 15 95 L 15 93 L 9 93 Z M 25 93 L 25 95 L 31 95 L 31 93 L 25 93 Z " /><path fill="rgb(9,217,171)" stroke="rgb(9,217,171)" stroke-width="1" opacity="1" d="M 103 81 L 122 81 L 122 99 L 104.5 99 L 103 97.5 L 103 81 Z M 106 84 L 106 91 L 119 91 L 119 84 L 106 84 Z M 108 92 L 106 94 L 116 94 L 116 92 L 108 92 Z M 107 95 L 108 97 Q 112 98 113 96 L 107 95 Z " /><path fill="rgb(224,246,242)" stroke="rgb(224,246,242)" stroke-width="1" opacity="1" d="M 41.5 69 L 49 69.5 L 41.5 70 L 41.5 69 Z " /><path fill="rgb(224,246,242)" stroke="rgb(224,246,242)" stroke-width="1" opacity="1" d="M 60.5 69 L 71 69.5 L 60.5 70 L 60.5 69 Z " /><path fill="rgb(224,246,242)" stroke="rgb(224,246,242)" stroke-width="1" opacity="1" d="M 82.5 69 L 94 69.5 L 82.5 70 L 82.5 69 Z " /><path fill="rgb(224,246,242)" stroke="rgb(224,246,242)" stroke-width="1" opacity="1" d="M 103.5 70 L 104 80.5 L 103 80.5 L 103.5 70 Z " /><path fill="rgb(224,246,242)" stroke="rgb(224,246,242)" stroke-width="1" opacity="1" d="M 118.5 70 L 121 70.5 L 118.5 71 L 118.5 70 Z " /><path fill="rgb(224,246,242)" stroke="rgb(224,246,242)" stroke-width="1" opacity="1" d="M 7.5 79 L 39 79.5 L 7.5 80 L 7.5 79 Z " /><path fill="rgb(224,246,242)" stroke="rgb(224,246,242)" stroke-width="1" opacity="1" d="M 41.5 80 L 42 89.5 L 41 89.5 L 41.5 80 Z " /><path fill="rgb(224,246,242)" stroke="rgb(224,246,242)" stroke-width="1" opacity="1" d="M 66.5 82 L 65.5 84 L 66.5 82 Z " /><path fill="rgb(224,246,242)" stroke="rgb(224,246,242)" stroke-width="1" opacity="1" d="M 58 90 L 76.5 90 L 77 94 L 58.5 94 L 58 90 Z " /><path fill="rgb(224,246,242)" stroke="rgb(224,246,242)" stroke-width="1" opacity="1" d="M 58.5 99 L 77.5 99 L 81 102.5 L 82 104.5 L 54 105 L 58.5 99 Z " /><path fill="rgb(255,255,255)" stroke="rgb(255,255,255)" stroke-width="1" opacity="1" d="M 26 35 L 109.5 35 L 110 35.5 L 110 55 L 42.5 55 L 42 53.5 L 39.5 49 L 37.5 48 L 26 48 L 26 35 Z " /><path fill="rgb(255,255,255)" stroke="rgb(255,255,255)" stroke-width="1" opacity="1" d="M 7 62 L 39 62 L 39 79 L 7 79 L 7 62 Z " /><path fill="rgb(255,255,255)" stroke="rgb(255,255,255)" stroke-width="1" opacity="1" d="M 104 70 L 117.5 70 L 118 75 L 121 75 L 121.5 70 L 122 81 L 104 81 L 104 70 Z " /><path fill="rgb(255,255,255)" stroke="rgb(255,255,255)" stroke-width="1" opacity="1" d="M 42 80 L 101.5 80 L 102 80.5 L 102 90 L 42.5 90 L 42 89.5 L 42 80 Z M 67 82 L 65 84 L 67 87 Q 72 89 70 84 L 67 82 Z " /><path fill="rgb(255,255,255)" stroke="rgb(255,255,255)" stroke-width="1" opacity="1" d="M 9.5 91 L 18 91.5 L 9.5 92 L 9.5 91 Z " /><path fill="rgb(255,255,255)" stroke="rgb(255,255,255)" stroke-width="1" opacity="1" d="M 25.5 91 L 34 91.5 L 25.5 92 L 25.5 91 Z " /><path fill="rgb(255,255,255)" stroke="rgb(255,255,255)" stroke-width="1" opacity="1" d="M 58 94 L 76.5 94 L 77 98 L 58.5 98 L 58 94 Z " /><path fill="rgb(253,199,43)" stroke="rgb(253,199,43)" stroke-width="1" opacity="0.2549019607843137" d="M 52.5 0 L 57 0.5 L 52.5 1 L 52.5 0 Z " /><path fill="rgb(253,199,43)" stroke="rgb(253,199,43)" stroke-width="1" opacity="0.2549019607843137" d="M 71.5 0 L 76 0.5 L 71.5 1 L 71.5 0 Z " /><path fill="rgb(253,199,43)" stroke="rgb(253,199,43)" stroke-width="1" opacity="0.2549019607843137" d="M 48.5 1 L 51 1.5 L 48.5 2 L 48.5 1 Z " /><path fill="rgb(253,199,43)" stroke="rgb(253,199,43)" stroke-width="1" opacity="0.2549019607843137" d="M 77.5 1 L 80 1.5 L 77.5 2 L 77.5 1 Z " /><path fill="rgb(253,199,43)" stroke="rgb(253,199,43)" stroke-width="1" opacity="0.2549019607843137" d="M 44.5 2 L 47 2.5 L 44.5 3 L 44.5 2 Z " /><path fill="rgb(253,199,43)" stroke="rgb(253,199,43)" stroke-width="1" opacity="0.2549019607843137" d="M 81.5 2 L 84 2.5 L 81.5 3 L 81.5 2 Z " /><path fill="rgb(253,199,43)" stroke="rgb(253,199,43)" stroke-width="1" opacity="0.2549019607843137" d="M 41.5 3 L 43 3.5 L 39.5 5 L 39.5 4 L 41.5 3 Z " /><path fill="rgb(253,199,43)" stroke="rgb(253,199,43)" stroke-width="1" opacity="0.2549019607843137" d="M 85.5 3 L 89 4.5 L 87.5 5 L 85.5 3 Z " /><path fill="rgb(253,199,43)" stroke="rgb(253,199,43)" stroke-width="1" opacity="0.2549019607843137" d="M 90.5 5 L 95 7.5 L 93.5 7 Q 89.7 6.7 90.5 5 Z " /><path fill="rgb(253,199,43)" stroke="rgb(253,199,43)" stroke-width="1" opacity="0.2549019607843137" d="M 34.5 6 L 36 6.5 L 33.5 8 L 34.5 6 Z " /><path fill="rgb(253,199,43)" stroke="rgb(253,199,43)" stroke-width="1" opacity="0.2549019607843137" d="M 31.5 8 L 30.5 10 Q 21.1 14.6 15 22.5 L 8.5 32 L 9 30.5 Q 14 20.5 22.5 14 L 31.5 8 Z " /><path fill="rgb(253,199,43)" stroke="rgb(253,199,43)" stroke-width="1" opacity="0.2549019607843137" d="M 96.5 8 Q 106.8 13.7 114 22.5 L 120 31.5 L 118 30.5 Q 113.4 21.1 105.5 15 L 97.5 10 L 96.5 8 Z " /><path fill="rgb(253,199,43)" stroke="rgb(253,199,43)" stroke-width="1" opacity="0.2549019607843137" d="M 7.5 33 L 7 34.5 L 6.5 36 L 6 34.5 L 7.5 33 Z " /><path fill="rgb(253,199,43)" stroke="rgb(253,199,43)" stroke-width="1" opacity="0.2549019607843137" d="M 4.5 39 L 5 40.5 L 3.5 43 L 3 41.5 L 4.5 39 Z " /><path fill="rgb(253,199,43)" stroke="rgb(253,199,43)" stroke-width="1" opacity="0.2549019607843137" d="M 123.5 39 L 126 46.5 L 125 46.5 L 123.5 39 Z " /><path fill="rgb(253,199,43)" stroke="rgb(253,199,43)" stroke-width="1" opacity="0.2549019607843137" d="M 2.5 44 L 3 46.5 L 2 46.5 L 2.5 44 Z " /><path fill="rgb(253,199,43)" stroke="rgb(253,199,43)" stroke-width="1" opacity="0.2549019607843137" d="M 1.5 48 L 2 50.5 L 1 50.5 L 1.5 48 Z " /><path fill="rgb(253,199,43)" stroke="rgb(253,199,43)" stroke-width="1" opacity="0.2549019607843137" d="M 126.5 48 L 127 50.5 L 126 50.5 L 126.5 48 Z " /><path fill="rgb(253,199,43)" stroke="rgb(253,199,43)" stroke-width="1" opacity="0.2549019607843137" d="M 0.5 52 L 1 56.5 L 0 56.5 L 0.5 52 Z " /><path fill="rgb(253,199,43)" stroke="rgb(253,199,43)" stroke-width="1" opacity="0.2549019607843137" d="M 127.5 52 L 128 56.5 L 127 56.5 L 127.5 52 Z " /><path fill="rgb(253,199,43)" stroke="rgb(253,199,43)" stroke-width="1" opacity="0.2549019607843137" d="M 0.5 71 L 1 75.5 L 0 75.5 L 0.5 71 Z " /><path fill="rgb(253,199,43)" stroke="rgb(253,199,43)" stroke-width="1" opacity="0.2549019607843137" d="M 127.5 71 L 128 75.5 L 127 75.5 L 127.5 71 Z " /><path fill="rgb(253,199,43)" stroke="rgb(253,199,43)" stroke-width="1" opacity="0.2549019607843137" d="M 1.5 77 L 2 79.5 L 1 79.5 L 1.5 77 Z " /><path fill="rgb(253,199,43)" stroke="rgb(253,199,43)" stroke-width="1" opacity="0.2549019607843137" d="M 126.5 77 L 127 79.5 L 126 79.5 L 126.5 77 Z " /><path fill="rgb(253,199,43)" stroke="rgb(253,199,43)" stroke-width="1" opacity="0.2549019607843137" d="M 2.5 81 L 3 83.5 L 2 83.5 L 2.5 81 Z " /><path fill="rgb(253,199,43)" stroke="rgb(253,199,43)" stroke-width="1" opacity="0.2549019607843137" d="M 125.5 81 L 126 83.5 L 124.5 87 L 124 84.5 L 125.5 81 Z " /><path fill="rgb(253,199,43)" stroke="rgb(253,199,43)" stroke-width="1" opacity="0.2549019607843137" d="M 14.5 105 Q 21.8 113.8 32 119.5 L 30.5 119 Q 19.9 113.8 14.5 105 Z " /><path fill="rgb(253,199,43)" stroke="rgb(253,199,43)" stroke-width="1" opacity="0.2549019607843137" d="M 113.5 105 L 105.5 114 L 96.5 120 L 97.5 118 Q 107.2 113.2 113.5 105 Z " /><path fill="rgb(253,199,43)" stroke="rgb(253,199,43)" stroke-width="1" opacity="0.2549019607843137" d="M 39.5 123 L 47 125.5 L 44.5 126 L 39.5 124 L 39.5 123 Z " /><path fill="rgb(253,199,43)" stroke="rgb(253,199,43)" stroke-width="1" opacity="0.2549019607843137" d="M 87.5 123 L 89 123.5 L 81.5 126 L 81.5 125 L 87.5 123 Z " /><path fill="rgb(253,199,43)" stroke="rgb(253,199,43)" stroke-width="1" opacity="0.2549019607843137" d="M 48.5 126 L 51 126.5 L 48.5 127 L 48.5 126 Z " /><path fill="rgb(253,199,43)" stroke="rgb(253,199,43)" stroke-width="1" opacity="0.2549019607843137" d="M 77.5 126 L 80 126.5 L 77.5 127 L 77.5 126 Z " /><path fill="rgb(253,199,43)" stroke="rgb(253,199,43)" stroke-width="1" opacity="0.2549019607843137" d="M 53.5 127 L 57 127.5 L 53.5 128 L 53.5 127 Z " /><path fill="rgb(253,199,43)" stroke="rgb(253,199,43)" stroke-width="1" opacity="0.2549019607843137" d="M 71.5 127 L 75 127.5 L 71.5 128 L 71.5 127 Z " /><path fill="rgb(28,59,92)" stroke="rgb(28,59,92)" stroke-width="1" opacity="0.9725490196078431" d="M 4.5 89 L 5 100.5 L 6 103 L 14 104.5 L 8.5 105 L 5 102.5 L 4 100.5 L 4.5 89 Z " /><path fill="rgb(28,59,92)" stroke="rgb(28,59,92)" stroke-width="1" opacity="0.9725490196078431" d="M 123.5 89 L 124 101.5 L 123 104 Q 120.6 105.8 114.5 105 L 114.5 104 Q 121.5 105.5 123 101.5 L 123.5 89 Z " /><path fill="rgb(28,59,92)" stroke="rgb(28,59,92)" stroke-width="1" opacity="1" d="M 24.5 23 L 111.5 23 L 112 24.5 L 113 25.5 L 113 65 L 121.5 65 L 123 66.5 L 122.5 70 L 103 70 L 103 65 L 109.5 65 L 111 63.5 L 111 26 L 25.5 26 L 25 26.5 L 25 49 L 37.5 49 L 40 50 L 41 52.5 L 41 76 L 102.5 76 L 103 79.5 L 101.5 79 L 41 79 L 41 100.5 L 38.5 104 L 8.5 104 L 6 103 L 5 100.5 L 5 51.5 L 7.5 49 L 22 49 L 22 26.5 L 24.5 23 Z M 18 51 L 19 53 Q 20 50 18 51 Z M 21 51 Q 20 54 25 53 Q 26 49 21 51 Z M 6 54 L 6 99 L 40 99 L 40 54 L 6 54 Z M 110 67 L 110 68 L 115 68 L 110 67 Z M 21 100 L 23 103 L 25 102 L 25 100 L 21 100 Z " /><path fill="rgb(28,59,92)" stroke="rgb(28,59,92)" stroke-width="1" opacity="1" d="M 103 99 L 122.5 99 L 123 101.5 L 120.5 104 L 104.5 104 Q 102 102.8 103 99 Z M 111 100 L 111 102 L 114 103 Q 116 99 111 100 Z " /><path fill="rgb(195,225,215)" stroke="rgb(195,225,215)" stroke-width="1" opacity="1" d="M 25.5 35 L 26 48 L 38 48.5 L 25 49 L 25.5 35 Z " /><path fill="rgb(195,225,215)" stroke="rgb(195,225,215)" stroke-width="1" opacity="1" d="M 39.5 49 L 40.5 51 L 39.5 49 Z " /><path fill="rgb(195,225,215)" stroke="rgb(195,225,215)" stroke-width="1" opacity="1" d="M 41.5 55 L 110 55.5 L 41.5 56 L 41.5 55 Z " /><path fill="rgb(195,225,215)" stroke="rgb(195,225,215)" stroke-width="1" opacity="1" d="M 52.5 60 L 53 66.5 L 52 66.5 L 52.5 60 Z " /><path fill="rgb(195,225,215)" stroke="rgb(195,225,215)" stroke-width="1" opacity="1" d="M 6.5 62 L 7 79.5 L 6 79.5 L 6.5 62 Z " /><path fill="rgb(195,225,215)" stroke="rgb(195,225,215)" stroke-width="1" opacity="1" d="M 39.5 62 L 40 78.5 L 39 78.5 L 39.5 62 Z " /><path fill="rgb(195,225,215)" stroke="rgb(195,225,215)" stroke-width="1" opacity="1" d="M 41 71 Q 46.2 69.3 45 73 Q 39.8 74.7 41 71 Z " /><path fill="rgb(195,225,215)" stroke="rgb(195,225,215)" stroke-width="1" opacity="1" d="M 60 71 L 67.5 71 L 68 73 L 60.5 73 L 60 71 Z " /><path fill="rgb(195,225,215)" stroke="rgb(195,225,215)" stroke-width="1" opacity="1" d="M 82 71 L 89.5 71 L 90 73 L 82.5 73 L 82 71 Z " /><path fill="rgb(195,225,215)" stroke="rgb(195,225,215)" stroke-width="1" opacity="1" d="M 118.5 71 L 119.5 73 L 120.5 71 L 121 72.5 L 120.5 75 L 118 74.5 L 118 72.5 L 118.5 71 Z " /><path fill="rgb(195,225,215)" stroke="rgb(195,225,215)" stroke-width="1" opacity="1" d="M 67.5 82 L 70 83.5 L 68.5 87 Q 65.2 88.1 66 85.5 Q 63.3 83.8 67.5 82 Z " /><path fill="rgb(195,225,215)" stroke="rgb(195,225,215)" stroke-width="1" opacity="1" d="M 106.5 84 L 107 90.5 L 106 90.5 L 106.5 84 Z " /><path fill="rgb(195,225,215)" stroke="rgb(195,225,215)" stroke-width="1" opacity="1" d="M 77.5 90 L 78 92.5 L 77 92.5 L 77.5 90 Z " /><path fill="rgb(195,225,215)" stroke="rgb(195,225,215)" stroke-width="1" opacity="1" d="M 107.5 92 L 115.5 92 L 116 94 L 106 93.5 L 107.5 92 Z " /><path fill="rgb(195,225,215)" stroke="rgb(195,225,215)" stroke-width="1" opacity="1" d="M 9 93 L 15 93 L 15 95 L 9 95 L 9 93 Z " /><path fill="rgb(195,225,215)" stroke="rgb(195,225,215)" stroke-width="1" opacity="1" d="M 25 93 L 31 93 L 31 95 L 25 95 L 25 93 Z " /><path fill="rgb(195,225,215)" stroke="rgb(195,225,215)" stroke-width="1" opacity="1" d="M 106.5 95 L 113 95.5 Q 112 98 107.5 97 L 106.5 95 Z " /><path fill="rgb(195,225,215)" stroke="rgb(195,225,215)" stroke-width="1" opacity="1" d="M 58.5 98 L 77 98.5 L 58.5 99 L 54.5 103 L 58.5 98 Z " /><path fill="rgb(195,225,215)" stroke="rgb(195,225,215)" stroke-width="1" opacity="1" d="M 22 100 Q 25 99 24 102 Q 21 103 22 100 Z " /><path fill="rgb(195,225,215)" stroke="rgb(195,225,215)" stroke-width="1" opacity="1" d="M 53.5 104 L 54.5 105 L 82 105.5 L 54.5 106 L 53.5 104 Z " /><path fill="rgb(253,193,51)" stroke="rgb(253,193,51)" stroke-width="1" opacity="0.9921568627450981" d="M 57.5 0 L 70.5 0 L 89.5 5 Q 103.5 11.5 113 22.5 Q 121.9 32.6 126 47.5 L 128 57.5 L 128 70.5 L 123.5 88 L 123 66.5 L 120.5 64 Q 114.3 64.8 114 63.5 L 114 25.5 L 110.5 22 L 24.5 22 L 22 24.5 L 22 49 L 7.5 49 L 5 51.5 L 4.5 88 L 0 70.5 L 0 57.5 L 3 43.5 L 8 32.5 L 22.5 15 L 38.5 5 L 57.5 0 Z " /><path fill="rgb(253,193,51)" stroke="rgb(253,193,51)" stroke-width="1" opacity="0.9921568627450981" d="M 41 60 L 52 60 L 52 67 L 41 67 L 41 60 Z " /><path fill="rgb(253,193,51)" stroke="rgb(253,193,51)" stroke-width="1" opacity="0.9921568627450981" d="M 82 60 L 97 60 L 97 67 L 82 67 L 82 60 Z " /><path fill="rgb(253,193,51)" stroke="rgb(253,193,51)" stroke-width="1" opacity="0.9921568627450981" d="M 9 82 L 21 82 L 21 89 L 9 89 L 9 82 Z " /><path fill="rgb(253,193,51)" stroke="rgb(253,193,51)" stroke-width="1" opacity="0.9921568627450981" d="M 107 84 L 119 84 L 119 91 L 107 91 L 107 84 Z " /><path fill="rgb(253,193,51)" stroke="rgb(253,193,51)" stroke-width="1" opacity="0.9921568627450981" d="M 41 90 L 58 90 L 58 98.5 L 53 104.5 L 54.5 106 L 82 106 L 82 103.5 L 77 98.5 L 77 93.5 L 78 90 L 102 90 L 102 102.5 L 103.5 104 L 114 104.5 Q 104.2 116.2 89.5 123 L 70.5 128 L 57.5 128 L 47.5 126 L 32.5 120 Q 21.8 113.8 14 104.5 L 38.5 104 L 41 101.5 L 41 90 Z " /></svg>