<?xml version="1.0" encoding="UTF-8"?>
<svg version="1.1" xmlns="http://www.w3.org/2000/svg" width="64" height="64">
<path d="M0 0 C1.87171875 -0.00386719 1.87171875 -0.00386719 3.78125 -0.0078125 C5.74578125 0.00378906 5.74578125 0.00378906 7.75 0.015625 C9.0596875 0.00789062 10.369375 0.00015625 11.71875 -0.0078125 C12.9665625 -0.00523438 14.214375 -0.00265625 15.5 0 C16.64984375 0.00225586 17.7996875 0.00451172 18.984375 0.00683594 C21.75 0.265625 21.75 0.265625 23.75 2.265625 C24.00396729 4.46679688 24.00396729 4.46679688 24.00878906 7.234375 C24.01509338 8.26884766 24.02139771 9.30332031 24.02789307 10.36914062 C24.0238446 11.48998047 24.01979614 12.61082031 24.015625 13.765625 C24.01849518 15.48555664 24.01849518 15.48555664 24.02142334 17.24023438 C24.02278622 19.66797098 24.01908267 22.09571484 24.01074219 24.5234375 C24.00004438 28.25016573 24.01063431 31.97641186 24.0234375 35.703125 C24.02211592 38.05729274 24.01955357 40.41146017 24.015625 42.765625 C24.01967346 43.88646484 24.02372192 45.00730469 24.02789307 46.16210938 C24.02158875 47.19658203 24.01528442 48.23105469 24.00878906 49.296875 C24.00719788 50.21017578 24.00560669 51.12347656 24.00396729 52.06445312 C23.75 54.265625 23.75 54.265625 21.75 56.265625 C18.984375 56.52441406 18.984375 56.52441406 15.5 56.53125 C13.62828125 56.53511719 13.62828125 56.53511719 11.71875 56.5390625 C9.75421875 56.52746094 9.75421875 56.52746094 7.75 56.515625 C6.4403125 56.52335937 5.130625 56.53109375 3.78125 56.5390625 C2.5334375 56.53648438 1.285625 56.53390625 0 56.53125 C-1.72476562 56.52786621 -1.72476562 56.52786621 -3.484375 56.52441406 C-6.25 56.265625 -6.25 56.265625 -8.25 54.265625 C-8.50396729 52.06445312 -8.50396729 52.06445312 -8.50878906 49.296875 C-8.51509338 48.26240234 -8.52139771 47.22792969 -8.52789307 46.16210938 C-8.5238446 45.04126953 -8.51979614 43.92042969 -8.515625 42.765625 C-8.51753845 41.61900391 -8.5194519 40.47238281 -8.52142334 39.29101562 C-8.52278622 36.86327902 -8.51908267 34.43553516 -8.51074219 32.0078125 C-8.50004438 28.28108427 -8.51063431 24.55483814 -8.5234375 20.828125 C-8.52211592 18.47395726 -8.51955357 16.11978983 -8.515625 13.765625 C-8.51967346 12.64478516 -8.52372192 11.52394531 -8.52789307 10.36914062 C-8.52158875 9.33466797 -8.51528442 8.30019531 -8.50878906 7.234375 C-8.50719788 6.32107422 -8.50560669 5.40777344 -8.50396729 4.46679688 C-7.91350226 -0.6508505 -4.24564515 0.00832946 0 0 Z " fill="#7E779C" transform="translate(24.25,3.734375)"/>
<path d="M0 0 C2.85746217 1.26998319 4.48137263 2.2838003 6.3125 4.8125 C7.2997606 7.95378373 7.57180816 9.69621951 7 13 C5.38312928 15.22478034 3.62906665 17.18325763 1.7265625 19.16796875 C-0.17940899 21.08821784 -0.17940899 21.08821784 -2 24 C-2.66 24 -3.32 24 -4 24 C-5.36639342 22.3603279 -6.6949419 20.68889872 -8 19 C-9.0828125 17.9171875 -9.0828125 17.9171875 -10.1875 16.8125 C-12.51640334 14.48359666 -12.95647202 13.48968976 -13.25 10.1875 C-12.9670624 6.58004558 -12.15434322 4.87245763 -10 2 C-6.27420911 -0.48386059 -4.41288598 -0.3804212 0 0 Z " fill="#FC0303" transform="translate(35,22)"/>
<path d="M0 0 C1.12067871 0.01047363 2.24135742 0.02094727 3.39599609 0.03173828 C5.21357422 0.04140625 5.21357422 0.04140625 7.06787109 0.05126953 C8.33888672 0.06802734 9.60990234 0.08478516 10.91943359 0.10205078 C12.19818359 0.11107422 13.47693359 0.12009766 14.79443359 0.12939453 C17.96128526 0.15302775 21.12776783 0.18597449 24.29443359 0.22705078 C24.29443359 0.55705078 24.29443359 0.88705078 24.29443359 1.22705078 C23.17415771 1.25677979 23.17415771 1.25677979 22.03125 1.28710938 C18.66027755 1.38213289 15.2899443 1.49190337 11.91943359 1.60205078 C10.74380859 1.63298828 9.56818359 1.66392578 8.35693359 1.69580078 C7.23544922 1.73447266 6.11396484 1.77314453 4.95849609 1.81298828 C3.92160645 1.84440918 2.8847168 1.87583008 1.81640625 1.90820312 C-0.87366476 1.9865955 -0.87366476 1.9865955 -2.70556641 4.22705078 C-2.95086222 6.80284463 -3.07898434 9.27934085 -3.11962891 11.85986328 C-3.13899506 12.61169891 -3.15836121 13.36353455 -3.17831421 14.13815308 C-3.23815788 16.54266977 -3.28451367 18.94723422 -3.33056641 21.35205078 C-3.36874186 22.98097806 -3.40779334 24.60988507 -3.44775391 26.23876953 C-3.54386307 30.23469884 -3.62787582 34.23072265 -3.70556641 38.22705078 C-4.03556641 38.22705078 -4.36556641 38.22705078 -4.70556641 38.22705078 C-4.75492798 33.13673323 -4.79126745 28.04655435 -4.81542969 22.95605469 C-4.82550016 21.22360813 -4.8391573 19.49117863 -4.85644531 17.75878906 C-4.88064803 15.2716044 -4.89203879 12.78464403 -4.90087891 10.29736328 C-4.91120148 9.5202298 -4.92152405 8.74309631 -4.93215942 7.94241333 C-4.93255912 6.03579585 -4.82788781 4.12974042 -4.70556641 2.22705078 C-2.70556641 0.22705078 -2.70556641 0.22705078 0 0 Z " fill="#B0ACC2" transform="translate(20.70556640625,3.77294921875)"/>
<path d="M0 0 C0.33 0 0.66 0 1 0 C1.05785647 3.95827235 1.09354717 7.9164367 1.125 11.875 C1.14175781 13.00292969 1.15851562 14.13085938 1.17578125 15.29296875 C1.18222656 16.36933594 1.18867187 17.44570313 1.1953125 18.5546875 C1.20578613 19.54968262 1.21625977 20.54467773 1.22705078 21.56982422 C1 24 1 24 -1 26 C-3.61376953 26.22705078 -3.61376953 26.22705078 -6.8828125 26.1953125 C-8.04941406 26.18886719 -9.21601562 26.18242188 -10.41796875 26.17578125 C-11.64128906 26.15902344 -12.86460938 26.14226563 -14.125 26.125 C-15.35605469 26.11597656 -16.58710938 26.10695313 -17.85546875 26.09765625 C-20.90383815 26.07402548 -23.95182382 26.04108054 -27 26 C-27 25.67 -27 25.34 -27 25 C-26.28344238 24.98018066 -25.56688477 24.96036133 -24.82861328 24.93994141 C-21.5936937 24.84490481 -18.35943906 24.73513981 -15.125 24.625 C-13.99707031 24.5940625 -12.86914062 24.563125 -11.70703125 24.53125 C-10.63066406 24.49257813 -9.55429687 24.45390625 -8.4453125 24.4140625 C-7.45031738 24.3826416 -6.45532227 24.3512207 -5.43017578 24.31884766 C-2.82145483 24.22752917 -2.82145483 24.22752917 -1 22 C-0.62948007 19.6754661 -0.62948007 19.6754661 -0.5859375 16.9921875 C-0.54726563 16.00605469 -0.50859375 15.01992188 -0.46875 14.00390625 C-0.4378125 12.97136719 -0.406875 11.93882813 -0.375 10.875 C-0.33632813 9.83472656 -0.29765625 8.79445313 -0.2578125 7.72265625 C-0.16335234 5.14861689 -0.07778786 2.57458845 0 0 Z " fill="#A7A3BC" transform="translate(47,34)"/>
<path d="M0 0 C2.625 0.375 2.625 0.375 5 1 C5.625 3.375 5.625 3.375 6 6 C5.34 6.66 4.68 7.32 4 8 C1.375 7.625 1.375 7.625 -1 7 C-1.625 4.625 -1.625 4.625 -2 2 C-1.34 1.34 -0.68 0.68 0 0 Z " fill="#FF9696" transform="translate(30,28)"/>
<path d="M0 0 C2.64 0 5.28 0 8 0 C8 1.32 8 2.64 8 4 C5.36 4 2.72 4 0 4 C0 2.68 0 1.36 0 0 Z " fill="#C1BFD0" transform="translate(28,8)"/>
<path d="M0 0 C1.32 0 2.64 0 4 0 C3.25 1.9375 3.25 1.9375 2 4 C-0.125 4.75 -0.125 4.75 -2 5 C-1.125 1.125 -1.125 1.125 0 0 Z " fill="#FFA9A9" transform="translate(30,28)"/>
</svg>
