<?xml version="1.0" encoding="UTF-8"?>
<svg version="1.1" xmlns="http://www.w3.org/2000/svg" width="128" height="128">
<path d="M0 0 C26.4 0 52.8 0 80 0 C80 18.48 80 36.96 80 56 C82.64 56 85.28 56 88 56 C88.09268792 64.79694492 88.16375846 73.59372171 88.20724869 82.39104843 C88.22812211 86.4760437 88.25643463 90.56070485 88.30175781 94.64550781 C88.3452253 98.58774345 88.36913895 102.52965777 88.37950897 106.47211456 C88.38689882 107.97604684 88.40132967 109.47996157 88.42292023 110.98375702 C88.45196812 113.09079459 88.45595571 115.19650529 88.45410156 117.30371094 C88.46298401 118.50284119 88.47186646 119.70197144 88.48101807 120.93743896 C88 124 88 124 86.5927124 126.38616943 C82.55986906 128.89640769 78.72319276 128.55722597 74.0625 128.51757812 C73.05396973 128.5245874 72.04543945 128.53159668 71.00634766 128.53881836 C67.67061886 128.55643218 64.33573752 128.5447631 61 128.53125 C58.68359209 128.53394393 56.36718528 128.53782551 54.05078125 128.54284668 C49.19520302 128.54874634 44.33991904 128.54016338 39.484375 128.52148438 C33.25635354 128.49869496 27.02902155 128.51181548 20.80102539 128.53577423 C16.01752515 128.55021932 11.23418873 128.54563205 6.45068359 128.53526306 C4.15413329 128.53259223 1.85756817 128.535878 -0.43896484 128.54518127 C-3.6472114 128.55532527 -6.85433706 128.53987483 -10.0625 128.51757812 C-11.01431152 128.52567505 -11.96612305 128.53377197 -12.94677734 128.54211426 C-16.73416269 128.49328078 -19.26728659 128.41716316 -22.5927124 126.52386475 C-24.70289226 122.73941545 -24.52663501 119.36695448 -24.45410156 115.10058594 C-24.45497772 113.75371704 -24.45497772 113.75371704 -24.45587158 112.37963867 C-24.45308668 109.41415641 -24.42197534 106.44968149 -24.390625 103.484375 C-24.38316406 101.42743479 -24.37747044 99.37048746 -24.37347412 97.3135376 C-24.35820628 91.90137078 -24.31891426 86.48963379 -24.2746582 81.07763672 C-24.23373049 75.55442113 -24.21546843 70.03113604 -24.1953125 64.5078125 C-24.15242136 53.67168622 -24.08415587 42.83587886 -24 32 C-21.36 32 -18.72 32 -16 32 C-16 24.08 -16 16.16 -16 8 C-10.72 8 -5.44 8 0 8 C0 5.36 0 2.72 0 0 Z " fill="#FDD34C" transform="translate(32,0)"/>
<path d="M0 0 C26.4 0 52.8 0 80 0 C80 18.48 80 36.96 80 56 C74.72 56 69.44 56 64 56 C63.67 48.41 63.34 40.82 63 33 C61.02 33 59.04 33 57 33 C56.67 40.59 56.34 48.18 56 56 C53.36 56 50.72 56 48 56 C48 51.71 48 47.42 48 43 C45.36 43 42.72 43 40 43 C40 47.29 40 51.58 40 56 C36.04 56 32.08 56 28 56 C26.68 53.69 25.36 51.38 24 49 C13.77 49 3.54 49 -7 49 C-7.33 69.79 -7.66 90.58 -8 112 C-10.31 112 -12.62 112 -15 112 C-16 111 -16 111 -16.12304783 109.268363 C-16.12212604 108.50972737 -16.12120424 107.75109175 -16.12025452 106.96946716 C-16.12162918 106.10143463 -16.12300385 105.2334021 -16.12442017 104.33906555 C-16.12082489 103.37953476 -16.11722961 102.42000397 -16.11352539 101.43139648 C-16.11367142 100.42663269 -16.11381744 99.4218689 -16.1139679 98.38665771 C-16.1132683 95.04811483 -16.10547374 91.70962695 -16.09765625 88.37109375 C-16.09579224 86.06323782 -16.09436826 83.75538149 -16.09336853 81.44752502 C-16.08954204 75.35982174 -16.07971065 69.27214214 -16.06866455 63.18444824 C-16.05845323 56.97778646 -16.05387151 50.77112087 -16.04882812 44.56445312 C-16.0380885 32.37629165 -16.02101052 20.18814779 -16 8 C-10.72 8 -5.44 8 0 8 C0 5.36 0 2.72 0 0 Z " fill="#ECF8FD" transform="translate(32,0)"/>
<path d="M0 0 C2.64 0 5.28 0 8 0 C8.01458252 1.23153809 8.02916504 2.46307617 8.04418945 3.73193359 C8.10205652 8.29066358 8.17928932 12.84889357 8.26245117 17.40722656 C8.29575528 19.38207906 8.32376997 21.357028 8.34643555 23.33203125 C8.37988122 26.16708577 8.43219046 29.001252 8.48828125 31.8359375 C8.49467117 32.72243988 8.5010611 33.60894226 8.50764465 34.52230835 C8.53733589 35.753358 8.53733589 35.753358 8.56762695 37.00927734 C8.57873001 37.73319672 8.58983307 38.45711609 8.60127258 39.20297241 C8.87490507 41.41648203 8.87490507 41.41648203 12 43 C12.09079834 42.2572583 12.18159668 41.5145166 12.27514648 40.74926758 C13.12612775 37.52161516 14.21870788 36.31573961 16.59765625 34.01171875 C17.31630859 33.30595703 18.03496094 32.60019531 18.77539062 31.87304688 C19.53013672 31.15181641 20.28488281 30.43058594 21.0625 29.6875 C21.82111328 28.94693359 22.57972656 28.20636719 23.36132812 27.44335938 C25.23219159 25.61956166 27.11174492 23.80575696 29 22 C32.32759923 23.55194754 34.48580485 25.30621949 37 28 C40.15204981 26.60652624 42.26171773 24.97514921 44.671875 22.5234375 C45.33574219 21.853125 45.99960938 21.1828125 46.68359375 20.4921875 C47.70646484 19.44417969 47.70646484 19.44417969 48.75 18.375 C49.44738281 17.66859375 50.14476563 16.9621875 50.86328125 16.234375 C52.58012488 14.49401297 54.29211832 12.74915019 56 11 C54.68 10.34 53.36 9.68 52 9 C52.33 8.01 52.66 7.02 53 6 C54.64574566 5.97311849 56.29161413 5.95365877 57.9375 5.9375 C58.85402344 5.92589844 59.77054687 5.91429687 60.71484375 5.90234375 C63 6 63 6 64 7 C64.07205511 8.68608966 64.08386068 10.37500659 64.0625 12.0625 C64.05347656 12.98160156 64.04445313 13.90070312 64.03515625 14.84765625 C64.02355469 15.55792969 64.01195313 16.26820312 64 17 C62.68 17 61.36 17 60 17 C59.505 16.01 59.505 16.01 59 15 C58.44538086 15.58080322 57.89076172 16.16160645 57.31933594 16.76000977 C54.80926853 19.37374474 52.28008973 21.96814819 49.75 24.5625 C48.87730469 25.47708984 48.00460938 26.39167969 47.10546875 27.33398438 C45.83896484 28.6246582 45.83896484 28.6246582 44.546875 29.94140625 C43.77182617 30.74263916 42.99677734 31.54387207 42.19824219 32.36938477 C40 34 40 34 37.84082031 33.88647461 C36 33 36 33 34 30.875 C32.24155612 28.78713965 32.24155612 28.78713965 30.23046875 29.04296875 C26.9370885 30.45606535 24.75283988 32.89372849 22.3125 35.4375 C21.56516602 36.19256836 21.56516602 36.19256836 20.80273438 36.96289062 C18.06575292 39.73124174 18.06575292 39.73124174 16 43 C18.64 43 21.28 43 24 43 C23.979375 42.195625 23.95875 41.39125 23.9375 40.5625 C24 38 24 38 25 37 C28 36.875 28 36.875 31 37 C32 38 32 38 32.11352539 39.76586914 C32.10828857 40.51473389 32.10305176 41.26359863 32.09765625 42.03515625 C32.09443359 42.84404297 32.09121094 43.65292969 32.08789062 44.48632812 C32.07532227 45.7615332 32.07532227 45.7615332 32.0625 47.0625 C32.05798828 47.91650391 32.05347656 48.77050781 32.04882812 49.65039062 C32.03700373 51.76695663 32.01906769 53.88348685 32 56 C29.6875 55.875 29.6875 55.875 27 55 C26.01 53.02 25.02 51.04 24 49 C13.77 49 3.54 49 -7 49 C-7.33 69.79 -7.66 90.58 -8 112 C-10.31 112 -12.62 112 -15 112 C-16 111 -16 111 -16.12304783 109.268363 C-16.12212604 108.50972737 -16.12120424 107.75109175 -16.12025452 106.96946716 C-16.12162918 106.10143463 -16.12300385 105.2334021 -16.12442017 104.33906555 C-16.12082489 103.37953476 -16.11722961 102.42000397 -16.11352539 101.43139648 C-16.11367142 100.42663269 -16.11381744 99.4218689 -16.1139679 98.38665771 C-16.1132683 95.04811483 -16.10547374 91.70962695 -16.09765625 88.37109375 C-16.09579224 86.06323782 -16.09436826 83.75538149 -16.09336853 81.44752502 C-16.08954204 75.35982174 -16.07971065 69.27214214 -16.06866455 63.18444824 C-16.05845323 56.97778646 -16.05387151 50.77112087 -16.04882812 44.56445312 C-16.0380885 32.37629165 -16.02101052 20.18814779 -16 8 C-10.72 8 -5.44 8 0 8 C0 5.36 0 2.72 0 0 Z " fill="#C0E0EF" transform="translate(32,0)"/>
<path d="M0 0 C2.64 0 5.28 0 8 0 C8.01458252 1.23153809 8.02916504 2.46307617 8.04418945 3.73193359 C8.10205652 8.29066358 8.17928932 12.84889357 8.26245117 17.40722656 C8.29575528 19.38207906 8.32376997 21.357028 8.34643555 23.33203125 C8.37988122 26.16708577 8.43219046 29.001252 8.48828125 31.8359375 C8.49467117 32.72243988 8.5010611 33.60894226 8.50764465 34.52230835 C8.53733589 35.753358 8.53733589 35.753358 8.56762695 37.00927734 C8.57873001 37.73319672 8.58983307 38.45711609 8.60127258 39.20297241 C8.87490507 41.41648203 8.87490507 41.41648203 12 43 C12.09079834 42.2572583 12.18159668 41.5145166 12.27514648 40.74926758 C13.12612775 37.52161516 14.21870788 36.31573961 16.59765625 34.01171875 C17.31630859 33.30595703 18.03496094 32.60019531 18.77539062 31.87304688 C19.53013672 31.15181641 20.28488281 30.43058594 21.0625 29.6875 C21.82111328 28.94693359 22.57972656 28.20636719 23.36132812 27.44335938 C25.23219159 25.61956166 27.11174492 23.80575696 29 22 C32.32759923 23.55194754 34.48580485 25.30621949 37 28 C40.15204981 26.60652624 42.26171773 24.97514921 44.671875 22.5234375 C45.33574219 21.853125 45.99960938 21.1828125 46.68359375 20.4921875 C47.70646484 19.44417969 47.70646484 19.44417969 48.75 18.375 C49.44738281 17.66859375 50.14476562 16.9621875 50.86328125 16.234375 C52.58012488 14.49401297 54.29211832 12.74915019 56 11 C54.68 10.34 53.36 9.68 52 9 C52.33 8.01 52.66 7.02 53 6 C54.64574566 5.97311849 56.29161413 5.95365877 57.9375 5.9375 C59.31228516 5.92009766 59.31228516 5.92009766 60.71484375 5.90234375 C63 6 63 6 64 7 C64.07205511 8.68608966 64.08386068 10.37500659 64.0625 12.0625 C64.05347656 12.98160156 64.04445313 13.90070312 64.03515625 14.84765625 C64.02355469 15.55792969 64.01195313 16.26820312 64 17 C62.68 17 61.36 17 60 17 C59.505 16.01 59.505 16.01 59 15 C58.44538086 15.58080322 57.89076172 16.16160645 57.31933594 16.76000977 C54.80926853 19.37374474 52.28008973 21.96814819 49.75 24.5625 C48.87730469 25.47708984 48.00460938 26.39167969 47.10546875 27.33398438 C45.83896484 28.6246582 45.83896484 28.6246582 44.546875 29.94140625 C43.77182617 30.74263916 42.99677734 31.54387207 42.19824219 32.36938477 C40 34 40 34 37.84082031 33.88647461 C36 33 36 33 34 30.875 C32.24155612 28.78713965 32.24155612 28.78713965 30.23046875 29.04296875 C26.9370885 30.45606535 24.75283988 32.89372849 22.3125 35.4375 C21.56516602 36.19256836 21.56516602 36.19256836 20.80273438 36.96289062 C18.06575292 39.73124174 18.06575292 39.73124174 16 43 C18.64 43 21.28 43 24 43 C23.979375 42.195625 23.95875 41.39125 23.9375 40.5625 C24 38 24 38 25 37 C28 36.875 28 36.875 31 37 C32 38 32 38 32.11352539 39.76586914 C32.10828857 40.51473389 32.10305176 41.26359863 32.09765625 42.03515625 C32.09443359 42.84404297 32.09121094 43.65292969 32.08789062 44.48632812 C32.07532227 45.7615332 32.07532227 45.7615332 32.0625 47.0625 C32.05798828 47.91650391 32.05347656 48.77050781 32.04882812 49.65039062 C32.03700373 51.76695663 32.01906769 53.88348685 32 56 C29.6875 55.875 29.6875 55.875 27 55 C26.01 53.02 25.02 51.04 24 49 C16.08 48.67 8.16 48.34 0 48 C0 32.16 0 16.32 0 0 Z " fill="#C1E1F0" transform="translate(32,0)"/>
<path d="M0 0 C0.66209473 -0.00095673 1.32418945 -0.00191345 2.00634766 -0.00289917 C3.40852961 -0.00358076 4.8107147 -0.00172792 6.21289062 0.00244141 C8.36595713 0.00779004 10.51881502 0.0024958 12.671875 -0.00390625 C14.03125046 -0.00324546 15.3906258 -0.00196429 16.75 0 C18.61785156 0.00169189 18.61785156 0.00169189 20.5234375 0.00341797 C23.375 0.1328125 23.375 0.1328125 24.375 1.1328125 C24.46347743 3.65375326 24.49027301 6.14712143 24.47265625 8.66796875 C24.4712413 9.42121933 24.46982635 10.17446991 24.46836853 10.95054626 C24.46275376 13.3655081 24.45019883 15.78037851 24.4375 18.1953125 C24.4324869 19.82877471 24.42792366 21.46223836 24.42382812 23.09570312 C24.41277954 27.10810835 24.39550506 31.12044491 24.375 35.1328125 C23.76140625 34.35421875 23.1478125 33.575625 22.515625 32.7734375 C19.15946438 28.63335615 16.84588079 26.4703917 11.5625 25.2578125 C7.26991177 24.9419428 3.29496573 25.26096591 -0.625 27.1328125 C-2.66805675 28.98966661 -4.00921671 30.85170668 -5.625 33.1328125 C-6.285 33.7928125 -6.945 34.4528125 -7.625 35.1328125 C-7.6496519 30.30900448 -7.66783693 25.48523283 -7.67993164 20.66137695 C-7.68497174 19.01911786 -7.69180378 17.37686327 -7.70043945 15.73461914 C-7.71251926 13.37905771 -7.71823139 11.02355541 -7.72265625 8.66796875 C-7.72781754 7.92942154 -7.73297882 7.19087433 -7.73829651 6.4299469 C-7.7384925 4.66383162 -7.68694719 2.89784104 -7.625 1.1328125 C-5.74180732 -0.75038018 -2.50569863 0.00226965 0 0 Z " fill="#EDF8FE" transform="translate(47.625,71.8671875)"/>
<path d="M0 0 C2.64 0 5.28 0 8 0 C8.33 26.07 8.66 52.14 9 79 C11.31 79.33 13.62 79.66 16 80 C16.05437607 81.58294782 16.09296271 83.16644256 16.125 84.75 C16.14820312 85.63171875 16.17140625 86.5134375 16.1953125 87.421875 C15.98882349 90.14752998 15.44664384 91.70178567 14 94 C10.78627221 96.29551985 7.87015465 96.48376933 4 96 C1.60100768 94.36977028 0.20971998 93.07857204 -0.3572464 90.1627121 C-0.49416754 87.79933494 -0.49434488 85.467671 -0.45410156 83.10058594 C-0.45497772 81.75371704 -0.45497772 81.75371704 -0.45587158 80.37963867 C-0.45308668 77.41415641 -0.42197534 74.44968149 -0.390625 71.484375 C-0.38316406 69.42743479 -0.37747044 67.37048746 -0.37347412 65.3135376 C-0.35820628 59.90137078 -0.31891426 54.48963379 -0.2746582 49.07763672 C-0.23373049 43.55442113 -0.21546843 38.03113604 -0.1953125 32.5078125 C-0.15242136 21.67168622 -0.08415587 10.83587886 0 0 Z " fill="#E58415" transform="translate(8,32)"/>
<path d="M0 0 C1.134375 0.020625 2.26875 0.04125 3.4375 0.0625 C3.53022506 9.62448272 3.60127752 19.18631042 3.64474869 28.74864483 C3.6656139 33.18895549 3.69391177 37.6289583 3.73925781 42.0690918 C3.78275406 46.35497369 3.80664513 50.64055968 3.81700897 54.92664528 C3.8243936 56.56092804 3.83881425 58.19519481 3.86042023 59.82935143 C3.88950559 62.12055694 3.89345403 64.41054355 3.89160156 66.7019043 C3.90048401 68.00540329 3.90936646 69.30890228 3.91851807 70.65190125 C3.35815794 74.62506499 2.24131702 76.25086762 -0.5625 79.0625 C-3.77701269 80.66975635 -6.99862536 80.11998185 -10.5625 80.0625 C-9.923125 79.815 -9.28375 79.5675 -8.625 79.3125 C-6.45599027 78.28776173 -6.45599027 78.28776173 -5.94543457 76.43058777 C-5.43027673 73.24482428 -5.40451693 70.1508125 -5.37304688 66.9230957 C-5.36060692 65.85661301 -5.36060692 65.85661301 -5.34791565 64.76858521 C-5.3305571 63.22935994 -5.31537894 61.69010887 -5.30213928 60.15084267 C-5.28107457 57.71802064 -5.25405823 55.28532927 -5.22546387 52.85258484 C-5.15571101 46.81446855 -5.09611582 40.77625994 -5.03643799 34.73803711 C-4.98558878 29.62893667 -4.93081082 24.51990886 -4.87062073 19.41090965 C-4.84397273 17.00836186 -4.82320821 14.60580751 -4.8026123 12.20320129 C-4.78601825 10.74003775 -4.7691472 9.27687732 -4.75195312 7.8137207 C-4.73942505 6.53116898 -4.72689697 5.24861725 -4.71398926 3.92720032 C-4.49048906 -0.29924509 -4.35995401 0.07649042 0 0 Z " fill="#F2B84B" transform="translate(28.5625,47.9375)"/>
<path d="M0 0 C2.39286283 2.16470614 4.04766764 4.11993785 5.125 7.1875 C4.795 8.8375 4.465 10.4875 4.125 12.1875 C-5.775 12.1875 -15.675 12.1875 -25.875 12.1875 C-26.875 7.1875 -26.875 7.1875 -25.25 4.125 C-22.20253065 0.3557616 -19.79227031 -2.25862191 -15.0625 -3.625 C-8.92317274 -3.9861369 -4.80363142 -3.95475684 0 0 Z " fill="#F1606E" transform="translate(66.875,99.8125)"/>
<path d="M0 0 C1.64574566 -0.02688151 3.29161413 -0.04634123 4.9375 -0.0625 C6.31228516 -0.07990234 6.31228516 -0.07990234 7.71484375 -0.09765625 C10 0 10 0 11 1 C11.07205511 2.68608966 11.08386068 4.37500659 11.0625 6.0625 C11.05347656 6.98160156 11.04445312 7.90070312 11.03515625 8.84765625 C11.02355469 9.55792969 11.01195312 10.26820312 11 11 C9.68 11 8.36 11 7 11 C6.505 10.01 6.505 10.01 6 9 C5.44538086 9.58080322 4.89076172 10.16160645 4.31933594 10.76000977 C1.80926853 13.37374474 -0.71991027 15.96814819 -3.25 18.5625 C-4.12269531 19.47708984 -4.99539062 20.39167969 -5.89453125 21.33398438 C-7.16103516 22.6246582 -7.16103516 22.6246582 -8.453125 23.94140625 C-9.22817383 24.74263916 -10.00322266 25.54387207 -10.80175781 26.36938477 C-13 28 -13 28 -15.15917969 27.88647461 C-17 27 -17 27 -19 24.875 C-20.75983259 22.7868886 -20.75983259 22.7868886 -22.78125 23.0390625 C-26.04373968 24.45204219 -28.1283111 26.93444008 -30.5 29.5 C-36.17525773 35.63917526 -36.17525773 35.63917526 -40 36 C-40 32 -40 32 -38.53125 30.07714844 C-37.8609375 29.4277832 -37.190625 28.77841797 -36.5 28.109375 C-35.778125 27.40039062 -35.05625 26.69140625 -34.3125 25.9609375 C-33.549375 25.23132813 -32.78625 24.50171875 -32 23.75 C-30.8553125 22.63238281 -30.8553125 22.63238281 -29.6875 21.4921875 C-27.80031094 19.65217816 -25.90443371 17.82212773 -24 16 C-20.67240077 17.55194754 -18.51419515 19.30621949 -16 22 C-12.84795019 20.60652624 -10.73828227 18.97514921 -8.328125 16.5234375 C-7.66425781 15.853125 -7.00039062 15.1828125 -6.31640625 14.4921875 C-5.63449219 13.79351562 -4.95257813 13.09484375 -4.25 12.375 C-3.55261719 11.66859375 -2.85523438 10.9621875 -2.13671875 10.234375 C-0.41987512 8.49401297 1.29211832 6.74915019 3 5 C1.68 4.34 0.36 3.68 -1 3 C-0.67 2.01 -0.34 1.02 0 0 Z " fill="#6D7984" transform="translate(85,6)"/>
<path d="M0 0 C2.64 0 5.28 0 8 0 C8 13.2 8 26.4 8 40 C5.36 40.33 2.72 40.66 0 41 C0 27.47 0 13.94 0 0 Z " fill="#EDF8FE" transform="translate(24,8)"/>
<path d="M0 0 C2.5 2 2.5 2 4 5 C4.20206968 9.63841771 3.07684656 12.84630688 1 17 C-2.3 17 -5.6 17 -9 17 C-11.05884964 12.88230073 -12.35679725 9.6200669 -12 5 C-8.73005561 0.09508342 -5.78115215 -1.05111857 0 0 Z " fill="#FDB1A1" transform="translate(60,80)"/>
<path d="M0 0 C3 0.125 3 0.125 4 1.125 C4.08713831 2.83272358 4.10700007 4.54398649 4.09765625 6.25390625 C4.09443359 7.28837891 4.09121094 8.32285156 4.08789062 9.38867188 C4.07951172 10.47728516 4.07113281 11.56589844 4.0625 12.6875 C4.05798828 13.77998047 4.05347656 14.87246094 4.04882812 15.99804688 C4.03699826 18.70708495 4.02051543 21.41601599 4 24.125 C1.36 24.125 -1.28 24.125 -4 24.125 C-4.02887236 20.31251574 -4.04675492 16.5000593 -4.0625 12.6875 C-4.07087891 11.59888672 -4.07925781 10.51027344 -4.08789062 9.38867188 C-4.09111328 8.35419922 -4.09433594 7.31972656 -4.09765625 6.25390625 C-4.10289307 5.29556885 -4.10812988 4.33723145 -4.11352539 3.34985352 C-3.93761142 -0.09768194 -3.51702641 0.14654277 0 0 Z " fill="#3DA794" transform="translate(92,31.875)"/>
<path d="M0 0 C0.99 0 1.98 0 3 0 C3 1.32 3 2.64 3 4 C3.99 4.33 4.98 4.66 6 5 C6 6.32 6 7.64 6 9 C5.01 9 4.02 9 3 9 C3 8.34 3 7.68 3 7 C2.01 7.66 1.02 8.32 0 9 C0.969375 9.309375 1.93875 9.61875 2.9375 9.9375 C6 11 6 11 7 12 C6.6875 15.5 6.6875 15.5 6 19 C5.34 19.33 4.68 19.66 4 20 C3.67 20.99 3.34 21.98 3 23 C0.32388302 22.63088042 -0.8431469 22.15144437 -2.8125 20.25 C-4.32177526 17.39032056 -3.8236287 16.04742618 -3 13 C-3.33 12.67 -3.66 12.34 -4 12 C-4.04092937 9.66702567 -4.04241723 7.33294775 -4 5 C-3.01 4.67 -2.02 4.34 -1 4 C-0.26676204 1.98491642 -0.26676204 1.98491642 0 0 Z " fill="#FBD860" transform="translate(46,6)"/>
<path d="M0 0 C3 0.125 3 0.125 4 1.125 C4.08631874 2.46767413 4.10706473 3.81474322 4.09765625 5.16015625 C4.09443359 5.96904297 4.09121094 6.77792969 4.08789062 7.61132812 C4.07951172 8.46146484 4.07113281 9.31160156 4.0625 10.1875 C4.05798828 11.04150391 4.05347656 11.89550781 4.04882812 12.77539062 C4.03700373 14.89195663 4.01906769 17.00848685 4 19.125 C-0.7734375 18.421875 -0.7734375 18.421875 -2.8125 15.75 C-4.41400502 10.8611952 -4.45248094 6.23281364 -4 1.125 C-3 0.125 -3 0.125 0 0 Z " fill="#44AB98" transform="translate(60,36.875)"/>
<path d="M0 0 C0 0.66 0 1.32 0 2 C-0.928125 2.680625 -1.85625 3.36125 -2.8125 4.0625 C-6.83151828 7.21690678 -7.80438718 11.18608523 -9 16 C-11.31 16 -13.62 16 -16 16 C-16.75 13.875 -16.75 13.875 -17 11 C-14.71593595 6.69541775 -12.10087026 3.63627374 -8 1 C-5.24580227 0.35195348 -2.81977309 0 0 0 Z " fill="#E84C63" transform="translate(57,96)"/>
<path d="M0 0 C8.58 0 17.16 0 26 0 C26 1.32 26 2.64 26 4 C17.42 4 8.84 4 0 4 C0 2.68 0 1.36 0 0 Z " fill="#F2B94B" transform="translate(79,108)"/>
<path d="M0 0 C8.58 0 17.16 0 26 0 C26 1.32 26 2.64 26 4 C17.42 4 8.84 4 0 4 C0 2.68 0 1.36 0 0 Z " fill="#F2B94B" transform="translate(79,100)"/>
<path d="M0 0 C8.58 0 17.16 0 26 0 C26 1.32 26 2.64 26 4 C17.42 4 8.84 4 0 4 C0 2.68 0 1.36 0 0 Z " fill="#F2B94B" transform="translate(79,92)"/>
<path d="M0 0 C8.58 0 17.16 0 26 0 C26 1.32 26 2.64 26 4 C17.42 4 8.84 4 0 4 C0 2.68 0 1.36 0 0 Z " fill="#F2B94B" transform="translate(79,84)"/>
<path d="M0 0 C2.64 0 5.28 0 8 0 C8 4.29 8 8.58 8 13 C5.36 13 2.72 13 0 13 C0 8.71 0 4.42 0 0 Z " fill="#F1606E" transform="translate(72,43)"/>
<path d="M0 0 C3.16115776 1.36983503 3.9927092 1.9890638 6 5 C5.71654315 9.46444532 5.41046992 13.14324813 3 17 C0 16 0 16 -1.1875 13.8125 C-2.6766424 8.65777631 -2.27459465 4.83351363 0 0 Z " fill="#FDCFC1" transform="translate(58,80)"/>
<path d="M0 0 C5.28 0 10.56 0 16 0 C16 1.65 16 3.3 16 5 C10.72 5 5.44 5 0 5 C0 3.35 0 1.7 0 0 Z " fill="#C0E1F0" transform="translate(96,51)"/>
<path d="M0 0 C5.94 0 11.88 0 18 0 C18 1.32 18 2.64 18 4 C12.06 4 6.12 4 0 4 C0 2.68 0 1.36 0 0 Z " fill="#F2B94B" transform="translate(79,76)"/>
<path d="M0 0 C1.75 0.0625 1.75 0.0625 4 1 C6.83257126 5.09149182 8.61838818 7.89829756 8 13 C5.6875 12.875 5.6875 12.875 3 12 C0.26935582 7.9511138 -0.34512904 4.83180659 0 0 Z " fill="#3B948A" transform="translate(56,43)"/>
<path d="M0 0 C2.64 0 5.28 0 8 0 C8 1.65 8 3.3 8 5 C5.36 5 2.72 5 0 5 C0 3.35 0 1.7 0 0 Z " fill="#38938B" transform="translate(88,51)"/>
<path d="M0 0 C2.64 0 5.28 0 8 0 C8 1.65 8 3.3 8 5 C5.36 5 2.72 5 0 5 C0 3.35 0 1.7 0 0 Z " fill="#C0E1F0" transform="translate(80,51)"/>
<path d="M0 0 C2.64 0 5.28 0 8 0 C8 1.65 8 3.3 8 5 C5.36 5 2.72 5 0 5 C0 3.35 0 1.7 0 0 Z " fill="#E8465E" transform="translate(72,51)"/>
<path d="M0 0 C2.64 0 5.28 0 8 0 C8 1.65 8 3.3 8 5 C5.36 5 2.72 5 0 5 C0 3.35 0 1.7 0 0 Z " fill="#C0E1F0" transform="translate(64,51)"/>
<path d="M0 0 C0.33 0 0.66 0 1 0 C1.12375 0.78375 1.2475 1.5675 1.375 2.375 C1.79117993 5.14057822 1.79117993 5.14057822 4 7 C3.01 7 2.02 7 1 7 C0.67 7.99 0.34 8.98 0 10 C-0.74926071 6.33694766 -1.2380014 3.57644848 0 0 Z " fill="#EFF4E7" transform="translate(41,13)"/>
</svg>
