<?xml version="1.0" encoding="UTF-8"?>
<svg version="1.1" xmlns="http://www.w3.org/2000/svg" width="96" height="96">
<path d="M0 0 C1.1653125 -0.00128906 2.330625 -0.00257813 3.53125 -0.00390625 C4.7584375 -0.00003906 5.985625 0.00382813 7.25 0.0078125 C9.09078125 0.00201172 9.09078125 0.00201172 10.96875 -0.00390625 C12.71671875 -0.00197266 12.71671875 -0.00197266 14.5 0 C15.57765625 0.00112793 16.6553125 0.00225586 17.765625 0.00341797 C20.25 0.1328125 20.25 0.1328125 21.25 1.1328125 C21.35029857 3.56138285 21.38618425 5.96152863 21.37939453 8.390625 C21.38114685 9.14994324 21.38289917 9.90926147 21.38470459 10.69158936 C21.3891233 13.21368666 21.38618506 15.73571443 21.3828125 18.2578125 C21.38348553 20.00276706 21.38445555 21.74772154 21.38571167 23.49267578 C21.38718867 27.15463145 21.38503403 30.81656278 21.38037109 34.47851562 C21.3746738 39.18325742 21.3779528 43.88794218 21.38394356 48.59268188 C21.38754912 52.19735141 21.38641061 55.80200732 21.38381577 59.40667725 C21.38314648 61.14190681 21.38397496 62.87713759 21.38629532 64.61236572 C21.38882177 67.03327737 21.38498138 69.45409536 21.37939453 71.875 C21.38141876 72.59919128 21.38344299 73.32338257 21.38552856 74.06951904 C21.36426266 79.01854984 21.36426266 79.01854984 20.25 80.1328125 C18.44490627 80.23180811 16.63593072 80.26080401 14.828125 80.26220703 C13.67022461 80.26535919 12.51232422 80.26851135 11.31933594 80.27175903 C9.42876465 80.26872269 9.42876465 80.26872269 7.5 80.265625 C6.21641602 80.26658173 4.93283203 80.26753845 3.61035156 80.26852417 C0.88996176 80.27000081 -1.83039525 80.26784769 -4.55078125 80.26318359 C-8.04484669 80.25748631 -11.53883533 80.26076549 -15.03289795 80.26675606 C-18.35527153 80.27123004 -21.67762423 80.26810135 -25 80.265625 C-26.26038086 80.26764923 -27.52076172 80.26967346 -28.81933594 80.27175903 C-29.97723633 80.26860687 -31.13513672 80.26545471 -32.328125 80.26220703 C-33.35325195 80.26141144 -34.37837891 80.26061584 -35.43457031 80.25979614 C-37.75 80.1328125 -37.75 80.1328125 -38.75 79.1328125 C-38.85103255 76.33287653 -38.88970088 73.55812606 -38.8828125 70.7578125 C-38.88376923 69.91814941 -38.88472595 69.07848633 -38.88571167 68.21337891 C-38.88639348 66.43456955 -38.88453917 64.65575773 -38.88037109 62.87695312 C-38.87502283 60.14447474 -38.88031605 57.41216074 -38.88671875 54.6796875 C-38.88605797 52.9557288 -38.88477681 51.23177021 -38.8828125 49.5078125 C-38.88483673 48.68490723 -38.88686096 47.86200195 -38.88894653 47.01416016 C-38.86495054 41.24776304 -38.86495054 41.24776304 -37.75 40.1328125 C-35.21950598 40.05967683 -32.71695163 40.04033723 -30.1875 40.0703125 C-29.47658203 40.07482422 -28.76566406 40.07933594 -28.03320312 40.08398438 C-26.27209987 40.09580386 -24.51103964 40.11373987 -22.75 40.1328125 C-22.75523682 39.56248291 -22.76047363 38.99215332 -22.76586914 38.40454102 C-22.78658221 35.83480927 -22.7996419 33.26509503 -22.8125 30.6953125 C-22.82087891 29.79748047 -22.82925781 28.89964844 -22.83789062 27.97460938 C-22.84111328 27.12060547 -22.84433594 26.26660156 -22.84765625 25.38671875 C-22.85289307 24.59595947 -22.85812988 23.8052002 -22.86352539 22.99047852 C-22.75 21.1328125 -22.75 21.1328125 -21.75 20.1328125 C-19.21950598 20.05967683 -16.71695163 20.04033723 -14.1875 20.0703125 C-13.47658203 20.07482422 -12.76566406 20.07933594 -12.03320312 20.08398438 C-10.27209987 20.09580386 -8.51103964 20.11373987 -6.75 20.1328125 C-6.75785522 19.27731812 -6.75785522 19.27731812 -6.76586914 18.40454102 C-6.78658221 15.83480927 -6.7996419 13.26509503 -6.8125 10.6953125 C-6.82087891 9.79748047 -6.82925781 8.89964844 -6.83789062 7.97460938 C-6.84272461 6.69360352 -6.84272461 6.69360352 -6.84765625 5.38671875 C-6.85551147 4.20057983 -6.85551147 4.20057983 -6.86352539 2.99047852 C-6.61389554 -1.09432472 -3.37143569 0.00352872 0 0 Z " fill="#F0BC39" transform="translate(56.75,7.8671875)"/>
<path d="M0 0 C1.1653125 -0.00128906 2.330625 -0.00257813 3.53125 -0.00390625 C4.7584375 -0.00003906 5.985625 0.00382813 7.25 0.0078125 C9.09078125 0.00201172 9.09078125 0.00201172 10.96875 -0.00390625 C12.71671875 -0.00197266 12.71671875 -0.00197266 14.5 0 C15.57765625 0.00112793 16.6553125 0.00225586 17.765625 0.00341797 C20.25 0.1328125 20.25 0.1328125 21.25 1.1328125 C21.35029857 3.56138285 21.38618425 5.96152863 21.37939453 8.390625 C21.38114685 9.14994324 21.38289917 9.90926147 21.38470459 10.69158936 C21.3891233 13.21368666 21.38618506 15.73571443 21.3828125 18.2578125 C21.38348553 20.00276706 21.38445555 21.74772154 21.38571167 23.49267578 C21.38718867 27.15463145 21.38503403 30.81656278 21.38037109 34.47851562 C21.3746738 39.18325742 21.3779528 43.88794218 21.38394356 48.59268188 C21.38754912 52.19735141 21.38641061 55.80200732 21.38381577 59.40667725 C21.38314648 61.14190681 21.38397496 62.87713759 21.38629532 64.61236572 C21.38882177 67.03327737 21.38498138 69.45409536 21.37939453 71.875 C21.38141876 72.59919128 21.38344299 73.32338257 21.38552856 74.06951904 C21.36426266 79.01854984 21.36426266 79.01854984 20.25 80.1328125 C18.83429877 80.21932861 17.414405 80.23986154 15.99609375 80.23046875 C15.14208984 80.22724609 14.28808594 80.22402344 13.40820312 80.22070312 C12.51037109 80.21232422 11.61253906 80.20394531 10.6875 80.1953125 C9.78580078 80.19080078 8.88410156 80.18628906 7.95507812 80.18164062 C5.71998686 80.16981475 3.48502563 80.1533347 1.25 80.1328125 C1.73764832 79.74864166 2.22529663 79.36447083 2.72772217 78.96865845 C4.78807717 76.4838989 4.61851756 74.96272465 4.60644531 71.75927734 C4.60944641 70.66159027 4.61244751 69.5639032 4.61553955 68.43295288 C4.60319275 67.24851593 4.59084595 66.06407898 4.578125 64.84375 C4.57625183 63.62958405 4.57437866 62.41541809 4.57244873 61.16445923 C4.5657227 58.59724177 4.55179743 56.03003466 4.53125 53.46289062 C4.50007126 49.51683109 4.49027802 45.57117053 4.484375 41.625 C4.47520643 39.13541176 4.46483112 36.6458276 4.453125 34.15625 C4.44887512 32.96776459 4.44462524 31.77927917 4.44024658 30.55477905 C4.43063904 29.4633963 4.42103149 28.37201355 4.41113281 27.24755859 C4.40089081 25.7988588 4.40089081 25.7988588 4.39044189 24.32089233 C4.49330082 22.15599256 4.49330082 22.15599256 3.25 21.1328125 C1.56816052 20.89994242 -0.1212416 20.72017084 -1.8125 20.5703125 C-2.73160156 20.48652344 -3.65070312 20.40273438 -4.59765625 20.31640625 C-5.66306641 20.22552734 -5.66306641 20.22552734 -6.75 20.1328125 C-6.77888514 16.98699827 -6.79675923 13.84121781 -6.8125 10.6953125 C-6.82087891 9.79748047 -6.82925781 8.89964844 -6.83789062 7.97460938 C-6.84111328 7.12060547 -6.84433594 6.26660156 -6.84765625 5.38671875 C-6.85551147 4.20057983 -6.85551147 4.20057983 -6.86352539 2.99047852 C-6.61389554 -1.09432472 -3.37143569 0.00352872 0 0 Z " fill="#D68C14" transform="translate(56.75,7.8671875)"/>
<path d="M0 0 C1.17111328 -0.01224609 2.34222656 -0.02449219 3.54882812 -0.03710938 C4.66580078 -0.03904297 5.78277344 -0.04097656 6.93359375 -0.04296875 C7.96411865 -0.04707764 8.99464355 -0.05118652 10.05639648 -0.05541992 C12.5625 0.1875 12.5625 0.1875 14.5625 2.1875 C14.76220635 4.80534875 14.84233823 7.31508907 14.828125 9.93359375 C14.83003845 10.70051041 14.8319519 11.46742706 14.83392334 12.25758362 C14.83528524 13.8807915 14.83158845 15.50401027 14.82324219 17.12719727 C14.81255703 19.6117403 14.82312942 22.09555787 14.8359375 24.58007812 C14.83461562 26.1562516 14.83205263 27.73242462 14.828125 29.30859375 C14.83217346 30.05241806 14.83622192 30.79624237 14.84039307 31.56260681 C14.80632132 35.31357425 14.69641803 36.98662296 12.5625 40.1875 C10.05639648 40.54394531 10.05639648 40.54394531 6.93359375 40.515625 C5.81662109 40.51046875 4.69964844 40.5053125 3.54882812 40.5 C2.37771484 40.479375 1.20660156 40.45875 0 40.4375 C-1.17498047 40.43234375 -2.34996094 40.4271875 -3.56054688 40.421875 C-12.28375547 40.34124453 -12.28375547 40.34124453 -13.4375 39.1875 C-13.53853255 36.38756403 -13.57720088 33.61281356 -13.5703125 30.8125 C-13.57126923 29.97283691 -13.57222595 29.13317383 -13.57321167 28.26806641 C-13.57389348 26.48925705 -13.57203917 24.71044523 -13.56787109 22.93164062 C-13.56252283 20.19916224 -13.56781605 17.46684824 -13.57421875 14.734375 C-13.57355797 13.0104163 -13.57227681 11.28645771 -13.5703125 9.5625 C-13.57233673 8.73959473 -13.57436096 7.91668945 -13.57644653 7.06884766 C-13.53656119 -2.51586857 -8.31183784 0.00455943 0 0 Z " fill="#FEDB44" transform="translate(31.4375,47.8125)"/>
</svg>
