<svg width="128" height="128" version="1.1" xmlns="http://www.w3.org/2000/svg" desc="Created with imagetracer.js version 1.2.6" ><path fill="rgb(222,225,225)" stroke="rgb(222,225,225)" stroke-width="1" opacity="1" d="M 14.5 17 Q 18.5 16.5 19 19.5 L 18.5 23 L 16.5 18 Q 13.5 18.5 14.5 17 Z " /><path fill="rgb(222,225,225)" stroke="rgb(222,225,225)" stroke-width="1" opacity="1" d="M 28.5 17 Q 32.5 16.5 33 19.5 L 32.5 21 L 30.5 18 Q 27.5 18.5 28.5 17 Z " /><path fill="rgb(222,225,225)" stroke="rgb(222,225,225)" stroke-width="1" opacity="1" d="M 56.5 17 L 114 17.5 L 56.5 18 L 56.5 17 Z " /><path fill="rgb(222,225,225)" stroke="rgb(222,225,225)" stroke-width="1" opacity="1" d="M 12.5 18 L 12 19.5 Q 11.3 23.8 14 24.5 L 11 22.5 Q 10.3 18.8 12.5 18 Z " /><path fill="rgb(222,225,225)" stroke="rgb(222,225,225)" stroke-width="1" opacity="1" d="M 40.5 18 L 40 19.5 Q 39.3 23.8 42 24.5 L 39 22.5 Q 38.3 18.8 40.5 18 Z " /><path fill="rgb(222,225,225)" stroke="rgb(222,225,225)" stroke-width="1" opacity="1" d="M 45.5 18 Q 47.8 18.8 47 22.5 L 44 24.5 Q 46.8 23.8 46 19.5 L 45.5 18 Z " /><path fill="rgb(222,225,225)" stroke="rgb(222,225,225)" stroke-width="1" opacity="1" d="M 25.5 20 L 28 24.5 L 25 22.5 L 25.5 20 Z " /><path fill="rgb(222,225,225)" stroke="rgb(222,225,225)" stroke-width="1" opacity="1" d="M 53.5 20 L 56 24.5 L 53 22.5 L 53.5 20 Z " /><path fill="rgb(222,225,225)" stroke="rgb(222,225,225)" stroke-width="1" opacity="1" d="M 116.5 20 L 117 22.5 L 114 24.5 L 116.5 20 Z " /><path fill="rgb(222,225,225)" stroke="rgb(222,225,225)" stroke-width="1" opacity="1" d="M 62.5 37 L 65 37.5 L 62.5 38 L 62.5 37 Z " /><path fill="rgb(222,225,225)" stroke="rgb(222,225,225)" stroke-width="1" opacity="1" d="M 60.5 38 L 59.5 40 L 60.5 38 Z " /><path fill="rgb(222,225,225)" stroke="rgb(222,225,225)" stroke-width="1" opacity="1" d="M 113.5 42 L 114 45 L 96 44.5 L 113 44 L 113.5 42 Z " /><path fill="rgb(222,225,225)" stroke="rgb(222,225,225)" stroke-width="1" opacity="1" d="M 79.5 49 L 80.5 51 L 79.5 49 Z " /><path fill="rgb(222,225,225)" stroke="rgb(222,225,225)" stroke-width="1" opacity="1" d="M 88.5 49 L 87.5 51 L 88.5 49 Z " /><path fill="rgb(222,225,225)" stroke="rgb(222,225,225)" stroke-width="1" opacity="1" d="M 96.5 49 L 109 49.5 L 96.5 50 L 96.5 49 Z " /><path fill="rgb(222,225,225)" stroke="rgb(222,225,225)" stroke-width="1" opacity="1" d="M 82.5 51 L 86 51.5 L 82.5 52 L 82.5 51 Z " /><path fill="rgb(222,225,225)" stroke="rgb(222,225,225)" stroke-width="1" opacity="1" d="M 52.5 53 L 51.5 55 L 52.5 53 Z " /><path fill="rgb(222,225,225)" stroke="rgb(222,225,225)" stroke-width="1" opacity="1" d="M 58.5 53 L 59 76.5 L 58 76.5 L 58.5 53 Z " /><path fill="rgb(222,225,225)" stroke="rgb(222,225,225)" stroke-width="1" opacity="1" d="M 68.5 53 L 69 76.5 L 68 76.5 L 68.5 53 Z " /><path fill="rgb(222,225,225)" stroke="rgb(222,225,225)" stroke-width="1" opacity="1" d="M 14.5 55 L 15 57.5 L 14 57.5 L 14.5 55 Z " /><path fill="rgb(222,225,225)" stroke="rgb(222,225,225)" stroke-width="1" opacity="1" d="M 23.5 55 L 24 57.5 L 23 57.5 L 23.5 55 Z " /><path fill="rgb(222,225,225)" stroke="rgb(222,225,225)" stroke-width="1" opacity="1" d="M 47.5 55 L 50 55.5 L 47.5 56 L 47.5 55 Z " /><path fill="rgb(222,225,225)" stroke="rgb(222,225,225)" stroke-width="1" opacity="1" d="M 15.5 59 L 16.5 61 L 15.5 59 Z " /><path fill="rgb(222,225,225)" stroke="rgb(222,225,225)" stroke-width="1" opacity="1" d="M 87.5 59 L 88.5 61 L 87.5 59 Z " /><path fill="rgb(222,225,225)" stroke="rgb(222,225,225)" stroke-width="1" opacity="1" d="M 96.5 60 L 113.5 60 L 114 62.5 L 113 62.5 L 112.5 61 L 96.5 61 L 96.5 60 Z " /><path fill="rgb(222,225,225)" stroke="rgb(222,225,225)" stroke-width="1" opacity="1" d="M 53.5 64 L 54 76.5 L 53 76.5 L 53.5 64 Z " /><path fill="rgb(222,225,225)" stroke="rgb(222,225,225)" stroke-width="1" opacity="1" d="M 88.5 67 L 87.5 69 L 88.5 67 Z " /><path fill="rgb(222,225,225)" stroke="rgb(222,225,225)" stroke-width="1" opacity="1" d="M 96.5 67 L 109 67.5 L 96.5 68 L 96.5 67 Z " /><path fill="rgb(222,225,225)" stroke="rgb(222,225,225)" stroke-width="1" opacity="1" d="M 82.5 76 L 86 76.5 L 82.5 77 L 82.5 76 Z " /><path fill="rgb(222,225,225)" stroke="rgb(222,225,225)" stroke-width="1" opacity="1" d="M 80.5 77 L 79.5 79 L 80.5 77 Z " /><path fill="rgb(222,225,225)" stroke="rgb(222,225,225)" stroke-width="1" opacity="1" d="M 87.5 77 L 88.5 79 L 87.5 77 Z " /><path fill="rgb(222,225,225)" stroke="rgb(222,225,225)" stroke-width="1" opacity="1" d="M 96.5 78 L 113.5 78 L 114 80.5 L 113 80.5 L 112.5 79 L 96.5 79 L 96.5 78 Z " /><path fill="rgb(222,225,225)" stroke="rgb(222,225,225)" stroke-width="1" opacity="1" d="M 96.5 83 L 109 83.5 L 96.5 84 L 96.5 83 Z " /><path fill="rgb(222,225,225)" stroke="rgb(222,225,225)" stroke-width="1" opacity="1" d="M 96.5 85 L 109 85.5 L 96.5 86 L 96.5 85 Z " /><path fill="rgb(222,225,225)" stroke="rgb(222,225,225)" stroke-width="1" opacity="1" d="M 21.5 88 Q 29.5 86.5 32 90.5 L 24.5 98 L 23 96.5 L 19 89 L 21.5 88 Z " /><path fill="rgb(222,225,225)" stroke="rgb(222,225,225)" stroke-width="1" opacity="1" d="M 59.5 89 L 61.5 92 L 59.5 89 Z " /><path fill="rgb(222,225,225)" stroke="rgb(222,225,225)" stroke-width="1" opacity="1" d="M 17.5 90 L 16.5 92 L 17.5 90 Z " /><path fill="rgb(222,225,225)" stroke="rgb(222,225,225)" stroke-width="1" opacity="1" d="M 14.5 95 L 15 100.5 L 14 100.5 L 14.5 95 Z " /><path fill="rgb(222,225,225)" stroke="rgb(222,225,225)" stroke-width="1" opacity="1" d="M 113.5 97 L 114 100 L 96 99.5 L 113 99 L 113.5 97 Z " /><path fill="rgb(222,225,225)" stroke="rgb(222,225,225)" stroke-width="1" opacity="1" d="M 63.5 99 L 64 101.5 L 63 101.5 L 63.5 99 Z " /><path fill="rgb(222,225,225)" stroke="rgb(222,225,225)" stroke-width="1" opacity="1" d="M 49.5 100 L 50.5 102 L 49.5 100 Z " /><path fill="rgb(222,225,225)" stroke="rgb(222,225,225)" stroke-width="1" opacity="1" d="M 96.5 101 L 109 101.5 L 96.5 102 L 96.5 101 Z " /><path fill="rgb(222,225,225)" stroke="rgb(222,225,225)" stroke-width="1" opacity="1" d="M 15.5 102 L 20 107.5 L 15 103.5 L 15.5 102 Z " /><path fill="rgb(222,225,225)" stroke="rgb(222,225,225)" stroke-width="1" opacity="1" d="M 52.5 102 L 55 102.5 L 54 108 L 57 108.5 L 53 109 L 52.5 102 Z " /><path fill="rgb(222,225,225)" stroke="rgb(222,225,225)" stroke-width="1" opacity="1" d="M 62.5 103 L 61.5 105 L 62.5 103 Z " /><path fill="rgb(222,225,225)" stroke="rgb(222,225,225)" stroke-width="1" opacity="1" d="M 33.5 104 L 31.5 107 L 33.5 104 Z " /><path fill="rgb(222,225,225)" stroke="rgb(222,225,225)" stroke-width="1" opacity="1" d="M 59.5 106 L 58.5 108 L 59.5 106 Z " /><path fill="rgb(222,225,225)" stroke="rgb(222,225,225)" stroke-width="1" opacity="1" d="M 21.5 108 L 28 108.5 L 21.5 109 L 21.5 108 Z " /><path fill="rgb(0,0,0)" stroke="rgb(0,0,0)" stroke-width="1" opacity="0" d="M 0 0 L 128 0 L 128 128 L 0 128 L 0 0 Z M 12 10 L 9 11 L 2 20 L 2 109 L 4 113 L 12 118 L 117 118 L 120 117 L 126 109 L 126 20 L 124 16 L 118 10 L 12 10 Z " /><path fill="rgb(244,244,244)" stroke="rgb(244,244,244)" stroke-width="1" opacity="0.5764705882352941" d="M 11.5 10 L 117.5 10 L 124 15.5 L 126 19.5 L 126 108.5 L 119.5 117 L 118 116.5 L 123 112.5 L 125 108.5 L 125 19.5 L 119.5 12 L 117.5 11 L 11.5 11 L 11.5 10 Z " /><path fill="rgb(244,244,244)" stroke="rgb(244,244,244)" stroke-width="1" opacity="0.5764705882352941" d="M 8.5 11 L 10 11.5 L 5 15.5 L 3 19.5 L 3 108.5 L 8.5 116 L 10 116.5 L 8.5 117 L 2 108.5 L 2 19.5 L 8.5 11 Z " /><path fill="rgb(244,244,244)" stroke="rgb(244,244,244)" stroke-width="1" opacity="0.5764705882352941" d="M 11.5 117 L 117 117.5 L 11.5 118 L 11.5 117 Z " /><path fill="rgb(243,243,243)" stroke="rgb(243,243,243)" stroke-width="1" opacity="0.996078431372549" d="M 11.5 23 L 12.5 25 L 11.5 23 Z " /><path fill="rgb(243,243,243)" stroke="rgb(243,243,243)" stroke-width="1" opacity="0.996078431372549" d="M 18.5 23 L 17.5 25 L 18.5 23 Z " /><path fill="rgb(243,243,243)" stroke="rgb(243,243,243)" stroke-width="1" opacity="0.996078431372549" d="M 25.5 23 L 26.5 25 L 25.5 23 Z " /><path fill="rgb(243,243,243)" stroke="rgb(243,243,243)" stroke-width="1" opacity="0.996078431372549" d="M 32.5 23 L 31.5 25 L 32.5 23 Z " /><path fill="rgb(243,243,243)" stroke="rgb(243,243,243)" stroke-width="1" opacity="0.996078431372549" d="M 39.5 23 L 40.5 25 L 39.5 23 Z " /><path fill="rgb(243,243,243)" stroke="rgb(243,243,243)" stroke-width="1" opacity="0.996078431372549" d="M 46.5 23 L 45.5 25 L 46.5 23 Z " /><path fill="rgb(243,243,243)" stroke="rgb(243,243,243)" stroke-width="1" opacity="0.996078431372549" d="M 53.5 23 L 54.5 25 L 53.5 23 Z " /><path fill="rgb(243,243,243)" stroke="rgb(243,243,243)" stroke-width="1" opacity="0.996078431372549" d="M 116.5 23 L 115.5 25 L 116.5 23 Z " /><path fill="rgb(243,243,243)" stroke="rgb(243,243,243)" stroke-width="1" opacity="0.996078431372549" d="M 56.5 25 L 114 25.5 L 56.5 26 L 56.5 25 Z " /><path fill="rgb(243,243,243)" stroke="rgb(243,243,243)" stroke-width="1" opacity="0.996078431372549" d="M 66.5 38 L 67.5 40 L 66.5 38 Z " /><path fill="rgb(243,243,243)" stroke="rgb(243,243,243)" stroke-width="1" opacity="0.996078431372549" d="M 96.5 41 L 114 41.5 L 96.5 42 L 96.5 41 Z " /><path fill="rgb(243,243,243)" stroke="rgb(243,243,243)" stroke-width="1" opacity="0.996078431372549" d="M 36.5 43 L 37.5 45 L 36.5 43 Z " /><path fill="rgb(243,243,243)" stroke="rgb(243,243,243)" stroke-width="1" opacity="0.996078431372549" d="M 47.5 46 L 50 46.5 L 47.5 47 L 47.5 46 Z " /><path fill="rgb(243,243,243)" stroke="rgb(243,243,243)" stroke-width="1" opacity="0.996078431372549" d="M 96.5 46 L 108.5 46 L 110 47.5 L 109.5 50 L 109 47 L 96.5 47 L 96.5 46 Z " /><path fill="rgb(243,243,243)" stroke="rgb(243,243,243)" stroke-width="1" opacity="0.996078431372549" d="M 37.5 50 L 36.5 52 L 37.5 50 Z " /><path fill="rgb(243,243,243)" stroke="rgb(243,243,243)" stroke-width="1" opacity="0.996078431372549" d="M 59.5 52 L 68 52.5 L 59.5 53 L 59.5 52 Z " /><path fill="rgb(243,243,243)" stroke="rgb(243,243,243)" stroke-width="1" opacity="0.996078431372549" d="M 109.5 65 L 110 67.5 L 109 67.5 L 109.5 65 Z " /><path fill="rgb(243,243,243)" stroke="rgb(243,243,243)" stroke-width="1" opacity="0.996078431372549" d="M 96.5 81 L 114 81.5 L 96.5 82 L 96.5 81 Z " /><path fill="rgb(243,243,243)" stroke="rgb(243,243,243)" stroke-width="1" opacity="0.996078431372549" d="M 109.5 83 L 110 85.5 L 109 85.5 L 109.5 83 Z " /><path fill="rgb(243,243,243)" stroke="rgb(243,243,243)" stroke-width="1" opacity="0.996078431372549" d="M 23.5 87 L 27 87.5 L 23.5 88 L 23.5 87 Z " /><path fill="rgb(243,243,243)" stroke="rgb(243,243,243)" stroke-width="1" opacity="0.996078431372549" d="M 31.5 89 L 33.5 92 L 31.5 89 Z " /><path fill="rgb(243,243,243)" stroke="rgb(243,243,243)" stroke-width="1" opacity="0.996078431372549" d="M 87.5 95 L 88.5 97 L 87.5 95 Z " /><path fill="rgb(243,243,243)" stroke="rgb(243,243,243)" stroke-width="1" opacity="0.996078431372549" d="M 96.5 96 L 114 96.5 L 96.5 97 L 96.5 96 Z " /><path fill="rgb(243,243,243)" stroke="rgb(243,243,243)" stroke-width="1" opacity="0.996078431372549" d="M 56.5 100 L 55.5 102 L 56.5 100 Z " /><path fill="rgb(243,243,243)" stroke="rgb(243,243,243)" stroke-width="1" opacity="0.996078431372549" d="M 109.5 101 L 110 103.5 L 109 103.5 L 109.5 101 Z " /><path fill="rgb(243,243,243)" stroke="rgb(243,243,243)" stroke-width="1" opacity="0.996078431372549" d="M 79.5 104 L 80.5 106 L 79.5 104 Z " /><path fill="rgb(243,243,243)" stroke="rgb(243,243,243)" stroke-width="1" opacity="0.996078431372549" d="M 16.5 105 L 17.5 107 L 16.5 105 Z " /><path fill="rgb(243,243,243)" stroke="rgb(243,243,243)" stroke-width="1" opacity="0.996078431372549" d="M 61.5 105 L 59.5 108 L 61.5 105 Z " /><path fill="rgb(116,179,254)" stroke="rgb(116,179,254)" stroke-width="1" opacity="1" d="M 61.5 38 Q 66 37 67 39.5 L 68 42.5 L 65.5 46 Q 60 47 59 43.5 Q 58.3 38.8 61.5 38 Z " /><path fill="rgb(116,179,254)" stroke="rgb(116,179,254)" stroke-width="1" opacity="1" d="M 33.5 43 L 38 45.5 Q 38.6 50.6 35.5 52 Q 29.8 52.8 29 48.5 L 31.5 44 L 33.5 43 Z " /><path fill="rgb(116,179,254)" stroke="rgb(116,179,254)" stroke-width="1" opacity="1" d="M 46.5 47 Q 51 46 52 48.5 L 53 52.5 Q 52 56 46.5 55 L 44 51.5 L 46.5 47 Z " /><path fill="rgb(116,179,254)" stroke="rgb(116,179,254)" stroke-width="1" opacity="1" d="M 18.5 52 L 22 53 L 23 58.5 Q 22.3 61.8 17.5 61 Q 14 60 15 54.5 L 18.5 52 Z " /><path fill="rgb(116,179,254)" stroke="rgb(116,179,254)" stroke-width="1" opacity="1" d="M 81.5 95 Q 87.8 93.8 89 97.5 L 90 100.5 L 87.5 105 L 82.5 106 L 79 103.5 L 78 99.5 L 81.5 95 Z " /><path fill="rgb(244,244,244)" stroke="rgb(244,244,244)" stroke-width="1" opacity="1" d="M 10.5 11 L 117.5 11 L 123 15.5 L 125 19.5 L 125 108.5 L 119.5 116 L 117.5 117 L 10.5 117 L 5 112.5 L 3 108.5 L 3 19.5 L 8.5 12 L 10.5 11 Z M 14 17 Q 10 18 11 24 L 15 26 L 18 25 Q 20 23 19 18 L 14 17 Z M 28 17 Q 24 18 25 24 L 29 26 L 32 25 Q 34 23 33 18 L 28 17 Z M 42 17 Q 38 18 39 24 L 43 26 L 46 25 Q 48 24 47 20 Q 46 16 42 17 Z M 56 17 Q 52 18 53 24 L 57 26 L 114 26 L 116 25 Q 118 24 117 20 L 115 17 L 56 17 Z M 62 37 L 58 43 L 52 47 L 50 46 L 45 48 L 40 47 L 38 45 Q 37 42 32 43 Q 28 43 29 48 Q 26 53 17 52 Q 13 53 14 59 Q 15 62 22 61 L 24 55 L 30 52 Q 36 54 38 51 L 43 52 Q 45 51 44 54 Q 45 57 51 56 Q 54 55 53 50 L 60 46 L 62 47 L 67 46 L 68 40 Q 67 36 62 37 Z M 82 40 L 79 41 L 78 44 Q 77 51 82 52 L 88 51 Q 91 50 90 44 Q 89 39 82 40 Z M 96 41 L 97 45 L 114 45 L 114 41 L 96 41 Z M 96 46 L 96 50 L 110 50 L 110 48 L 109 46 L 96 46 Z M 60 52 L 58 54 L 58 78 L 69 78 L 69 54 L 68 52 L 60 52 Z M 82 58 Q 77 59 78 67 Q 79 71 87 70 Q 91 69 90 62 Q 89 57 82 58 Z M 29 59 L 29 78 L 39 78 L 39 59 L 29 59 Z M 96 60 L 97 63 L 114 63 L 114 60 L 96 60 Z M 44 64 L 44 78 L 54 78 L 54 64 L 44 64 Z M 96 65 L 97 68 L 110 68 L 110 65 L 96 65 Z M 14 68 L 14 78 L 24 78 L 24 68 L 14 68 Z M 82 76 L 78 80 Q 77 85 79 87 Q 81 89 87 88 Q 91 87 90 80 Q 89 75 82 76 Z M 96 78 L 97 82 L 114 82 L 114 78 L 96 78 Z M 96 83 L 97 86 L 110 86 L 110 83 L 96 83 Z M 24 87 L 19 89 L 14 95 Q 13 102 16 106 L 22 109 L 31 108 L 36 101 Q 37 94 34 92 Q 31 87 24 87 Z M 52 87 L 47 89 L 42 96 L 42 102 L 45 107 L 50 109 Q 56 110 60 108 L 64 102 L 63 93 Q 60 87 52 87 Z M 83 94 L 78 98 Q 77 104 81 106 Q 87 107 89 105 L 90 103 L 89 97 Q 88 93 83 94 Z M 96 96 L 97 100 L 114 100 L 114 96 L 96 96 Z M 96 101 L 97 104 L 110 104 L 110 101 L 96 101 Z " /><path fill="rgb(244,244,244)" stroke="rgb(244,244,244)" stroke-width="1" opacity="1" d="M 53.5 94 L 56 95 L 57 99.5 Q 56.3 102.8 51.5 102 Q 48.5 101.5 49 97.5 L 53.5 94 Z " /><path fill="rgb(252,133,104)" stroke="rgb(252,133,104)" stroke-width="1" opacity="1" d="M 83.5 40 L 89 43.5 Q 90.3 49.8 86.5 51 Q 80.3 52.3 79 48.5 Q 77.8 42.3 81.5 41 L 83.5 40 Z " /><path fill="rgb(252,133,104)" stroke="rgb(252,133,104)" stroke-width="1" opacity="1" d="M 57.5 44 Q 60.1 43.3 59 46 L 53.5 49 L 53 47.5 L 57.5 44 Z " /><path fill="rgb(252,133,104)" stroke="rgb(252,133,104)" stroke-width="1" opacity="1" d="M 38 48 L 44 49 Q 45.1 51.7 42.5 51 L 38 50 L 38 48 Z " /><path fill="rgb(252,133,104)" stroke="rgb(252,133,104)" stroke-width="1" opacity="1" d="M 27.5 50 L 30 50.5 L 23.5 55 L 23 53.5 L 27.5 50 Z " /><path fill="rgb(252,133,104)" stroke="rgb(252,133,104)" stroke-width="1" opacity="1" d="M 59 53 L 68 53 L 68 78 L 59 78 L 59 53 Z " /><path fill="rgb(252,133,104)" stroke="rgb(252,133,104)" stroke-width="1" opacity="1" d="M 44 65 L 53 65 L 53 77 L 44 77 L 44 65 Z " /><path fill="rgb(252,133,104)" stroke="rgb(252,133,104)" stroke-width="1" opacity="1" d="M 15 69 L 23 69 L 23 77 L 15 77 L 15 69 Z " /><path fill="rgb(252,133,104)" stroke="rgb(252,133,104)" stroke-width="1" opacity="1" d="M 81.5 77 Q 87.8 75.8 89 79.5 Q 90.3 85.8 86.5 87 Q 80.3 88.3 79 84.5 Q 77.8 78.3 81.5 77 Z " /><path fill="rgb(252,133,104)" stroke="rgb(252,133,104)" stroke-width="1" opacity="1" d="M 53 88 Q 60.3 87.9 63 93.5 L 64 98 L 57.5 98 L 57 96.5 L 53 94 L 53 88 Z " /><path fill="rgb(252,133,104)" stroke="rgb(252,133,104)" stroke-width="1" opacity="1" d="M 32.5 91 Q 36.5 93.8 35 101 L 26 99 L 32.5 91 Z " /><path fill="rgb(252,133,104)" stroke="rgb(252,133,104)" stroke-width="1" opacity="1" d="M 43 99 L 48.5 99 L 49 100.5 L 53 103 L 53 108 L 48.5 108 Q 43.3 105.4 43 99 Z " /><path fill="rgb(199,197,162)" stroke="rgb(199,197,162)" stroke-width="1" opacity="1" d="M 13.5 18 Q 17.3 17.3 18 19.5 Q 19.9 24.9 16.5 24 L 14.5 25 Q 11.3 24.3 12 19.5 L 13.5 18 Z " /><path fill="rgb(199,197,162)" stroke="rgb(199,197,162)" stroke-width="1" opacity="1" d="M 27.5 18 Q 31.3 17.3 32 19.5 L 33 21.5 L 32 24 L 28.5 25 Q 25.3 24.3 26 19.5 L 27.5 18 Z " /><path fill="rgb(199,197,162)" stroke="rgb(199,197,162)" stroke-width="1" opacity="1" d="M 41.5 18 Q 45.3 17.3 46 19.5 Q 46.8 24.3 43.5 25 L 40 22.5 Q 39.3 18.8 41.5 18 Z " /><path fill="rgb(199,197,162)" stroke="rgb(199,197,162)" stroke-width="1" opacity="1" d="M 55.5 18 L 114.5 18 L 116 19.5 Q 116.8 24.3 113.5 25 L 56.5 25 L 54 22.5 Q 53.3 18.8 55.5 18 Z " /><path fill="rgb(199,197,162)" stroke="rgb(199,197,162)" stroke-width="1" opacity="1" d="M 80.5 41 L 79.5 43 L 80.5 41 Z " /><path fill="rgb(199,197,162)" stroke="rgb(199,197,162)" stroke-width="1" opacity="1" d="M 87.5 41 L 88.5 43 L 87.5 41 Z " /><path fill="rgb(199,197,162)" stroke="rgb(199,197,162)" stroke-width="1" opacity="1" d="M 96 42 L 112.5 42 L 113 44 L 96.5 44 L 96 42 Z " /><path fill="rgb(199,197,162)" stroke="rgb(199,197,162)" stroke-width="1" opacity="1" d="M 78.5 44 L 79 46.5 L 78 46.5 L 78.5 44 Z " /><path fill="rgb(199,197,162)" stroke="rgb(199,197,162)" stroke-width="1" opacity="1" d="M 96 47 L 108.5 47 L 109 49 L 96.5 49 L 96 47 Z " /><path fill="rgb(199,197,162)" stroke="rgb(199,197,162)" stroke-width="1" opacity="1" d="M 82.5 58 L 85.5 58 L 90 62.5 L 90 65.5 L 85.5 70 Q 80.4 70.6 79 67.5 L 78 62.5 L 80.5 59 L 82.5 58 Z " /><path fill="rgb(199,197,162)" stroke="rgb(199,197,162)" stroke-width="1" opacity="1" d="M 29 59 L 37.5 59 L 39 60.5 L 39 76.5 L 37.5 78 L 29 78 L 29 59 Z " /><path fill="rgb(199,197,162)" stroke="rgb(199,197,162)" stroke-width="1" opacity="1" d="M 96 61 L 112.5 61 L 113 63 L 96.5 63 L 96 61 Z " /><path fill="rgb(199,197,162)" stroke="rgb(199,197,162)" stroke-width="1" opacity="1" d="M 44.5 64 L 53 64.5 L 44.5 65 L 44.5 64 Z " /><path fill="rgb(199,197,162)" stroke="rgb(199,197,162)" stroke-width="1" opacity="1" d="M 96 65 L 108.5 65 L 109 67 L 96.5 67 L 96 65 Z " /><path fill="rgb(199,197,162)" stroke="rgb(199,197,162)" stroke-width="1" opacity="1" d="M 15.5 68 Q 22.3 66.3 24 69.5 Q 25.8 76.3 22.5 78 Q 15.7 79.8 14 76.5 Q 12.3 69.8 15.5 68 Z M 15 69 L 15 77 L 23 77 L 23 69 L 15 69 Z " /><path fill="rgb(199,197,162)" stroke="rgb(199,197,162)" stroke-width="1" opacity="1" d="M 44.5 77 L 53 77.5 L 44.5 78 L 44.5 77 Z " /><path fill="rgb(199,197,162)" stroke="rgb(199,197,162)" stroke-width="1" opacity="1" d="M 96 79 L 112.5 79 L 113 81 L 96.5 81 L 96 79 Z " /><path fill="rgb(199,197,162)" stroke="rgb(199,197,162)" stroke-width="1" opacity="1" d="M 78.5 81 L 79 83.5 L 78 83.5 L 78.5 81 Z " /><path fill="rgb(199,197,162)" stroke="rgb(199,197,162)" stroke-width="1" opacity="1" d="M 96.5 84 L 109 84.5 L 96.5 85 L 96.5 84 Z " /><path fill="rgb(199,197,162)" stroke="rgb(199,197,162)" stroke-width="1" opacity="1" d="M 79.5 85 L 80.5 87 L 79.5 85 Z " /><path fill="rgb(199,197,162)" stroke="rgb(199,197,162)" stroke-width="1" opacity="1" d="M 88.5 85 L 87.5 87 L 88.5 85 Z " /><path fill="rgb(199,197,162)" stroke="rgb(199,197,162)" stroke-width="1" opacity="1" d="M 82.5 87 L 86 87.5 L 82.5 88 L 82.5 87 Z " /><path fill="rgb(199,197,162)" stroke="rgb(199,197,162)" stroke-width="1" opacity="1" d="M 49.5 88 L 53 88 L 53 94 L 49 96.5 L 49 99 L 42 99 Q 42.5 92.2 47.5 89 L 49.5 88 Z " /><path fill="rgb(199,197,162)" stroke="rgb(199,197,162)" stroke-width="1" opacity="1" d="M 31.5 91 L 26 97.5 L 25.5 99 L 25 97.5 L 31.5 91 Z " /><path fill="rgb(199,197,162)" stroke="rgb(199,197,162)" stroke-width="1" opacity="1" d="M 96 97 L 112.5 97 L 113 99 L 96.5 99 L 96 97 Z " /><path fill="rgb(199,197,162)" stroke="rgb(199,197,162)" stroke-width="1" opacity="1" d="M 58.5 98 L 64 98.5 L 58.5 99 L 58.5 98 Z " /><path fill="rgb(199,197,162)" stroke="rgb(199,197,162)" stroke-width="1" opacity="1" d="M 96 102 L 108.5 102 L 109 104 L 96.5 104 L 96 102 Z " /><path fill="rgb(199,197,162)" stroke="rgb(199,197,162)" stroke-width="1" opacity="1" d="M 44.5 104 L 46.5 107 L 44.5 104 Z " /><path fill="rgb(199,197,162)" stroke="rgb(199,197,162)" stroke-width="1" opacity="1" d="M 50.5 108 L 53 108.5 L 50.5 109 L 50.5 108 Z " /><path fill="rgb(105,193,194)" stroke="rgb(105,193,194)" stroke-width="1" opacity="1" d="M 58.5 43 L 60 45.5 L 59 45.5 L 58.5 43 Z " /><path fill="rgb(105,193,194)" stroke="rgb(105,193,194)" stroke-width="1" opacity="1" d="M 57.5 46 L 56.5 48 L 57.5 46 Z " /><path fill="rgb(105,193,194)" stroke="rgb(105,193,194)" stroke-width="1" opacity="1" d="M 52.5 47 L 53.5 49 L 55 48.5 L 52 50 L 52.5 47 Z " /><path fill="rgb(105,193,194)" stroke="rgb(105,193,194)" stroke-width="1" opacity="1" d="M 28.5 49 L 31 50.5 L 29.5 50 L 28.5 49 Z " /><path fill="rgb(105,193,194)" stroke="rgb(105,193,194)" stroke-width="1" opacity="1" d="M 23.5 52 L 23 53.5 L 22.5 55 L 22 53.5 L 23.5 52 Z " /><path fill="rgb(105,193,194)" stroke="rgb(105,193,194)" stroke-width="1" opacity="1" d="M 18.5 90 L 25.5 99 L 34 102.5 L 30.5 107 Q 27.3 109.3 20.5 108 Q 13.4 105.6 15 94.5 L 18.5 90 Z " /><path fill="rgb(105,193,194)" stroke="rgb(105,193,194)" stroke-width="1" opacity="1" d="M 58.5 99 Q 64.8 96.8 63 102.5 L 61 106 L 57.5 108 L 54 108 Q 52.8 103.4 55.5 102 Q 57.8 102.8 57 100.5 L 58.5 99 Z " /></svg>