<svg width="128" height="128" version="1.1" xmlns="http://www.w3.org/2000/svg" desc="Created with imagetracer.js version 1.2.6" ><path fill="rgb(0,0,0)" stroke="rgb(0,0,0)" stroke-width="1" opacity="0" d="M 0 0 L 69 0.5 L 63 5.5 Q 57.9 25.9 44.5 38 L 38.5 41 L 25 41 Q 26 36.3 22.5 35 L 20.5 34 L 7.5 34 L 3 37.5 L 2 40.5 L 2 113.5 L 5.5 119 Q 10.3 121.3 18.5 120 L 24 118 L 25 113 L 35.5 113 L 49.5 124 L 59 127.5 L 0 128 L 0 0 Z " /><path fill="rgb(0,0,0)" stroke="rgb(0,0,0)" stroke-width="1" opacity="0" d="M 79.5 0 L 128 0 L 128 128 L 107 127.5 L 112 123.5 Q 115 120.5 114 113.5 L 112 108.5 L 120 96.5 L 120 90.5 L 118 84.5 Q 119.3 78.7 124 76.5 L 126 68.5 Q 123.8 60.7 118 56.5 L 118 51.5 Q 120.7 49.8 119 43.5 L 113.5 36 L 111.5 35 L 80 35 L 86 10.5 Q 85.1 3.9 80.5 1 L 79.5 0 Z " /><path fill="rgb(137,187,244)" stroke="rgb(137,187,244)" stroke-width="1" opacity="0.9333333333333333" d="M 7.5 34 L 20.5 34 L 25 37.5 L 25 63.5 L 24 66.5 L 3 90.5 L 2.5 93 L 2 40.5 L 5.5 35 L 7.5 34 Z " /><path fill="rgb(254,219,208)" stroke="rgb(254,219,208)" stroke-width="1" opacity="0.9764705882352941" d="M 69.5 0 Q 81 -2 84 4.5 L 81 5 L 78 14.5 L 68 34.5 L 111.5 35 L 118 40.5 L 119 45.5 L 116.5 46 L 57.5 73 L 25 41.5 L 38.5 41 L 48 34.5 Q 58.6 23.1 63 5.5 L 67.5 1 L 69.5 0 Z " /><path fill="rgb(133,127,199)" stroke="rgb(133,127,199)" stroke-width="1" opacity="0.9568627450980393" d="M 24.5 64 L 25 115.5 L 24 118 Q 19.1 121.3 8.5 120 L 3 116.5 L 2 113.5 L 2 93.5 L 3 90.5 L 24 66.5 L 24.5 64 Z " /><path fill="rgb(254,195,180)" stroke="rgb(254,195,180)" stroke-width="1" opacity="0.9882352941176471" d="M 83.5 7 Q 86.3 8.3 84 9.5 L 72.5 35 L 71 34.5 L 83.5 7 Z " /><path fill="rgb(254,195,180)" stroke="rgb(254,195,180)" stroke-width="1" opacity="0.9882352941176471" d="M 28.5 45 L 52.5 70 Q 54.8 69.3 54 71.5 L 61 80 L 63 80 Q 61.9 82.7 64.5 82 L 67.5 86 L 69 85.5 Q 68.3 87.8 70.5 87 L 75.5 92 L 77.5 92 L 125.5 70 L 125.5 71 L 124 71.5 L 125 73.5 Q 123.7 79.3 119 81.5 L 118 87.5 L 120 92.5 L 116.5 95 L 111.5 96 L 103.5 96 L 100.5 98 L 81.5 99 L 80.5 100 L 75.5 99 L 63.5 99 L 60.5 97 L 59 97.5 L 58.5 96 L 56.5 97 L 52 95 L 51.5 93 L 50 93.5 L 47.5 85 L 46 85.5 L 44.5 80 L 43.5 82 L 43 75.5 Q 40 74.3 41 70 Q 38 71.3 39 67.5 L 37 65.5 L 37 59.5 Q 34 58.5 35 53.5 L 28.5 45 Z " /><path fill="rgb(254,203,190)" stroke="rgb(254,203,190)" stroke-width="1" opacity="0.984313725490196" d="M 81 5 L 85 6.5 L 84.5 8 L 83 7.5 L 70.5 35 L 68 34.5 L 78 14.5 L 81 5 Z " /><path fill="rgb(254,203,190)" stroke="rgb(254,203,190)" stroke-width="1" opacity="0.984313725490196" d="M 117.5 45 L 119 48.5 L 118 56.5 L 124 63.5 L 126 69.5 L 75.5 92 L 69 87 L 68.5 85 L 67 85.5 L 64.5 82 L 63 82 L 63 80 Q 60.3 81.1 61 78.5 L 54 70.5 L 57.5 73 L 117.5 45 Z " /><path fill="rgb(254,203,190)" stroke="rgb(254,203,190)" stroke-width="1" opacity="0.984313725490196" d="M 49.5 66 L 52.5 70 L 49.5 66 Z " /><path fill="rgb(252,187,172)" stroke="rgb(252,187,172)" stroke-width="1" opacity="0.984313725490196" d="M 84.5 9 L 85 15.5 L 83 15.5 L 75 35 L 73 34.5 L 84.5 9 Z " /><path fill="rgb(252,187,172)" stroke="rgb(252,187,172)" stroke-width="1" opacity="0.984313725490196" d="M 83.5 18 L 84 20.5 L 83 20.5 L 83.5 18 Z " /><path fill="rgb(252,187,172)" stroke="rgb(252,187,172)" stroke-width="1" opacity="0.984313725490196" d="M 25.5 42 L 35 53.5 Q 34 58.5 37 59.5 L 37 65.5 Q 39.8 66.6 39 70 Q 42.3 68.7 41 73.5 L 43 75.5 L 43.5 82 L 44.5 80 L 46.5 86 L 48 85.5 L 50.5 94 L 52 93.5 Q 51.3 95.8 53.5 95 L 57.5 97 L 59 96.5 L 59.5 98 L 61.5 98 L 63.5 99 L 75.5 99 L 76.5 100 L 81.5 99 L 100.5 98 L 103.5 96 L 111.5 96 L 119.5 93 L 120 95.5 L 117 102 Q 112.5 104 103.5 103 L 100.5 105 L 77.5 105 L 76.5 106 L 75.5 105 L 56.5 105 L 49.5 102 L 47.5 102 Q 43.8 102.8 43 100.5 Q 43.9 97.1 38.5 99 L 37 96 L 35 96 L 35 91 L 33 91 L 33 84.5 L 31 83.5 L 30.5 85 L 30 75.5 L 28 73.5 L 28 68.5 L 26 66.5 Q 27.8 60.2 25 58.5 L 25.5 42 Z " /><path fill="rgb(250,177,161)" stroke="rgb(250,177,161)" stroke-width="1" opacity="0.9803921568627451" d="M 83.5 15 L 84 17.5 L 79 35 L 75 35 L 75 33.5 L 83.5 15 Z " /><path fill="rgb(250,177,161)" stroke="rgb(250,177,161)" stroke-width="1" opacity="0.9803921568627451" d="M 25.5 59 L 26 66.5 L 28 68.5 Q 26.8 74.3 30 75.5 L 30.5 85 L 31.5 83 Q 34.8 84.9 33 91 L 35 91 L 35 96 Q 37.7 94.9 37 97.5 Q 38.4 100.3 43 99 L 44.5 102 L 48.5 103 L 50.5 103 Q 55.1 102.4 56.5 105 L 75.5 105 L 76.5 106 L 77.5 105 L 100.5 105 L 103.5 103 Q 111.7 104.7 115.5 102 L 115.5 103 L 113 104.5 L 112 109.5 L 114 116.5 L 113 116.5 L 112.5 114 L 50.5 114 L 49.5 113 L 36.5 112 L 36.5 113 Q 43.4 114.6 46 120.5 L 39.5 115 L 35.5 113 L 25 112.5 L 34 111.5 L 25 110 L 25.5 59 Z " /><path fill="rgb(244,152,132)" stroke="rgb(244,152,132)" stroke-width="1" opacity="0.9764705882352941" d="M 25 110 L 34 111.5 L 25 112 L 25 110 Z " /><path fill="rgb(244,152,132)" stroke="rgb(244,152,132)" stroke-width="1" opacity="0.9764705882352941" d="M 36.5 112 L 42.5 112 L 50.5 114 L 113 114 L 114 119.5 L 109.5 126 L 106.5 128 L 60.5 128 L 46 122 L 39.5 114 Q 35.8 113.8 36.5 112 Z " /></svg>