<?xml version="1.0" encoding="UTF-8"?>
<svg version="1.1" xmlns="http://www.w3.org/2000/svg" width="128" height="128">
<path d="M0 0 C10.08436142 8.5329212 18.07736144 20.15407105 20.75 33.25 C20.875 36.1875 20.875 36.1875 20.75 38.25 C21.38808594 38.23839844 22.02617188 38.22679687 22.68359375 38.21484375 C23.50988281 38.20582031 24.33617188 38.19679687 25.1875 38.1875 C26.42306641 38.17009766 26.42306641 38.17009766 27.68359375 38.15234375 C29.75 38.25 29.75 38.25 30.75 39.25 C31.2094043 42.17816574 31.35863076 44.31168243 29.70166016 46.86621094 C28.22735107 48.54452863 26.68228047 50.08687318 25.0625 51.625 C24.53205078 52.17027344 24.00160156 52.71554688 23.45507812 53.27734375 C19.43708311 57.21152783 19.43708311 57.21152783 16.05541992 57.40087891 C14.91423706 57.32619385 14.91423706 57.32619385 13.75 57.25 C11.81164379 60.95788639 9.87446776 64.66638813 7.9375 68.375 C7.39029297 69.42171875 6.84308594 70.4684375 6.27929688 71.546875 C3.73008382 76.42900425 1.18574347 81.31014131 -1.25 86.25 C1.72 86.25 4.69 86.25 7.75 86.25 C7.75 82.29 7.75 78.33 7.75 74.25 C12.75 73.25 12.75 73.25 15.75 74.25 C15.75 78.21 15.75 82.17 15.75 86.25 C17.4 86.25 19.05 86.25 20.75 86.25 C21.75 87.25 21.75 87.25 21.875 89.75 C21.75 92.25 21.75 92.25 20.75 93.25 C19.08382885 93.29063832 17.41611905 93.292721 15.75 93.25 C15.76160156 94.03246094 15.77320312 94.81492187 15.78515625 95.62109375 C15.79417969 96.63300781 15.80320312 97.64492187 15.8125 98.6875 C15.82410156 99.69683594 15.83570312 100.70617187 15.84765625 101.74609375 C15.75 104.25 15.75 104.25 14.75 105.25 C11.75 105.375 11.75 105.375 8.75 105.25 C7.75 104.25 7.75 104.25 7.65234375 101.74609375 C7.68489583 98.9140625 7.71744792 96.08203125 7.75 93.25 C1.15 93.25 -5.45 93.25 -12.25 93.25 C-12.58 92.59 -12.91 91.93 -13.25 91.25 C-13.85585937 91.51554687 -14.46171875 91.78109375 -15.0859375 92.0546875 C-15.92382812 92.40789062 -16.76171875 92.76109375 -17.625 93.125 C-18.43710938 93.47304687 -19.24921875 93.82109375 -20.0859375 94.1796875 C-24.35414066 95.62349943 -28.83170857 96.36634171 -33.25 97.25 C-26.32 97.58 -19.39 97.91 -12.25 98.25 C-11.92 99.57 -11.59 100.89 -11.25 102.25 C-11.91 103.24 -12.57 104.23 -13.25 105.25 C-16.12329102 105.60644531 -16.12329102 105.60644531 -19.75390625 105.578125 C-21.05134766 105.57296875 -22.34878906 105.5678125 -23.68554688 105.5625 C-24.36222412 105.5521875 -25.03890137 105.541875 -25.73608398 105.53125 C-27.80796282 105.50006828 -29.87908158 105.49027769 -31.95117188 105.484375 C-42.09634242 105.40365758 -42.09634242 105.40365758 -43.25 104.25 C-43.39115161 101.57941149 -43.29247107 98.92567762 -43.25 96.25 C-44.24 96.745 -44.24 96.745 -45.25 97.25 C-45.65729228 99.57156597 -45.99438677 101.9068787 -46.25 104.25 C-53.58960158 106.46894931 -59.59220995 103.47610254 -66.25 100.25 C-69.76968243 98.12854758 -73.03622107 95.80801628 -76.25 93.25 C-77.24 92.4765625 -78.23 91.703125 -79.25 90.90625 C-88.76486725 82.89945072 -94.65688085 70.20035863 -97.25 58.25 C-98.6748271 40.12619928 -96.82650117 24.22966089 -85.1796875 9.66015625 C-62.98111473 -16.05770244 -27.41838353 -20.75244625 0 0 Z " fill="#F8F9F8" transform="translate(97.25,17.75)"/>
<path d="M0 0 C10.08436142 8.5329212 18.07736144 20.15407105 20.75 33.25 C20.875 36.1875 20.875 36.1875 20.75 38.25 C21.38808594 38.23839844 22.02617188 38.22679687 22.68359375 38.21484375 C23.50988281 38.20582031 24.33617188 38.19679687 25.1875 38.1875 C26.42306641 38.17009766 26.42306641 38.17009766 27.68359375 38.15234375 C29.75 38.25 29.75 38.25 30.75 39.25 C31.2094043 42.17816574 31.35863076 44.31168243 29.70166016 46.86621094 C28.22735107 48.54452863 26.68228047 50.08687318 25.0625 51.625 C24.53205078 52.17027344 24.00160156 52.71554688 23.45507812 53.27734375 C21.20125397 55.48415562 19.30303141 57.08642733 16.25390625 57.98828125 C12.26734611 56.81283684 10.09461705 54.09995182 7.375 51.0625 C6.81683594 50.48435547 6.25867188 49.90621094 5.68359375 49.31054688 C1.74381197 45.00597049 1.74381197 45.00597049 1.7734375 41.38671875 C2.75 39.25 2.75 39.25 4.75 38.25 C6.74960012 38.210008 8.75047242 38.20653201 10.75 38.25 C6.76556402 24.60916623 0.9023686 12.80074206 -11.625 5.203125 C-24.71766548 -1.85704722 -38.36920311 -4.24580438 -53 -0.1875 C-66.00662712 4.37678878 -75.3322717 12.18563382 -81.625 24.4375 C-85.1738248 31.84245007 -86.61499291 37.84077622 -86.5625 46 C-86.55758545 46.89307861 -86.5526709 47.78615723 -86.54760742 48.70629883 C-86.43592134 54.9761838 -85.91578278 60.49752136 -83.25 66.25 C-82.92128906 66.98863281 -82.59257813 67.72726563 -82.25390625 68.48828125 C-75.04998017 82.9210605 -63.52948008 89.97303461 -48.83984375 95.26953125 C-46.25 96.25 -46.25 96.25 -45.25 97.25 C-45.53730055 99.58944736 -45.86936779 101.9239143 -46.25 104.25 C-53.58960158 106.46894931 -59.59220995 103.47610254 -66.25 100.25 C-69.76968243 98.12854758 -73.03622107 95.80801628 -76.25 93.25 C-77.24 92.4765625 -78.23 91.703125 -79.25 90.90625 C-88.76486725 82.89945072 -94.65688085 70.20035863 -97.25 58.25 C-98.6748271 40.12619928 -96.82650117 24.22966089 -85.1796875 9.66015625 C-62.98111473 -16.05770244 -27.41838353 -20.75244625 0 0 Z " fill="#FEB72B" transform="translate(97.25,17.75)"/>
<path d="M0 0 C1.11246094 -0.01933594 2.22492188 -0.03867188 3.37109375 -0.05859375 C7.18262231 0.533896 8.86390377 1.72881556 11.5625 4.4375 C11.5625 5.0975 11.5625 5.7575 11.5625 6.4375 C12.8825 7.0975 14.2025 7.7575 15.5625 8.4375 C15.55089844 9.04078125 15.53929688 9.6440625 15.52734375 10.265625 C15.51832031 11.06484375 15.50929688 11.8640625 15.5 12.6875 C15.48839844 13.47640625 15.47679688 14.2653125 15.46484375 15.078125 C15.55864694 17.34441002 15.93008937 19.2663895 16.5625 21.4375 C15.2425 21.4375 13.9225 21.4375 12.5625 21.4375 C11.20191557 23.03618671 9.85007821 24.64326464 8.546875 26.2890625 C5.1968712 29.91603512 1.15767257 32.63924719 -2.828125 35.51953125 C-7.03023562 38.60820837 -7.34259223 38.96296113 -8.4375 44.4375 C-0.8475 44.4375 6.7425 44.4375 14.5625 44.4375 C14.8925 45.7575 15.2225 47.0775 15.5625 48.4375 C14.9025 49.4275 14.2425 50.4175 13.5625 51.4375 C10.68920898 51.79394531 10.68920898 51.79394531 7.05859375 51.765625 C5.76115234 51.76046875 4.46371094 51.7553125 3.12695312 51.75 C2.45027588 51.7396875 1.77359863 51.729375 1.07641602 51.71875 C-0.99546282 51.68756828 -3.06658158 51.67777769 -5.13867188 51.671875 C-15.28384242 51.59115758 -15.28384242 51.59115758 -16.4375 50.4375 C-17.10530027 44.10981877 -16.96307338 39.57468138 -13.328125 34.33984375 C-11.46753966 30.36569876 -12.15845546 25.72393417 -12.4375 21.4375 C-11.7775 21.4375 -11.1175 21.4375 -10.4375 21.4375 C-10.4375 24.7375 -10.4375 28.0375 -10.4375 31.4375 C-8.5145488 30.04970975 -6.59943615 28.65282757 -4.6875 27.25 C-3.87925781 26.66895508 -3.87925781 26.66895508 -3.0546875 26.07617188 C2.89997998 21.70228154 2.89997998 21.70228154 6.05859375 15.26953125 C6.00201125 13.31932091 5.78492906 11.37581041 5.5625 9.4375 C1.88903229 6.98852153 -0.10106399 7.12212284 -4.4375 7.4375 C-6.90028801 9.90028801 -7.43521255 12.14426982 -8.4375 15.4375 C-10.8125 16.0625 -10.8125 16.0625 -13.4375 16.4375 C-15.4375 14.4375 -15.4375 14.4375 -15.875 11.625 C-15.29310288 7.38546385 -13.66313287 6.149964 -10.4375 3.4375 C-9.56158203 2.63699219 -9.56158203 2.63699219 -8.66796875 1.8203125 C-5.68009848 -0.03206242 -3.49521894 0.00404072 0 0 Z " fill="#37C3F3" transform="translate(70.4375,71.5625)"/>
<path d="M0 0 C1.67542976 0.28604898 3.34385343 0.61781233 5 1 C6.09430627 4.91965295 6.0215282 6.81004322 4.05078125 10.36328125 C3.61443359 11.16830078 3.17808594 11.97332031 2.72851562 12.80273438 C2.26123047 13.63095703 1.79394531 14.45917969 1.3125 15.3125 C0.41205092 16.9540381 -0.48769595 18.59596159 -1.38671875 20.23828125 C-1.8254834 21.03057129 -2.26424805 21.82286133 -2.71630859 22.63916016 C-4.57036019 26.04895074 -6.28844831 29.51677186 -8 33 C-5.03 33 -2.06 33 1 33 C1 29.04 1 25.08 1 21 C6 20 6 20 9 21 C9 24.96 9 28.92 9 33 C10.65 33 12.3 33 14 33 C15 34 15 34 15.125 36.5 C15 39 15 39 14 40 C12.33382885 40.04063832 10.66611905 40.042721 9 40 C9.01160156 40.78246094 9.02320312 41.56492188 9.03515625 42.37109375 C9.04417969 43.38300781 9.05320312 44.39492187 9.0625 45.4375 C9.07410156 46.44683594 9.08570312 47.45617187 9.09765625 48.49609375 C9 51 9 51 8 52 C5 52.125 5 52.125 2 52 C1 51 1 51 0.90234375 48.49609375 C0.93489583 45.6640625 0.96744792 42.83203125 1 40 C-5.6 40 -12.2 40 -19 40 C-17.875 33.25 -17.875 33.25 -15.93359375 29.4765625 C-15.3293457 28.28740234 -15.3293457 28.28740234 -14.71289062 27.07421875 C-14.08157227 25.86185547 -14.08157227 25.86185547 -13.4375 24.625 C-13.01275391 23.79355469 -12.58800781 22.96210937 -12.15039062 22.10546875 C-11.10745654 20.06647401 -10.05721708 18.0316151 -9 16 C-8.34 16 -7.68 16 -7 16 C-6.62875 14.7934375 -6.62875 14.7934375 -6.25 13.5625 C-2.2972973 2.2972973 -2.2972973 2.2972973 0 0 Z " fill="#31C1F6" transform="translate(104,71)"/>
<path d="M0 0 C3.625 0.3125 3.625 0.3125 6.0625 1.3125 C8.02883915 3.82941411 8.35963204 5.93952902 8.21875 9.109375 C7.06499352 13.39041877 3.926347 16.47772453 0.625 19.3125 C-0.365 19.6425 -1.355 19.9725 -2.375 20.3125 C-5.345 17.3425 -8.315 14.3725 -11.375 11.3125 C-10.055 10.3225 -8.735 9.3325 -7.375 8.3125 C-6.64806096 6.33361039 -5.97683749 4.33295442 -5.375 2.3125 C-3.375 0.3125 -3.375 0.3125 0 0 Z " fill="#CCD0D2" transform="translate(69.375,77.6875)"/>
<path d="M0 0 C4.65808624 9.00563341 4.17293329 19.0659434 4 29 C1.69 29 -0.62 29 -3 29 C-3.21656292 19.5193566 -3.29998553 10.28388319 -1 1 C-0.67 0.67 -0.34 0.34 0 0 Z " fill="#F8BF48" transform="translate(59,31)"/>
<path d="M0 0 C6.15234375 -0.09765625 6.15234375 -0.09765625 8 0 C9 1 9 1 9.0625 4.5625 C9.041875 5.696875 9.02125 6.83125 9 8 C9.99 7.67 10.98 7.34 12 7 C14.33299825 6.96045766 16.66708189 6.95598268 19 7 C18.360625 7.309375 17.72125 7.61875 17.0625 7.9375 C15.06389179 8.8345163 15.06389179 8.8345163 14 10 C16.475 10.495 16.475 10.495 19 11 C19 11.33 19 11.66 19 12 C18.35933594 12.01417969 17.71867187 12.02835938 17.05859375 12.04296875 C10.46465756 12.40656881 7.03699241 13.72950643 2 18 C2.66 16.02 3.32 14.04 4 12 C2.7625 11.195625 2.7625 11.195625 1.5 10.375 C-1 8 -1 8 -1.375 4.875 C-1 2 -1 2 0 0 Z " fill="#9DECC2" transform="translate(55,60)"/>
<path d="M0 0 C1.670625 0.061875 1.670625 0.061875 3.375 0.125 C3.375 4.125 3.375 4.125 1.1875 6.703125 C0.259375 7.58484375 -0.66875 8.4665625 -1.625 9.375 C-2.553125 10.26703125 -3.48125 11.1590625 -4.4375 12.078125 C-5.159375 12.75359375 -5.88125 13.4290625 -6.625 14.125 C-10.5 12.375 -10.5 12.375 -11.625 10.125 C-11.00625 9.91875 -10.3875 9.7125 -9.75 9.5 C-6.77727549 7.57647237 -6.59345976 5.44543345 -5.625 2.125 C-3.625 0.125 -3.625 0.125 0 0 Z " fill="#BABDBE" transform="translate(69.625,77.875)"/>
<path d="M0 0 C6.57791873 0.41044485 12.74051886 0.86608597 19 3 C18.67 3.66 18.34 4.32 18 5 C16.23413086 5.41064453 16.23413086 5.41064453 13.96484375 5.6328125 C12.75151367 5.75849609 12.75151367 5.75849609 11.51367188 5.88671875 C10.2384668 6.00466797 10.2384668 6.00466797 8.9375 6.125 C7.65649414 6.25455078 7.65649414 6.25455078 6.34960938 6.38671875 C4.23389367 6.59947228 2.11703476 6.80079953 0 7 C0 4.69 0 2.38 0 0 Z " fill="#F9BA38" transform="translate(64,61)"/>
<path d="M0 0 C-0.639375 0.309375 -1.27875 0.61875 -1.9375 0.9375 C-3.93610821 1.8345163 -3.93610821 1.8345163 -5 3 C-3.35 3.33 -1.7 3.66 0 4 C0 4.33 0 4.66 0 5 C-0.64066406 5.01417969 -1.28132813 5.02835937 -1.94140625 5.04296875 C-8.53534244 5.40656881 -11.96300759 6.72950643 -17 11 C-16.649375 10.05125 -16.29875 9.1025 -15.9375 8.125 C-14.64973223 5.12939828 -14.64973223 5.12939828 -16 3 C-10.47239641 0.89424625 -5.93002267 -0.37851209 0 0 Z " fill="#A7CDD3" transform="translate(74,67)"/>
<path d="M0 0 C1.1725131 0.95117134 2.33787015 1.91117009 3.5 2.875 C4.47453125 3.67550781 4.47453125 3.67550781 5.46875 4.4921875 C6.22671875 5.23855469 6.22671875 5.23855469 7 6 C7 6.66 7 7.32 7 8 C2.52941176 12 2.52941176 12 0 12 C0 8.7 0 5.4 0 2 C-0.66 1.67 -1.32 1.34 -2 1 C-1.34 0.67 -0.68 0.34 0 0 Z " fill="#DBEBE6" transform="translate(60,91)"/>
<path d="M0 0 C0.66 0.66 1.32 1.32 2 2 C1.34 2 0.68 2 0 2 C0 2.66 0 3.32 0 4 C-3.96 4 -7.92 4 -12 4 C-11.67 3.01 -11.34 2.02 -11 1 C-9.20991533 0.77848451 -7.41781838 0.57317787 -5.625 0.375 C-4.62726563 0.25898437 -3.62953125 0.14296875 -2.6015625 0.0234375 C-1.74304688 0.01570313 -0.88453125 0.00796875 0 0 Z " fill="#A6EAC6" transform="translate(99,62)"/>
<path d="M0 0 C3.63 0 7.26 0 11 0 C11 0.99 11 1.98 11 3 C7.37 3 3.74 3 0 3 C0 2.01 0 1.02 0 0 Z " fill="#9FECC4" transform="translate(20,63)"/>
<path d="M0 0 C2.97 0 5.94 0 9 0 C8.67 0.99 8.34 1.98 8 3 C5.69 3.33 3.38 3.66 1 4 C0.67 2.68 0.34 1.36 0 0 Z " fill="#7CDFA9" transform="translate(55,66)"/>
<path d="M0 0 C4.24846075 0.47205119 6.26819288 2.88877522 9 6 C9 6.66 9 7.32 9 8 C4.75153925 7.52794881 2.73180712 5.11122478 0 2 C0 1.34 0 0.68 0 0 Z " fill="#B4F4D5" transform="translate(31,37)"/>
<path d="M0 0 C-1.55603771 3.81936528 -3.95604931 6.26044438 -7 9 C-7.66 9 -8.32 9 -9 9 C-7.45665977 5.21180126 -4.44676575 0 0 0 Z " fill="#6DDDA1" transform="translate(40,84)"/>
<path d="M0 0 C1.485 0.99 1.485 0.99 3 2 C3.2578125 4.0234375 3.2578125 4.0234375 3.125 6.375 C2.96859531 9.49266684 3.10900537 11.99803349 4 15 C2.68 14.34 1.36 13.68 0 13 C0 8.71 0 4.42 0 0 Z " fill="#96DBCC" transform="translate(83,78)"/>
<path d="M0 0 C0.99 0.33 1.98 0.66 3 1 C3.144375 2.11375 3.28875 3.2275 3.4375 4.375 C3.78372035 7.82142047 3.78372035 7.82142047 5 10 C4.01 10 3.02 10 2 10 C-0.4294516 6.3558226 -0.16179575 4.28758728 0 0 Z " fill="#C1EED3" transform="translate(58,25)"/>
<path d="M0 0 C-1.44077046 3.36179774 -3.24750021 5.59156268 -6 8 C-6.66 8 -7.32 8 -8 8 C-6.48291727 4.46014029 -4.24676932 0 0 0 Z " fill="#A9F3CF" transform="translate(87,37)"/>
<path d="M0 0 C-0.61875 0.28875 -1.2375 0.5775 -1.875 0.875 C-4.13325765 1.93720042 -4.13325765 1.93720042 -6 4 C-8.125 3.625 -8.125 3.625 -10 3 C-7.29536552 -0.8183075 -4.37912428 -0.24787496 0 0 Z " fill="#D3C7B0" transform="translate(74,67)"/>
</svg>
