<svg width="128" height="128" version="1.1" xmlns="http://www.w3.org/2000/svg" desc="Created with imagetracer.js version 1.2.6" ><path fill="rgb(3,168,244)" stroke="rgb(3,168,244)" stroke-width="1" opacity="0.792156862745098" d="M 56.5 0 L 60 0.5 L 56.5 1 L 56.5 0 Z " /><path fill="rgb(3,168,244)" stroke="rgb(3,168,244)" stroke-width="1" opacity="0.792156862745098" d="M 68.5 0 L 72 0.5 L 68.5 1 L 68.5 0 Z " /><path fill="rgb(3,168,244)" stroke="rgb(3,168,244)" stroke-width="1" opacity="0.792156862745098" d="M 30.5 9 L 29.5 11 L 30.5 9 Z " /><path fill="rgb(3,168,244)" stroke="rgb(3,168,244)" stroke-width="1" opacity="0.792156862745098" d="M 97.5 9 L 98.5 11 L 97.5 9 Z " /><path fill="rgb(3,168,244)" stroke="rgb(3,168,244)" stroke-width="1" opacity="0.792156862745098" d="M 27.5 11 L 26.5 13 L 27.5 11 Z " /><path fill="rgb(3,168,244)" stroke="rgb(3,168,244)" stroke-width="1" opacity="0.792156862745098" d="M 100.5 11 L 101.5 13 L 100.5 11 Z " /><path fill="rgb(3,168,244)" stroke="rgb(3,168,244)" stroke-width="1" opacity="0.792156862745098" d="M 23.5 14 L 14.5 24 L 23.5 14 Z " /><path fill="rgb(3,168,244)" stroke="rgb(3,168,244)" stroke-width="1" opacity="0.792156862745098" d="M 104.5 14 L 113.5 24 L 104.5 14 Z " /><path fill="rgb(3,168,244)" stroke="rgb(3,168,244)" stroke-width="1" opacity="0.792156862745098" d="M 12.5 26 L 11.5 28 L 12.5 26 Z " /><path fill="rgb(3,168,244)" stroke="rgb(3,168,244)" stroke-width="1" opacity="0.792156862745098" d="M 115.5 26 L 116.5 28 L 115.5 26 Z " /><path fill="rgb(3,168,244)" stroke="rgb(3,168,244)" stroke-width="1" opacity="0.792156862745098" d="M 10.5 29 L 9.5 31 L 10.5 29 Z " /><path fill="rgb(3,168,244)" stroke="rgb(3,168,244)" stroke-width="1" opacity="0.792156862745098" d="M 0.5 56 L 1 59.5 L 0 59.5 L 0.5 56 Z " /><path fill="rgb(3,168,244)" stroke="rgb(3,168,244)" stroke-width="1" opacity="0.792156862745098" d="M 127.5 56 L 128 59.5 L 127 59.5 L 127.5 56 Z " /><path fill="rgb(3,168,244)" stroke="rgb(3,168,244)" stroke-width="1" opacity="0.792156862745098" d="M 127.5 67 L 128 71.5 L 127 71.5 L 127.5 67 Z " /><path fill="rgb(3,168,244)" stroke="rgb(3,168,244)" stroke-width="1" opacity="0.792156862745098" d="M 0.5 68 L 1 71.5 L 0 71.5 L 0.5 68 Z " /><path fill="rgb(3,168,244)" stroke="rgb(3,168,244)" stroke-width="1" opacity="0.792156862745098" d="M 9.5 97 L 10.5 99 L 9.5 97 Z " /><path fill="rgb(3,168,244)" stroke="rgb(3,168,244)" stroke-width="1" opacity="0.792156862745098" d="M 11.5 100 L 12.5 102 L 11.5 100 Z " /><path fill="rgb(3,168,244)" stroke="rgb(3,168,244)" stroke-width="1" opacity="0.792156862745098" d="M 116.5 100 L 115.5 102 L 116.5 100 Z " /><path fill="rgb(3,168,244)" stroke="rgb(3,168,244)" stroke-width="1" opacity="0.792156862745098" d="M 14.5 104 L 23.5 114 L 14.5 104 Z " /><path fill="rgb(3,168,244)" stroke="rgb(3,168,244)" stroke-width="1" opacity="0.792156862745098" d="M 113.5 104 L 104.5 114 L 113.5 104 Z " /><path fill="rgb(3,168,244)" stroke="rgb(3,168,244)" stroke-width="1" opacity="0.792156862745098" d="M 26.5 115 L 27.5 117 L 26.5 115 Z " /><path fill="rgb(3,168,244)" stroke="rgb(3,168,244)" stroke-width="1" opacity="0.792156862745098" d="M 101.5 115 L 100.5 117 L 101.5 115 Z " /><path fill="rgb(3,168,244)" stroke="rgb(3,168,244)" stroke-width="1" opacity="0.792156862745098" d="M 98.5 117 L 97.5 119 L 98.5 117 Z " /><path fill="rgb(3,168,244)" stroke="rgb(3,168,244)" stroke-width="1" opacity="0.792156862745098" d="M 56.5 127 L 60 127.5 L 56.5 128 L 56.5 127 Z " /><path fill="rgb(3,168,244)" stroke="rgb(3,168,244)" stroke-width="1" opacity="0.792156862745098" d="M 68.5 127 L 72 127.5 L 68.5 128 L 68.5 127 Z " /><path fill="rgb(0,0,0)" stroke="rgb(0,0,0)" stroke-width="1" opacity="0" d="M 0 0 L 52 0.5 Q 26.8 5.3 14 22.5 Q 3.8 33.8 0.5 52 L 0 0 Z " /><path fill="rgb(0,0,0)" stroke="rgb(0,0,0)" stroke-width="1" opacity="0" d="M 76.5 0 L 128 0 L 128 51.5 L 127 51.5 Q 122.1 26.9 105.5 14 L 91.5 5 L 76.5 1 L 76.5 0 Z " /><path fill="rgb(0,0,0)" stroke="rgb(0,0,0)" stroke-width="1" opacity="0" d="M 0.5 76 Q 5.8 100.7 22.5 114 L 41.5 125 L 53 127.5 L 0 128 L 0.5 76 Z " /><path fill="rgb(0,0,0)" stroke="rgb(0,0,0)" stroke-width="1" opacity="0" d="M 127.5 76 L 128 128 L 75 127.5 Q 100.6 122.6 114 105.5 Q 124.2 94.2 127.5 76 Z " /><path fill="rgb(3,169,244)" stroke="rgb(3,169,244)" stroke-width="1" opacity="0.996078431372549" d="M 60.5 0 L 63 0.5 L 60.5 1 L 60.5 0 Z " /><path fill="rgb(3,169,244)" stroke="rgb(3,169,244)" stroke-width="1" opacity="0.996078431372549" d="M 65.5 0 L 68 0.5 L 65.5 1 L 65.5 0 Z " /><path fill="rgb(3,169,244)" stroke="rgb(3,169,244)" stroke-width="1" opacity="0.996078431372549" d="M 113.5 24 L 114.5 26 L 113.5 24 Z " /><path fill="rgb(3,169,244)" stroke="rgb(3,169,244)" stroke-width="1" opacity="0.996078431372549" d="M 0.5 60 L 1 67.5 L 0 67.5 L 0.5 60 Z " /><path fill="rgb(3,169,244)" stroke="rgb(3,169,244)" stroke-width="1" opacity="0.996078431372549" d="M 127.5 60 L 128 66.5 L 127 66.5 L 127.5 60 Z " /><path fill="rgb(3,169,244)" stroke="rgb(3,169,244)" stroke-width="1" opacity="0.996078431372549" d="M 13.5 102 L 14.5 104 L 13.5 102 Z " /><path fill="rgb(3,169,244)" stroke="rgb(3,169,244)" stroke-width="1" opacity="0.996078431372549" d="M 114.5 102 L 113.5 104 L 114.5 102 Z " /><path fill="rgb(3,169,244)" stroke="rgb(3,169,244)" stroke-width="1" opacity="0.996078431372549" d="M 24.5 113 L 25.5 115 L 24.5 113 Z " /><path fill="rgb(3,169,244)" stroke="rgb(3,169,244)" stroke-width="1" opacity="0.996078431372549" d="M 103.5 113 L 102.5 115 L 103.5 113 Z " /><path fill="rgb(3,169,244)" stroke="rgb(3,169,244)" stroke-width="1" opacity="0.996078431372549" d="M 60.5 127 L 63 127.5 L 60.5 128 L 60.5 127 Z " /><path fill="rgb(3,169,244)" stroke="rgb(3,169,244)" stroke-width="1" opacity="0.996078431372549" d="M 65.5 127 L 68 127.5 L 65.5 128 L 65.5 127 Z " /><path fill="rgb(3,169,244)" stroke="rgb(3,169,244)" stroke-width="1" opacity="1" d="M 63.5 0 Q 67 2.5 74.5 1 L 88.5 5 Q 103.4 11.6 113 23.5 Q 121.9 33.6 126 48.5 L 127 53.5 L 127 74.5 Q 121.7 99.7 104.5 113 Q 96.6 120.1 85.5 124 L 74.5 127 Q 67 125.5 63.5 128 L 62.5 127 L 48.5 126 L 37.5 122 Q 24.1 115.4 15 104.5 Q 6.1 94.4 2 79.5 L 1 74.5 L 1 53.5 Q 6.5 27.5 24.5 14 L 42.5 4 L 53.5 1 L 62.5 1 L 63.5 0 Z M 78 30 L 72 32 Q 62 37 63 51 L 48 48 Q 36 43 29 34 L 26 38 Q 25 49 30 54 L 33 55 L 33 56 L 28 55 L 26 55 Q 25 62 29 65 Q 32 69 38 71 L 32 71 L 35 78 Q 39 82 47 84 Q 39 91 23 91 L 32 95 L 45 98 Q 66 99 78 89 Q 88 81 94 68 L 97 57 L 97 48 L 105 39 L 99 40 L 97 41 L 102 34 L 103 32 L 96 35 L 92 35 L 83 30 L 78 30 Z " /><path fill="rgb(198,235,252)" stroke="rgb(198,235,252)" stroke-width="1" opacity="1" d="M 77.5 30 L 83 30.5 L 77.5 31 L 77.5 30 Z " /><path fill="rgb(198,235,252)" stroke="rgb(198,235,252)" stroke-width="1" opacity="1" d="M 71.5 32 L 70.5 34 L 71.5 32 Z " /><path fill="rgb(198,235,252)" stroke="rgb(198,235,252)" stroke-width="1" opacity="1" d="M 92.5 35 L 95 35.5 L 92.5 36 L 92.5 35 Z " /><path fill="rgb(198,235,252)" stroke="rgb(198,235,252)" stroke-width="1" opacity="1" d="M 100.5 36 L 98.5 40 L 100 40.5 L 98.5 41 L 96 40.5 L 100.5 36 Z " /><path fill="rgb(198,235,252)" stroke="rgb(198,235,252)" stroke-width="1" opacity="1" d="M 26.5 37 L 27 39.5 L 26 39.5 L 26.5 37 Z " /><path fill="rgb(198,235,252)" stroke="rgb(198,235,252)" stroke-width="1" opacity="1" d="M 66.5 37 L 65.5 39 L 66.5 37 Z " /><path fill="rgb(198,235,252)" stroke="rgb(198,235,252)" stroke-width="1" opacity="1" d="M 102.5 39 L 105 39.5 Q 102.9 42.8 102.5 39 Z " /><path fill="rgb(198,235,252)" stroke="rgb(198,235,252)" stroke-width="1" opacity="1" d="M 35.5 40 L 36.5 42 L 35.5 40 Z " /><path fill="rgb(198,235,252)" stroke="rgb(198,235,252)" stroke-width="1" opacity="1" d="M 98.5 45 L 97.5 47 L 98.5 45 Z " /><path fill="rgb(198,235,252)" stroke="rgb(198,235,252)" stroke-width="1" opacity="1" d="M 30.5 53 L 31.5 55 L 30.5 53 Z " /><path fill="rgb(198,235,252)" stroke="rgb(198,235,252)" stroke-width="1" opacity="1" d="M 96.5 53 L 97 56.5 L 96 56.5 L 96.5 53 Z " /><path fill="rgb(198,235,252)" stroke="rgb(198,235,252)" stroke-width="1" opacity="1" d="M 95.5 59 L 96 61.5 L 95 61.5 L 95.5 59 Z " /><path fill="rgb(198,235,252)" stroke="rgb(198,235,252)" stroke-width="1" opacity="1" d="M 29.5 64 L 33.5 69 L 29.5 64 Z " /><path fill="rgb(198,235,252)" stroke="rgb(198,235,252)" stroke-width="1" opacity="1" d="M 38.5 70 L 39 72 L 32.5 73 L 32 71 L 38.5 70 Z " /><path fill="rgb(198,235,252)" stroke="rgb(198,235,252)" stroke-width="1" opacity="1" d="M 35.5 77 L 36.5 79 L 35.5 77 Z " /><path fill="rgb(198,235,252)" stroke="rgb(198,235,252)" stroke-width="1" opacity="1" d="M 86.5 79 L 84.5 82 L 86.5 79 Z " /><path fill="rgb(198,235,252)" stroke="rgb(198,235,252)" stroke-width="1" opacity="1" d="M 45.5 84 L 44.5 86 L 45.5 84 Z " /><path fill="rgb(198,235,252)" stroke="rgb(198,235,252)" stroke-width="1" opacity="1" d="M 80.5 85 L 77.5 89 L 80.5 85 Z " /><path fill="rgb(198,235,252)" stroke="rgb(198,235,252)" stroke-width="1" opacity="1" d="M 75.5 89 L 74.5 91 L 75.5 89 Z " /><path fill="rgb(198,235,252)" stroke="rgb(198,235,252)" stroke-width="1" opacity="1" d="M 23.5 90 L 30 90.5 L 25.5 92 L 23.5 90 Z " /><path fill="rgb(198,235,252)" stroke="rgb(198,235,252)" stroke-width="1" opacity="1" d="M 57.5 96 L 60 96.5 L 57.5 97 L 57.5 96 Z " /><path fill="rgb(198,235,252)" stroke="rgb(198,235,252)" stroke-width="1" opacity="1" d="M 44.5 97 L 54 97.5 L 44.5 98 L 44.5 97 Z " /><path fill="rgb(254,254,255)" stroke="rgb(254,254,255)" stroke-width="1" opacity="1" d="M 28.5 34 L 34.5 41 L 28.5 34 Z " /><path fill="rgb(254,254,255)" stroke="rgb(254,254,255)" stroke-width="1" opacity="1" d="M 69.5 34 L 67.5 37 L 69.5 34 Z " /><path fill="rgb(254,254,255)" stroke="rgb(254,254,255)" stroke-width="1" opacity="1" d="M 90.5 34 L 91.5 36 L 90.5 34 Z " /><path fill="rgb(254,254,255)" stroke="rgb(254,254,255)" stroke-width="1" opacity="1" d="M 102.5 41 L 99.5 45 L 102.5 41 Z " /><path fill="rgb(254,254,255)" stroke="rgb(254,254,255)" stroke-width="1" opacity="1" d="M 37.5 42 L 38.5 44 L 37.5 42 Z " /><path fill="rgb(254,254,255)" stroke="rgb(254,254,255)" stroke-width="1" opacity="1" d="M 96.5 50 L 97 52.5 L 96 52.5 L 96.5 50 Z " /><path fill="rgb(254,254,255)" stroke="rgb(254,254,255)" stroke-width="1" opacity="1" d="M 61.5 51 L 64 51.5 L 61.5 52 L 61.5 51 Z " /><path fill="rgb(254,254,255)" stroke="rgb(254,254,255)" stroke-width="1" opacity="1" d="M 33.5 55 L 34 57 L 32 56.5 L 33.5 55 Z " /><path fill="rgb(254,254,255)" stroke="rgb(254,254,255)" stroke-width="1" opacity="1" d="M 34.5 75 L 35.5 77 L 34.5 75 Z " /><path fill="rgb(254,254,255)" stroke="rgb(254,254,255)" stroke-width="1" opacity="1" d="M 87.5 77 L 86.5 79 L 87.5 77 Z " /><path fill="rgb(254,254,255)" stroke="rgb(254,254,255)" stroke-width="1" opacity="1" d="M 37.5 78 L 38.5 80 L 37.5 78 Z " /><path fill="rgb(254,254,255)" stroke="rgb(254,254,255)" stroke-width="1" opacity="1" d="M 83.5 82 L 81.5 85 L 83.5 82 Z " /><path fill="rgb(1,171,246)" stroke="rgb(1,171,246)" stroke-width="1" opacity="0.20784313725490197" d="M 52.5 0 L 56 0.5 L 52.5 1 L 52.5 0 Z " /><path fill="rgb(1,171,246)" stroke="rgb(1,171,246)" stroke-width="1" opacity="0.20784313725490197" d="M 72.5 0 L 76 0.5 L 72.5 1 L 72.5 0 Z " /><path fill="rgb(1,171,246)" stroke="rgb(1,171,246)" stroke-width="1" opacity="0.20784313725490197" d="M 90.5 5 L 95 7.5 L 93.5 7 Q 89.7 6.7 90.5 5 Z " /><path fill="rgb(1,171,246)" stroke="rgb(1,171,246)" stroke-width="1" opacity="0.20784313725490197" d="M 34.5 6 L 36 6.5 L 33.5 8 L 34.5 6 Z " /><path fill="rgb(1,171,246)" stroke="rgb(1,171,246)" stroke-width="1" opacity="0.20784313725490197" d="M 29.5 9 L 28.5 11 L 29.5 9 Z " /><path fill="rgb(1,171,246)" stroke="rgb(1,171,246)" stroke-width="1" opacity="0.20784313725490197" d="M 98.5 9 L 99.5 11 L 98.5 9 Z " /><path fill="rgb(1,171,246)" stroke="rgb(1,171,246)" stroke-width="1" opacity="0.20784313725490197" d="M 26.5 11 L 24.5 14 L 26.5 11 Z " /><path fill="rgb(1,171,246)" stroke="rgb(1,171,246)" stroke-width="1" opacity="0.20784313725490197" d="M 101.5 11 L 103.5 14 L 101.5 11 Z " /><path fill="rgb(1,171,246)" stroke="rgb(1,171,246)" stroke-width="1" opacity="0.20784313725490197" d="M 22.5 14 L 14.5 23 L 22.5 14 Z " /><path fill="rgb(1,171,246)" stroke="rgb(1,171,246)" stroke-width="1" opacity="0.20784313725490197" d="M 105.5 14 L 113.5 23 L 105.5 14 Z " /><path fill="rgb(1,171,246)" stroke="rgb(1,171,246)" stroke-width="1" opacity="0.20784313725490197" d="M 13.5 24 L 11.5 27 L 13.5 24 Z " /><path fill="rgb(1,171,246)" stroke="rgb(1,171,246)" stroke-width="1" opacity="0.20784313725490197" d="M 114.5 24 L 116.5 27 L 114.5 24 Z " /><path fill="rgb(1,171,246)" stroke="rgb(1,171,246)" stroke-width="1" opacity="0.20784313725490197" d="M 10.5 28 L 9.5 30 L 10.5 28 Z " /><path fill="rgb(1,171,246)" stroke="rgb(1,171,246)" stroke-width="1" opacity="0.20784313725490197" d="M 117.5 28 L 120 31.5 L 118 30.5 L 117.5 28 Z " /><path fill="rgb(1,171,246)" stroke="rgb(1,171,246)" stroke-width="1" opacity="0.20784313725490197" d="M 7.5 33 L 7 34.5 L 6.5 36 L 6 34.5 L 7.5 33 Z " /><path fill="rgb(1,171,246)" stroke="rgb(1,171,246)" stroke-width="1" opacity="0.20784313725490197" d="M 0.5 52 L 1 55.5 L 0 55.5 L 0.5 52 Z " /><path fill="rgb(1,171,246)" stroke="rgb(1,171,246)" stroke-width="1" opacity="0.20784313725490197" d="M 127.5 52 L 128 55.5 L 127 55.5 L 127.5 52 Z " /><path fill="rgb(1,171,246)" stroke="rgb(1,171,246)" stroke-width="1" opacity="0.20784313725490197" d="M 0.5 72 L 1 75.5 L 0 75.5 L 0.5 72 Z " /><path fill="rgb(1,171,246)" stroke="rgb(1,171,246)" stroke-width="1" opacity="0.20784313725490197" d="M 127.5 72 L 128 75.5 L 127 75.5 L 127.5 72 Z " /><path fill="rgb(1,171,246)" stroke="rgb(1,171,246)" stroke-width="1" opacity="0.20784313725490197" d="M 121.5 92 L 122 93.5 L 120 94.5 L 121.5 92 Z " /><path fill="rgb(1,171,246)" stroke="rgb(1,171,246)" stroke-width="1" opacity="0.20784313725490197" d="M 119.5 96 L 119 97.5 L 117.5 100 L 118 98.5 L 119.5 96 Z " /><path fill="rgb(1,171,246)" stroke="rgb(1,171,246)" stroke-width="1" opacity="0.20784313725490197" d="M 9.5 98 L 10.5 100 L 9.5 98 Z " /><path fill="rgb(1,171,246)" stroke="rgb(1,171,246)" stroke-width="1" opacity="0.20784313725490197" d="M 11.5 101 L 13.5 104 L 11.5 101 Z " /><path fill="rgb(1,171,246)" stroke="rgb(1,171,246)" stroke-width="1" opacity="0.20784313725490197" d="M 116.5 101 L 114.5 104 L 116.5 101 Z " /><path fill="rgb(1,171,246)" stroke="rgb(1,171,246)" stroke-width="1" opacity="0.20784313725490197" d="M 14.5 105 L 22.5 114 L 14.5 105 Z " /><path fill="rgb(1,171,246)" stroke="rgb(1,171,246)" stroke-width="1" opacity="0.20784313725490197" d="M 113.5 105 L 105.5 114 L 113.5 105 Z " /><path fill="rgb(1,171,246)" stroke="rgb(1,171,246)" stroke-width="1" opacity="0.20784313725490197" d="M 24.5 114 L 26.5 117 L 24.5 114 Z " /><path fill="rgb(1,171,246)" stroke="rgb(1,171,246)" stroke-width="1" opacity="0.20784313725490197" d="M 103.5 114 L 101.5 117 L 103.5 114 Z " /><path fill="rgb(1,171,246)" stroke="rgb(1,171,246)" stroke-width="1" opacity="0.20784313725490197" d="M 28.5 117 L 32 119.5 L 30.5 119 L 28.5 117 Z " /><path fill="rgb(1,171,246)" stroke="rgb(1,171,246)" stroke-width="1" opacity="0.20784313725490197" d="M 99.5 117 L 98.5 119 L 99.5 117 Z " /><path fill="rgb(1,171,246)" stroke="rgb(1,171,246)" stroke-width="1" opacity="0.20784313725490197" d="M 39.5 123 L 43 124.5 L 41.5 125 L 39.5 123 Z " /><path fill="rgb(1,171,246)" stroke="rgb(1,171,246)" stroke-width="1" opacity="0.20784313725490197" d="M 53.5 127 L 56 127.5 L 53.5 128 L 53.5 127 Z " /><path fill="rgb(1,171,246)" stroke="rgb(1,171,246)" stroke-width="1" opacity="0.20784313725490197" d="M 72.5 127 L 75 127.5 L 72.5 128 L 72.5 127 Z " /><path fill="rgb(255,255,255)" stroke="rgb(255,255,255)" stroke-width="1" opacity="1" d="M 76.5 31 L 83.5 31 L 91.5 36 L 95.5 36 L 101.5 33 L 100 35.5 L 96.5 40 L 95 40.5 L 100.5 41 L 102.5 40 L 97 46.5 L 96 58.5 L 94 65.5 Q 88.6 79.6 77.5 88 L 64.5 95 L 55.5 97 L 41.5 97 L 26 91.5 L 41.5 88 L 48 83.5 L 46.5 82 L 40.5 81 L 36 78 L 33 72 Q 38.4 73.5 40 70.5 Q 32.5 69 29 63.5 L 26 55.5 L 27.5 55 L 34 57 Q 35.1 54.3 32.5 55 L 27 46.5 L 26 41.5 L 28.5 35 L 43.5 47 L 51.5 50 L 64 52 L 63 47.5 L 66 38.5 L 71.5 33 L 76.5 31 Z " /></svg>