<?xml version="1.0" encoding="UTF-8"?>
<svg version="1.1" xmlns="http://www.w3.org/2000/svg" width="64" height="64">
<path d="M0 0 C0.87430664 -0.00630432 1.74861328 -0.01260864 2.64941406 -0.019104 C4.06818848 -0.01303131 4.06818848 -0.01303131 5.515625 -0.00683594 C6.48467773 -0.00874939 7.45373047 -0.01066284 8.45214844 -0.01263428 C10.50325785 -0.01399673 12.55437586 -0.01029612 14.60546875 -0.00195312 C17.75280039 0.00874547 20.8995612 -0.00184647 24.046875 -0.01464844 C26.0364596 -0.01332685 28.02604384 -0.01076448 30.015625 -0.00683594 C30.96147461 -0.0108844 31.90732422 -0.01493286 32.88183594 -0.019104 C33.75614258 -0.01279968 34.63044922 -0.00649536 35.53125 0 C36.68802246 0.00238678 36.68802246 0.00238678 37.86816406 0.00482178 C39.765625 0.25878906 39.765625 0.25878906 41.765625 2.25878906 C41.96568802 5.2484101 42.04535423 8.14341256 42.03125 11.13378906 C42.03412018 12.45419189 42.03412018 12.45419189 42.03704834 13.80126953 C42.03841052 15.6640654 42.03471182 17.52687076 42.02636719 19.38964844 C42.01566807 22.24728642 42.02626132 25.10429572 42.0390625 27.96191406 C42.03774091 29.76920712 42.03517853 31.57649979 42.03125 33.38378906 C42.03529846 34.24214355 42.03934692 35.10049805 42.04351807 35.98486328 C41.99554245 42.02887162 41.99554245 42.02887162 39.765625 44.25878906 C37.86816406 44.51275635 37.86816406 44.51275635 35.53125 44.51757812 C34.65694336 44.52388245 33.78263672 44.53018677 32.88183594 44.53668213 C31.46306152 44.53060944 31.46306152 44.53060944 30.015625 44.52441406 C29.04657227 44.52632751 28.07751953 44.52824097 27.07910156 44.5302124 C25.02799215 44.53157485 22.97687414 44.52787424 20.92578125 44.51953125 C17.77844961 44.50883266 14.6316888 44.5194246 11.484375 44.53222656 C9.4947904 44.53090498 7.50520616 44.52834261 5.515625 44.52441406 C4.09685059 44.53048676 4.09685059 44.53048676 2.64941406 44.53668213 C1.77510742 44.53037781 0.90080078 44.52407349 0 44.51757812 C-0.77118164 44.51598694 -1.54236328 44.51439575 -2.33691406 44.51275635 C-4.234375 44.25878906 -4.234375 44.25878906 -6.234375 42.25878906 C-6.43443802 39.26916803 -6.51410423 36.37416556 -6.5 33.38378906 C-6.50191345 32.50352051 -6.5038269 31.62325195 -6.50579834 30.71630859 C-6.50716052 28.85351272 -6.50346182 26.99070737 -6.49511719 25.12792969 C-6.48441807 22.2702917 -6.49501132 19.4132824 -6.5078125 16.55566406 C-6.50649091 14.748371 -6.50392853 12.94107834 -6.5 11.13378906 C-6.50404846 10.27543457 -6.50809692 9.41708008 -6.51226807 8.53271484 C-6.46572083 2.66865476 -6.2369674 0.0128688 0 0 Z " fill="#2A82FF" transform="translate(14.234375,9.7412109375)"/>
<path d="M0 0 C0.9075 0.00257812 1.815 0.00515625 2.75 0.0078125 C4.11125 0.00394531 4.11125 0.00394531 5.5 0 C7.75 0.1328125 7.75 0.1328125 8.75 1.1328125 C8.8491657 2.75538794 8.88079777 4.38221081 8.8828125 6.0078125 C8.88474609 7.48507813 8.88474609 7.48507813 8.88671875 8.9921875 C8.88285156 10.02859375 8.87898438 11.065 8.875 12.1328125 C8.87886719 13.16921875 8.88273437 14.205625 8.88671875 15.2734375 C8.88542969 16.25828125 8.88414063 17.243125 8.8828125 18.2578125 C8.88168457 19.16789062 8.88055664 20.07796875 8.87939453 21.015625 C8.75 23.1328125 8.75 23.1328125 7.75 24.1328125 C6.08570949 24.23105187 4.41718069 24.26254881 2.75 24.2578125 C1.38875 24.26167969 1.38875 24.26167969 0 24.265625 C-2.25 24.1328125 -2.25 24.1328125 -3.25 23.1328125 C-3.3491657 21.51023706 -3.38079777 19.88341419 -3.3828125 18.2578125 C-3.38410156 17.27296875 -3.38539062 16.288125 -3.38671875 15.2734375 C-3.38285156 14.23703125 -3.37898438 13.200625 -3.375 12.1328125 C-3.38080078 10.57820313 -3.38080078 10.57820313 -3.38671875 8.9921875 C-3.38542969 8.00734375 -3.38414063 7.0225 -3.3828125 6.0078125 C-3.38168457 5.09773438 -3.38055664 4.18765625 -3.37939453 3.25 C-3.19920015 0.30161197 -2.95198252 0.17424897 0 0 Z " fill="#0DC2FF" transform="translate(43.25,25.8671875)"/>
<path d="M0 0 C0.98484375 -0.00128906 1.9696875 -0.00257812 2.984375 -0.00390625 C4.02078125 -0.00003906 5.0571875 0.00382812 6.125 0.0078125 C7.67960937 0.00201172 7.67960937 0.00201172 9.265625 -0.00390625 C10.25046875 -0.00261719 11.2353125 -0.00132813 12.25 0 C13.16007812 0.00112793 14.07015625 0.00225586 15.0078125 0.00341797 C17.125 0.1328125 17.125 0.1328125 18.125 1.1328125 C18.2578125 2.9453125 18.2578125 2.9453125 18.25 5.1328125 C18.25386719 6.215625 18.25386719 6.215625 18.2578125 7.3203125 C18.125 9.1328125 18.125 9.1328125 17.125 10.1328125 C15.50242456 10.2319782 13.87560169 10.26361027 12.25 10.265625 C11.26515625 10.26691406 10.2803125 10.26820312 9.265625 10.26953125 C8.22921875 10.26566406 7.1928125 10.26179688 6.125 10.2578125 C4.57039063 10.26361328 4.57039063 10.26361328 2.984375 10.26953125 C1.99953125 10.26824219 1.0146875 10.26695313 0 10.265625 C-0.91007812 10.26449707 -1.82015625 10.26336914 -2.7578125 10.26220703 C-4.875 10.1328125 -4.875 10.1328125 -5.875 9.1328125 C-6.0078125 7.3203125 -6.0078125 7.3203125 -6 5.1328125 C-6.00257812 4.4109375 -6.00515625 3.6890625 -6.0078125 2.9453125 C-5.73167084 -0.82320897 -3.19491631 0.00395971 0 0 Z " fill="#0CC5FF" transform="translate(17.875,39.8671875)"/>
<path d="M0 0 C0.98484375 -0.00128906 1.9696875 -0.00257812 2.984375 -0.00390625 C4.02078125 -0.00003906 5.0571875 0.00382812 6.125 0.0078125 C7.67960937 0.00201172 7.67960937 0.00201172 9.265625 -0.00390625 C10.25046875 -0.00261719 11.2353125 -0.00132813 12.25 0 C13.16007812 0.00112793 14.07015625 0.00225586 15.0078125 0.00341797 C17.125 0.1328125 17.125 0.1328125 18.125 1.1328125 C18.2578125 2.9453125 18.2578125 2.9453125 18.25 5.1328125 C18.25386719 6.215625 18.25386719 6.215625 18.2578125 7.3203125 C18.125 9.1328125 18.125 9.1328125 17.125 10.1328125 C15.50242456 10.2319782 13.87560169 10.26361027 12.25 10.265625 C11.26515625 10.26691406 10.2803125 10.26820312 9.265625 10.26953125 C8.22921875 10.26566406 7.1928125 10.26179688 6.125 10.2578125 C4.57039063 10.26361328 4.57039063 10.26361328 2.984375 10.26953125 C1.99953125 10.26824219 1.0146875 10.26695313 0 10.265625 C-0.91007812 10.26449707 -1.82015625 10.26336914 -2.7578125 10.26220703 C-4.875 10.1328125 -4.875 10.1328125 -5.875 9.1328125 C-6.0078125 7.3203125 -6.0078125 7.3203125 -6 5.1328125 C-6.00257812 4.4109375 -6.00515625 3.6890625 -6.0078125 2.9453125 C-5.73167084 -0.82320897 -3.19491631 0.00395971 0 0 Z " fill="#0FBCFF" transform="translate(17.875,25.8671875)"/>
<path d="M0 0 C7.92 0 15.84 0 24 0 C24 1.32 24 2.64 24 4 C16.08 4 8.16 4 0 4 C0 2.68 0 1.36 0 0 Z " fill="#ABCEFF" transform="translate(27,14)"/>
<path d="M0 0 C2.6875 0.3125 2.6875 0.3125 5 1 C5.09765625 7.15234375 5.09765625 7.15234375 5 9 C4 10 4 10 1.05859375 10.09765625 C-0.73384766 10.08025391 -0.73384766 10.08025391 -2.5625 10.0625 C-4.35880859 10.04896484 -4.35880859 10.04896484 -6.19140625 10.03515625 C-7.11824219 10.02355469 -8.04507812 10.01195312 -9 10 C-8.06409496 8.8944811 -7.12620142 7.79064547 -6.1875 6.6875 C-5.66542969 6.07261719 -5.14335937 5.45773438 -4.60546875 4.82421875 C-4.07566406 4.22222656 -3.54585937 3.62023438 -3 3 C-2.4946875 2.4225 -1.989375 1.845 -1.46875 1.25 C-0.9840625 0.8375 -0.499375 0.425 0 0 Z " fill="#11B5FF" transform="translate(31,40)"/>
<path d="M0 0 C1.28825684 0.01047363 2.57651367 0.02094727 3.90380859 0.03173828 C4.93167984 0.03598312 4.93167984 0.03598312 5.98031616 0.04031372 C8.17113636 0.05151797 10.36154925 0.07662219 12.55224609 0.10205078 C14.03661519 0.1120803 15.5209907 0.1212062 17.00537109 0.12939453 C20.6461287 0.15145784 24.28664766 0.18598903 27.92724609 0.22705078 C27.92724609 0.55705078 27.92724609 0.88705078 27.92724609 1.22705078 C27.05922363 1.24687012 26.19120117 1.26668945 25.296875 1.28710938 C22.07998342 1.3651495 18.86347565 1.4518396 15.64697266 1.54443359 C14.25416037 1.58274405 12.86124845 1.61759337 11.46826172 1.64892578 C9.46738302 1.69452985 7.46682463 1.75356701 5.46630859 1.81298828 C4.26184082 1.84440918 3.05737305 1.87583008 1.81640625 1.90820312 C-1.1987557 1.93620304 -1.1987557 1.93620304 -3.07275391 4.22705078 C-3.44571946 7.23677736 -3.44571946 7.23677736 -3.48681641 10.76611328 C-3.52548828 12.06806641 -3.56416016 13.37001953 -3.60400391 14.71142578 C-3.63546154 16.0916294 -3.66670882 17.47183782 -3.69775391 18.85205078 C-3.73593324 20.24009619 -3.77498496 21.62811789 -3.81494141 23.01611328 C-3.90948333 26.41962263 -3.99503288 29.82312243 -4.07275391 33.22705078 C-4.40275391 33.22705078 -4.73275391 33.22705078 -5.07275391 33.22705078 C-5.1221354 28.84881161 -5.15846431 24.47071932 -5.18261719 20.09228516 C-5.19268433 18.60234758 -5.20633908 17.11242981 -5.22363281 15.62255859 C-5.24785043 13.4828605 -5.25922954 11.34342325 -5.26806641 9.20361328 C-5.28377686 7.27122803 -5.28377686 7.27122803 -5.29980469 5.29980469 C-4.98737271 1.07155862 -4.22824607 0.31243198 0 0 Z " fill="#7EB3FF" transform="translate(13.07275390625,9.77294921875)"/>
<path d="M0 0 C0.33 0 0.66 0 1 0 C1.05790353 3.29159316 1.09356261 6.58305603 1.125 9.875 C1.14175781 10.81214844 1.15851562 11.74929687 1.17578125 12.71484375 C1.18222656 13.61074219 1.18867187 14.50664063 1.1953125 15.4296875 C1.20578613 16.25710449 1.21625977 17.08452148 1.22705078 17.93701172 C1 20 1 20 -1 22 C-3.61376953 22.22705078 -3.61376953 22.22705078 -6.8828125 22.1953125 C-8.04941406 22.18886719 -9.21601562 22.18242188 -10.41796875 22.17578125 C-11.64128906 22.15902344 -12.86460938 22.14226563 -14.125 22.125 C-15.35605469 22.11597656 -16.58710937 22.10695313 -17.85546875 22.09765625 C-20.90383815 22.07402548 -23.95182382 22.04108054 -27 22 C-27 21.67 -27 21.34 -27 21 C-26.28344238 20.98018066 -25.56688477 20.96036133 -24.82861328 20.93994141 C-21.5936937 20.84490481 -18.35943906 20.73513981 -15.125 20.625 C-13.99707031 20.5940625 -12.86914062 20.563125 -11.70703125 20.53125 C-10.63066406 20.49257813 -9.55429687 20.45390625 -8.4453125 20.4140625 C-7.45031738 20.3826416 -6.45532227 20.3512207 -5.43017578 20.31884766 C-2.82145483 20.22752917 -2.82145483 20.22752917 -1 18 C-0.63168919 16.06742145 -0.63168919 16.06742145 -0.5859375 13.8671875 C-0.54726563 13.06152344 -0.50859375 12.25585938 -0.46875 11.42578125 C-0.42234375 10.16314453 -0.42234375 10.16314453 -0.375 8.875 C-0.33632813 8.02550781 -0.29765625 7.17601562 -0.2578125 6.30078125 C-0.16343506 4.20088316 -0.08062414 2.10047109 0 0 Z " fill="#6EACFF" transform="translate(55,32)"/>
<path d="M0 0 C2.31 0 4.62 0 7 0 C5.515 1.98 5.515 1.98 4 4 C2.35 3.67 0.7 3.34 -1 3 C-0.67 2.01 -0.34 1.02 0 0 Z " fill="#C5DDFF" transform="translate(27,14)"/>
</svg>
