<svg width="128" height="128" version="1.1" xmlns="http://www.w3.org/2000/svg" desc="Created with imagetracer.js version 1.2.6" ><path fill="rgb(0,0,0)" stroke="rgb(0,0,0)" stroke-width="1" opacity="0" d="M 0 0 L 128 0 L 128 128 L 0 128 L 0 0 Z M 111 2 L 108 10 L 100 11 L 105 18 L 104 26 L 112 22 L 120 26 L 119 23 L 119 18 L 124 11 L 116 10 L 113 4 Q 114 1 111 2 Z M 33 16 L 35 23 L 17 32 L 19 37 L 38 27 L 42 33 L 49 19 L 46 17 L 33 16 Z M 79 22 L 76 30 L 68 31 L 73 38 L 72 46 L 80 42 L 88 46 L 87 43 L 87 38 L 92 31 L 84 30 L 81 24 Q 82 21 79 22 Z M 104 32 L 104 118 L 105 118 L 120 118 L 120 33 L 120 32 L 104 32 Z M 47 42 L 44 50 L 36 51 L 41 58 L 40 66 L 48 62 L 56 66 L 55 63 L 55 58 L 60 51 L 52 50 L 49 44 Q 50 41 47 42 Z M 13 47 L 10 48 L 8 52 Q 6 60 12 62 L 7 63 L 4 67 L 4 84 L 28 84 L 28 67 L 27 65 L 20 62 Q 25 60 24 52 Q 22 45 13 47 Z M 72 52 L 72 118 L 73 118 L 88 118 L 88 53 L 88 52 L 72 52 Z M 40 72 L 40 118 L 56 118 L 56 72 L 40 72 Z M 8 92 L 8 118 L 24 118 L 24 92 L 8 92 Z M 2 122 L 3 126 L 126 126 L 126 122 L 2 122 Z " /><path fill="rgb(219,100,88)" stroke="rgb(219,100,88)" stroke-width="1" opacity="0.8196078431372549" d="M 111 2 Q 113.7 0.9 113 3.5 L 116 10 L 124 11 L 119 17.5 L 119 22.5 L 120 26 L 111.5 22 L 104 26 L 105 17.5 L 100 11 L 108 10 L 111 2 Z " /><path fill="rgb(219,100,88)" stroke="rgb(219,100,88)" stroke-width="1" opacity="0.8196078431372549" d="M 79 22 Q 81.7 20.9 81 23.5 L 84 30 L 92 31 L 87 37.5 L 87 42.5 L 88 46 L 79.5 42 L 72 46 L 73 37.5 L 68 31 L 76 30 L 79 22 Z " /><path fill="rgb(219,100,88)" stroke="rgb(219,100,88)" stroke-width="1" opacity="0.8196078431372549" d="M 47 42 Q 49.7 40.9 49 43.5 L 52 50 L 60 51 L 55 57.5 L 55 62.5 L 56 66 L 47.5 62 L 40 66 L 41 57.5 L 36 51 L 44 50 L 47 42 Z " /><path fill="rgb(219,100,88)" stroke="rgb(219,100,88)" stroke-width="1" opacity="0.8196078431372549" d="M 12.5 47 Q 22.3 45.3 24 51.5 Q 25.1 60.1 19.5 62 Q 9.8 63.8 8 57.5 L 8 51.5 L 10 48 L 12.5 47 Z " /><path fill="rgb(40,112,204)" stroke="rgb(40,112,204)" stroke-width="1" opacity="0.9725490196078431" d="M 8.5 62 L 23.5 62 L 27 64.5 L 28 66.5 L 28 84 L 4 84 L 4 66.5 L 6.5 63 L 8.5 62 Z " /><path fill="rgb(121,136,153)" stroke="rgb(121,136,153)" stroke-width="1" opacity="0.4980392156862745" d="M 32.5 16 L 37 16.5 L 34 17 L 36 24 L 19 32 Q 17.3 36.1 21.5 35 L 39 26 L 41.5 31 L 47 18 L 49 18.5 L 41.5 33 L 37.5 27 L 19 37 L 17 32 L 35 23 L 32.5 16 Z " /><path fill="rgb(121,136,153)" stroke="rgb(121,136,153)" stroke-width="1" opacity="0.4980392156862745" d="M 38.5 17 L 46 17.5 L 38.5 18 L 38.5 17 Z " /><path fill="rgb(90,108,128)" stroke="rgb(90,108,128)" stroke-width="1" opacity="1" d="M 34 17 L 47 18 L 41.5 31 L 39 26 L 21.5 35 L 19 35 Q 17.5 31.3 20.5 32 L 36 24 L 34 17 Z " /><path fill="rgb(89,108,128)" stroke="rgb(89,108,128)" stroke-width="1" opacity="1" d="M 104 32 L 119.5 32 L 120 32.5 L 120 118 L 104.5 118 L 104 117.5 L 104 32 Z " /><path fill="rgb(89,108,128)" stroke="rgb(89,108,128)" stroke-width="1" opacity="1" d="M 72 52 L 87.5 52 L 88 52.5 L 88 118 L 72.5 118 L 72 117.5 L 72 52 Z " /><path fill="rgb(89,108,128)" stroke="rgb(89,108,128)" stroke-width="1" opacity="1" d="M 40 72 L 56 72 L 56 118 L 40 118 L 40 72 Z " /><path fill="rgb(89,108,128)" stroke="rgb(89,108,128)" stroke-width="1" opacity="1" d="M 8 92 L 24 92 L 24 118 L 8 118 L 8 92 Z " /><path fill="rgb(89,108,128)" stroke="rgb(89,108,128)" stroke-width="1" opacity="1" d="M 2 122 L 125.5 122 L 126 126 L 2.5 126 L 2 122 Z " /></svg>