<?xml version="1.0" encoding="UTF-8"?>
<svg version="1.1" xmlns="http://www.w3.org/2000/svg" width="100" height="100">
<path d="M0 0 C0.69626999 -0.00335861 1.39253998 -0.00671722 2.10990906 -0.01017761 C4.41191389 -0.01967773 6.71384592 -0.02163019 9.01586914 -0.02270508 C10.61625702 -0.02591811 12.2166446 -0.02928222 13.81703186 -0.03279114 C17.17197348 -0.03877991 20.52688935 -0.04063128 23.88183594 -0.04003906 C28.18046987 -0.03993741 32.47893874 -0.05359402 36.77753353 -0.07081127 C40.08293924 -0.08192989 43.388305 -0.08395832 46.69372749 -0.08342934 C48.27855562 -0.08460949 49.86338478 -0.08903326 51.4481945 -0.0967617 C53.66479942 -0.10655966 55.88104555 -0.10368456 58.09765625 -0.09765625 C59.98936806 -0.09979378 59.98936806 -0.09979378 61.91929626 -0.10197449 C64.94363247 0.1321137 66.63293462 0.45007328 69.11352539 2.14526367 C70.33336287 4.58493864 70.23404066 6.14430892 70.22705078 8.87036133 C70.22693748 10.34166 70.22693748 10.34166 70.2268219 11.84268188 C70.22166061 12.9041745 70.21649933 13.96566711 70.21118164 15.05932617 C70.20976669 16.14410248 70.20835175 17.22887878 70.20689392 18.3465271 C70.20128342 21.82113367 70.18872911 25.29567648 70.17602539 28.77026367 C70.17101174 31.12182524 70.1664486 33.47338782 70.16235352 35.82495117 C70.15131057 41.59841053 70.13456218 47.37183255 70.11352539 53.14526367 C71.04165039 53.10401367 71.96977539 53.06276367 72.92602539 53.02026367 C76.11352539 53.14526367 76.11352539 53.14526367 79.11352539 55.14526367 C79.48852539 58.64526367 79.48852539 58.64526367 79.11352539 62.14526367 C75.16329742 64.77874898 71.77556478 64.42554485 67.19165039 64.40405273 C65.82296814 64.40930969 65.82296814 64.40930969 64.42663574 64.41467285 C61.40552194 64.42348723 58.38464164 64.41764201 55.36352539 64.41088867 C53.26749629 64.41223541 51.17146749 64.41417601 49.07543945 64.41668701 C44.68055246 64.41963788 40.2857467 64.41534179 35.89086914 64.40600586 C30.25141941 64.39461139 24.61216003 64.40117105 18.97271729 64.41315079 C14.64394694 64.42037037 10.31522189 64.418081 5.9864502 64.4128952 C3.90677874 64.41155898 1.82710321 64.41320547 -0.25256348 64.41785431 C-3.15668667 64.4229211 -6.06049958 64.41520706 -8.96459961 64.40405273 C-9.82807007 64.4081012 -10.69154053 64.41214966 -11.58117676 64.4163208 C-17.54367848 64.37379442 -17.54367848 64.37379442 -20.88647461 62.14526367 C-21.26147461 58.64526367 -21.26147461 58.64526367 -20.88647461 55.14526367 C-17.45126981 52.85512714 -15.90114361 52.96683394 -11.88647461 53.14526367 C-11.89091583 52.53804977 -11.89535706 51.93083588 -11.89993286 51.30522156 C-11.94412073 44.9951716 -11.9743221 38.68516548 -11.99633789 32.375 C-12.00640616 30.01886205 -12.02006167 27.66273663 -12.03735352 25.30664062 C-12.06156537 21.92338981 -12.07294939 18.54030395 -12.08178711 15.15698242 C-12.09210968 14.10065109 -12.10243225 13.04431976 -12.11306763 11.95597839 C-12.11321869 10.97518814 -12.11336975 9.99439789 -12.11352539 8.98388672 C-12.11796661 8.12006882 -12.12240784 7.25625092 -12.12698364 6.36625671 C-11.88647461 4.14526367 -11.88647461 4.14526367 -9.88647461 1.14526367 C-6.40469509 -0.0153295 -3.67447522 0.01111311 0 0 Z " fill="#D1CFDD" transform="translate(20.886474609375,17.854736328125)"/>
<path d="M0 0 C0.69626999 -0.00335861 1.39253998 -0.00671722 2.10990906 -0.01017761 C4.41191389 -0.01967773 6.71384592 -0.02163019 9.01586914 -0.02270508 C10.61625702 -0.02591811 12.2166446 -0.02928222 13.81703186 -0.03279114 C17.17197348 -0.03877991 20.52688935 -0.04063128 23.88183594 -0.04003906 C28.18046987 -0.03993741 32.47893874 -0.05359402 36.77753353 -0.07081127 C40.08293924 -0.08192989 43.388305 -0.08395832 46.69372749 -0.08342934 C48.27855562 -0.08460949 49.86338478 -0.08903326 51.4481945 -0.0967617 C53.66479942 -0.10655966 55.88104555 -0.10368456 58.09765625 -0.09765625 C59.98936806 -0.09979378 59.98936806 -0.09979378 61.91929626 -0.10197449 C64.94363247 0.1321137 66.63293462 0.45007328 69.11352539 2.14526367 C70.33336287 4.58493864 70.23404066 6.14430892 70.22705078 8.87036133 C70.22693748 10.34166 70.22693748 10.34166 70.2268219 11.84268188 C70.22166061 12.9041745 70.21649933 13.96566711 70.21118164 15.05932617 C70.20976669 16.14410248 70.20835175 17.22887878 70.20689392 18.3465271 C70.20128342 21.82113367 70.18872911 25.29567648 70.17602539 28.77026367 C70.17101174 31.12182524 70.1664486 33.47338782 70.16235352 35.82495117 C70.15131057 41.59841053 70.13456218 47.37183255 70.11352539 53.14526367 C71.04165039 53.10401367 71.96977539 53.06276367 72.92602539 53.02026367 C76.11352539 53.14526367 76.11352539 53.14526367 79.11352539 55.14526367 C79.48852539 58.64526367 79.48852539 58.64526367 79.11352539 62.14526367 C75.16329742 64.77874898 71.77556478 64.42554485 67.19165039 64.40405273 C65.82296814 64.40930969 65.82296814 64.40930969 64.42663574 64.41467285 C61.40552194 64.42348723 58.38464164 64.41764201 55.36352539 64.41088867 C53.26749629 64.41223541 51.17146749 64.41417601 49.07543945 64.41668701 C44.68055246 64.41963788 40.2857467 64.41534179 35.89086914 64.40600586 C30.25141941 64.39461139 24.61216003 64.40117105 18.97271729 64.41315079 C14.64394694 64.42037037 10.31522189 64.418081 5.9864502 64.4128952 C3.90677874 64.41155898 1.82710321 64.41320547 -0.25256348 64.41785431 C-3.15668667 64.4229211 -6.06049958 64.41520706 -8.96459961 64.40405273 C-9.82807007 64.4081012 -10.69154053 64.41214966 -11.58117676 64.4163208 C-17.54367848 64.37379442 -17.54367848 64.37379442 -20.88647461 62.14526367 C-21.26147461 58.64526367 -21.26147461 58.64526367 -20.88647461 55.14526367 C-17.45126981 52.85512714 -15.90114361 52.96683394 -11.88647461 53.14526367 C-11.89091583 52.53804977 -11.89535706 51.93083588 -11.89993286 51.30522156 C-11.94412073 44.9951716 -11.9743221 38.68516548 -11.99633789 32.375 C-12.00640616 30.01886205 -12.02006167 27.66273663 -12.03735352 25.30664062 C-12.06156537 21.92338981 -12.07294939 18.54030395 -12.08178711 15.15698242 C-12.09210968 14.10065109 -12.10243225 13.04431976 -12.11306763 11.95597839 C-12.11321869 10.97518814 -12.11336975 9.99439789 -12.11352539 8.98388672 C-12.11796661 8.12006882 -12.12240784 7.25625092 -12.12698364 6.36625671 C-11.88647461 4.14526367 -11.88647461 4.14526367 -9.88647461 1.14526367 C-6.40469509 -0.0153295 -3.67447522 0.01111311 0 0 Z M-4.88647461 7.14526367 C-4.88647461 22.65526367 -4.88647461 38.16526367 -4.88647461 54.14526367 C17.55352539 54.14526367 39.99352539 54.14526367 63.11352539 54.14526367 C63.11352539 38.63526367 63.11352539 23.12526367 63.11352539 7.14526367 C40.67352539 7.14526367 18.23352539 7.14526367 -4.88647461 7.14526367 Z " fill="#817AA2" transform="translate(20.886474609375,17.854736328125)"/>
<path d="M0 0 C1.000811 0.00007553 2.00162201 0.00015106 3.03276062 0.00022888 C4.11096573 0.00539017 5.18917084 0.01055145 6.30004883 0.01586914 C7.40560623 0.01728409 8.51116364 0.01869904 9.65022278 0.02015686 C13.18586925 0.02576025 16.7214527 0.03831335 20.25708008 0.05102539 C22.65226146 0.05603995 25.04744383 0.06060294 27.44262695 0.06469727 C33.31829955 0.07573078 39.19393531 0.09247223 45.06958008 0.11352539 C45.06958008 0.77352539 45.06958008 1.43352539 45.06958008 2.11352539 C44.1366362 2.12565567 44.1366362 2.12565567 43.18484497 2.13803101 C36.72872992 2.22389046 30.27292854 2.32338515 23.81713867 2.4309082 C21.4057338 2.46926186 18.99427045 2.50410329 16.58276367 2.53540039 C13.12242694 2.58091242 9.662495 2.63892943 6.20239258 2.69946289 C4.57734299 2.7167897 4.57734299 2.7167897 2.91946411 2.73446655 C1.91857758 2.75433624 0.91769104 2.77420593 -0.11352539 2.79467773 C-0.9973288 2.8080014 -1.8811322 2.82132507 -2.79171753 2.83505249 C-5.14370242 2.92021543 -5.14370242 2.92021543 -6.93041992 5.11352539 C-7.26111417 7.33548866 -7.26111417 7.33548866 -7.24926758 9.93041992 C-7.26913727 10.93130646 -7.28900696 11.93219299 -7.30947876 12.96340942 C-7.32102997 14.04677582 -7.33258118 15.13014221 -7.34448242 16.24633789 C-7.36384857 17.35331024 -7.38321472 18.46028259 -7.40316772 19.60079956 C-7.46308746 23.14662908 -7.50939865 26.69249084 -7.55541992 30.23852539 C-7.59358827 32.63827936 -7.63263931 35.03801947 -7.67260742 37.43774414 C-7.76879908 43.32954841 -7.85381007 49.22143575 -7.93041992 55.11352539 C-12.38541992 55.60852539 -12.38541992 55.60852539 -16.93041992 56.11352539 C-16.60041992 57.76352539 -16.27041992 59.41352539 -15.93041992 61.11352539 C-12.63041992 61.44352539 -9.33041992 61.77352539 -5.93041992 62.11352539 C-5.93041992 62.77352539 -5.93041992 63.43352539 -5.93041992 64.11352539 C-7.53421333 64.16768727 -9.13853398 64.20639177 -10.74291992 64.23852539 C-11.63624023 64.26172852 -12.52956055 64.28493164 -13.44995117 64.30883789 C-15.93041992 64.11352539 -15.93041992 64.11352539 -18.93041992 62.11352539 C-19.30541992 58.61352539 -19.30541992 58.61352539 -18.93041992 55.11352539 C-15.49521512 52.82338886 -13.94508892 52.93509566 -9.93041992 53.11352539 C-9.93486115 52.50631149 -9.93930237 51.8990976 -9.94387817 51.27348328 C-9.98806604 44.96343332 -10.01826741 38.65342719 -10.0402832 32.34326172 C-10.05035147 29.98712377 -10.06400698 27.63099835 -10.08129883 25.27490234 C-10.10551068 21.89165153 -10.1168947 18.50856567 -10.12573242 15.12524414 C-10.13605499 14.06891281 -10.14637756 13.01258148 -10.15701294 11.92424011 C-10.157164 10.94344986 -10.15731506 9.96265961 -10.1574707 8.95214844 C-10.16191193 8.08833054 -10.16635315 7.22451263 -10.17092896 6.33451843 C-9.93041992 4.11352539 -9.93041992 4.11352539 -7.93041992 1.11352539 C-4.97643234 0.12886286 -3.0779297 -0.00775297 0 0 Z " fill="#B2ADC7" transform="translate(18.930419921875,17.886474609375)"/>
<path d="M0 0 C2.125 0.375 2.125 0.375 4 1 C4.43736628 7.86863859 2.83618825 14.15889785 1.25 20.8125 C0.99734375 21.95654297 0.7446875 23.10058594 0.484375 24.27929688 C0.2265625 25.36919922 -0.03125 26.45910156 -0.296875 27.58203125 C-0.52729492 28.57436768 -0.75771484 29.5667041 -0.99511719 30.58911133 C-2 33 -2 33 -4.10644531 34.33862305 C-4.73131836 34.55687744 -5.35619141 34.77513184 -6 35 C-6.66 34.34 -7.32 33.68 -8 33 C-7.60358493 26.03839496 -6.11679142 19.34609843 -4.5625 12.5625 C-4.23668945 11.07459961 -4.23668945 11.07459961 -3.90429688 9.55664062 C-3.68966797 8.61111328 -3.47503906 7.66558594 -3.25390625 6.69140625 C-3.06127197 5.83748291 -2.8686377 4.98355957 -2.67016602 4.10375977 C-2 2 -2 2 0 0 Z " fill="#827CA3" transform="translate(52,31)"/>
<path d="M0 0 C0.33 0 0.66 0 1 0 C1 9.9 1 19.8 1 30 C2.98 30 4.96 30 7 30 C7.99 30.66 8.98 31.32 10 32 C10.375 35.5 10.375 35.5 10 39 C6.36693942 41.42204038 4.68180977 41.23302891 0.36328125 41.1953125 C-1.58481445 41.18564453 -1.58481445 41.18564453 -3.57226562 41.17578125 C-4.94401307 41.1590706 -6.31575786 41.14214071 -7.6875 41.125 C-9.07095718 41.11496674 -10.45442127 41.10584149 -11.83789062 41.09765625 C-15.22543452 41.07404967 -18.61263072 41.04112037 -22 41 C-22 40.34 -22 39.68 -22 39 C-12.43 38.67 -2.86 38.34 7 38 C7.33 36.35 7.66 34.7 8 33 C5.03 33 2.06 33 -1 33 C-1.02465392 28.46102295 -1.04283789 23.92208457 -1.05493164 19.38305664 C-1.0599714 17.83780234 -1.0668032 16.29255284 -1.07543945 14.74731445 C-1.08752076 12.53074971 -1.09323173 10.31424782 -1.09765625 8.09765625 C-1.10281754 7.4028566 -1.10797882 6.70805695 -1.11329651 5.99220276 C-1.11349277 4.3277067 -1.06189129 2.66334501 -1 1 C-0.67 0.67 -0.34 0.34 0 0 Z " fill="#ACA7C1" transform="translate(90,41)"/>
<path d="M0 0 C2.2578125 -0.265625 2.2578125 -0.265625 5 0 C7.0546875 1.828125 7.0546875 1.828125 8.875 4.25 C9.49117187 5.03890625 10.10734375 5.8278125 10.7421875 6.640625 C12 9 12 9 11.88671875 11.03125 C10.83016901 13.37706969 9.52369942 15.22506457 7.9375 17.25 C7.38964844 17.95640625 6.84179688 18.6628125 6.27734375 19.390625 C5.85582031 19.92171875 5.43429688 20.4528125 5 21 C3.35 20.67 1.7 20.34 0 20 C0.56545837 16.04179141 1.80902348 13.3340947 4 10 C3.34 9.278125 2.68 8.55625 2 7.8125 C-0.1535853 4.78402067 -0.41176754 3.60296594 0 0 Z " fill="#827BA3" transform="translate(63,38)"/>
<path d="M0 0 C1.13695312 0.11601563 1.13695312 0.11601563 2.296875 0.234375 C2.86326408 5.04868221 1.12249127 7.43745314 -1.703125 11.234375 C-1.0225 11.95625 -0.341875 12.678125 0.359375 13.421875 C2.296875 16.234375 2.296875 16.234375 2.046875 19.046875 C1.799375 19.76875 1.551875 20.490625 1.296875 21.234375 C-0.828125 21.234375 -0.828125 21.234375 -3.703125 20.234375 C-6.11184871 17.82012669 -8.19099294 15.29843207 -9.703125 12.234375 C-9.43095661 8.92299287 -7.86426325 6.64420658 -5.953125 3.984375 C-5.21835937 2.92476562 -5.21835937 2.92476562 -4.46875 1.84375 C-2.703125 0.234375 -2.703125 0.234375 0 0 Z " fill="#817BA3" transform="translate(34.703125,37.765625)"/>
<path d="M0 0 C2.19596252 0.00502731 4.39192615 0.00958803 6.58789062 0.01367188 C11.91278528 0.02457466 17.23763724 0.04121426 22.5625 0.0625 C22.5625 0.3925 22.5625 0.7225 22.5625 1.0625 C12.9925 1.0625 3.4225 1.0625 -6.4375 1.0625 C-6.4375 1.7225 -6.4375 2.3825 -6.4375 3.0625 C-17.6575 3.0625 -28.8775 3.0625 -40.4375 3.0625 C-40.1075 2.4025 -39.7775 1.7425 -39.4375 1.0625 C-26.59978417 -1.03586514 -12.95545046 -0.05197478 0 0 Z " fill="#8F89AD" transform="translate(74.4375,78.9375)"/>
<path d="M0 0 C0.33 0 0.66 0 1 0 C1 8.25 1 16.5 1 25 C-1.97 25.33 -4.94 25.66 -8 26 C-7.67 27.65 -7.34 29.3 -7 31 C-3.7 31.33 -0.4 31.66 3 32 C3 32.66 3 33.32 3 34 C1.39620659 34.05416188 -0.20811406 34.09286638 -1.8125 34.125 C-2.70582031 34.14820313 -3.59914063 34.17140625 -4.51953125 34.1953125 C-7 34 -7 34 -10 32 C-10.375 28.5 -10.375 28.5 -10 25 C-6.5647952 22.70986347 -5.014669 22.82157027 -1 23 C-1.00523682 22.37432129 -1.01047363 21.74864258 -1.01586914 21.10400391 C-1.03661618 18.27767943 -1.04965286 15.45137095 -1.0625 12.625 C-1.07087891 11.64015625 -1.07925781 10.6553125 -1.08789062 9.640625 C-1.09111328 8.69960938 -1.09433594 7.75859375 -1.09765625 6.7890625 C-1.10289307 5.91975098 -1.10812988 5.05043945 -1.11352539 4.15478516 C-1 2 -1 2 0 0 Z " fill="#9D97B7" transform="translate(10,48)"/>
<path d="M0 0 C5.61 0 11.22 0 17 0 C16.67 0.66 16.34 1.32 16 2 C9.26446828 3.53645037 2.27922998 3.12591882 -4.58984375 3.09765625 C-6.53933678 3.09553383 -6.53933678 3.09553383 -8.5282135 3.09336853 C-11.96243253 3.08957334 -15.39660842 3.07976908 -18.83081055 3.06866455 C-22.34358131 3.05838555 -25.85635912 3.05385708 -29.36914062 3.04882812 C-36.24611133 3.03814376 -43.12305359 3.02110388 -50 3 C-50 2.67 -50 2.34 -50 2 C-33.5 2 -17 2 0 2 C0 1.34 0 0.68 0 0 Z " fill="#8F89AC" transform="translate(64,18)"/>
<path d="M0 0 C0.33 0 0.66 0 1 0 C1 9.9 1 19.8 1 30 C2.98 30 4.96 30 7 30 C6.67 30.99 6.34 31.98 6 33 C3.69 33 1.38 33 -1 33 C-1.02465392 28.46102295 -1.04283789 23.92208457 -1.05493164 19.38305664 C-1.0599714 17.83780234 -1.0668032 16.29255284 -1.07543945 14.74731445 C-1.08752076 12.53074971 -1.09323173 10.31424782 -1.09765625 8.09765625 C-1.10281754 7.4028566 -1.10797882 6.70805695 -1.11329651 5.99220276 C-1.11349277 4.3277067 -1.06189129 2.66334501 -1 1 C-0.67 0.67 -0.34 0.34 0 0 Z " fill="#A09CB9" transform="translate(90,41)"/>
<path d="M0 0 C0.66 0.66 1.32 1.32 2 2 C1.37351562 2.02578125 0.74703125 2.0515625 0.1015625 2.078125 C-0.71570312 2.13484375 -1.53296875 2.1915625 -2.375 2.25 C-3.18710938 2.29640625 -3.99921875 2.3428125 -4.8359375 2.390625 C-7.18838927 2.7922092 -7.18838927 2.7922092 -8.2890625 5.046875 C-8.52367187 5.69140625 -8.75828125 6.3359375 -9 7 C-9.1875 4.625 -9.1875 4.625 -9 2 C-5.54754176 -0.30163882 -4.05261287 -0.34490322 0 0 Z " fill="#9A94B4" transform="translate(9,71)"/>
</svg>
