<svg width="128" height="128" version="1.1" xmlns="http://www.w3.org/2000/svg" desc="Created with imagetracer.js version 1.2.6" ><path fill="rgb(57,173,65)" stroke="rgb(57,173,65)" stroke-width="1" opacity="0.7411764705882353" d="M 56.5 0 L 60 0.5 L 56.5 1 L 56.5 0 Z " /><path fill="rgb(57,173,65)" stroke="rgb(57,173,65)" stroke-width="1" opacity="0.7411764705882353" d="M 68.5 0 L 72 0.5 L 68.5 1 L 68.5 0 Z " /><path fill="rgb(57,173,65)" stroke="rgb(57,173,65)" stroke-width="1" opacity="0.7411764705882353" d="M 97.5 9 L 98.5 11 L 97.5 9 Z " /><path fill="rgb(57,173,65)" stroke="rgb(57,173,65)" stroke-width="1" opacity="0.7411764705882353" d="M 27.5 11 L 26.5 13 L 27.5 11 Z " /><path fill="rgb(57,173,65)" stroke="rgb(57,173,65)" stroke-width="1" opacity="0.7411764705882353" d="M 56.5 11 L 59 11.5 L 56.5 12 L 56.5 11 Z " /><path fill="rgb(57,173,65)" stroke="rgb(57,173,65)" stroke-width="1" opacity="0.7411764705882353" d="M 69.5 11 L 72 11.5 L 69.5 12 L 69.5 11 Z " /><path fill="rgb(57,173,65)" stroke="rgb(57,173,65)" stroke-width="1" opacity="0.7411764705882353" d="M 100.5 11 L 101.5 13 L 100.5 11 Z " /><path fill="rgb(57,173,65)" stroke="rgb(57,173,65)" stroke-width="1" opacity="0.7411764705882353" d="M 23.5 14 L 14.5 24 L 23.5 14 Z " /><path fill="rgb(57,173,65)" stroke="rgb(57,173,65)" stroke-width="1" opacity="0.7411764705882353" d="M 104.5 14 L 113.5 24 L 104.5 14 Z " /><path fill="rgb(57,173,65)" stroke="rgb(57,173,65)" stroke-width="1" opacity="0.7411764705882353" d="M 33.5 20 L 31.5 23 L 33.5 20 Z " /><path fill="rgb(57,173,65)" stroke="rgb(57,173,65)" stroke-width="1" opacity="0.7411764705882353" d="M 27.5 25 L 25.5 28 L 27.5 25 Z " /><path fill="rgb(57,173,65)" stroke="rgb(57,173,65)" stroke-width="1" opacity="0.7411764705882353" d="M 100.5 25 L 102.5 28 L 100.5 25 Z " /><path fill="rgb(57,173,65)" stroke="rgb(57,173,65)" stroke-width="1" opacity="0.7411764705882353" d="M 12.5 26 L 11.5 28 L 12.5 26 Z " /><path fill="rgb(57,173,65)" stroke="rgb(57,173,65)" stroke-width="1" opacity="0.7411764705882353" d="M 115.5 26 L 116.5 28 L 115.5 26 Z " /><path fill="rgb(57,173,65)" stroke="rgb(57,173,65)" stroke-width="1" opacity="0.7411764705882353" d="M 10.5 29 L 9.5 31 L 10.5 29 Z " /><path fill="rgb(57,173,65)" stroke="rgb(57,173,65)" stroke-width="1" opacity="0.7411764705882353" d="M 117.5 29 L 118.5 31 L 117.5 29 Z " /><path fill="rgb(57,173,65)" stroke="rgb(57,173,65)" stroke-width="1" opacity="0.7411764705882353" d="M 105.5 31 L 106.5 33 L 105.5 31 Z " /><path fill="rgb(57,173,65)" stroke="rgb(57,173,65)" stroke-width="1" opacity="0.7411764705882353" d="M 21.5 32 L 20.5 34 L 21.5 32 Z " /><path fill="rgb(57,173,65)" stroke="rgb(57,173,65)" stroke-width="1" opacity="0.7411764705882353" d="M 40.5 35 L 39.5 37 L 40.5 35 Z " /><path fill="rgb(57,173,65)" stroke="rgb(57,173,65)" stroke-width="1" opacity="0.7411764705882353" d="M 47.5 36 L 49.5 39 L 47.5 36 Z " /><path fill="rgb(57,173,65)" stroke="rgb(57,173,65)" stroke-width="1" opacity="0.7411764705882353" d="M 35.5 40 L 34.5 42 L 35.5 40 Z " /><path fill="rgb(57,173,65)" stroke="rgb(57,173,65)" stroke-width="1" opacity="0.7411764705882353" d="M 53.5 47 L 54 51.5 L 53 51.5 L 53.5 47 Z " /><path fill="rgb(57,173,65)" stroke="rgb(57,173,65)" stroke-width="1" opacity="0.7411764705882353" d="M 0.5 56 L 1 59.5 L 0 59.5 L 0.5 56 Z " /><path fill="rgb(57,173,65)" stroke="rgb(57,173,65)" stroke-width="1" opacity="0.7411764705882353" d="M 11.5 56 L 12 58.5 L 11 58.5 L 11.5 56 Z " /><path fill="rgb(57,173,65)" stroke="rgb(57,173,65)" stroke-width="1" opacity="0.7411764705882353" d="M 50.5 56 L 49.5 58 L 50.5 56 Z " /><path fill="rgb(57,173,65)" stroke="rgb(57,173,65)" stroke-width="1" opacity="0.7411764705882353" d="M 116.5 56 L 117 58.5 L 116 58.5 L 116.5 56 Z " /><path fill="rgb(57,173,65)" stroke="rgb(57,173,65)" stroke-width="1" opacity="0.7411764705882353" d="M 127.5 56 L 128 59.5 L 127 59.5 L 127.5 56 Z " /><path fill="rgb(57,173,65)" stroke="rgb(57,173,65)" stroke-width="1" opacity="0.7411764705882353" d="M 37.5 63 L 38.5 65 L 37.5 63 Z " /><path fill="rgb(57,173,65)" stroke="rgb(57,173,65)" stroke-width="1" opacity="0.7411764705882353" d="M 52.5 65 L 55.5 69 L 52.5 65 Z " /><path fill="rgb(57,173,65)" stroke="rgb(57,173,65)" stroke-width="1" opacity="0.7411764705882353" d="M 39.5 66 L 40.5 68 L 39.5 66 Z " /><path fill="rgb(57,173,65)" stroke="rgb(57,173,65)" stroke-width="1" opacity="0.7411764705882353" d="M 0.5 68 L 1 71.5 L 0 71.5 L 0.5 68 Z " /><path fill="rgb(57,173,65)" stroke="rgb(57,173,65)" stroke-width="1" opacity="0.7411764705882353" d="M 127.5 68 L 128 71.5 L 127 71.5 L 127.5 68 Z " /><path fill="rgb(57,173,65)" stroke="rgb(57,173,65)" stroke-width="1" opacity="0.7411764705882353" d="M 11.5 69 L 12 72.5 L 11 72.5 L 11.5 69 Z " /><path fill="rgb(57,173,65)" stroke="rgb(57,173,65)" stroke-width="1" opacity="0.7411764705882353" d="M 116.5 69 L 117 71.5 L 116 71.5 L 116.5 69 Z " /><path fill="rgb(57,173,65)" stroke="rgb(57,173,65)" stroke-width="1" opacity="0.7411764705882353" d="M 42.5 70 L 51.5 80 L 42.5 70 Z " /><path fill="rgb(57,173,65)" stroke="rgb(57,173,65)" stroke-width="1" opacity="0.7411764705882353" d="M 57.5 70 L 59.5 73 L 57.5 70 Z " /><path fill="rgb(57,173,65)" stroke="rgb(57,173,65)" stroke-width="1" opacity="0.7411764705882353" d="M 79.5 71 L 84 71.5 L 79.5 72 L 79.5 71 Z " /><path fill="rgb(57,173,65)" stroke="rgb(57,173,65)" stroke-width="1" opacity="0.7411764705882353" d="M 62.5 74 L 63.5 76 L 62.5 74 Z " /><path fill="rgb(57,173,65)" stroke="rgb(57,173,65)" stroke-width="1" opacity="0.7411764705882353" d="M 76.5 74 L 75.5 76 L 76.5 74 Z " /><path fill="rgb(57,173,65)" stroke="rgb(57,173,65)" stroke-width="1" opacity="0.7411764705882353" d="M 74.5 77 L 73.5 79 L 74.5 77 Z " /><path fill="rgb(57,173,65)" stroke="rgb(57,173,65)" stroke-width="1" opacity="0.7411764705882353" d="M 90.5 90 L 89.5 92 L 90.5 90 Z " /><path fill="rgb(57,173,65)" stroke="rgb(57,173,65)" stroke-width="1" opacity="0.7411764705882353" d="M 20.5 94 L 21.5 96 L 20.5 94 Z " /><path fill="rgb(57,173,65)" stroke="rgb(57,173,65)" stroke-width="1" opacity="0.7411764705882353" d="M 106.5 95 L 105.5 97 L 106.5 95 Z " /><path fill="rgb(57,173,65)" stroke="rgb(57,173,65)" stroke-width="1" opacity="0.7411764705882353" d="M 118.5 97 L 117.5 99 L 118.5 97 Z " /><path fill="rgb(57,173,65)" stroke="rgb(57,173,65)" stroke-width="1" opacity="0.7411764705882353" d="M 102.5 100 L 100.5 103 L 102.5 100 Z " /><path fill="rgb(57,173,65)" stroke="rgb(57,173,65)" stroke-width="1" opacity="0.7411764705882353" d="M 116.5 100 L 115.5 102 L 116.5 100 Z " /><path fill="rgb(57,173,65)" stroke="rgb(57,173,65)" stroke-width="1" opacity="0.7411764705882353" d="M 113.5 104 L 104.5 114 L 113.5 104 Z " /><path fill="rgb(57,173,65)" stroke="rgb(57,173,65)" stroke-width="1" opacity="0.7411764705882353" d="M 101.5 115 L 100.5 117 L 101.5 115 Z " /><path fill="rgb(57,173,65)" stroke="rgb(57,173,65)" stroke-width="1" opacity="0.7411764705882353" d="M 56.5 116 L 59 116.5 L 56.5 117 L 56.5 116 Z " /><path fill="rgb(57,173,65)" stroke="rgb(57,173,65)" stroke-width="1" opacity="0.7411764705882353" d="M 69.5 116 L 72 116.5 L 69.5 117 L 69.5 116 Z " /><path fill="rgb(57,173,65)" stroke="rgb(57,173,65)" stroke-width="1" opacity="0.7411764705882353" d="M 98.5 117 L 97.5 119 L 98.5 117 Z " /><path fill="rgb(57,173,65)" stroke="rgb(57,173,65)" stroke-width="1" opacity="0.7411764705882353" d="M 32.5 120 L 35 120.5 L 32.5 121 L 32.5 120 Z " /><path fill="rgb(57,173,65)" stroke="rgb(57,173,65)" stroke-width="1" opacity="0.7411764705882353" d="M 56.5 127 L 60 127.5 L 56.5 128 L 56.5 127 Z " /><path fill="rgb(57,173,65)" stroke="rgb(57,173,65)" stroke-width="1" opacity="0.7411764705882353" d="M 68.5 127 L 72 127.5 L 68.5 128 L 68.5 127 Z " /><path fill="rgb(0,0,0)" stroke="rgb(0,0,0)" stroke-width="1" opacity="0" d="M 0 0 L 52 0.5 Q 27.3 5.8 14 22.5 L 3 41.5 L 0.5 52 L 0 0 Z " /><path fill="rgb(0,0,0)" stroke="rgb(0,0,0)" stroke-width="1" opacity="0" d="M 76.5 0 L 128 0 L 128 51.5 L 127 51.5 Q 122.1 26.9 105.5 14 L 86.5 3 L 76.5 1 L 76.5 0 Z " /><path fill="rgb(0,0,0)" stroke="rgb(0,0,0)" stroke-width="1" opacity="0" d="M 55.5 12 L 72.5 12 L 80.5 14 Q 95.8 19.7 105 31.5 L 114 47.5 L 116 55.5 L 116 72.5 Q 111.5 94 96.5 105 Q 88.5 112 76.5 115 Q 68.2 117.7 55.5 116 L 33.5 108 L 17.5 113 L 17 111.5 Q 21.7 105.7 23 96.5 L 14 80.5 L 12 72.5 L 12 55.5 Q 16.5 34 31.5 23 Q 40.8 14.8 55.5 12 Z M 42 34 L 40 35 Q 34 38 32 46 Q 31 54 34 59 L 42 72 Q 55 88 78 94 Q 86 95 91 92 Q 98 90 96 79 Q 92 73 86 71 L 79 71 L 73 78 Q 63 77 59 71 L 50 61 Q 50 55 54 54 Q 55 42 50 38 Q 48 33 42 34 Z " /><path fill="rgb(0,0,0)" stroke="rgb(0,0,0)" stroke-width="1" opacity="0" d="M 0.5 75 L 2 83.5 L 9 97.5 L 9 100.5 L 0.5 119 L 0.5 75 Z " /><path fill="rgb(0,0,0)" stroke="rgb(0,0,0)" stroke-width="1" opacity="0" d="M 127.5 76 L 128 128 L 75 127.5 Q 100.6 122.6 114 105.5 L 125 86.5 L 127.5 76 Z " /><path fill="rgb(0,0,0)" stroke="rgb(0,0,0)" stroke-width="1" opacity="0" d="M 32.5 121 L 44.5 126 L 53 127.5 L 11.5 128 L 11.5 127 L 18.5 126 L 32.5 121 Z " /><path fill="rgb(0,0,0)" stroke="rgb(0,0,0)" stroke-width="1" opacity="0" d="M 0.5 126 L 1.5 128 Q -1.3 128.7 0.5 126 Z " /><path fill="rgb(57,174,65)" stroke="rgb(57,174,65)" stroke-width="1" opacity="0.996078431372549" d="M 60.5 0 L 63 0.5 L 60.5 1 L 60.5 0 Z " /><path fill="rgb(57,174,65)" stroke="rgb(57,174,65)" stroke-width="1" opacity="0.996078431372549" d="M 65.5 0 L 68 0.5 L 65.5 1 L 65.5 0 Z " /><path fill="rgb(57,174,65)" stroke="rgb(57,174,65)" stroke-width="1" opacity="0.996078431372549" d="M 25.5 13 L 24.5 15 L 25.5 13 Z " /><path fill="rgb(57,174,65)" stroke="rgb(57,174,65)" stroke-width="1" opacity="0.996078431372549" d="M 102.5 13 L 103.5 15 L 102.5 13 Z " /><path fill="rgb(57,174,65)" stroke="rgb(57,174,65)" stroke-width="1" opacity="0.996078431372549" d="M 93.5 19 L 94.5 21 L 93.5 19 Z " /><path fill="rgb(57,174,65)" stroke="rgb(57,174,65)" stroke-width="1" opacity="0.996078431372549" d="M 30.5 22 L 28.5 25 L 30.5 22 Z " /><path fill="rgb(57,174,65)" stroke="rgb(57,174,65)" stroke-width="1" opacity="0.996078431372549" d="M 97.5 22 L 99.5 25 L 97.5 22 Z " /><path fill="rgb(57,174,65)" stroke="rgb(57,174,65)" stroke-width="1" opacity="0.996078431372549" d="M 14.5 24 L 13.5 26 L 14.5 24 Z " /><path fill="rgb(57,174,65)" stroke="rgb(57,174,65)" stroke-width="1" opacity="0.996078431372549" d="M 113.5 24 L 114.5 26 L 113.5 24 Z " /><path fill="rgb(57,174,65)" stroke="rgb(57,174,65)" stroke-width="1" opacity="0.996078431372549" d="M 24.5 28 L 22.5 31 L 24.5 28 Z " /><path fill="rgb(57,174,65)" stroke="rgb(57,174,65)" stroke-width="1" opacity="0.996078431372549" d="M 103.5 28 L 105.5 31 L 103.5 28 Z " /><path fill="rgb(57,174,65)" stroke="rgb(57,174,65)" stroke-width="1" opacity="0.996078431372549" d="M 107.5 33 L 108.5 35 L 107.5 33 Z " /><path fill="rgb(57,174,65)" stroke="rgb(57,174,65)" stroke-width="1" opacity="0.996078431372549" d="M 38.5 37 L 36.5 40 L 38.5 37 Z " /><path fill="rgb(57,174,65)" stroke="rgb(57,174,65)" stroke-width="1" opacity="0.996078431372549" d="M 0.5 60 L 1 67.5 L 0 67.5 L 0.5 60 Z " /><path fill="rgb(57,174,65)" stroke="rgb(57,174,65)" stroke-width="1" opacity="0.996078431372549" d="M 127.5 60 L 128 67.5 L 127 67.5 L 127.5 60 Z " /><path fill="rgb(57,174,65)" stroke="rgb(57,174,65)" stroke-width="1" opacity="0.996078431372549" d="M 41.5 68 L 42.5 70 L 41.5 68 Z " /><path fill="rgb(57,174,65)" stroke="rgb(57,174,65)" stroke-width="1" opacity="0.996078431372549" d="M 78.5 72 L 77.5 74 L 78.5 72 Z " /><path fill="rgb(57,174,65)" stroke="rgb(57,174,65)" stroke-width="1" opacity="0.996078431372549" d="M 60.5 73 L 61.5 75 L 60.5 73 Z " /><path fill="rgb(57,174,65)" stroke="rgb(57,174,65)" stroke-width="1" opacity="0.996078431372549" d="M 91.5 75 L 94.5 79 L 91.5 75 Z " /><path fill="rgb(57,174,65)" stroke="rgb(57,174,65)" stroke-width="1" opacity="0.996078431372549" d="M 53.5 80 L 54.5 82 L 53.5 80 Z " /><path fill="rgb(57,174,65)" stroke="rgb(57,174,65)" stroke-width="1" opacity="0.996078431372549" d="M 92.5 88 L 91.5 90 L 92.5 88 Z " /><path fill="rgb(57,174,65)" stroke="rgb(57,174,65)" stroke-width="1" opacity="0.996078431372549" d="M 108.5 93 L 107.5 95 L 108.5 93 Z " /><path fill="rgb(57,174,65)" stroke="rgb(57,174,65)" stroke-width="1" opacity="0.996078431372549" d="M 105.5 97 L 103.5 100 L 105.5 97 Z " /><path fill="rgb(57,174,65)" stroke="rgb(57,174,65)" stroke-width="1" opacity="0.996078431372549" d="M 114.5 102 L 113.5 104 L 114.5 102 Z " /><path fill="rgb(57,174,65)" stroke="rgb(57,174,65)" stroke-width="1" opacity="0.996078431372549" d="M 99.5 103 L 97.5 106 L 99.5 103 Z " /><path fill="rgb(57,174,65)" stroke="rgb(57,174,65)" stroke-width="1" opacity="0.996078431372549" d="M 94.5 107 L 93.5 109 L 94.5 107 Z " /><path fill="rgb(57,174,65)" stroke="rgb(57,174,65)" stroke-width="1" opacity="0.996078431372549" d="M 103.5 113 L 102.5 115 L 103.5 113 Z " /><path fill="rgb(57,174,65)" stroke="rgb(57,174,65)" stroke-width="1" opacity="0.996078431372549" d="M 1.5 125 L 2.5 127 L 1.5 125 Z " /><path fill="rgb(57,174,65)" stroke="rgb(57,174,65)" stroke-width="1" opacity="0.996078431372549" d="M 60.5 127 L 63 127.5 L 60.5 128 L 60.5 127 Z " /><path fill="rgb(57,174,65)" stroke="rgb(57,174,65)" stroke-width="1" opacity="0.996078431372549" d="M 65.5 127 L 68 127.5 L 65.5 128 L 65.5 127 Z " /><path fill="rgb(57,174,65)" stroke="rgb(57,174,65)" stroke-width="1" opacity="1" d="M 63.5 0 L 79.5 2 L 90.5 6 Q 103.9 12.6 113 23.5 Q 121 32.5 125 45.5 L 127 53.5 L 127 74.5 Q 121.7 99.7 104.5 113 Q 96.6 120.1 85.5 124 L 74.5 127 Q 67 125.5 63.5 128 L 62.5 127 L 53.5 127 L 45.5 125 L 32.5 120 L 10.5 127 L 3.5 127 Q -0.3 125.8 1 119.5 L 11 98.5 L 6 90.5 L 1 74.5 L 1 53.5 Q 6.3 28.3 23.5 15 L 42.5 4 L 53.5 1 L 62.5 1 L 63.5 0 Z M 56 11 Q 40 14 31 22 Q 15 33 11 56 Q 9 69 12 78 Q 15 90 22 98 L 16 113 L 16 114 L 35 109 Q 43 115 56 117 L 73 117 L 78 116 L 98 106 Q 113 95 117 73 L 117 56 L 116 51 L 106 31 Q 98 19 84 14 L 73 11 L 56 11 Z " /><path fill="rgb(57,174,65)" stroke="rgb(57,174,65)" stroke-width="1" opacity="1" d="M 42.5 35 L 49 38.5 Q 54 42.5 53 52.5 L 49 57.5 L 49 61.5 L 55 70 L 64.5 77 L 72.5 80 L 79.5 72 Q 91.3 71.7 95 79.5 L 95 84.5 L 89.5 91 Q 85.5 94 77.5 93 Q 55.3 86.7 43 70.5 L 34 55.5 L 33 46.5 Q 34.8 39.3 40.5 36 L 42.5 35 Z " /><path fill="rgb(52,177,65)" stroke="rgb(52,177,65)" stroke-width="1" opacity="0.17254901960784313" d="M 52.5 0 L 56 0.5 L 52.5 1 L 52.5 0 Z " /><path fill="rgb(52,177,65)" stroke="rgb(52,177,65)" stroke-width="1" opacity="0.17254901960784313" d="M 72.5 0 L 76 0.5 L 72.5 1 L 72.5 0 Z " /><path fill="rgb(52,177,65)" stroke="rgb(52,177,65)" stroke-width="1" opacity="0.17254901960784313" d="M 31.5 8 L 30.5 10 L 28.5 11 L 29.5 9 L 31.5 8 Z " /><path fill="rgb(52,177,65)" stroke="rgb(52,177,65)" stroke-width="1" opacity="0.17254901960784313" d="M 98.5 9 L 99.5 11 L 98.5 9 Z " /><path fill="rgb(52,177,65)" stroke="rgb(52,177,65)" stroke-width="1" opacity="0.17254901960784313" d="M 26.5 11 L 24.5 14 L 26.5 11 Z " /><path fill="rgb(52,177,65)" stroke="rgb(52,177,65)" stroke-width="1" opacity="0.17254901960784313" d="M 59.5 11 L 69 11.5 L 59.5 12 L 59.5 11 Z " /><path fill="rgb(52,177,65)" stroke="rgb(52,177,65)" stroke-width="1" opacity="0.17254901960784313" d="M 101.5 11 L 103.5 14 L 101.5 11 Z " /><path fill="rgb(52,177,65)" stroke="rgb(52,177,65)" stroke-width="1" opacity="0.17254901960784313" d="M 22.5 14 L 14.5 23 L 22.5 14 Z " /><path fill="rgb(52,177,65)" stroke="rgb(52,177,65)" stroke-width="1" opacity="0.17254901960784313" d="M 105.5 14 L 113.5 23 L 105.5 14 Z " /><path fill="rgb(52,177,65)" stroke="rgb(52,177,65)" stroke-width="1" opacity="0.17254901960784313" d="M 39.5 17 L 38.5 19 L 36.5 20 L 37.5 18 L 39.5 17 Z " /><path fill="rgb(52,177,65)" stroke="rgb(52,177,65)" stroke-width="1" opacity="0.17254901960784313" d="M 88.5 17 L 92 19.5 L 90.5 19 L 88.5 17 Z " /><path fill="rgb(52,177,65)" stroke="rgb(52,177,65)" stroke-width="1" opacity="0.17254901960784313" d="M 34.5 20 L 32.5 23 L 34.5 20 Z " /><path fill="rgb(52,177,65)" stroke="rgb(52,177,65)" stroke-width="1" opacity="0.17254901960784313" d="M 93.5 20 L 105 30.5 L 96.5 23 L 93.5 20 Z " /><path fill="rgb(52,177,65)" stroke="rgb(52,177,65)" stroke-width="1" opacity="0.17254901960784313" d="M 30.5 23 L 23 31.5 L 20.5 35 L 22 32.5 L 30.5 23 Z " /><path fill="rgb(52,177,65)" stroke="rgb(52,177,65)" stroke-width="1" opacity="0.17254901960784313" d="M 13.5 24 L 11.5 27 L 13.5 24 Z " /><path fill="rgb(52,177,65)" stroke="rgb(52,177,65)" stroke-width="1" opacity="0.17254901960784313" d="M 114.5 24 L 116.5 27 L 114.5 24 Z " /><path fill="rgb(52,177,65)" stroke="rgb(52,177,65)" stroke-width="1" opacity="0.17254901960784313" d="M 10.5 28 L 9.5 30 L 10.5 28 Z " /><path fill="rgb(52,177,65)" stroke="rgb(52,177,65)" stroke-width="1" opacity="0.17254901960784313" d="M 117.5 28 L 118.5 30 L 117.5 28 Z " /><path fill="rgb(52,177,65)" stroke="rgb(52,177,65)" stroke-width="1" opacity="0.17254901960784313" d="M 105.5 32 L 107.5 35 L 105.5 32 Z " /><path fill="rgb(52,177,65)" stroke="rgb(52,177,65)" stroke-width="1" opacity="0.17254901960784313" d="M 41.5 34 L 45 34.5 L 41.5 35 L 41.5 34 Z " /><path fill="rgb(52,177,65)" stroke="rgb(52,177,65)" stroke-width="1" opacity="0.17254901960784313" d="M 39.5 35 L 34.5 41 L 39.5 35 Z " /><path fill="rgb(52,177,65)" stroke="rgb(52,177,65)" stroke-width="1" opacity="0.17254901960784313" d="M 19.5 36 L 19 37.5 L 17.5 40 L 18 38.5 L 19.5 36 Z " /><path fill="rgb(52,177,65)" stroke="rgb(52,177,65)" stroke-width="1" opacity="0.17254901960784313" d="M 48.5 36 L 49.5 38 L 48.5 36 Z " /><path fill="rgb(52,177,65)" stroke="rgb(52,177,65)" stroke-width="1" opacity="0.17254901960784313" d="M 108.5 36 L 111 39.5 L 109 38.5 L 108.5 36 Z " /><path fill="rgb(52,177,65)" stroke="rgb(52,177,65)" stroke-width="1" opacity="0.17254901960784313" d="M 50.5 39 L 53 43.5 L 52 43.5 L 50.5 39 Z " /><path fill="rgb(52,177,65)" stroke="rgb(52,177,65)" stroke-width="1" opacity="0.17254901960784313" d="M 32.5 45 L 33 52.5 L 32 52.5 L 32.5 45 Z " /><path fill="rgb(52,177,65)" stroke="rgb(52,177,65)" stroke-width="1" opacity="0.17254901960784313" d="M 0.5 52 L 1 55.5 L 0 55.5 L 0.5 52 Z " /><path fill="rgb(52,177,65)" stroke="rgb(52,177,65)" stroke-width="1" opacity="0.17254901960784313" d="M 53.5 52 L 54 53.5 L 51 55.5 L 53.5 52 Z " /><path fill="rgb(52,177,65)" stroke="rgb(52,177,65)" stroke-width="1" opacity="0.17254901960784313" d="M 127.5 52 L 128 55.5 L 127 55.5 L 127.5 52 Z " /><path fill="rgb(52,177,65)" stroke="rgb(52,177,65)" stroke-width="1" opacity="0.17254901960784313" d="M 50.5 57 L 50 58.5 L 49.5 60 L 49 58.5 L 50.5 57 Z " /><path fill="rgb(52,177,65)" stroke="rgb(52,177,65)" stroke-width="1" opacity="0.17254901960784313" d="M 11.5 59 L 12 68.5 L 11 68.5 L 11.5 59 Z " /><path fill="rgb(52,177,65)" stroke="rgb(52,177,65)" stroke-width="1" opacity="0.17254901960784313" d="M 116.5 59 L 117 68.5 L 116 68.5 L 116.5 59 Z " /><path fill="rgb(52,177,65)" stroke="rgb(52,177,65)" stroke-width="1" opacity="0.17254901960784313" d="M 50.5 61 L 55 66.5 L 51 63.5 L 50.5 61 Z " /><path fill="rgb(52,177,65)" stroke="rgb(52,177,65)" stroke-width="1" opacity="0.17254901960784313" d="M 37.5 64 L 38.5 66 L 37.5 64 Z " /><path fill="rgb(52,177,65)" stroke="rgb(52,177,65)" stroke-width="1" opacity="0.17254901960784313" d="M 39.5 67 L 41.5 70 L 39.5 67 Z " /><path fill="rgb(52,177,65)" stroke="rgb(52,177,65)" stroke-width="1" opacity="0.17254901960784313" d="M 42.5 71 L 50.5 80 L 42.5 71 Z " /><path fill="rgb(52,177,65)" stroke="rgb(52,177,65)" stroke-width="1" opacity="0.17254901960784313" d="M 59.5 71 L 61.5 74 L 59.5 71 Z " /><path fill="rgb(52,177,65)" stroke="rgb(52,177,65)" stroke-width="1" opacity="0.17254901960784313" d="M 78.5 71 L 75.5 75 L 78.5 71 Z " /><path fill="rgb(52,177,65)" stroke="rgb(52,177,65)" stroke-width="1" opacity="0.17254901960784313" d="M 0.5 72 L 1 74.5 L 0 74.5 L 0.5 72 Z " /><path fill="rgb(52,177,65)" stroke="rgb(52,177,65)" stroke-width="1" opacity="0.17254901960784313" d="M 127.5 72 L 128 75.5 L 127 75.5 L 127.5 72 Z " /><path fill="rgb(52,177,65)" stroke="rgb(52,177,65)" stroke-width="1" opacity="0.17254901960784313" d="M 63.5 74 L 64.5 76 L 63.5 74 Z " /><path fill="rgb(52,177,65)" stroke="rgb(52,177,65)" stroke-width="1" opacity="0.17254901960784313" d="M 91.5 74 L 96 79.5 L 95 79.5 L 91.5 74 Z " /><path fill="rgb(52,177,65)" stroke="rgb(52,177,65)" stroke-width="1" opacity="0.17254901960784313" d="M 74.5 76 L 72.5 79 L 70 78.5 L 74.5 76 Z " /><path fill="rgb(52,177,65)" stroke="rgb(52,177,65)" stroke-width="1" opacity="0.17254901960784313" d="M 52.5 80 L 61 86.5 L 59.5 86 Q 54 84.2 52.5 80 Z " /><path fill="rgb(52,177,65)" stroke="rgb(52,177,65)" stroke-width="1" opacity="0.17254901960784313" d="M 95.5 84 L 96 85.5 L 90.5 92 L 94 87.5 L 95.5 84 Z " /><path fill="rgb(52,177,65)" stroke="rgb(52,177,65)" stroke-width="1" opacity="0.17254901960784313" d="M 62.5 87 L 69 90.5 L 67.5 91 Q 62.9 89.8 62.5 87 Z " /><path fill="rgb(52,177,65)" stroke="rgb(52,177,65)" stroke-width="1" opacity="0.17254901960784313" d="M 17.5 88 L 20 91.5 L 18 90.5 L 17.5 88 Z " /><path fill="rgb(52,177,65)" stroke="rgb(52,177,65)" stroke-width="1" opacity="0.17254901960784313" d="M 110.5 88 L 110 89.5 L 108.5 92 L 109 90.5 L 110.5 88 Z " /><path fill="rgb(52,177,65)" stroke="rgb(52,177,65)" stroke-width="1" opacity="0.17254901960784313" d="M 20.5 93 L 21.5 95 L 20.5 93 Z " /><path fill="rgb(52,177,65)" stroke="rgb(52,177,65)" stroke-width="1" opacity="0.17254901960784313" d="M 77.5 93 L 86 93.5 L 77.5 94 L 77.5 93 Z " /><path fill="rgb(52,177,65)" stroke="rgb(52,177,65)" stroke-width="1" opacity="0.17254901960784313" d="M 107.5 93 L 105.5 96 L 107.5 93 Z " /><path fill="rgb(52,177,65)" stroke="rgb(52,177,65)" stroke-width="1" opacity="0.17254901960784313" d="M 22.5 96 L 23 99.5 L 22 99.5 L 22.5 96 Z " /><path fill="rgb(52,177,65)" stroke="rgb(52,177,65)" stroke-width="1" opacity="0.17254901960784313" d="M 104.5 97 L 96.5 106 L 93.5 108 L 95.5 105 L 104.5 97 Z " /><path fill="rgb(52,177,65)" stroke="rgb(52,177,65)" stroke-width="1" opacity="0.17254901960784313" d="M 118.5 98 L 117.5 100 L 118.5 98 Z " /><path fill="rgb(52,177,65)" stroke="rgb(52,177,65)" stroke-width="1" opacity="0.17254901960784313" d="M 116.5 101 L 114.5 104 L 116.5 101 Z " /><path fill="rgb(52,177,65)" stroke="rgb(52,177,65)" stroke-width="1" opacity="0.17254901960784313" d="M 7.5 103 L 8 104.5 L 6.5 107 L 6 105.5 L 7.5 103 Z " /><path fill="rgb(52,177,65)" stroke="rgb(52,177,65)" stroke-width="1" opacity="0.17254901960784313" d="M 20.5 103 L 21 104.5 L 19.5 107 L 19 105.5 L 20.5 103 Z " /><path fill="rgb(52,177,65)" stroke="rgb(52,177,65)" stroke-width="1" opacity="0.17254901960784313" d="M 113.5 105 L 105.5 114 L 113.5 105 Z " /><path fill="rgb(52,177,65)" stroke="rgb(52,177,65)" stroke-width="1" opacity="0.17254901960784313" d="M 33.5 108 L 36 108.5 L 33.5 109 L 33.5 108 Z " /><path fill="rgb(52,177,65)" stroke="rgb(52,177,65)" stroke-width="1" opacity="0.17254901960784313" d="M 91.5 108 L 90.5 110 L 88.5 111 L 89.5 109 L 91.5 108 Z " /><path fill="rgb(52,177,65)" stroke="rgb(52,177,65)" stroke-width="1" opacity="0.17254901960784313" d="M 85.5 111 L 87 111.5 L 83.5 113 L 83.5 112 L 85.5 111 Z " /><path fill="rgb(52,177,65)" stroke="rgb(52,177,65)" stroke-width="1" opacity="0.17254901960784313" d="M 2.5 114 L 3 115.5 L 1.5 118 L 1 116.5 L 2.5 114 Z " /><path fill="rgb(52,177,65)" stroke="rgb(52,177,65)" stroke-width="1" opacity="0.17254901960784313" d="M 103.5 114 L 101.5 117 L 103.5 114 Z " /><path fill="rgb(52,177,65)" stroke="rgb(52,177,65)" stroke-width="1" opacity="0.17254901960784313" d="M 59.5 116 L 69 116.5 L 59.5 117 L 59.5 116 Z " /><path fill="rgb(52,177,65)" stroke="rgb(52,177,65)" stroke-width="1" opacity="0.17254901960784313" d="M 99.5 117 L 98.5 119 L 99.5 117 Z " /><path fill="rgb(52,177,65)" stroke="rgb(52,177,65)" stroke-width="1" opacity="0.17254901960784313" d="M 0.5 125 L 2.5 128 L 0.5 125 Z " /><path fill="rgb(52,177,65)" stroke="rgb(52,177,65)" stroke-width="1" opacity="0.17254901960784313" d="M 53.5 127 L 56 127.5 L 53.5 128 L 53.5 127 Z " /><path fill="rgb(52,177,65)" stroke="rgb(52,177,65)" stroke-width="1" opacity="0.17254901960784313" d="M 72.5 127 L 75 127.5 L 72.5 128 L 72.5 127 Z " /></svg>