<svg width="128" height="128" version="1.1" xmlns="http://www.w3.org/2000/svg" desc="Created with imagetracer.js version 1.2.6" ><path fill="rgb(74,249,107)" stroke="rgb(74,249,107)" stroke-width="1" opacity="0.9450980392156862" d="M 33.5 5 L 94.5 5 L 107.5 9 L 117 17.5 L 122 27.5 L 120 26.5 L 119 23 L 78.5 23 L 77.5 24 L 72.5 22 L 64.5 22 L 63.5 21 L 50.5 24 L 49.5 23 L 9 23 L 6.5 28 L 7 26.5 Q 9.8 16.3 17.5 11 L 24.5 7 L 33.5 5 Z " /><path fill="rgb(74,249,107)" stroke="rgb(74,249,107)" stroke-width="1" opacity="0.9450980392156862" d="M 40.5 28 L 39.5 30 L 40.5 28 Z " /><path fill="rgb(74,249,107)" stroke="rgb(74,249,107)" stroke-width="1" opacity="0.9450980392156862" d="M 41.5 37 L 38.5 41 L 41.5 37 Z " /><path fill="rgb(74,249,107)" stroke="rgb(74,249,107)" stroke-width="1" opacity="0.9450980392156862" d="M 86.5 37 L 89.5 41 L 86.5 37 Z " /><path fill="rgb(74,249,107)" stroke="rgb(74,249,107)" stroke-width="1" opacity="0.9450980392156862" d="M 105.5 59 L 106 61.5 L 105 61.5 L 105.5 59 Z " /><path fill="rgb(74,249,107)" stroke="rgb(74,249,107)" stroke-width="1" opacity="0.9450980392156862" d="M 52.5 71 L 54.5 74 L 52.5 71 Z " /><path fill="rgb(74,249,107)" stroke="rgb(74,249,107)" stroke-width="1" opacity="0.9450980392156862" d="M 70.5 72 L 69.5 74 L 68 73.5 L 70.5 72 Z " /><path fill="rgb(0,0,0)" stroke="rgb(0,0,0)" stroke-width="1" opacity="0" d="M 0 0 L 128 0 L 128 128 L 0 128 L 0 0 Z M 34 5 L 25 7 L 18 11 Q 7 18 5 33 L 5 95 L 7 104 L 11 111 Q 18 121 33 123 L 96 123 L 104 121 L 111 117 Q 121 110 123 96 L 123 33 L 121 25 L 117 18 L 108 9 L 95 5 L 34 5 Z " /><path fill="rgb(58,241,93)" stroke="rgb(58,241,93)" stroke-width="1" opacity="0.984313725490196" d="M 9 23 L 50 23.5 L 40.5 28 L 34 33 L 25.5 47 L 24.5 46 L 6.5 46 L 5 44.5 L 5 33.5 L 6 28.5 L 9 23 Z " /><path fill="rgb(58,241,93)" stroke="rgb(58,241,93)" stroke-width="1" opacity="0.984313725490196" d="M 78.5 23 L 118.5 23 L 119 24.5 L 122 28.5 L 123 44.5 L 121.5 46 L 102.5 46 Q 97.4 35.6 88.5 29 L 78.5 24 L 78.5 23 Z " /><path fill="rgb(58,241,93)" stroke="rgb(58,241,93)" stroke-width="1" opacity="0.984313725490196" d="M 60.5 29 Q 83.5 29 92 43.5 L 94 46.5 L 92.5 46 L 53.5 46 Q 54.5 42.8 48.5 44 L 45.5 46 L 35.5 46 L 34.5 47 L 36 44.5 L 44.5 35 L 49.5 32 L 60.5 29 Z " /><path fill="rgb(58,241,93)" stroke="rgb(58,241,93)" stroke-width="1" opacity="0.984313725490196" d="M 57.5 65 L 58.5 67 L 57.5 65 Z " /><path fill="rgb(58,241,93)" stroke="rgb(58,241,93)" stroke-width="1" opacity="0.984313725490196" d="M 93.5 92 L 92.5 94 L 93.5 92 Z " /><path fill="rgb(58,241,93)" stroke="rgb(58,241,93)" stroke-width="1" opacity="0.984313725490196" d="M 22.5 104 L 23.5 106 L 22.5 104 Z " /><path fill="rgb(245,253,247)" stroke="rgb(245,253,247)" stroke-width="1" opacity="1" d="M 41.5 36 L 37.5 41 L 41.5 36 Z " /><path fill="rgb(245,253,247)" stroke="rgb(245,253,247)" stroke-width="1" opacity="1" d="M 86.5 36 L 90.5 41 L 86.5 36 Z " /><path fill="rgb(245,253,247)" stroke="rgb(245,253,247)" stroke-width="1" opacity="1" d="M 50.5 44 L 53 45.5 L 51.5 45 L 50.5 44 Z " /><path fill="rgb(245,253,247)" stroke="rgb(245,253,247)" stroke-width="1" opacity="1" d="M 47.5 45 L 46.5 47 L 47.5 45 Z " /><path fill="rgb(245,253,247)" stroke="rgb(245,253,247)" stroke-width="1" opacity="1" d="M 50.5 68 L 56.5 75 L 50.5 68 Z " /><path fill="rgb(245,253,247)" stroke="rgb(245,253,247)" stroke-width="1" opacity="1" d="M 94.5 90 L 91.5 94 L 94.5 90 Z " /><path fill="rgb(245,253,247)" stroke="rgb(245,253,247)" stroke-width="1" opacity="1" d="M 23.5 103 L 24.5 105 L 23.5 103 Z " /><path fill="rgb(255,255,255)" stroke="rgb(255,255,255)" stroke-width="1" opacity="1" d="M 60.5 22 L 67.5 22 L 79.5 25 Q 90.2 29.8 97 38.5 L 104 53.5 L 105 68.5 Q 101.3 86.8 88.5 96 L 74.5 103 L 58.5 104 L 43.5 99 L 23.5 105 L 24 103.5 L 29 83.5 Q 21.8 75.2 23 58.5 Q 26.4 39.4 39.5 30 L 48.5 25 L 60.5 22 Z M 61 28 L 50 31 L 42 36 Q 32 44 29 59 Q 28 75 35 83 L 32 96 L 43 93 L 47 93 L 59 98 Q 77 99 86 91 Q 96 83 99 68 Q 100 49 91 41 Q 82 28 61 28 Z " /><path fill="rgb(255,255,255)" stroke="rgb(255,255,255)" stroke-width="1" opacity="1" d="M 48.5 45 Q 53.3 44.3 54 47.5 L 57 54.5 L 53 58.5 L 53 61.5 L 60.5 70 L 67.5 74 L 71 74 L 74.5 69 L 84 73 Q 85.3 79.4 80.5 81 L 74.5 83 L 62.5 79 L 48 65.5 L 44 56.5 L 44 50.5 L 48.5 45 Z " /><path fill="rgb(43,232,81)" stroke="rgb(43,232,81)" stroke-width="1" opacity="0.9803921568627451" d="M 5.5 45 L 6.5 46 L 25 46 L 22 58.5 L 22 67.5 L 22.5 69 L 21.5 68 L 5 68 L 5.5 45 Z " /><path fill="rgb(43,232,81)" stroke="rgb(43,232,81)" stroke-width="1" opacity="0.9803921568627451" d="M 122.5 45 L 123 68 L 106.5 68 L 105.5 69 L 106 67.5 L 106 58.5 L 104 49.5 L 102 46.5 L 121.5 46 L 122.5 45 Z " /><path fill="rgb(43,232,81)" stroke="rgb(43,232,81)" stroke-width="1" opacity="0.9803921568627451" d="M 35.5 46 L 45 46.5 Q 41.8 49.8 43 57.5 L 49 67.5 L 31.5 68 L 30.5 69 L 30 58.5 L 33 48.5 L 35.5 46 Z " /><path fill="rgb(43,232,81)" stroke="rgb(43,232,81)" stroke-width="1" opacity="0.9803921568627451" d="M 54.5 46 L 92.5 46 L 94 47.5 L 98 58.5 L 98 68.5 L 96.5 68 L 77.5 68 L 76.5 69 L 74.5 68 L 72 69.5 L 72.5 68 L 59.5 68 L 59 66.5 Q 54.6 64.5 54 58.5 L 58 54.5 L 58 51.5 L 54.5 46 Z " /><path fill="rgb(43,232,81)" stroke="rgb(43,232,81)" stroke-width="1" opacity="0.9803921568627451" d="M 83.5 79 L 82.5 81 L 83.5 79 Z " /><path fill="rgb(43,232,81)" stroke="rgb(43,232,81)" stroke-width="1" opacity="0.9803921568627451" d="M 95.5 90 L 94.5 92 L 95.5 90 Z " /><path fill="rgb(206,249,215)" stroke="rgb(206,249,215)" stroke-width="1" opacity="1" d="M 61.5 28 L 66 28.5 L 61.5 29 L 61.5 28 Z " /><path fill="rgb(206,249,215)" stroke="rgb(206,249,215)" stroke-width="1" opacity="1" d="M 37.5 31 L 32.5 37 L 37.5 31 Z " /><path fill="rgb(206,249,215)" stroke="rgb(206,249,215)" stroke-width="1" opacity="1" d="M 90.5 31 L 94.5 36 L 90.5 31 Z " /><path fill="rgb(206,249,215)" stroke="rgb(206,249,215)" stroke-width="1" opacity="1" d="M 43.5 52 L 44 54.5 L 43 54.5 L 43.5 52 Z " /><path fill="rgb(206,249,215)" stroke="rgb(206,249,215)" stroke-width="1" opacity="1" d="M 29.5 59 L 30 61.5 L 29 61.5 L 29.5 59 Z " /><path fill="rgb(206,249,215)" stroke="rgb(206,249,215)" stroke-width="1" opacity="1" d="M 98.5 59 L 99 61.5 L 98 61.5 L 98.5 59 Z " /><path fill="rgb(206,249,215)" stroke="rgb(206,249,215)" stroke-width="1" opacity="1" d="M 98.5 64 L 99 66.5 L 98 66.5 L 98.5 64 Z " /><path fill="rgb(206,249,215)" stroke="rgb(206,249,215)" stroke-width="1" opacity="1" d="M 29.5 65 L 30 67.5 L 29 67.5 L 29.5 65 Z " /><path fill="rgb(206,249,215)" stroke="rgb(206,249,215)" stroke-width="1" opacity="1" d="M 57.5 66 L 59.5 69 L 57.5 66 Z " /><path fill="rgb(206,249,215)" stroke="rgb(206,249,215)" stroke-width="1" opacity="1" d="M 73.5 69 L 72.5 71 L 73.5 69 Z " /><path fill="rgb(206,249,215)" stroke="rgb(206,249,215)" stroke-width="1" opacity="1" d="M 83.5 78 L 81.5 81 L 83.5 78 Z " /><path fill="rgb(206,249,215)" stroke="rgb(206,249,215)" stroke-width="1" opacity="1" d="M 90.5 85 L 86.5 90 L 90.5 85 Z " /><path fill="rgb(206,249,215)" stroke="rgb(206,249,215)" stroke-width="1" opacity="1" d="M 90.5 94 L 89.5 96 L 90.5 94 Z " /><path fill="rgb(25,222,66)" stroke="rgb(25,222,66)" stroke-width="1" opacity="0.9803921568627451" d="M 5 68 L 21.5 68 L 23 69.5 L 23 73.5 L 28 84.5 L 25 95 L 6.5 95 Q 5.5 95 6 90.5 L 5 89.5 L 5 68 Z " /><path fill="rgb(25,222,66)" stroke="rgb(25,222,66)" stroke-width="1" opacity="0.9803921568627451" d="M 31 68 L 48.5 68 L 60.5 79 L 70.5 83 L 78.5 83 L 84 79.5 L 85 73.5 L 77 68.5 L 97 68 Q 95.6 81.9 86.5 89 L 76.5 95 L 54.5 95 L 53.5 96 L 46.5 92 L 42.5 92 L 33.5 95 L 34 93.5 L 36 82.5 Q 31 77.2 31 68 Z " /><path fill="rgb(25,222,66)" stroke="rgb(25,222,66)" stroke-width="1" opacity="0.9803921568627451" d="M 61.5 68 L 73 68.5 L 69.5 73 Q 62.3 71.9 61.5 68 Z " /><path fill="rgb(25,222,66)" stroke="rgb(25,222,66)" stroke-width="1" opacity="0.9803921568627451" d="M 106.5 68 L 123 68 L 123 89.5 L 122 92.5 L 123 95 L 92 94.5 L 102 81.5 L 105 73.5 L 105 69.5 L 106.5 68 Z " /><path fill="rgb(25,222,66)" stroke="rgb(25,222,66)" stroke-width="1" opacity="0.9803921568627451" d="M 90.5 95 L 89.5 97 L 90.5 95 Z " /><path fill="rgb(140,241,160)" stroke="rgb(140,241,160)" stroke-width="1" opacity="0.9921568627450981" d="M 43.5 35 L 42.5 37 L 43.5 35 Z " /><path fill="rgb(140,241,160)" stroke="rgb(140,241,160)" stroke-width="1" opacity="0.9921568627450981" d="M 84.5 35 L 85.5 37 L 84.5 35 Z " /><path fill="rgb(140,241,160)" stroke="rgb(140,241,160)" stroke-width="1" opacity="0.9921568627450981" d="M 95.5 36 L 96.5 38 L 95.5 36 Z " /><path fill="rgb(140,241,160)" stroke="rgb(140,241,160)" stroke-width="1" opacity="0.9921568627450981" d="M 37.5 41 L 36.5 43 L 37.5 41 Z " /><path fill="rgb(140,241,160)" stroke="rgb(140,241,160)" stroke-width="1" opacity="0.9921568627450981" d="M 90.5 41 L 91.5 43 L 90.5 41 Z " /><path fill="rgb(140,241,160)" stroke="rgb(140,241,160)" stroke-width="1" opacity="0.9921568627450981" d="M 57.5 54 L 53.5 59 L 57.5 54 Z " /><path fill="rgb(140,241,160)" stroke="rgb(140,241,160)" stroke-width="1" opacity="0.9921568627450981" d="M 22.5 60 L 23 65.5 L 22 65.5 L 22.5 60 Z " /><path fill="rgb(140,241,160)" stroke="rgb(140,241,160)" stroke-width="1" opacity="0.9921568627450981" d="M 29.5 62 L 30 64.5 L 29 64.5 L 29.5 62 Z " /><path fill="rgb(140,241,160)" stroke="rgb(140,241,160)" stroke-width="1" opacity="0.9921568627450981" d="M 105.5 62 L 106 64.5 L 105 64.5 L 105.5 62 Z " /><path fill="rgb(140,241,160)" stroke="rgb(140,241,160)" stroke-width="1" opacity="0.9921568627450981" d="M 83.5 72 L 84.5 74 L 83.5 72 Z " /><path fill="rgb(140,241,160)" stroke="rgb(140,241,160)" stroke-width="1" opacity="0.9921568627450981" d="M 97.5 87 L 96.5 89 L 97.5 87 Z " /><path fill="rgb(140,241,160)" stroke="rgb(140,241,160)" stroke-width="1" opacity="0.9921568627450981" d="M 60.5 97 L 68 97.5 L 60.5 98 L 60.5 97 Z " /><path fill="rgb(140,241,160)" stroke="rgb(140,241,160)" stroke-width="1" opacity="0.9921568627450981" d="M 61.5 104 L 67 104.5 L 61.5 105 L 61.5 104 Z " /><path fill="rgb(7,212,51)" stroke="rgb(7,212,51)" stroke-width="1" opacity="0.9607843137254902" d="M 5.5 90 L 6 95 L 25 95.5 L 22 106 L 44.5 100 L 57.5 105 L 69.5 105 Q 83.3 102.8 91.5 95 L 122 95 Q 121.1 110.3 110.5 117 L 103.5 121 L 95.5 123 L 32.5 123 Q 18 120.5 11 110.5 L 6 100.5 L 5.5 90 Z " /><path fill="rgb(7,212,51)" stroke="rgb(7,212,51)" stroke-width="1" opacity="0.9607843137254902" d="M 122.5 90 L 123 92.5 L 122 92.5 L 122.5 90 Z " /><path fill="rgb(7,212,51)" stroke="rgb(7,212,51)" stroke-width="1" opacity="0.9607843137254902" d="M 54.5 95 L 74 95.5 Q 68.4 98.4 58.5 97 L 54.5 96 L 54.5 95 Z " /></svg>